%FSLAX25Y25*%
%MOIN*%
G70*
G01*
G75*
G04 Layer_Color=2752767*
%ADD10R,0.03937X0.03937*%
%ADD11O,0.02362X0.08661*%
%ADD12R,0.02559X0.04331*%
%ADD13R,0.03937X0.03543*%
%ADD14R,0.03543X0.03937*%
%ADD15R,0.05118X0.07087*%
%ADD16R,0.03937X0.04331*%
%ADD17R,0.03937X0.03937*%
%ADD18R,0.04331X0.02559*%
%ADD19O,0.01378X0.06693*%
%ADD20O,0.06693X0.01772*%
%ADD21R,0.09449X0.03937*%
%ADD22R,0.09449X0.12992*%
%ADD23C,0.03000*%
%ADD24C,0.00700*%
%ADD25C,0.01969*%
%ADD26C,0.05000*%
%ADD27C,0.00800*%
%ADD28C,0.04000*%
%ADD29C,0.02000*%
%ADD30C,0.00787*%
%ADD31C,0.01500*%
%ADD32C,0.01000*%
%ADD33C,0.02500*%
%ADD34C,0.01969*%
%ADD35R,0.05906X0.05906*%
%ADD36C,0.05906*%
%ADD37C,0.07874*%
%ADD38C,0.03000*%
%ADD39R,0.01181X0.04331*%
%ADD40R,0.02756X0.05906*%
%ADD41R,0.06299X0.12205*%
%ADD42C,0.00984*%
%ADD43C,0.02362*%
%ADD44C,0.00500*%
%ADD45R,0.00600X0.00200*%
%ADD46R,0.01000X0.00200*%
%ADD47R,0.01600X0.00200*%
%ADD48R,0.01400X0.00200*%
%ADD49R,0.02000X0.00200*%
%ADD50R,0.02600X0.00200*%
%ADD51R,0.02400X0.00200*%
%ADD52R,0.03000X0.00200*%
%ADD53R,0.03400X0.00200*%
%ADD54R,0.00400X0.00200*%
%ADD55R,0.04000X0.00200*%
%ADD56R,0.04400X0.00200*%
%ADD57R,0.06800X0.00200*%
%ADD58R,0.06600X0.00200*%
%ADD59R,0.07000X0.00200*%
%ADD60R,0.07200X0.00200*%
%ADD61R,0.07600X0.00200*%
%ADD62R,0.07400X0.00200*%
%ADD63R,0.08000X0.00200*%
%ADD64R,0.07800X0.00200*%
%ADD65R,0.08400X0.00200*%
%ADD66R,0.09200X0.00200*%
%ADD67R,0.10200X0.00200*%
%ADD68R,0.10000X0.00200*%
%ADD69R,0.09800X0.00200*%
%ADD70R,0.10400X0.00200*%
%ADD71R,0.09000X0.00200*%
%ADD72R,0.19000X0.00200*%
%ADD73R,0.18600X0.00200*%
%ADD74R,0.18200X0.00200*%
%ADD75R,0.18400X0.00200*%
%ADD76R,0.19200X0.00200*%
%ADD77R,0.19400X0.00200*%
%ADD78R,0.19800X0.00200*%
%ADD79R,0.20000X0.00200*%
%ADD80R,0.20200X0.00200*%
%ADD81R,0.20600X0.00200*%
%ADD82R,0.21000X0.00200*%
%ADD83R,0.21400X0.00200*%
%ADD84R,0.21800X0.00200*%
%ADD85R,0.22200X0.00200*%
%ADD86R,0.04800X0.00200*%
%ADD87R,0.08600X0.00200*%
%ADD88R,0.03800X0.00200*%
%ADD89R,0.05800X0.00200*%
%ADD90R,0.02800X0.00200*%
%ADD91R,0.05000X0.00200*%
%ADD92R,0.01800X0.00200*%
%ADD93R,0.04600X0.00200*%
%ADD94R,0.04200X0.00200*%
%ADD95R,0.00800X0.00200*%
%ADD96R,0.05400X0.00200*%
%ADD97R,0.02200X0.00200*%
%ADD98R,0.06400X0.00200*%
%ADD99R,0.03600X0.00200*%
%ADD100R,0.01200X0.00200*%
%ADD101R,0.11800X0.00200*%
%ADD102R,0.11600X0.00200*%
%ADD103R,0.00200X0.00200*%
%ADD104C,0.00492*%
%ADD105C,0.00600*%
G04:AMPARAMS|DCode=106|XSize=78.74mil|YSize=78.74mil|CornerRadius=19.69mil|HoleSize=0mil|Usage=FLASHONLY|Rotation=0.000|XOffset=0mil|YOffset=0mil|HoleType=Round|Shape=RoundedRectangle|*
%AMROUNDEDRECTD106*
21,1,0.07874,0.03937,0,0,0.0*
21,1,0.03937,0.07874,0,0,0.0*
1,1,0.03937,0.01969,-0.01969*
1,1,0.03937,-0.01969,-0.01969*
1,1,0.03937,-0.01969,0.01969*
1,1,0.03937,0.01969,0.01969*
%
%ADD106ROUNDEDRECTD106*%
%ADD107R,0.04488X0.04488*%
%ADD108O,0.02913X0.09213*%
%ADD109R,0.03150X0.04921*%
%ADD110R,0.04488X0.04095*%
%ADD111R,0.04095X0.04488*%
%ADD112R,0.05669X0.07638*%
%ADD113R,0.04488X0.04882*%
%ADD114R,0.04488X0.04488*%
%ADD115R,0.04921X0.03150*%
%ADD116O,0.01929X0.07244*%
%ADD117O,0.07244X0.02323*%
%ADD118R,0.10000X0.04488*%
%ADD119R,0.10000X0.13543*%
%ADD120C,0.02520*%
%ADD121R,0.06457X0.06457*%
%ADD122C,0.06457*%
%ADD123C,0.19685*%
%ADD124C,0.03551*%
%ADD125R,0.00984X0.04134*%
%ADD126R,0.02559X0.05709*%
%ADD127R,0.06850X0.12756*%
%ADD128C,0.00709*%
%ADD129R,0.72835X0.22441*%
%ADD130C,0.00591*%
%ADD131C,0.03937*%
%ADD132C,0.00100*%
%ADD133C,0.00133*%
D132*
X582994Y233033D02*
Y233833D01*
X583794D01*
Y233033D01*
X582994D01*
X686931D02*
Y233833D01*
X687731D01*
Y233033D01*
X686931D01*
X718039Y209411D02*
X717639Y210211D01*
X718439D01*
X718039Y209411D01*
X544811D02*
X544411Y210211D01*
X545211D01*
X544811Y209411D01*
X718039Y315710D02*
X717639Y316510D01*
X718439D01*
X718039Y315710D01*
X608984Y267285D02*
X609184Y267485D01*
X609384D01*
X609184Y267685D01*
X609384Y267885D01*
X609184D01*
X608984Y268085D01*
X608784Y267885D01*
X608584D01*
X608784Y267685D01*
X608584Y267485D01*
X608784D01*
X608984Y267285D01*
X544811Y263348D02*
X545011Y263548D01*
X545211D01*
X545011Y263748D01*
X545211Y263948D01*
X545011D01*
X544811Y264148D01*
X544611Y263948D01*
X544411D01*
X544611Y263748D01*
X544411Y263548D01*
X544611D01*
X544811Y263348D01*
Y251931D02*
X545011Y252131D01*
X545211D01*
X545011Y252331D01*
X545211Y252531D01*
X545011D01*
X544811Y252731D01*
X544611Y252531D01*
X544411D01*
X544611Y252331D01*
X544411Y252131D01*
X544611D01*
X544811Y251931D01*
X592055Y269647D02*
X592255Y269847D01*
X592455D01*
X592255Y270047D01*
X592455Y270247D01*
X592255D01*
X592055Y270447D01*
X591855Y270247D01*
X591655D01*
X591855Y270047D01*
X591655Y269847D01*
X591855D01*
X592055Y269647D01*
X582213Y265710D02*
X582413Y265910D01*
X582613D01*
X582413Y266110D01*
X582613Y266310D01*
X582413D01*
X582213Y266510D01*
X582013Y266310D01*
X581813D01*
X582013Y266110D01*
X581813Y265910D01*
X582013D01*
X582213Y265710D01*
X590874Y288151D02*
X591074Y288351D01*
X591274D01*
X591074Y288551D01*
X591274Y288751D01*
X591074D01*
X590874Y288951D01*
X590674Y288751D01*
X590474D01*
X590674Y288551D01*
X590474Y288351D01*
X590674D01*
X590874Y288151D01*
X573551Y284214D02*
X573751Y284414D01*
X573951D01*
X573751Y284614D01*
X573951Y284814D01*
X573751D01*
X573551Y285014D01*
X573351Y284814D01*
X573151D01*
X573351Y284614D01*
X573151Y284414D01*
X573351D01*
X573551Y284214D01*
X592055Y263348D02*
X592255Y263548D01*
X592455D01*
X592255Y263748D01*
X592455Y263948D01*
X592255D01*
X592055Y264148D01*
X591855Y263948D01*
X591655D01*
X591855Y263748D01*
X591655Y263548D01*
X591855D01*
X592055Y263348D01*
X546779Y307442D02*
X546980Y307643D01*
X547180D01*
X546980Y307842D01*
X547180Y308043D01*
X546980D01*
X546779Y308243D01*
X546580Y308043D01*
X546380D01*
X546580Y307842D01*
X546380Y307643D01*
X546580D01*
X546779Y307442D01*
X564496Y270435D02*
X564696Y270635D01*
X564896D01*
X564696Y270835D01*
X564896Y271035D01*
X564696D01*
X564496Y271235D01*
X564296Y271035D01*
X564096D01*
X564296Y270835D01*
X564096Y270635D01*
X564296D01*
X564496Y270435D01*
X560972Y262187D02*
X561172Y262387D01*
X561373D01*
X561172Y262587D01*
X561373Y262787D01*
X561172D01*
X560972Y262987D01*
X560773Y262787D01*
X560572D01*
X560773Y262587D01*
X560572Y262387D01*
X560773D01*
X560972Y262187D01*
X573551Y264529D02*
X573751Y264729D01*
X573951D01*
X573751Y264929D01*
X573951Y265129D01*
X573751D01*
X573551Y265329D01*
X573351Y265129D01*
X573151D01*
X573351Y264929D01*
X573151Y264729D01*
X573351D01*
X573551Y264529D01*
X693532Y192876D02*
X693731Y193076D01*
X693931D01*
X693731Y193276D01*
X693931Y193476D01*
X693731D01*
X693532Y193676D01*
X693331Y193476D01*
X693131D01*
X693331Y193276D01*
X693131Y193076D01*
X693331D01*
X693532Y192876D01*
X646287D02*
X646487Y193076D01*
X646687D01*
X646487Y193276D01*
X646687Y193476D01*
X646487D01*
X646287Y193676D01*
X646087Y193476D01*
X645887D01*
X646087Y193276D01*
X645887Y193076D01*
X646087D01*
X646287Y192876D01*
X688413D02*
X688613Y193076D01*
X688813D01*
X688613Y193276D01*
X688813Y193476D01*
X688613D01*
X688413Y193676D01*
X688213Y193476D01*
X688013D01*
X688213Y193276D01*
X688013Y193076D01*
X688213D01*
X688413Y192876D01*
X690972Y205868D02*
X691172Y206068D01*
X691372D01*
X691172Y206268D01*
X691372Y206468D01*
X691172D01*
X690972Y206668D01*
X690772Y206468D01*
X690572D01*
X690772Y206268D01*
X690572Y206068D01*
X690772D01*
X690972Y205868D01*
X685854Y205868D02*
X686054Y206068D01*
X686254D01*
X686054Y206268D01*
X686254Y206468D01*
X686054D01*
X685854Y206668D01*
X685654Y206468D01*
X685454D01*
X685654Y206268D01*
X685454Y206068D01*
X685654D01*
X685854Y205868D01*
X589595Y190907D02*
X589794Y191107D01*
X589994D01*
X589794Y191307D01*
X589994Y191507D01*
X589794D01*
X589595Y191707D01*
X589395Y191507D01*
X589194D01*
X589395Y191307D01*
X589194Y191107D01*
X589395D01*
X589595Y190907D01*
X638610Y205868D02*
X638810Y206068D01*
X639010D01*
X638810Y206268D01*
X639010Y206468D01*
X638810D01*
X638610Y206668D01*
X638410Y206468D01*
X638210D01*
X638410Y206268D01*
X638210Y206068D01*
X638410D01*
X638610Y205868D01*
X683295Y192876D02*
X683495Y193076D01*
X683695D01*
X683495Y193276D01*
X683695Y193476D01*
X683495D01*
X683295Y193676D01*
X683095Y193476D01*
X682895D01*
X683095Y193276D01*
X682895Y193076D01*
X683095D01*
X683295Y192876D01*
X597272Y203899D02*
X597472Y204099D01*
X597672D01*
X597472Y204299D01*
X597672Y204499D01*
X597472D01*
X597272Y204699D01*
X597072Y204499D01*
X596872D01*
X597072Y204299D01*
X596872Y204099D01*
X597072D01*
X597272Y203899D01*
X599831Y190907D02*
X600031Y191107D01*
X600231D01*
X600031Y191307D01*
X600231Y191507D01*
X600031D01*
X599831Y191707D01*
X599631Y191507D01*
X599431D01*
X599631Y191307D01*
X599431Y191107D01*
X599631D01*
X599831Y190907D01*
X587035Y203899D02*
X587235Y204099D01*
X587435D01*
X587235Y204299D01*
X587435Y204499D01*
X587235D01*
X587035Y204699D01*
X586835Y204499D01*
X586635D01*
X586835Y204299D01*
X586635Y204099D01*
X586835D01*
X587035Y203899D01*
X675618Y205868D02*
X675818Y206068D01*
X676018D01*
X675818Y206268D01*
X676018Y206468D01*
X675818D01*
X675618Y206668D01*
X675418Y206468D01*
X675218D01*
X675418Y206268D01*
X675218Y206068D01*
X675418D01*
X675618Y205868D01*
X648846Y205868D02*
X649047Y206068D01*
X649247D01*
X649047Y206268D01*
X649247Y206468D01*
X649047D01*
X648846Y206668D01*
X648646Y206468D01*
X648447D01*
X648646Y206268D01*
X648447Y206068D01*
X648646D01*
X648846Y205868D01*
X651405Y192876D02*
X651606Y193076D01*
X651805D01*
X651606Y193276D01*
X651805Y193476D01*
X651606D01*
X651405Y193676D01*
X651205Y193476D01*
X651006D01*
X651205Y193276D01*
X651006Y193076D01*
X651205D01*
X651405Y192876D01*
X602390Y203899D02*
X602590Y204099D01*
X602790D01*
X602590Y204299D01*
X602790Y204499D01*
X602590D01*
X602390Y204699D01*
X602190Y204499D01*
X601990D01*
X602190Y204299D01*
X601990Y204099D01*
X602190D01*
X602390Y203899D01*
X604949Y190907D02*
X605149Y191107D01*
X605349D01*
X605149Y191307D01*
X605349Y191507D01*
X605149D01*
X604949Y191707D01*
X604749Y191507D01*
X604549D01*
X604749Y191307D01*
X604549Y191107D01*
X604749D01*
X604949Y190907D01*
X678177Y192876D02*
X678377Y193076D01*
X678577D01*
X678377Y193276D01*
X678577Y193476D01*
X678377D01*
X678177Y193676D01*
X677977Y193476D01*
X677777D01*
X677977Y193276D01*
X677777Y193076D01*
X677977D01*
X678177Y192876D01*
X680736Y205868D02*
X680936Y206068D01*
X681136D01*
X680936Y206268D01*
X681136Y206468D01*
X680936D01*
X680736Y206668D01*
X680536Y206468D01*
X680336D01*
X680536Y206268D01*
X680336Y206068D01*
X680536D01*
X680736Y205868D01*
X592154Y203899D02*
X592353Y204099D01*
X592554D01*
X592353Y204299D01*
X592554Y204499D01*
X592353D01*
X592154Y204699D01*
X591954Y204499D01*
X591753D01*
X591954Y204299D01*
X591753Y204099D01*
X591954D01*
X592154Y203899D01*
X594713Y190907D02*
X594913Y191107D01*
X595113D01*
X594913Y191307D01*
X595113Y191507D01*
X594913D01*
X594713Y191707D01*
X594513Y191507D01*
X594313D01*
X594513Y191307D01*
X594313Y191107D01*
X594513D01*
X594713Y190907D01*
X636051Y192876D02*
X636251Y193076D01*
X636451D01*
X636251Y193276D01*
X636451Y193476D01*
X636251D01*
X636051Y193676D01*
X635851Y193476D01*
X635651D01*
X635851Y193276D01*
X635651Y193076D01*
X635851D01*
X636051Y192876D01*
X633492Y205868D02*
X633692Y206068D01*
X633892D01*
X633692Y206268D01*
X633892Y206468D01*
X633692D01*
X633492Y206668D01*
X633292Y206468D01*
X633092D01*
X633292Y206268D01*
X633092Y206068D01*
X633292D01*
X633492Y205868D01*
X643728D02*
X643928Y206068D01*
X644128D01*
X643928Y206268D01*
X644128Y206468D01*
X643928D01*
X643728Y206668D01*
X643528Y206468D01*
X643328D01*
X643528Y206268D01*
X643328Y206068D01*
X643528D01*
X643728Y205868D01*
X641169Y192876D02*
X641369Y193076D01*
X641569D01*
X641369Y193276D01*
X641569Y193476D01*
X641369D01*
X641169Y193676D01*
X640969Y193476D01*
X640769D01*
X640969Y193276D01*
X640769Y193076D01*
X640969D01*
X641169Y192876D01*
X587331Y166891D02*
X587531Y167091D01*
X587731D01*
X587531Y167291D01*
X587731Y167491D01*
X587531D01*
X587331Y167691D01*
X587131Y167491D01*
X586931D01*
X587131Y167291D01*
X586931Y167091D01*
X587131D01*
X587331Y166891D01*
X582606Y164135D02*
X582806Y164335D01*
X583006D01*
X582806Y164535D01*
X583006Y164735D01*
X582806D01*
X582606Y164935D01*
X582406Y164735D01*
X582206D01*
X582406Y164535D01*
X582206Y164335D01*
X582406D01*
X582606Y164135D01*
X577488Y167285D02*
X577688Y167485D01*
X577888D01*
X577688Y167685D01*
X577888Y167885D01*
X577688D01*
X577488Y168085D01*
X577288Y167885D01*
X577088D01*
X577288Y167685D01*
X577088Y167485D01*
X577288D01*
X577488Y167285D01*
X680736Y169254D02*
X680936Y169454D01*
X681136D01*
X680936Y169653D01*
X681136Y169853D01*
X680936D01*
X680736Y170054D01*
X680536Y169853D01*
X680336D01*
X680536Y169653D01*
X680336Y169454D01*
X680536D01*
X680736Y169254D01*
X675913D02*
X676113Y169454D01*
X676313D01*
X676113Y169653D01*
X676313Y169853D01*
X676113D01*
X675913Y170054D01*
X675713Y169853D01*
X675513D01*
X675713Y169653D01*
X675513Y169454D01*
X675713D01*
X675913Y169254D01*
X675618Y183328D02*
X675818Y183528D01*
X676018D01*
X675818Y183728D01*
X676018Y183928D01*
X675818D01*
X675618Y184128D01*
X675418Y183928D01*
X675218D01*
X675418Y183728D01*
X675218Y183528D01*
X675418D01*
X675618Y183328D01*
X670402Y169254D02*
X670602Y169454D01*
X670802D01*
X670602Y169653D01*
X670802Y169853D01*
X670602D01*
X670402Y170054D01*
X670202Y169853D01*
X670002D01*
X670202Y169653D01*
X670002Y169454D01*
X670202D01*
X670402Y169254D01*
X650716Y168860D02*
X650916Y169060D01*
X651117D01*
X650916Y169260D01*
X651117Y169460D01*
X650916D01*
X650716Y169660D01*
X650517Y169460D01*
X650316D01*
X650517Y169260D01*
X650316Y169060D01*
X650517D01*
X650716Y168860D01*
X598354Y250356D02*
X598554Y250556D01*
X598754D01*
X598554Y250756D01*
X598754Y250956D01*
X598554D01*
X598354Y251156D01*
X598154Y250956D01*
X597954D01*
X598154Y250756D01*
X597954Y250556D01*
X598154D01*
X598354Y250356D01*
X599929Y236183D02*
X600129Y236383D01*
X600329D01*
X600129Y236583D01*
X600329Y236783D01*
X600129D01*
X599929Y236983D01*
X599729Y236783D01*
X599529D01*
X599729Y236583D01*
X599529Y236383D01*
X599729D01*
X599929Y236183D01*
X623551Y249175D02*
X623751Y249375D01*
X623951D01*
X623751Y249575D01*
X623951Y249775D01*
X623751D01*
X623551Y249975D01*
X623351Y249775D01*
X623151D01*
X623351Y249575D01*
X623151Y249375D01*
X623351D01*
X623551Y249175D01*
X647173D02*
X647373Y249375D01*
X647573D01*
X647373Y249575D01*
X647573Y249775D01*
X647373D01*
X647173Y249975D01*
X646973Y249775D01*
X646773D01*
X646973Y249575D01*
X646773Y249375D01*
X646973D01*
X647173Y249175D01*
X670795D02*
X670995Y249375D01*
X671195D01*
X670995Y249575D01*
X671195Y249775D01*
X670995D01*
X670795Y249975D01*
X670595Y249775D01*
X670395D01*
X670595Y249575D01*
X670395Y249375D01*
X670595D01*
X670795Y249175D01*
Y216891D02*
X670995Y217091D01*
X671195D01*
X670995Y217291D01*
X671195Y217491D01*
X670995D01*
X670795Y217691D01*
X670595Y217491D01*
X670395D01*
X670595Y217291D01*
X670395Y217091D01*
X670595D01*
X670795Y216891D01*
X647173Y230277D02*
X647373Y230477D01*
X647573D01*
X647373Y230677D01*
X647573Y230877D01*
X647373D01*
X647173Y231077D01*
X646973Y230877D01*
X646773D01*
X646973Y230677D01*
X646773Y230477D01*
X646973D01*
X647173Y230277D01*
X623551D02*
X623751Y230477D01*
X623951D01*
X623751Y230677D01*
X623951Y230877D01*
X623751D01*
X623551Y231077D01*
X623351Y230877D01*
X623151D01*
X623351Y230677D01*
X623151Y230477D01*
X623351D01*
X623551Y230277D01*
X599929D02*
X600129Y230477D01*
X600329D01*
X600129Y230677D01*
X600329Y230877D01*
X600129D01*
X599929Y231077D01*
X599729Y230877D01*
X599529D01*
X599729Y230677D01*
X599529Y230477D01*
X599729D01*
X599929Y230277D01*
X610756Y229293D02*
X610956Y229493D01*
X611156D01*
X610956Y229693D01*
X611156Y229893D01*
X610956D01*
X610756Y230093D01*
X610556Y229893D01*
X610356D01*
X610556Y229693D01*
X610356Y229493D01*
X610556D01*
X610756Y229293D01*
X616661Y229293D02*
X616861Y229493D01*
X617061D01*
X616861Y229693D01*
X617061Y229893D01*
X616861D01*
X616661Y230093D01*
X616461Y229893D01*
X616261D01*
X616461Y229693D01*
X616261Y229493D01*
X616461D01*
X616661Y229293D01*
X628472Y229293D02*
X628672Y229493D01*
X628872D01*
X628672Y229693D01*
X628872Y229893D01*
X628672D01*
X628472Y230093D01*
X628272Y229893D01*
X628072D01*
X628272Y229693D01*
X628072Y229493D01*
X628272D01*
X628472Y229293D01*
X634378D02*
X634578Y229493D01*
X634778D01*
X634578Y229693D01*
X634778Y229893D01*
X634578D01*
X634378Y230093D01*
X634178Y229893D01*
X633978D01*
X634178Y229693D01*
X633978Y229493D01*
X634178D01*
X634378Y229293D01*
X640283D02*
X640484Y229493D01*
X640684D01*
X640484Y229693D01*
X640684Y229893D01*
X640484D01*
X640283Y230093D01*
X640084Y229893D01*
X639884D01*
X640084Y229693D01*
X639884Y229493D01*
X640084D01*
X640283Y229293D01*
X654063Y229293D02*
X654263Y229493D01*
X654463D01*
X654263Y229693D01*
X654463Y229893D01*
X654263D01*
X654063Y230093D01*
X653863Y229893D01*
X653663D01*
X653863Y229693D01*
X653663Y229493D01*
X653863D01*
X654063Y229293D01*
X658000Y229293D02*
X658200Y229493D01*
X658400D01*
X658200Y229693D01*
X658400Y229893D01*
X658200D01*
X658000Y230093D01*
X657800Y229893D01*
X657600D01*
X657800Y229693D01*
X657600Y229493D01*
X657800D01*
X658000Y229293D01*
X665874Y249765D02*
X666074Y249965D01*
X666274D01*
X666074Y250165D01*
X666274Y250365D01*
X666074D01*
X665874Y250565D01*
X665674Y250365D01*
X665474D01*
X665674Y250165D01*
X665474Y249965D01*
X665674D01*
X665874Y249765D01*
X654063Y249765D02*
X654263Y249965D01*
X654463D01*
X654263Y250165D01*
X654463Y250365D01*
X654263D01*
X654063Y250565D01*
X653863Y250365D01*
X653663D01*
X653863Y250165D01*
X653663Y249965D01*
X653863D01*
X654063Y249765D01*
X642252Y249765D02*
X642452Y249965D01*
X642652D01*
X642452Y250165D01*
X642652Y250365D01*
X642452D01*
X642252Y250565D01*
X642052Y250365D01*
X641852D01*
X642052Y250165D01*
X641852Y249965D01*
X642052D01*
X642252Y249765D01*
X636346D02*
X636547Y249965D01*
X636747D01*
X636547Y250165D01*
X636747Y250365D01*
X636547D01*
X636346Y250565D01*
X636146Y250365D01*
X635947D01*
X636146Y250165D01*
X635947Y249965D01*
X636146D01*
X636346Y249765D01*
X630441D02*
X630641Y249965D01*
X630841D01*
X630641Y250165D01*
X630841Y250365D01*
X630641D01*
X630441Y250565D01*
X630241Y250365D01*
X630041D01*
X630241Y250165D01*
X630041Y249965D01*
X630241D01*
X630441Y249765D01*
X612724D02*
X612924Y249965D01*
X613124D01*
X612924Y250165D01*
X613124Y250365D01*
X612924D01*
X612724Y250565D01*
X612524Y250365D01*
X612324D01*
X612524Y250165D01*
X612324Y249965D01*
X612524D01*
X612724Y249765D01*
X606819D02*
X607019Y249965D01*
X607219D01*
X607019Y250165D01*
X607219Y250365D01*
X607019D01*
X606819Y250565D01*
X606619Y250365D01*
X606419D01*
X606619Y250165D01*
X606419Y249965D01*
X606619D01*
X606819Y249765D01*
X594811Y227521D02*
X595011Y227721D01*
X595211D01*
X595011Y227921D01*
X595211Y228121D01*
X595011D01*
X594811Y228321D01*
X594611Y228121D01*
X594411D01*
X594611Y227921D01*
X594411Y227721D01*
X594611D01*
X594811Y227521D01*
X590087D02*
X590287Y227721D01*
X590487D01*
X590287Y227921D01*
X590487Y228121D01*
X590287D01*
X590087Y228321D01*
X589887Y228121D01*
X589687D01*
X589887Y227921D01*
X589687Y227721D01*
X589887D01*
X590087Y227521D01*
X592449Y231458D02*
X592649Y231658D01*
X592849D01*
X592649Y231858D01*
X592849Y232058D01*
X592649D01*
X592449Y232258D01*
X592249Y232058D01*
X592049D01*
X592249Y231858D01*
X592049Y231658D01*
X592249D01*
X592449Y231458D01*
X677882Y249569D02*
X678082Y249768D01*
X678282D01*
X678082Y249969D01*
X678282Y250168D01*
X678082D01*
X677882Y250368D01*
X677682Y250168D01*
X677482D01*
X677682Y249969D01*
X677482Y249768D01*
X677682D01*
X677882Y249569D01*
X628276Y317285D02*
X628476Y317485D01*
X628676D01*
X628476Y317685D01*
X628676Y317885D01*
X628476D01*
X628276Y318085D01*
X628076Y317885D01*
X627876D01*
X628076Y317685D01*
X627876Y317485D01*
X628076D01*
X628276Y317285D01*
X632409Y317088D02*
X632610Y317288D01*
X632809D01*
X632610Y317488D01*
X632809Y317688D01*
X632610D01*
X632409Y317888D01*
X632209Y317688D01*
X632010D01*
X632209Y317488D01*
X632010Y317288D01*
X632209D01*
X632409Y317088D01*
X632213Y321616D02*
X632413Y321816D01*
X632613D01*
X632413Y322016D01*
X632613Y322216D01*
X632413D01*
X632213Y322416D01*
X632013Y322216D01*
X631813D01*
X632013Y322016D01*
X631813Y321816D01*
X632013D01*
X632213Y321616D01*
X603866Y294450D02*
X604066Y294650D01*
X604266D01*
X604066Y294850D01*
X604266Y295050D01*
X604066D01*
X603866Y295250D01*
X603666Y295050D01*
X603466D01*
X603666Y294850D01*
X603466Y294650D01*
X603666D01*
X603866Y294450D01*
X628374Y205769D02*
X628574Y205969D01*
X628774D01*
X628574Y206169D01*
X628774Y206369D01*
X628574D01*
X628374Y206569D01*
X628174Y206369D01*
X627974D01*
X628174Y206169D01*
X627974Y205969D01*
X628174D01*
X628374Y205769D01*
X630933Y192974D02*
X631133Y193174D01*
X631333D01*
X631133Y193374D01*
X631333Y193574D01*
X631133D01*
X630933Y193774D01*
X630733Y193574D01*
X630533D01*
X630733Y193374D01*
X630533Y193174D01*
X630733D01*
X630933Y192974D01*
X628374Y183328D02*
X628574Y183528D01*
X628774D01*
X628574Y183728D01*
X628774Y183928D01*
X628574D01*
X628374Y184128D01*
X628174Y183928D01*
X627974D01*
X628174Y183728D01*
X627974Y183528D01*
X628174D01*
X628374Y183328D01*
X609378Y207049D02*
X609578Y207249D01*
X609778D01*
X609578Y207449D01*
X609778Y207649D01*
X609578D01*
X609378Y207849D01*
X609178Y207649D01*
X608978D01*
X609178Y207449D01*
X608978Y207249D01*
X609178D01*
X609378Y207049D01*
X619220Y205080D02*
X619420Y205280D01*
X619621D01*
X619420Y205480D01*
X619621Y205680D01*
X619420D01*
X619220Y205880D01*
X619021Y205680D01*
X618820D01*
X619021Y205480D01*
X618820Y205280D01*
X619021D01*
X619220Y205080D01*
X613709Y207049D02*
X613909Y207249D01*
X614109D01*
X613909Y207449D01*
X614109Y207649D01*
X613909D01*
X613709Y207849D01*
X613509Y207649D01*
X613309D01*
X613509Y207449D01*
X613309Y207249D01*
X613509D01*
X613709Y207049D01*
X621583Y191694D02*
X621783Y191894D01*
X621983D01*
X621783Y192095D01*
X621983Y192295D01*
X621783D01*
X621583Y192494D01*
X621383Y192295D01*
X621183D01*
X621383Y192095D01*
X621183Y191894D01*
X621383D01*
X621583Y191694D01*
X665109Y206655D02*
X665309Y206855D01*
X665509D01*
X665309Y207055D01*
X665509Y207255D01*
X665309D01*
X665109Y207455D01*
X664909Y207255D01*
X664709D01*
X664909Y207055D01*
X664709Y206855D01*
X664909D01*
X665109Y206655D01*
X661521Y203899D02*
X661721Y204099D01*
X661921D01*
X661721Y204299D01*
X661921Y204499D01*
X661721D01*
X661521Y204699D01*
X661321Y204499D01*
X661121D01*
X661321Y204299D01*
X661121Y204099D01*
X661321D01*
X661521Y203899D01*
X669073Y192728D02*
X669273Y192928D01*
X669473D01*
X669273Y193128D01*
X669473Y193328D01*
X669273D01*
X669073Y193528D01*
X668873Y193328D01*
X668673D01*
X668873Y193128D01*
X668673Y192928D01*
X668873D01*
X669073Y192728D01*
X668433Y182639D02*
X668633Y182839D01*
X668833D01*
X668633Y183039D01*
X668833Y183239D01*
X668633D01*
X668433Y183439D01*
X668233Y183239D01*
X668033D01*
X668233Y183039D01*
X668033Y182839D01*
X668233D01*
X668433Y182639D01*
X658984Y192876D02*
X659184Y193076D01*
X659384D01*
X659184Y193276D01*
X659384Y193476D01*
X659184D01*
X658984Y193676D01*
X658784Y193476D01*
X658584D01*
X658784Y193276D01*
X658584Y193076D01*
X658784D01*
X658984Y192876D01*
X661346Y170828D02*
X661547Y171028D01*
X661747D01*
X661547Y171228D01*
X661747Y171428D01*
X661547D01*
X661346Y171628D01*
X661146Y171428D01*
X660947D01*
X661146Y171228D01*
X660947Y171028D01*
X661146D01*
X661346Y170828D01*
X618433Y167285D02*
X618633Y167485D01*
X618833D01*
X618633Y167685D01*
X618833Y167885D01*
X618633D01*
X618433Y168085D01*
X618233Y167885D01*
X618033D01*
X618233Y167685D01*
X618033Y167485D01*
X618233D01*
X618433Y167285D01*
X694811Y166104D02*
X695011Y166304D01*
X695211D01*
X695011Y166504D01*
X695211Y166704D01*
X695011D01*
X694811Y166904D01*
X694611Y166704D01*
X694411D01*
X694611Y166504D01*
X694411Y166304D01*
X694611D01*
X694811Y166104D01*
X673748Y229884D02*
X673948Y230083D01*
X674148D01*
X673948Y230283D01*
X674148Y230484D01*
X673948D01*
X673748Y230683D01*
X673548Y230484D01*
X673348D01*
X673548Y230283D01*
X673348Y230083D01*
X673548D01*
X673748Y229884D01*
X606228Y185002D02*
X606428Y185202D01*
X606628D01*
X606428Y185402D01*
X606628Y185602D01*
X606428D01*
X606228Y185802D01*
X606028Y185602D01*
X605828D01*
X606028Y185402D01*
X605828Y185202D01*
X606028D01*
X606228Y185002D01*
X701898Y170828D02*
X702098Y171028D01*
X702298D01*
X702098Y171228D01*
X702298Y171428D01*
X702098D01*
X701898Y171628D01*
X701698Y171428D01*
X701498D01*
X701698Y171228D01*
X701498Y171028D01*
X701698D01*
X701898Y170828D01*
X700716Y184214D02*
X700916Y184414D01*
X701117D01*
X700916Y184614D01*
X701117Y184814D01*
X700916D01*
X700716Y185014D01*
X700517Y184814D01*
X700316D01*
X700517Y184614D01*
X700316Y184414D01*
X700517D01*
X700716Y184214D01*
X693630Y213742D02*
X693830Y213942D01*
X694030D01*
X693830Y214142D01*
X694030Y214342D01*
X693830D01*
X693630Y214542D01*
X693430Y214342D01*
X693230D01*
X693430Y214142D01*
X693230Y213942D01*
X693430D01*
X693630Y213742D01*
X661740Y262561D02*
X661940Y262761D01*
X662140D01*
X661940Y262961D01*
X662140Y263161D01*
X661940D01*
X661740Y263361D01*
X661540Y263161D01*
X661340D01*
X661540Y262961D01*
X661340Y262761D01*
X661540D01*
X661740Y262561D01*
Y268860D02*
X661940Y269060D01*
X662140D01*
X661940Y269260D01*
X662140Y269460D01*
X661940D01*
X661740Y269660D01*
X661540Y269460D01*
X661340D01*
X661540Y269260D01*
X661340Y269060D01*
X661540D01*
X661740Y268860D01*
X666858Y304293D02*
X667058Y304493D01*
X667258D01*
X667058Y304693D01*
X667258Y304893D01*
X667058D01*
X666858Y305093D01*
X666658Y304893D01*
X666458D01*
X666658Y304693D01*
X666458Y304493D01*
X666658D01*
X666858Y304293D01*
X661346Y292088D02*
X661547Y292288D01*
X661747D01*
X661547Y292488D01*
X661747Y292688D01*
X661547D01*
X661346Y292888D01*
X661146Y292688D01*
X660947D01*
X661146Y292488D01*
X660947Y292288D01*
X661146D01*
X661346Y292088D01*
X703472Y195238D02*
X703672Y195438D01*
X703872D01*
X703672Y195638D01*
X703872Y195838D01*
X703672D01*
X703472Y196038D01*
X703272Y195838D01*
X703072D01*
X703272Y195638D01*
X703072Y195438D01*
X703272D01*
X703472Y195238D01*
X674339Y281065D02*
X674539Y281265D01*
X674739D01*
X674539Y281465D01*
X674739Y281665D01*
X674539D01*
X674339Y281865D01*
X674139Y281665D01*
X673939D01*
X674139Y281465D01*
X673939Y281265D01*
X674139D01*
X674339Y281065D01*
X673945Y254293D02*
X674145Y254493D01*
X674345D01*
X674145Y254693D01*
X674345Y254893D01*
X674145D01*
X673945Y255093D01*
X673745Y254893D01*
X673545D01*
X673745Y254693D01*
X673545Y254493D01*
X673745D01*
X673945Y254293D01*
X570402Y179096D02*
X570602Y179296D01*
X570802D01*
X570602Y179496D01*
X570802Y179696D01*
X570602D01*
X570402Y179896D01*
X570202Y179696D01*
X570002D01*
X570202Y179496D01*
X570002Y179296D01*
X570202D01*
X570402Y179096D01*
X576898Y174962D02*
X577098Y175162D01*
X577298D01*
X577098Y175362D01*
X577298Y175562D01*
X577098D01*
X576898Y175762D01*
X576698Y175562D01*
X576498D01*
X576698Y175362D01*
X576498Y175162D01*
X576698D01*
X576898Y174962D01*
X577685Y197403D02*
X577885Y197603D01*
X578085D01*
X577885Y197803D01*
X578085Y198003D01*
X577885D01*
X577685Y198203D01*
X577485Y198003D01*
X577285D01*
X577485Y197803D01*
X577285Y197603D01*
X577485D01*
X577685Y197403D01*
X551898Y326734D02*
X552098Y326934D01*
X552298D01*
X552098Y327134D01*
X552298Y327334D01*
X552098D01*
X551898Y327534D01*
X551698Y327334D01*
X551498D01*
X551698Y327134D01*
X551498Y326934D01*
X551698D01*
X551898Y326734D01*
X543630D02*
X543830Y326934D01*
X544030D01*
X543830Y327134D01*
X544030Y327334D01*
X543830D01*
X543630Y327534D01*
X543430Y327334D01*
X543230D01*
X543430Y327134D01*
X543230Y326934D01*
X543430D01*
X543630Y326734D01*
X579850Y260986D02*
X580050Y261186D01*
X580250D01*
X580050Y261386D01*
X580250Y261586D01*
X580050D01*
X579850Y261786D01*
X579650Y261586D01*
X579450D01*
X579650Y261386D01*
X579450Y261186D01*
X579650D01*
X579850Y260986D01*
X618827Y273190D02*
X619027Y273391D01*
X619227D01*
X619027Y273590D01*
X619227Y273791D01*
X619027D01*
X618827Y273991D01*
X618627Y273791D01*
X618427D01*
X618627Y273590D01*
X618427Y273391D01*
X618627D01*
X618827Y273190D01*
X609772Y236183D02*
X609972Y236383D01*
X610172D01*
X609972Y236583D01*
X610172Y236783D01*
X609972D01*
X609772Y236983D01*
X609572Y236783D01*
X609372D01*
X609572Y236583D01*
X609372Y236383D01*
X609572D01*
X609772Y236183D01*
X611740Y256261D02*
X611940Y256461D01*
X612140D01*
X611940Y256661D01*
X612140Y256861D01*
X611940D01*
X611740Y257061D01*
X611540Y256861D01*
X611340D01*
X611540Y256661D01*
X611340Y256461D01*
X611540D01*
X611740Y256261D01*
X645205Y301537D02*
X645405Y301737D01*
X645605D01*
X645405Y301937D01*
X645605Y302137D01*
X645405D01*
X645205Y302337D01*
X645005Y302137D01*
X644805D01*
X645005Y301937D01*
X644805Y301737D01*
X645005D01*
X645205Y301537D01*
X619220Y290513D02*
X619420Y290713D01*
X619621D01*
X619420Y290913D01*
X619621Y291113D01*
X619420D01*
X619220Y291313D01*
X619021Y291113D01*
X618820D01*
X619021Y290913D01*
X618820Y290713D01*
X619021D01*
X619220Y290513D01*
X644811Y324372D02*
X645011Y324572D01*
X645211D01*
X645011Y324772D01*
X645211Y324972D01*
X645011D01*
X644811Y325172D01*
X644611Y324972D01*
X644411D01*
X644611Y324772D01*
X644411Y324572D01*
X644611D01*
X644811Y324372D01*
X638512D02*
X638712Y324572D01*
X638912D01*
X638712Y324772D01*
X638912Y324972D01*
X638712D01*
X638512Y325172D01*
X638312Y324972D01*
X638112D01*
X638312Y324772D01*
X638112Y324572D01*
X638312D01*
X638512Y324372D01*
X642842Y268466D02*
X643043Y268666D01*
X643243D01*
X643043Y268866D01*
X643243Y269066D01*
X643043D01*
X642842Y269266D01*
X642642Y269066D01*
X642443D01*
X642642Y268866D01*
X642443Y268666D01*
X642642D01*
X642842Y268466D01*
X627488Y271616D02*
X627688Y271816D01*
X627888D01*
X627688Y272016D01*
X627888Y272216D01*
X627688D01*
X627488Y272416D01*
X627288Y272216D01*
X627088D01*
X627288Y272016D01*
X627088Y271816D01*
X627288D01*
X627488Y271616D01*
X616465Y236576D02*
X616665Y236776D01*
X616865D01*
X616665Y236976D01*
X616865Y237176D01*
X616665D01*
X616465Y237376D01*
X616265Y237176D01*
X616065D01*
X616265Y236976D01*
X616065Y236776D01*
X616265D01*
X616465Y236576D01*
X539299Y193663D02*
X539499Y193863D01*
X539699D01*
X539499Y194063D01*
X539699Y194263D01*
X539499D01*
X539299Y194463D01*
X539099Y194263D01*
X538899D01*
X539099Y194063D01*
X538899Y193863D01*
X539099D01*
X539299Y193663D01*
X547961Y187758D02*
X548161Y187958D01*
X548361D01*
X548161Y188157D01*
X548361Y188357D01*
X548161D01*
X547961Y188558D01*
X547761Y188357D01*
X547561D01*
X547761Y188157D01*
X547561Y187958D01*
X547761D01*
X547961Y187758D01*
X544417Y183033D02*
X544617Y183233D01*
X544817D01*
X544617Y183433D01*
X544817Y183633D01*
X544617D01*
X544417Y183833D01*
X544217Y183633D01*
X544017D01*
X544217Y183433D01*
X544017Y183233D01*
X544217D01*
X544417Y183033D01*
X576701Y181065D02*
X576901Y181265D01*
X577101D01*
X576901Y181465D01*
X577101Y181665D01*
X576901D01*
X576701Y181865D01*
X576501Y181665D01*
X576301D01*
X576501Y181465D01*
X576301Y181265D01*
X576501D01*
X576701Y181065D01*
X620402Y331852D02*
X620602Y332052D01*
X620802D01*
X620602Y332252D01*
X620802Y332452D01*
X620602D01*
X620402Y332652D01*
X620202Y332452D01*
X620002D01*
X620202Y332252D01*
X620002Y332052D01*
X620202D01*
X620402Y331852D01*
X612921D02*
X613121Y332052D01*
X613321D01*
X613121Y332252D01*
X613321Y332452D01*
X613121D01*
X612921Y332652D01*
X612721Y332452D01*
X612521D01*
X612721Y332252D01*
X612521Y332052D01*
X612721D01*
X612921Y331852D01*
X709378Y191301D02*
X709578Y191501D01*
X709778D01*
X709578Y191701D01*
X709778Y191901D01*
X709578D01*
X709378Y192101D01*
X709178Y191901D01*
X708978D01*
X709178Y191701D01*
X708978Y191501D01*
X709178D01*
X709378Y191301D01*
X706622Y186970D02*
X706822Y187170D01*
X707022D01*
X706822Y187370D01*
X707022Y187570D01*
X706822D01*
X706622Y187770D01*
X706422Y187570D01*
X706222D01*
X706422Y187370D01*
X706222Y187170D01*
X706422D01*
X706622Y186970D01*
X735559Y148584D02*
X735759Y148784D01*
X735959D01*
X735759Y148984D01*
X735959Y149184D01*
X735759D01*
X735559Y149384D01*
X735359Y149184D01*
X735159D01*
X735359Y148984D01*
X735159Y148784D01*
X735359D01*
X735559Y148584D01*
X747961Y143269D02*
X748161Y143469D01*
X748361D01*
X748161Y143669D01*
X748361Y143869D01*
X748161D01*
X747961Y144069D01*
X747761Y143869D01*
X747561D01*
X747761Y143669D01*
X747561Y143469D01*
X747761D01*
X747961Y143269D01*
X758591Y142876D02*
X758790Y143076D01*
X758990D01*
X758790Y143276D01*
X758990Y143476D01*
X758790D01*
X758591Y143676D01*
X758391Y143476D01*
X758190D01*
X758391Y143276D01*
X758190Y143076D01*
X758391D01*
X758591Y142876D01*
X767646Y142482D02*
X767846Y142682D01*
X768046D01*
X767846Y142882D01*
X768046Y143082D01*
X767846D01*
X767646Y143282D01*
X767446Y143082D01*
X767246D01*
X767446Y142882D01*
X767246Y142682D01*
X767446D01*
X767646Y142482D01*
D133*
X529463Y146031D02*
G03*
X529463Y146031I-400J0D01*
G01*
Y156032D02*
G03*
X529463Y156032I-400J0D01*
G01*
X539463Y146031D02*
G03*
X539463Y146031I-400J0D01*
G01*
Y156032D02*
G03*
X539463Y156032I-400J0D01*
G01*
X549463Y146031D02*
G03*
X549463Y146031I-400J0D01*
G01*
X549463Y156032D02*
G03*
X549463Y156032I-400J0D01*
G01*
X559463Y146031D02*
G03*
X559463Y146031I-400J0D01*
G01*
Y156032D02*
G03*
X559463Y156032I-400J0D01*
G01*
X569463Y146031D02*
G03*
X569463Y146031I-400J0D01*
G01*
Y156032D02*
G03*
X569463Y156032I-400J0D01*
G01*
X579463Y146031D02*
G03*
X579463Y146031I-400J0D01*
G01*
Y156032D02*
G03*
X579463Y156032I-400J0D01*
G01*
X589463Y146031D02*
G03*
X589463Y146031I-400J0D01*
G01*
Y156032D02*
G03*
X589463Y156032I-400J0D01*
G01*
X599463Y146031D02*
G03*
X599463Y146031I-400J0D01*
G01*
X599463Y156032D02*
G03*
X599463Y156032I-400J0D01*
G01*
X609463Y146031D02*
G03*
X609463Y146031I-400J0D01*
G01*
Y156032D02*
G03*
X609463Y156032I-400J0D01*
G01*
X619463Y146031D02*
G03*
X619463Y146031I-400J0D01*
G01*
Y156032D02*
G03*
X619463Y156032I-400J0D01*
G01*
X629463Y146031D02*
G03*
X629463Y146031I-400J0D01*
G01*
Y156032D02*
G03*
X629463Y156032I-400J0D01*
G01*
X639463Y146031D02*
G03*
X639463Y146031I-400J0D01*
G01*
X639463Y156032D02*
G03*
X639463Y156032I-400J0D01*
G01*
X649463Y146031D02*
G03*
X649463Y146031I-400J0D01*
G01*
X649463Y156032D02*
G03*
X649463Y156032I-400J0D01*
G01*
X659463Y146031D02*
G03*
X659463Y146031I-400J0D01*
G01*
Y156032D02*
G03*
X659463Y156032I-400J0D01*
G01*
X669463Y146031D02*
G03*
X669463Y146031I-400J0D01*
G01*
Y156032D02*
G03*
X669463Y156032I-400J0D01*
G01*
X679463Y146031D02*
G03*
X679463Y146031I-400J0D01*
G01*
Y156032D02*
G03*
X679463Y156032I-400J0D01*
G01*
X689463Y146031D02*
G03*
X689463Y146031I-400J0D01*
G01*
X689463Y156032D02*
G03*
X689463Y156032I-400J0D01*
G01*
X699463Y146031D02*
G03*
X699463Y146031I-400J0D01*
G01*
Y156032D02*
G03*
X699463Y156032I-400J0D01*
G01*
X709463Y146031D02*
G03*
X709463Y146031I-400J0D01*
G01*
Y156032D02*
G03*
X709463Y156032I-400J0D01*
G01*
X719463Y146031D02*
G03*
X719463Y146031I-400J0D01*
G01*
Y156032D02*
G03*
X719463Y156032I-400J0D01*
G01*
M02*
