M48
;Layer_Color=9474304
;FILE_FORMAT=2:5
INCH,LZ
;TYPE=PLATED
T1F00S00C0.01500
T2F00S00C0.03543
;TYPE=NON_PLATED
T3F00S00C0.04331
T4F00S00C0.10630
%
T01
X0735559Y0148984
X0747961Y0143669
X0758591Y0143276
X0767646Y0142882
X0701898Y0171228
X0694811Y0166504
X0680736Y0169653
X0675913
X0670402
X0661346Y0171228
X0650716Y016926
X0651405Y0193276
X0646287
X0641169
X0636051
X0630933Y0193374
X0628374Y0183728
Y0206169
X0633492Y0206268
X063861
X0643728
X0648846Y0206268
X0661521Y0204299
X0665109Y0207055
X0675618Y0206268
X0680736
X0685854
X0690972Y0206268
X069363Y0214142
X0693532Y0193276
X0688413
X0683295
X0678177
X0669073Y0193128
X0658984Y0193276
X0668433Y0183039
X0675618Y0183728
X0700716Y0184614
X0706622Y018737
X0709378Y0191701
X0703472Y0195638
X0670795Y0217291
X0673748Y0230283
X0658Y0229693
X0654063Y0229693
X0647173Y0230677
X0640283Y0229693
X0634378
X0628472
X0630441Y0250165
X0636346
X0642252
X0647173Y0249575
X0654063Y0250165
X0665874Y0250165
X0670795Y0249575
X0677882Y0249969
X0673945Y0254693
X066174Y0262961
Y026926
X0642842Y0268866
X0627488Y0272016
X0645205Y0301937
X0666858Y0304693
X0661346Y0292488
X0674339Y0281465
X0618827Y027359
X0608984Y0267685
X061174Y0256661
X0612724Y0250165
X0606819
X0598354Y0250756
X0599929Y0236583
Y0230677
X0594811Y0227921
X0590087
X0592449Y0231858
X0610756Y0229693
X0616661Y0229693
X0616465Y0236976
X0609772Y0236583
X0623551Y0230677
Y0249575
X0592055Y0263748
Y0270047
X0582213Y026611
X057985Y0261386
X0573551Y0264929
X0560972Y0262587
X0564496Y0270835
X0573551Y0284614
X0590874Y0288551
X0603866Y029485
X061922Y0290913
Y020548
X0613709Y0207449
X0609378
X060239Y0204299
X0597272Y0204299
X0592154
X0587035
X0589595Y0191307
X0594713
X0599831
X0604949
X0606228Y0185402
X0621583Y0192095
X0618433Y0167685
X0587331Y0167291
X0582606Y0164535
X0577488Y0167685
X0576898Y0175362
X0576701Y0181465
X0570402Y0179496
X0577685Y0197803
X0547961Y0188157
X0544417Y0183433
X0539299Y0194063
X0544811Y0252331
Y0263748
X0546779Y0307842
X054363Y0327134
X0551898
X0612921Y0332252
X0620402
X0632213Y0322016
X0632409Y0317488
X0628276Y0317685
X0638512Y0324772
X0644811
T02
X0529063Y0146031
Y0156032
X0539063
Y0146031
X0549063
X0559063
Y0156032
X0549063
X0569063
Y0146031
X0579063
Y0156032
X0589063
Y0146031
X0599063
X0599063Y0156032
X0609063
Y0146031
X0619063
Y0156032
X0629063
Y0146031
X0639063
X0649063
X0649063Y0156032
X0639063
X0659063
Y0146031
X0669063
Y0156032
X0679063
Y0146031
X0689063
X0689063Y0156032
X0699063
Y0146031
X0709063
Y0156032
X0719063
Y0146031
T03
X0687331Y0233433
X0583394
T04
X0718039Y0209811
X0544811
X0718039Y031611
M30
