%FSLAX25Y25*%
%MOIN*%
G70*
G01*
G75*
G04 Layer_Physical_Order=2*
G04 Layer_Color=16711680*
%ADD10R,0.03937X0.03937*%
%ADD11O,0.02362X0.08661*%
%ADD12R,0.02559X0.04331*%
%ADD13R,0.03937X0.03543*%
%ADD14R,0.03543X0.03937*%
%ADD15R,0.05118X0.07087*%
%ADD16R,0.03937X0.04331*%
%ADD17R,0.03937X0.03937*%
%ADD18R,0.04331X0.02559*%
%ADD19O,0.01378X0.06693*%
%ADD20O,0.06693X0.01772*%
%ADD21R,0.09449X0.03937*%
%ADD22R,0.09449X0.12992*%
%ADD23C,0.03000*%
%ADD24C,0.00700*%
%ADD25C,0.01969*%
%ADD26C,0.05000*%
%ADD27C,0.00800*%
%ADD28C,0.04000*%
%ADD29C,0.02000*%
%ADD30C,0.00787*%
%ADD31C,0.01500*%
%ADD32C,0.01000*%
%ADD33C,0.02500*%
%ADD34C,0.01969*%
%ADD35R,0.05906X0.05906*%
%ADD36C,0.05906*%
%ADD37C,0.07874*%
%ADD38C,0.03000*%
%ADD39R,0.01181X0.04331*%
%ADD40R,0.02756X0.05906*%
%ADD41R,0.06299X0.12205*%
G36*
X592136Y258589D02*
X588417Y254871D01*
X588207Y254557D01*
X588134Y254186D01*
Y246435D01*
X587912D01*
Y240904D01*
X597551D01*
Y238929D01*
X597714D01*
X597919Y238662D01*
X598097Y238301D01*
X597745Y237843D01*
X597741Y237833D01*
X599929D01*
Y235333D01*
X597741D01*
X597745Y235322D01*
X597970Y235030D01*
X597660Y234402D01*
X596787D01*
X594708Y236480D01*
X594394Y236690D01*
X594024Y236764D01*
X589307D01*
X585150Y240921D01*
Y259236D01*
X591868D01*
X592136Y258589D01*
D02*
G37*
G36*
X631219Y240904D02*
X631691D01*
Y240504D01*
X632031D01*
Y240904D01*
X633409D01*
Y239929D01*
X633483Y239559D01*
X633693Y239244D01*
X639446Y233491D01*
X639760Y233281D01*
X640131Y233208D01*
X645276D01*
X645501Y232545D01*
X645390Y232460D01*
X644989Y231938D01*
X644985Y231927D01*
X649361D01*
X649357Y231938D01*
X648956Y232460D01*
X648846Y232545D01*
X649071Y233208D01*
X675140D01*
X681739Y226609D01*
X681471Y225962D01*
X674761D01*
Y228430D01*
X674807Y228449D01*
X675246Y228786D01*
X675582Y229224D01*
X675794Y229735D01*
X675866Y230283D01*
X675794Y230832D01*
X675582Y231343D01*
X675246Y231781D01*
X674807Y232118D01*
X674296Y232329D01*
X673748Y232402D01*
X673200Y232329D01*
X672689Y232118D01*
X672250Y231781D01*
X671914Y231343D01*
X671702Y230832D01*
X671630Y230283D01*
X671702Y229735D01*
X671914Y229224D01*
X672250Y228786D01*
X672493Y228600D01*
X672267Y227937D01*
X672045D01*
Y223984D01*
X669545D01*
Y227937D01*
X668417D01*
Y225962D01*
X659590D01*
Y226362D01*
X656410D01*
Y225962D01*
X655653D01*
Y226362D01*
X652472D01*
Y225962D01*
X649551D01*
Y227937D01*
X648798D01*
X648573Y228600D01*
X648956Y228894D01*
X649357Y229416D01*
X649361Y229427D01*
X644985D01*
X644989Y229416D01*
X645390Y228894D01*
X645774Y228600D01*
X645549Y227937D01*
X644795D01*
Y225962D01*
X641874D01*
Y226362D01*
X638693D01*
Y225962D01*
X635968D01*
Y226362D01*
X632787D01*
Y225962D01*
X630063D01*
Y226362D01*
X626882D01*
Y225962D01*
X625929D01*
Y227812D01*
X626592Y228037D01*
X626689Y227910D01*
X627212Y227509D01*
X627820Y227257D01*
X628472Y227171D01*
X629125Y227257D01*
X629733Y227509D01*
X630256Y227910D01*
X630656Y228432D01*
X630661Y228443D01*
X628472D01*
Y229693D01*
X627222D01*
Y231881D01*
X627212Y231877D01*
X626689Y231476D01*
X626644Y231416D01*
X626515Y231399D01*
X625926Y231477D01*
X625735Y231938D01*
X625334Y232460D01*
X624812Y232861D01*
X624801Y232865D01*
Y230677D01*
X623551D01*
Y229427D01*
X621363D01*
X621367Y229416D01*
X621768Y228894D01*
X622152Y228600D01*
X621927Y227937D01*
X621173D01*
Y225962D01*
X618252D01*
Y226362D01*
X615071D01*
Y225962D01*
X613915D01*
Y225962D01*
X612347D01*
Y226362D01*
X609165D01*
Y225962D01*
X603851D01*
Y232055D01*
X603777Y232426D01*
X603567Y232740D01*
X602189Y234118D01*
X601954Y234275D01*
X601840Y234966D01*
X602113Y235322D01*
X602238Y235624D01*
X602925Y235761D01*
X605937Y232748D01*
X606251Y232538D01*
X606622Y232465D01*
X609172D01*
X609397Y231802D01*
X608973Y231476D01*
X608572Y230954D01*
X608568Y230943D01*
X612944D01*
X612940Y230954D01*
X612539Y231476D01*
X612114Y231802D01*
X612339Y232465D01*
X612921D01*
X613292Y232538D01*
X613606Y232748D01*
X615826Y234968D01*
X615916Y234930D01*
X616465Y234858D01*
X617013Y234930D01*
X617524Y235142D01*
X617962Y235479D01*
X618299Y235917D01*
X618510Y236428D01*
X618583Y236976D01*
X618510Y237525D01*
X618299Y238035D01*
X617962Y238474D01*
X617524Y238811D01*
X617013Y239022D01*
X616465Y239094D01*
X615916Y239022D01*
X615406Y238811D01*
X614967Y238474D01*
X614630Y238035D01*
X614419Y237525D01*
X614347Y236976D01*
X614419Y236428D01*
X614456Y236338D01*
X612520Y234402D01*
X611468D01*
X611243Y235065D01*
X611269Y235085D01*
X611606Y235524D01*
X611818Y236034D01*
X611890Y236583D01*
X611818Y237131D01*
X611606Y237642D01*
X611269Y238080D01*
X610831Y238417D01*
X610320Y238629D01*
X609772Y238701D01*
X609223Y238629D01*
X608713Y238417D01*
X608274Y238080D01*
X608081Y238068D01*
X606292Y239857D01*
X606560Y240504D01*
X608409D01*
Y240904D01*
X611134D01*
Y240504D01*
X611474D01*
Y240904D01*
X611947D01*
Y243669D01*
X613502D01*
Y240904D01*
X613974D01*
Y240504D01*
X614315D01*
Y240904D01*
X617439D01*
Y240904D01*
X621173D01*
Y238929D01*
X622301D01*
Y242882D01*
X624801D01*
Y238929D01*
X625929D01*
Y240904D01*
X628850D01*
Y240504D01*
X629191D01*
Y240904D01*
X629663D01*
Y243669D01*
X631219D01*
Y240904D01*
D02*
G37*
G36*
X725291Y326740D02*
X707409D01*
Y305480D01*
X725291D01*
Y220441D01*
X707409D01*
D01*
X707409D01*
X707197Y220654D01*
Y269260D01*
X707123Y269631D01*
X706913Y269945D01*
X694708Y282150D01*
X694394Y282360D01*
X694024Y282433D01*
X676210D01*
X676173Y282524D01*
X675836Y282962D01*
X675398Y283299D01*
X674887Y283510D01*
X674339Y283583D01*
X673790Y283510D01*
X673279Y283299D01*
X672841Y282962D01*
X672504Y282524D01*
X672293Y282013D01*
X672221Y281465D01*
X672293Y280916D01*
X672504Y280405D01*
X672841Y279967D01*
X673279Y279630D01*
X673790Y279419D01*
X674339Y279346D01*
X674887Y279419D01*
X675398Y279630D01*
X675836Y279967D01*
X676173Y280405D01*
X676210Y280496D01*
X693622D01*
X705260Y268859D01*
Y252828D01*
X704613Y252560D01*
X701795Y255378D01*
X701481Y255588D01*
X701110Y255662D01*
X675817D01*
X675779Y255752D01*
X675443Y256191D01*
X675004Y256527D01*
X674493Y256739D01*
X673945Y256811D01*
X673397Y256739D01*
X672886Y256527D01*
X672447Y256191D01*
X672111Y255752D01*
X671899Y255241D01*
X671827Y254693D01*
X671899Y254145D01*
X672111Y253634D01*
X672447Y253195D01*
X672886Y252859D01*
X673397Y252647D01*
X673945Y252575D01*
X674493Y252647D01*
X675004Y252859D01*
X675443Y253195D01*
X675779Y253634D01*
X675817Y253724D01*
X700709D01*
X703685Y250748D01*
Y201150D01*
X703759Y200779D01*
X703969Y200465D01*
X710032Y194401D01*
X709722Y193774D01*
X709378Y193819D01*
X708830Y193747D01*
X708319Y193535D01*
X707880Y193199D01*
X707544Y192760D01*
X707332Y192249D01*
X707260Y191701D01*
X707332Y191153D01*
X707544Y190642D01*
X707880Y190203D01*
X708169Y189981D01*
X708108Y189356D01*
X708072Y189271D01*
X707782Y189127D01*
X707681Y189204D01*
X707170Y189416D01*
X706622Y189488D01*
X706074Y189416D01*
X705563Y189204D01*
X705124Y188868D01*
X704788Y188429D01*
X704576Y187918D01*
X704504Y187370D01*
X704576Y186822D01*
X704788Y186311D01*
X705124Y185872D01*
X705563Y185536D01*
X705653Y185498D01*
Y169267D01*
X703859Y167473D01*
X696683D01*
X696645Y167563D01*
X696309Y168002D01*
X695870Y168338D01*
X695359Y168550D01*
X694811Y168622D01*
X694263Y168550D01*
X693752Y168338D01*
X693313Y168002D01*
X692977Y167563D01*
X692765Y167052D01*
X692693Y166504D01*
X692765Y165956D01*
X692977Y165445D01*
X693313Y165006D01*
X693752Y164670D01*
X694263Y164458D01*
X694811Y164386D01*
X695359Y164458D01*
X695870Y164670D01*
X696309Y165006D01*
X696645Y165445D01*
X696683Y165535D01*
X704260D01*
X704631Y165609D01*
X704945Y165819D01*
X707307Y168181D01*
X707517Y168496D01*
X707591Y168866D01*
Y185044D01*
X708185Y185414D01*
X708409Y185303D01*
Y166748D01*
X700813Y159152D01*
X699990Y159493D01*
X699063Y159615D01*
X698136Y159493D01*
X697271Y159135D01*
X696626Y158640D01*
X695998Y158949D01*
Y159198D01*
X695925Y159569D01*
X695715Y159883D01*
X685260Y170338D01*
X684945Y170548D01*
X684575Y170622D01*
X682608D01*
X682571Y170713D01*
X682234Y171151D01*
X681795Y171488D01*
X681284Y171700D01*
X680736Y171772D01*
X680188Y171700D01*
X679677Y171488D01*
X679239Y171151D01*
X678902Y170713D01*
X678690Y170202D01*
X678675Y170084D01*
X677975D01*
X677959Y170202D01*
X677748Y170713D01*
X677411Y171151D01*
X676972Y171488D01*
X676462Y171700D01*
X675913Y171772D01*
X675365Y171700D01*
X674854Y171488D01*
X674754Y171411D01*
X674126Y171720D01*
Y173977D01*
X676303Y176154D01*
X676513Y176468D01*
X676587Y176839D01*
Y181857D01*
X676677Y181894D01*
X677116Y182231D01*
X677453Y182669D01*
X677664Y183180D01*
X677736Y183728D01*
X677664Y184277D01*
X677463Y184763D01*
X677507Y184829D01*
X678179Y185345D01*
X681143D01*
X696413Y170075D01*
X696943Y169721D01*
X697567Y169597D01*
X700574D01*
X700839Y169394D01*
X701349Y169182D01*
X701898Y169110D01*
X702446Y169182D01*
X702957Y169394D01*
X703395Y169731D01*
X703732Y170169D01*
X703944Y170680D01*
X704016Y171228D01*
X703944Y171777D01*
X703732Y172287D01*
X703395Y172726D01*
X702957Y173063D01*
X702446Y173274D01*
X701898Y173346D01*
X701349Y173274D01*
X700839Y173063D01*
X700574Y172860D01*
X698243D01*
X683648Y187454D01*
X683916Y188101D01*
X697567D01*
X698191Y188225D01*
X698721Y188579D01*
X703690Y193548D01*
X704021Y193592D01*
X704531Y193803D01*
X704970Y194140D01*
X705307Y194579D01*
X705518Y195090D01*
X705591Y195638D01*
X705518Y196186D01*
X705307Y196697D01*
X704970Y197135D01*
X704531Y197472D01*
X704021Y197684D01*
X703472Y197756D01*
X702924Y197684D01*
X702413Y197472D01*
X701975Y197135D01*
X701638Y196697D01*
X701427Y196186D01*
X701383Y195855D01*
X696891Y191364D01*
X695503D01*
X695193Y191991D01*
X695366Y192217D01*
X695577Y192727D01*
X695650Y193276D01*
X695577Y193824D01*
X695540Y193914D01*
X701620Y199995D01*
X701830Y200309D01*
X701904Y200679D01*
Y241100D01*
X701830Y241470D01*
X701620Y241785D01*
X699444Y243960D01*
X699130Y244170D01*
X698759Y244244D01*
X687331D01*
X686960Y244170D01*
X686646Y243960D01*
X683459Y240774D01*
X682813Y241042D01*
Y246435D01*
X678698D01*
Y248034D01*
X678941Y248134D01*
X679380Y248471D01*
X679716Y248909D01*
X679928Y249420D01*
X680000Y249969D01*
X679928Y250517D01*
X679716Y251028D01*
X679380Y251466D01*
X678941Y251803D01*
X678430Y252014D01*
X677882Y252087D01*
X677334Y252014D01*
X676823Y251803D01*
X676384Y251466D01*
X676048Y251028D01*
X675836Y250517D01*
X675764Y249969D01*
X675836Y249420D01*
X676048Y248909D01*
X676384Y248471D01*
X676672Y248250D01*
Y246435D01*
X673173D01*
Y246835D01*
X672420D01*
X672195Y247498D01*
X672578Y247792D01*
X672979Y248314D01*
X672984Y248325D01*
X670795D01*
Y249575D01*
X669545D01*
Y251763D01*
X669534Y251759D01*
X669012Y251358D01*
X668837Y251129D01*
X668143Y251221D01*
X668058Y251426D01*
X667657Y251948D01*
X667135Y252349D01*
X667124Y252354D01*
Y250165D01*
X665874D01*
Y248915D01*
X663686D01*
X663690Y248905D01*
X664091Y248382D01*
X664613Y247982D01*
X665221Y247730D01*
X665874Y247644D01*
X666527Y247730D01*
X667135Y247982D01*
X667657Y248382D01*
X667832Y248611D01*
X668526Y248519D01*
X668611Y248314D01*
X669012Y247792D01*
X669396Y247498D01*
X669171Y246835D01*
X668417D01*
Y246435D01*
X667465D01*
Y246835D01*
X664284D01*
Y246435D01*
X657222D01*
Y246435D01*
X655653D01*
Y246835D01*
X652472D01*
Y246435D01*
X649551D01*
Y246835D01*
X648798D01*
X648573Y247498D01*
X648956Y247792D01*
X649357Y248314D01*
X649361Y248325D01*
X647173D01*
Y249575D01*
X645923D01*
Y251763D01*
X645912Y251759D01*
X645390Y251358D01*
X645215Y251129D01*
X644521Y251221D01*
X644436Y251426D01*
X644035Y251948D01*
X643513Y252349D01*
X643502Y252354D01*
Y250165D01*
X642252D01*
Y248915D01*
X640064D01*
X640068Y248905D01*
X640469Y248382D01*
X640991Y247982D01*
X641599Y247730D01*
X642252Y247644D01*
X642905Y247730D01*
X643513Y247982D01*
X644035Y248382D01*
X644210Y248611D01*
X644904Y248519D01*
X644989Y248314D01*
X645390Y247792D01*
X645774Y247498D01*
X645549Y246835D01*
X644795D01*
Y246435D01*
X643843D01*
Y246835D01*
X640661D01*
Y246435D01*
X637937D01*
Y246835D01*
X634756D01*
Y246435D01*
X632031D01*
Y246835D01*
X628850D01*
Y246435D01*
X625929D01*
Y246835D01*
X625176D01*
X624951Y247498D01*
X625334Y247792D01*
X625735Y248314D01*
X625739Y248325D01*
X621363D01*
X621367Y248314D01*
X621768Y247792D01*
X622152Y247498D01*
X621927Y246835D01*
X621173D01*
Y246435D01*
X617852D01*
Y246435D01*
X614315D01*
Y246835D01*
X611134D01*
Y246435D01*
X608409D01*
Y246835D01*
X605228D01*
Y246435D01*
X602307D01*
Y246835D01*
X601179D01*
Y242882D01*
X598679D01*
Y246835D01*
X597945D01*
Y248279D01*
X598354Y248638D01*
X598903Y248710D01*
X599413Y248922D01*
X599852Y249258D01*
X600189Y249697D01*
X600400Y250208D01*
X600472Y250756D01*
X600400Y251304D01*
X600189Y251815D01*
X599852Y252254D01*
X599413Y252590D01*
X598903Y252802D01*
X598394Y252869D01*
X598330Y253057D01*
X598256Y253619D01*
X604551Y259913D01*
X604761Y260228D01*
X604835Y260598D01*
Y261343D01*
X605505Y261546D01*
X605543Y261488D01*
X609732Y257300D01*
X609694Y257210D01*
X609622Y256661D01*
X609694Y256113D01*
X609906Y255602D01*
X610242Y255164D01*
X610681Y254827D01*
X611192Y254615D01*
X611740Y254543D01*
X612288Y254615D01*
X612799Y254827D01*
X613238Y255164D01*
X613575Y255602D01*
X613786Y256113D01*
X613858Y256661D01*
X613786Y257210D01*
X613575Y257720D01*
X613238Y258159D01*
X612799Y258496D01*
X612288Y258707D01*
X611740Y258780D01*
X611192Y258707D01*
X611101Y258670D01*
X607197Y262574D01*
Y265618D01*
X607825Y265928D01*
X607925Y265851D01*
X608436Y265639D01*
X608984Y265567D01*
X609532Y265639D01*
X610043Y265851D01*
X610482Y266187D01*
X610819Y266626D01*
X611030Y267137D01*
X611102Y267685D01*
X611030Y268233D01*
X610819Y268744D01*
X610482Y269183D01*
X610043Y269519D01*
X609953Y269557D01*
Y280276D01*
X618582Y288905D01*
X618672Y288867D01*
X619220Y288795D01*
X619769Y288867D01*
X620280Y289079D01*
X620718Y289416D01*
X620811Y289537D01*
X656228D01*
X656755Y289642D01*
X657202Y289940D01*
X658373Y291112D01*
X659756D01*
X659849Y290990D01*
X660287Y290654D01*
X660798Y290442D01*
X661346Y290370D01*
X661498Y290390D01*
X665875Y286013D01*
Y269043D01*
X664550Y267717D01*
X664113Y268010D01*
X662990D01*
Y266887D01*
X663283Y266450D01*
X661892Y265059D01*
X661740Y265079D01*
X661192Y265007D01*
X660681Y264795D01*
X660242Y264458D01*
X659906Y264020D01*
X659694Y263509D01*
X659622Y262961D01*
X659694Y262412D01*
X659906Y261902D01*
X660242Y261463D01*
X660681Y261126D01*
X661192Y260915D01*
X661740Y260842D01*
X662288Y260915D01*
X662799Y261126D01*
X663238Y261463D01*
X663575Y261902D01*
X663786Y262412D01*
X663858Y262961D01*
X663838Y263112D01*
X668225Y267499D01*
X668225Y267499D01*
X668524Y267946D01*
X668628Y268472D01*
X668628Y268473D01*
Y286583D01*
X668628Y286583D01*
X668524Y287109D01*
X668225Y287556D01*
X663445Y292337D01*
X663465Y292488D01*
X663392Y293036D01*
X663233Y293422D01*
Y295244D01*
X663113Y295846D01*
X663089Y295966D01*
X662680Y296578D01*
X640398Y318860D01*
Y323838D01*
X640558Y324223D01*
X640630Y324772D01*
X640558Y325320D01*
X640346Y325831D01*
X640010Y326269D01*
X639571Y326606D01*
X639185Y326766D01*
X632365Y333586D01*
X631753Y333995D01*
X631032Y334138D01*
X621335D01*
X620950Y334298D01*
X620402Y334370D01*
X619853Y334298D01*
X619468Y334138D01*
X613855D01*
X613470Y334298D01*
X612921Y334370D01*
X612373Y334298D01*
X611862Y334086D01*
X611423Y333750D01*
X611087Y333311D01*
X610875Y332800D01*
X610803Y332252D01*
X610875Y331704D01*
X611087Y331193D01*
X611423Y330754D01*
X611862Y330418D01*
X612373Y330206D01*
X612921Y330134D01*
X613470Y330206D01*
X613855Y330366D01*
X619468D01*
X619853Y330206D01*
X620402Y330134D01*
X620950Y330206D01*
X621335Y330366D01*
X630250D01*
X636518Y324098D01*
X636626Y323838D01*
Y318079D01*
X636769Y317357D01*
X637178Y316745D01*
X659412Y294511D01*
X659144Y293865D01*
X657803D01*
X657803Y293865D01*
X657276Y293760D01*
X656830Y293461D01*
X655658Y292290D01*
X620811D01*
X620718Y292411D01*
X620280Y292748D01*
X619769Y292959D01*
X619608Y292981D01*
X619383Y293643D01*
X626708Y300968D01*
X643333D01*
X643370Y300878D01*
X643707Y300439D01*
X644146Y300103D01*
X644657Y299891D01*
X645205Y299819D01*
X645753Y299891D01*
X646264Y300103D01*
X646702Y300439D01*
X647039Y300878D01*
X647251Y301389D01*
X647323Y301937D01*
X647251Y302485D01*
X647039Y302996D01*
X646702Y303435D01*
X646264Y303771D01*
X645753Y303983D01*
X645205Y304055D01*
X644657Y303983D01*
X644146Y303771D01*
X643707Y303435D01*
X643370Y302996D01*
X643333Y302906D01*
X626307D01*
X625936Y302832D01*
X625622Y302622D01*
X605543Y282543D01*
X605505Y282485D01*
X604835Y282688D01*
Y284579D01*
X620693Y300437D01*
X620903Y300751D01*
X620976Y301122D01*
Y317650D01*
X622799Y319472D01*
X624725D01*
X626199Y317998D01*
X626158Y317685D01*
X626230Y317137D01*
X626441Y316626D01*
X626778Y316187D01*
X627216Y315851D01*
X627727Y315639D01*
X628276Y315567D01*
X628824Y315639D01*
X629335Y315851D01*
X629773Y316187D01*
X629917Y316374D01*
X630617D01*
X630912Y315990D01*
X631350Y315654D01*
X631861Y315442D01*
X632409Y315370D01*
X632958Y315442D01*
X633468Y315654D01*
X633907Y315990D01*
X634244Y316429D01*
X634455Y316940D01*
X634528Y317488D01*
X634455Y318036D01*
X634244Y318547D01*
X633907Y318986D01*
X633468Y319322D01*
X633178Y319443D01*
Y320143D01*
X633272Y320181D01*
X633710Y320518D01*
X634047Y320957D01*
X634259Y321467D01*
X634331Y322016D01*
X634259Y322564D01*
X634047Y323075D01*
X633710Y323514D01*
X633272Y323850D01*
X632761Y324062D01*
X632213Y324134D01*
X631664Y324062D01*
X631574Y324024D01*
X629748Y325850D01*
X629434Y326060D01*
X629063Y326134D01*
X621555D01*
X621184Y326060D01*
X620870Y325850D01*
X615386Y320366D01*
X615176Y320052D01*
X615102Y319682D01*
Y303154D01*
X606704Y294756D01*
X606281Y294811D01*
X605976Y294915D01*
X605912Y295399D01*
X605700Y295910D01*
X605364Y296348D01*
X604925Y296685D01*
X604414Y296896D01*
X603866Y296969D01*
X603318Y296896D01*
X602807Y296685D01*
X602368Y296348D01*
X602032Y295910D01*
X601820Y295399D01*
X601748Y294850D01*
X601820Y294302D01*
X601858Y294212D01*
X597276Y289630D01*
X597066Y289316D01*
X596992Y288945D01*
Y263833D01*
X596410Y263444D01*
X596173Y263542D01*
Y266898D01*
X596100Y267268D01*
X595890Y267583D01*
X594064Y269409D01*
X594101Y269499D01*
X594173Y270047D01*
X594101Y270595D01*
X593890Y271106D01*
X593553Y271545D01*
X593114Y271882D01*
X592603Y272093D01*
X592055Y272165D01*
X591507Y272093D01*
X590996Y271882D01*
X590557Y271545D01*
X590221Y271106D01*
X590009Y270595D01*
X589937Y270047D01*
X590009Y269499D01*
X590221Y268988D01*
X590557Y268549D01*
X590996Y268213D01*
X591507Y268001D01*
X592055Y267929D01*
X592603Y268001D01*
X592694Y268039D01*
X594236Y266496D01*
Y265444D01*
X593573Y265219D01*
X593553Y265246D01*
X593114Y265582D01*
X592603Y265794D01*
X592055Y265866D01*
X591507Y265794D01*
X590996Y265582D01*
X590557Y265246D01*
X590279Y264883D01*
X589580Y264837D01*
X585150Y269267D01*
Y281071D01*
X585076Y281441D01*
X584866Y281756D01*
X581323Y285299D01*
X581008Y285509D01*
X580638Y285583D01*
X575423D01*
X575386Y285673D01*
X575049Y286112D01*
X574610Y286449D01*
X574099Y286660D01*
X573551Y286732D01*
X573003Y286660D01*
X572492Y286449D01*
X572053Y286112D01*
X571717Y285673D01*
X571505Y285162D01*
X571433Y284614D01*
X571505Y284066D01*
X571717Y283555D01*
X572053Y283116D01*
X572492Y282780D01*
X573003Y282568D01*
X573551Y282496D01*
X574099Y282568D01*
X574610Y282780D01*
X575049Y283116D01*
X575386Y283555D01*
X575423Y283646D01*
X580237D01*
X583213Y280670D01*
Y268866D01*
X583286Y268495D01*
X583286Y268495D01*
X582761Y268156D01*
X582213Y268228D01*
X581664Y268156D01*
X581153Y267945D01*
X580715Y267608D01*
X580378Y267169D01*
X580167Y266658D01*
X580094Y266110D01*
X580167Y265562D01*
X580378Y265051D01*
X580715Y264613D01*
X581076Y264335D01*
X580747Y263765D01*
X580747Y263765D01*
X580726Y263729D01*
X580503Y263822D01*
X579850Y263907D01*
X579198Y263822D01*
X578590Y263570D01*
X578067Y263169D01*
X577667Y262647D01*
X577662Y262636D01*
X582039D01*
X582034Y262647D01*
X581633Y263169D01*
X581189Y263510D01*
X581518Y264080D01*
X581518D01*
X581539Y264116D01*
X581664Y264064D01*
X582213Y263992D01*
X582686Y264054D01*
X583213Y263593D01*
Y260205D01*
Y240520D01*
X583286Y240149D01*
X583496Y239835D01*
X584713Y238618D01*
X584353Y238017D01*
X584308Y238031D01*
X583394Y238121D01*
X582479Y238031D01*
X581600Y237764D01*
X580854Y237366D01*
X580254Y237725D01*
Y240135D01*
X572754D01*
Y226731D01*
X580254D01*
Y229141D01*
X580854Y229501D01*
X581600Y229102D01*
X582479Y228835D01*
X583394Y228745D01*
X584308Y228835D01*
X585188Y229102D01*
X585998Y229535D01*
X586709Y230118D01*
X587292Y230829D01*
X587725Y231639D01*
X587992Y232519D01*
X588082Y233433D01*
X587992Y234348D01*
X587945Y234502D01*
X588507Y234919D01*
X588535Y234900D01*
X588905Y234827D01*
X593622D01*
X595701Y232748D01*
X596015Y232538D01*
X596386Y232465D01*
X597059D01*
X597622Y232032D01*
X597692Y231927D01*
X599929D01*
Y229427D01*
X597741D01*
X597745Y229416D01*
X598146Y228894D01*
X598530Y228600D01*
X598421Y228280D01*
X597739Y228121D01*
X596965Y228895D01*
X596519Y229193D01*
X596476Y229202D01*
X596309Y229419D01*
X595870Y229756D01*
X595359Y229967D01*
X594811Y230039D01*
X594482Y229996D01*
X594132Y230602D01*
X594283Y230799D01*
X594495Y231310D01*
X594567Y231858D01*
X594495Y232406D01*
X594283Y232917D01*
X593947Y233356D01*
X593508Y233693D01*
X592997Y233904D01*
X592449Y233976D01*
X591901Y233904D01*
X591390Y233693D01*
X590951Y233356D01*
X590615Y232917D01*
X590403Y232406D01*
X590331Y231858D01*
X590403Y231310D01*
X590615Y230799D01*
X590766Y230602D01*
X590416Y229996D01*
X590087Y230039D01*
X589538Y229967D01*
X589028Y229756D01*
X588589Y229419D01*
X588252Y228980D01*
X588041Y228469D01*
X587968Y227921D01*
X587996Y227711D01*
X587831Y227464D01*
X587726Y226937D01*
Y223197D01*
X587831Y222670D01*
X587912Y222549D01*
Y220431D01*
X591336D01*
X591604Y219785D01*
X586350Y214531D01*
X586140Y214217D01*
X586067Y213846D01*
Y206171D01*
X585976Y206134D01*
X585538Y205797D01*
X585201Y205358D01*
X584990Y204847D01*
X584917Y204299D01*
X584990Y203751D01*
X585201Y203240D01*
X585538Y202801D01*
X585976Y202465D01*
X586487Y202253D01*
X587035Y202181D01*
X587584Y202253D01*
X588044Y202444D01*
X588181Y202352D01*
X588626Y201772D01*
Y193179D01*
X588535Y193141D01*
X588097Y192805D01*
X587760Y192366D01*
X587548Y191855D01*
X587476Y191307D01*
X587548Y190759D01*
X587760Y190248D01*
X588097Y189809D01*
X588535Y189473D01*
X589046Y189261D01*
X589595Y189189D01*
X590143Y189261D01*
X590654Y189473D01*
X591092Y189809D01*
X591429Y190248D01*
X591640Y190759D01*
X591713Y191307D01*
X591640Y191855D01*
X591429Y192366D01*
X591092Y192805D01*
X590654Y193141D01*
X590563Y193179D01*
Y201772D01*
X591008Y202352D01*
X591145Y202444D01*
X591605Y202253D01*
X592154Y202181D01*
X592702Y202253D01*
X593162Y202444D01*
X593299Y202352D01*
X593744Y201772D01*
Y193179D01*
X593653Y193141D01*
X593215Y192805D01*
X592878Y192366D01*
X592667Y191855D01*
X592594Y191307D01*
X592667Y190759D01*
X592878Y190248D01*
X593215Y189809D01*
X593653Y189473D01*
X594164Y189261D01*
X594713Y189189D01*
X595261Y189261D01*
X595772Y189473D01*
X596210Y189809D01*
X596547Y190248D01*
X596759Y190759D01*
X596831Y191307D01*
X596759Y191855D01*
X596547Y192366D01*
X596210Y192805D01*
X595772Y193141D01*
X595681Y193179D01*
Y201772D01*
X596126Y202352D01*
X596263Y202444D01*
X596723Y202253D01*
X597272Y202181D01*
X597820Y202253D01*
X598280Y202444D01*
X598417Y202352D01*
X598862Y201772D01*
Y193179D01*
X598772Y193141D01*
X598333Y192805D01*
X597996Y192366D01*
X597785Y191855D01*
X597713Y191307D01*
X597785Y190759D01*
X597996Y190248D01*
X598333Y189809D01*
X598772Y189473D01*
X599283Y189261D01*
X599831Y189189D01*
X600379Y189261D01*
X600890Y189473D01*
X601329Y189809D01*
X601665Y190248D01*
X601877Y190759D01*
X601949Y191307D01*
X601877Y191855D01*
X601665Y192366D01*
X601329Y192805D01*
X600890Y193141D01*
X600799Y193179D01*
Y201772D01*
X601244Y202352D01*
X601381Y202444D01*
X601842Y202253D01*
X602390Y202181D01*
X602938Y202253D01*
X603398Y202444D01*
X603535Y202352D01*
X603980Y201772D01*
Y193179D01*
X603890Y193141D01*
X603451Y192805D01*
X603115Y192366D01*
X602903Y191855D01*
X602831Y191307D01*
X602903Y190759D01*
X603115Y190248D01*
X603451Y189809D01*
X603890Y189473D01*
X604401Y189261D01*
X604949Y189189D01*
X605497Y189261D01*
X606008Y189473D01*
X606447Y189809D01*
X606783Y190248D01*
X606995Y190759D01*
X607067Y191307D01*
X606995Y191855D01*
X606783Y192366D01*
X606447Y192805D01*
X606008Y193141D01*
X605917Y193179D01*
Y207320D01*
X606674Y208076D01*
X607302Y207766D01*
X607260Y207449D01*
X607332Y206901D01*
X607544Y206390D01*
X607880Y205951D01*
X608319Y205614D01*
X608409Y205577D01*
Y187098D01*
X607747Y186873D01*
X607726Y186899D01*
X607287Y187236D01*
X606777Y187448D01*
X606228Y187520D01*
X605680Y187448D01*
X605169Y187236D01*
X604731Y186899D01*
X604637Y186778D01*
X584358D01*
X582005Y189131D01*
X581558Y189429D01*
X581032Y189534D01*
X549551D01*
X549458Y189655D01*
X549020Y189992D01*
X548509Y190203D01*
X547961Y190276D01*
X547412Y190203D01*
X546902Y189992D01*
X546463Y189655D01*
X546126Y189216D01*
X545915Y188706D01*
X545843Y188157D01*
X545862Y188006D01*
X543444Y185588D01*
X543146Y185141D01*
X543137Y185098D01*
X542920Y184931D01*
X542583Y184492D01*
X542371Y183981D01*
X542299Y183433D01*
X542371Y182885D01*
X542583Y182374D01*
X542920Y181935D01*
X543358Y181599D01*
X543869Y181387D01*
X544417Y181315D01*
X544966Y181387D01*
X545476Y181599D01*
X545915Y181935D01*
X546252Y182374D01*
X546463Y182885D01*
X546535Y183433D01*
X546463Y183981D01*
X546252Y184492D01*
X546247Y184498D01*
X547809Y186059D01*
X547961Y186039D01*
X548509Y186111D01*
X549020Y186323D01*
X549458Y186660D01*
X549551Y186781D01*
X580461D01*
X582814Y184428D01*
X583261Y184130D01*
X583787Y184025D01*
X604637D01*
X604731Y183904D01*
X605169Y183567D01*
X605680Y183356D01*
X606228Y183283D01*
X606777Y183356D01*
X607287Y183567D01*
X607726Y183904D01*
X607747Y183930D01*
X608409Y183705D01*
Y159529D01*
X608136Y159493D01*
X607271Y159135D01*
X606529Y158565D01*
X605891Y159055D01*
Y165717D01*
X605767Y166341D01*
X605413Y166870D01*
X589665Y182618D01*
X589136Y182972D01*
X588512Y183096D01*
X578024D01*
X577760Y183299D01*
X577249Y183510D01*
X576701Y183583D01*
X576153Y183510D01*
X575642Y183299D01*
X575203Y182962D01*
X574866Y182524D01*
X574655Y182013D01*
X574583Y181465D01*
X574655Y180916D01*
X574866Y180405D01*
X575203Y179967D01*
X575642Y179630D01*
X576153Y179419D01*
X576701Y179347D01*
X577249Y179419D01*
X577760Y179630D01*
X578024Y179833D01*
X587836D01*
X602629Y165041D01*
Y158310D01*
X601966Y158085D01*
X601597Y158565D01*
X600855Y159135D01*
X599990Y159493D01*
X599063Y159615D01*
X598136Y159493D01*
X597271Y159135D01*
X596529Y158565D01*
X595960Y157823D01*
X595602Y156959D01*
X595480Y156032D01*
X595602Y155104D01*
X595960Y154240D01*
X596529Y153498D01*
X597271Y152928D01*
X598094Y152587D01*
Y152016D01*
X598168Y151645D01*
X598378Y151331D01*
X599480Y150229D01*
X599171Y149601D01*
X599063Y149615D01*
X598136Y149493D01*
X597271Y149135D01*
X596529Y148565D01*
X595960Y147823D01*
X595679Y147145D01*
X594992Y147282D01*
Y151071D01*
X594918Y151442D01*
X594708Y151756D01*
X592183Y154281D01*
X592524Y155104D01*
X592646Y156032D01*
X592524Y156959D01*
X592166Y157823D01*
X591597Y158565D01*
X590855Y159135D01*
X589990Y159493D01*
X589063Y159615D01*
X588135Y159493D01*
X587271Y159135D01*
X586565Y158593D01*
X586365Y158692D01*
X585937Y159020D01*
Y159803D01*
X588016Y161882D01*
X588226Y162196D01*
X588299Y162567D01*
Y165419D01*
X588390Y165457D01*
X588828Y165794D01*
X589165Y166232D01*
X589377Y166743D01*
X589449Y167291D01*
X589377Y167840D01*
X589165Y168350D01*
X588828Y168789D01*
X588390Y169126D01*
X587879Y169337D01*
X587331Y169410D01*
X586783Y169337D01*
X586272Y169126D01*
X585833Y168789D01*
X585496Y168350D01*
X585285Y167840D01*
X585213Y167291D01*
X585285Y166743D01*
X585496Y166232D01*
X585833Y165794D01*
X586272Y165457D01*
X586362Y165419D01*
Y162968D01*
X584284Y160890D01*
X584245Y160831D01*
X583575Y161035D01*
Y162664D01*
X583665Y162701D01*
X584104Y163038D01*
X584441Y163476D01*
X584652Y163987D01*
X584724Y164535D01*
X584652Y165084D01*
X584441Y165594D01*
X584104Y166033D01*
X583665Y166370D01*
X583154Y166581D01*
X582606Y166654D01*
X582058Y166581D01*
X581547Y166370D01*
X581109Y166033D01*
X580772Y165594D01*
X580560Y165084D01*
X580488Y164535D01*
X580560Y163987D01*
X580772Y163476D01*
X581109Y163038D01*
X581547Y162701D01*
X581638Y162664D01*
Y160242D01*
X581056Y159484D01*
X581056D01*
D01*
D01*
X580313Y159792D01*
Y156032D01*
X577813D01*
Y159792D01*
X577190Y159534D01*
X576801Y160116D01*
X578173Y161488D01*
X578383Y161803D01*
X578457Y162173D01*
Y165813D01*
X578547Y165851D01*
X578986Y166187D01*
X579322Y166626D01*
X579534Y167137D01*
X579606Y167685D01*
X579534Y168233D01*
X579322Y168744D01*
X578986Y169183D01*
X578547Y169519D01*
X578036Y169731D01*
X577488Y169803D01*
X576940Y169731D01*
X576429Y169519D01*
X575990Y169183D01*
X575654Y168744D01*
X575442Y168233D01*
X575370Y167685D01*
X575442Y167137D01*
X575654Y166626D01*
X575990Y166187D01*
X576429Y165851D01*
X576520Y165813D01*
Y162574D01*
X574047Y160102D01*
X573837Y159788D01*
X573764Y159417D01*
Y153738D01*
X572878Y152853D01*
X572188Y152967D01*
X571994Y153359D01*
X572516Y154038D01*
X572824Y154781D01*
X565302D01*
X565610Y154038D01*
X566132Y153359D01*
X565822Y152731D01*
X561686D01*
X561461Y153394D01*
X561597Y153498D01*
X562166Y154240D01*
X562524Y155104D01*
X562646Y156032D01*
X562524Y156959D01*
X562166Y157823D01*
X561597Y158565D01*
X560855Y159135D01*
X559990Y159493D01*
X559063Y159615D01*
X558136Y159493D01*
X557271Y159135D01*
X556529Y158565D01*
X555960Y157823D01*
X555602Y156959D01*
X555480Y156032D01*
X555602Y155104D01*
X555960Y154240D01*
X556529Y153498D01*
X556665Y153394D01*
X556440Y152731D01*
X551686D01*
X551461Y153394D01*
X551597Y153498D01*
X552166Y154240D01*
X552524Y155104D01*
X552646Y156032D01*
X552524Y156959D01*
X552166Y157823D01*
X551597Y158565D01*
X550855Y159135D01*
X549990Y159493D01*
X549063Y159615D01*
X548136Y159493D01*
X547271Y159135D01*
X546529Y158565D01*
X545960Y157823D01*
X545602Y156959D01*
X545480Y156032D01*
X545602Y155104D01*
X545960Y154240D01*
X546529Y153498D01*
X546665Y153394D01*
X546440Y152731D01*
X541686D01*
X541461Y153394D01*
X541597Y153498D01*
X542166Y154240D01*
X542524Y155104D01*
X542646Y156032D01*
X542524Y156959D01*
X542166Y157823D01*
X541597Y158565D01*
X540855Y159135D01*
X539990Y159493D01*
X539063Y159615D01*
X538135Y159493D01*
X537271Y159135D01*
X536529Y158565D01*
X535960Y157823D01*
X535602Y156959D01*
X535480Y156032D01*
X535602Y155104D01*
X535960Y154240D01*
X536529Y153498D01*
X536665Y153394D01*
X536440Y152731D01*
X534794D01*
X534423Y152657D01*
X534109Y152447D01*
X531246Y149584D01*
X525510D01*
Y142479D01*
X532616D01*
Y148214D01*
X535195Y150794D01*
X541541D01*
X541809Y150147D01*
X540813Y149152D01*
X539990Y149493D01*
X539063Y149615D01*
X538135Y149493D01*
X537271Y149135D01*
X536529Y148565D01*
X535960Y147823D01*
X535602Y146959D01*
X535480Y146031D01*
X535602Y145104D01*
X535960Y144240D01*
X536529Y143498D01*
X537271Y142928D01*
X538135Y142570D01*
X539063Y142448D01*
X539990Y142570D01*
X540855Y142928D01*
X541597Y143498D01*
X542166Y144240D01*
X542524Y145104D01*
X542646Y146031D01*
X542524Y146959D01*
X542183Y147782D01*
X543795Y149394D01*
X546520D01*
X546745Y148731D01*
X546529Y148565D01*
X545960Y147823D01*
X545602Y146959D01*
X545480Y146031D01*
X545602Y145104D01*
X545960Y144240D01*
X546529Y143498D01*
X547271Y142928D01*
X548136Y142570D01*
X549063Y142448D01*
X549990Y142570D01*
X550814Y142911D01*
X552381Y141344D01*
X552695Y141134D01*
X553066Y141060D01*
X583000D01*
X583371Y141134D01*
X583685Y141344D01*
X585653Y143312D01*
X585793Y143522D01*
X586493Y143545D01*
X586529Y143498D01*
X587271Y142928D01*
X588135Y142570D01*
X589063Y142448D01*
X589990Y142570D01*
X590855Y142928D01*
X591597Y143498D01*
X592166Y144240D01*
X592369Y144728D01*
X593055Y144591D01*
Y142882D01*
X593129Y142511D01*
X593339Y142197D01*
X596882Y138654D01*
X596440Y137992D01*
X522599D01*
Y175724D01*
X533000D01*
X533671Y175813D01*
X534295Y176071D01*
X534832Y176483D01*
X535244Y177020D01*
X535502Y177645D01*
X535591Y178315D01*
Y199181D01*
X555441D01*
Y220441D01*
X535591D01*
Y360764D01*
X725291D01*
Y326740D01*
D02*
G37*
G36*
X674748Y208180D02*
X674559Y208102D01*
X674120Y207766D01*
X673784Y207327D01*
X673572Y206816D01*
X673500Y206268D01*
X673572Y205719D01*
X673784Y205209D01*
X674120Y204770D01*
X674559Y204433D01*
X675070Y204222D01*
X675618Y204150D01*
X676166Y204222D01*
X676626Y204412D01*
X676763Y204321D01*
X677209Y203741D01*
Y195147D01*
X677118Y195110D01*
X676679Y194773D01*
X676343Y194335D01*
X676131Y193824D01*
X676059Y193276D01*
X676131Y192727D01*
X676343Y192217D01*
X676515Y191991D01*
X676206Y191364D01*
X671913D01*
X671431Y191733D01*
X671334Y191878D01*
X666885D01*
X666889Y191867D01*
X667290Y191345D01*
X667428Y191239D01*
X667203Y190576D01*
X663991D01*
X661074Y193493D01*
X661030Y193824D01*
X660819Y194335D01*
X660482Y194773D01*
X660043Y195110D01*
X659532Y195322D01*
X658984Y195394D01*
X658436Y195322D01*
X657925Y195110D01*
X657486Y194773D01*
X657150Y194335D01*
X656938Y193824D01*
X656866Y193276D01*
X656938Y192727D01*
X657150Y192217D01*
X657486Y191778D01*
X657925Y191441D01*
X658436Y191230D01*
X658767Y191186D01*
X662161Y187791D01*
X662691Y187438D01*
X663315Y187313D01*
X670402D01*
X670692Y187371D01*
X671022Y186754D01*
X670823Y186555D01*
X670469Y186026D01*
X670357Y185463D01*
X669702Y185217D01*
X669694Y185223D01*
X669683Y185228D01*
Y183039D01*
Y180851D01*
X669694Y180856D01*
X669717Y180874D01*
X670069Y180700D01*
X670183Y180009D01*
X663033Y172860D01*
X662670D01*
X662405Y173063D01*
X661895Y173274D01*
X661346Y173346D01*
X660798Y173274D01*
X660287Y173063D01*
X660023Y172860D01*
X659266D01*
X656595Y175531D01*
X656065Y175885D01*
X655441Y176009D01*
X646779D01*
X646155Y175885D01*
X645626Y175531D01*
X642870Y172776D01*
X642516Y172246D01*
X642392Y171622D01*
Y158618D01*
X641729Y158393D01*
X641597Y158565D01*
X640855Y159135D01*
X640032Y159476D01*
Y160835D01*
X639958Y161205D01*
X639748Y161520D01*
X625701Y175567D01*
Y182017D01*
X626364Y182241D01*
X626591Y181945D01*
X627113Y181545D01*
X627124Y181540D01*
Y183728D01*
Y185917D01*
X627113Y185912D01*
X626591Y185511D01*
X626364Y185215D01*
X625701Y185440D01*
Y194457D01*
X625627Y194827D01*
X625417Y195142D01*
X620189Y200370D01*
Y203608D01*
X620280Y203646D01*
X620718Y203983D01*
X621055Y204421D01*
X621266Y204932D01*
X621339Y205480D01*
X621266Y206029D01*
X621055Y206539D01*
X620718Y206978D01*
X620280Y207315D01*
X619769Y207526D01*
X619220Y207598D01*
X618672Y207526D01*
X618161Y207315D01*
X617723Y206978D01*
X617386Y206539D01*
X617174Y206029D01*
X617102Y205480D01*
X617174Y204932D01*
X617386Y204421D01*
X617723Y203983D01*
X618161Y203646D01*
X618252Y203608D01*
Y199969D01*
X618326Y199598D01*
X618536Y199284D01*
X623493Y194326D01*
X623334Y193645D01*
X623101Y193566D01*
X623080Y193592D01*
X622642Y193929D01*
X622131Y194140D01*
X621583Y194213D01*
X621034Y194140D01*
X620524Y193929D01*
X620085Y193592D01*
X619748Y193154D01*
X619537Y192643D01*
X619465Y192095D01*
X619537Y191546D01*
X619748Y191035D01*
X620085Y190597D01*
X620524Y190260D01*
X620614Y190223D01*
Y169653D01*
X620679Y169328D01*
X620041Y169039D01*
X619931Y169183D01*
X619492Y169519D01*
X618981Y169731D01*
X618433Y169803D01*
X617885Y169731D01*
X617374Y169519D01*
X616935Y169183D01*
X616599Y168744D01*
X616387Y168233D01*
X616315Y167685D01*
X616387Y167137D01*
X616599Y166626D01*
X616935Y166187D01*
X617374Y165851D01*
X617885Y165639D01*
X618216Y165596D01*
X622313Y161497D01*
Y158720D01*
X621651Y158495D01*
X621597Y158565D01*
X620855Y159135D01*
X619990Y159493D01*
X619969Y159496D01*
X619958Y159552D01*
X619748Y159866D01*
X614677Y164937D01*
Y205577D01*
X614768Y205614D01*
X615206Y205951D01*
X615543Y206390D01*
X615755Y206901D01*
X615827Y207449D01*
X615755Y207997D01*
X615543Y208508D01*
X615484Y208585D01*
X615793Y209213D01*
X627395D01*
X627532Y208526D01*
X627113Y208353D01*
X626591Y207952D01*
X626190Y207430D01*
X626186Y207419D01*
X628374D01*
Y206169D01*
X629624D01*
Y203981D01*
X629635Y203986D01*
X630157Y204386D01*
X630558Y204908D01*
X630810Y205517D01*
X631572Y205416D01*
X631658Y205209D01*
X631994Y204770D01*
X632433Y204433D01*
X632944Y204222D01*
X633492Y204150D01*
X634040Y204222D01*
X634501Y204412D01*
X634637Y204321D01*
X635083Y203741D01*
Y195147D01*
X634992Y195110D01*
X634553Y194773D01*
X634217Y194335D01*
X634131Y194127D01*
X634131Y194127D01*
X634005Y193824D01*
X633933Y193276D01*
X634005Y192727D01*
X634038Y192648D01*
X634038D01*
X634217Y192217D01*
X634553Y191778D01*
X634992Y191441D01*
X635503Y191230D01*
X636051Y191157D01*
X636599Y191230D01*
X637110Y191441D01*
X637549Y191778D01*
X637886Y192217D01*
X638097Y192727D01*
X638169Y193276D01*
X638097Y193824D01*
X637886Y194335D01*
X637549Y194773D01*
X637110Y195110D01*
X637020Y195147D01*
Y203741D01*
X637465Y204321D01*
X637602Y204412D01*
X638062Y204222D01*
X638610Y204150D01*
X639158Y204222D01*
X639619Y204412D01*
X639756Y204321D01*
X640201Y203741D01*
Y195147D01*
X640110Y195110D01*
X639672Y194773D01*
X639335Y194335D01*
X639123Y193824D01*
X639051Y193276D01*
X639123Y192727D01*
X639335Y192217D01*
X639672Y191778D01*
X640110Y191441D01*
X640621Y191230D01*
X641169Y191157D01*
X641717Y191230D01*
X642228Y191441D01*
X642667Y191778D01*
X643004Y192217D01*
X643215Y192727D01*
X643287Y193276D01*
X643215Y193824D01*
X643004Y194335D01*
X642667Y194773D01*
X642228Y195110D01*
X642138Y195147D01*
Y203741D01*
X642583Y204321D01*
X642720Y204412D01*
X643180Y204222D01*
X643728Y204150D01*
X644277Y204222D01*
X644737Y204412D01*
X644874Y204321D01*
X645319Y203741D01*
Y195147D01*
X645228Y195110D01*
X644790Y194773D01*
X644453Y194335D01*
X644242Y193824D01*
X644169Y193276D01*
X644242Y192727D01*
X644453Y192217D01*
X644790Y191778D01*
X645228Y191441D01*
X645739Y191230D01*
X646287Y191157D01*
X646836Y191230D01*
X647346Y191441D01*
X647785Y191778D01*
X648122Y192217D01*
X648333Y192727D01*
X648406Y193276D01*
X648333Y193824D01*
X648122Y194335D01*
X647785Y194773D01*
X647346Y195110D01*
X647256Y195147D01*
Y203741D01*
X647701Y204321D01*
X647838Y204412D01*
X648298Y204222D01*
X648846Y204150D01*
X649395Y204222D01*
X649855Y204412D01*
X649992Y204321D01*
X650437Y203741D01*
Y195147D01*
X650347Y195110D01*
X649908Y194773D01*
X649571Y194335D01*
X649360Y193824D01*
X649287Y193276D01*
X649360Y192727D01*
X649571Y192217D01*
X649908Y191778D01*
X650347Y191441D01*
X650857Y191230D01*
X651405Y191157D01*
X651954Y191230D01*
X652465Y191441D01*
X652903Y191778D01*
X653240Y192217D01*
X653451Y192727D01*
X653524Y193276D01*
X653451Y193824D01*
X653240Y194335D01*
X652903Y194773D01*
X652465Y195110D01*
X652374Y195147D01*
Y206446D01*
X653502Y207573D01*
X658131D01*
X658502Y207647D01*
X658816Y207857D01*
X667483Y216523D01*
X668238Y216623D01*
X668378Y216595D01*
X668611Y216031D01*
X669012Y215508D01*
X669534Y215108D01*
X669545Y215103D01*
Y217291D01*
X670795D01*
Y218541D01*
X672984D01*
X672979Y218552D01*
X672578Y219074D01*
X672195Y219369D01*
X672420Y220031D01*
X673173D01*
Y220431D01*
X674748D01*
Y208180D01*
D02*
G37*
G36*
X726050Y198924D02*
X730381Y194593D01*
X730917Y194182D01*
X731542Y193923D01*
X732213Y193834D01*
X773716D01*
Y137992D01*
X722575D01*
X722132Y138654D01*
X725417Y141938D01*
X725627Y142253D01*
X725701Y142623D01*
Y183298D01*
X725627Y183669D01*
X725417Y183983D01*
X710866Y198534D01*
X711134Y199181D01*
X725853D01*
X726050Y198924D01*
D02*
G37*
G36*
X722189Y182245D02*
Y159407D01*
X721561Y159097D01*
X721056Y159484D01*
X720313Y159792D01*
Y156032D01*
Y152271D01*
X721056Y152579D01*
X721561Y152966D01*
X722189Y152656D01*
Y149020D01*
X721761Y148692D01*
X721561Y148593D01*
X720855Y149135D01*
X719990Y149493D01*
X719063Y149615D01*
X718135Y149493D01*
X717312Y149152D01*
X714630Y151834D01*
X714316Y152044D01*
X713945Y152118D01*
X711545D01*
X711320Y152781D01*
X711882Y153212D01*
X712516Y154038D01*
X712824Y154781D01*
X705302D01*
X705610Y154038D01*
X706244Y153212D01*
X706806Y152781D01*
X706729Y152556D01*
X706048Y152397D01*
X705997Y152447D01*
X705683Y152657D01*
X705312Y152731D01*
X701686D01*
X701461Y153394D01*
X701597Y153498D01*
X702166Y154240D01*
X702524Y155104D01*
X702646Y156032D01*
X702524Y156959D01*
X702183Y157782D01*
X710063Y165662D01*
X710273Y165976D01*
X710347Y166347D01*
Y189829D01*
X710437Y189866D01*
X710876Y190203D01*
X711212Y190642D01*
X711424Y191153D01*
X711496Y191701D01*
X711451Y192045D01*
X712079Y192355D01*
X722189Y182245D01*
D02*
G37*
G36*
X682749Y234401D02*
X682733Y234348D01*
X682643Y233433D01*
X682733Y232519D01*
X683000Y231639D01*
X683433Y230829D01*
X684016Y230118D01*
X684726Y229535D01*
X685537Y229102D01*
X686416Y228835D01*
X687331Y228745D01*
X688245Y228835D01*
X689125Y229102D01*
X689871Y229501D01*
X690471Y229141D01*
Y226731D01*
X697970D01*
Y226731D01*
X698072D01*
X698567Y226236D01*
Y215232D01*
X696721Y213386D01*
X696093Y213695D01*
X696151Y214142D01*
X696066Y214794D01*
X695814Y215403D01*
X695413Y215925D01*
X694891Y216325D01*
X694880Y216330D01*
Y214142D01*
X693630D01*
Y212892D01*
X691442D01*
X691446Y212881D01*
X691847Y212359D01*
X692369Y211958D01*
X692977Y211706D01*
X693630Y211620D01*
X694076Y211679D01*
X694386Y211051D01*
X691611Y208276D01*
X691521Y208314D01*
X690972Y208386D01*
X690424Y208314D01*
X689964Y208123D01*
X689827Y208215D01*
X689382Y208795D01*
Y223284D01*
X689308Y223655D01*
X689098Y223969D01*
X679106Y233961D01*
X679374Y234608D01*
X681611D01*
X681982Y234682D01*
X682187Y234818D01*
X682749Y234401D01*
D02*
G37*
%LPC*%
G36*
X632183Y195562D02*
Y194624D01*
X633121D01*
X633117Y194635D01*
X632716Y195157D01*
X632194Y195558D01*
X632183Y195562D01*
D02*
G37*
G36*
X538049Y196251D02*
X538038Y196247D01*
X537516Y195846D01*
X537115Y195324D01*
X537111Y195313D01*
X538049D01*
Y196251D01*
D02*
G37*
G36*
X670323Y195316D02*
Y194378D01*
X671261D01*
X671257Y194389D01*
X670856Y194911D01*
X670334Y195312D01*
X670323Y195316D01*
D02*
G37*
G36*
X629683Y195562D02*
X629672Y195558D01*
X629150Y195157D01*
X628749Y194635D01*
X628745Y194624D01*
X629683D01*
Y195562D01*
D02*
G37*
G36*
X540549Y196251D02*
Y195313D01*
X541487D01*
X541483Y195324D01*
X541082Y195846D01*
X540560Y196247D01*
X540549Y196251D01*
D02*
G37*
G36*
X576435Y199991D02*
X576424Y199987D01*
X575902Y199586D01*
X575501Y199064D01*
X575497Y199053D01*
X576435D01*
Y199991D01*
D02*
G37*
G36*
X578935D02*
Y199053D01*
X579873D01*
X579869Y199064D01*
X579468Y199586D01*
X578946Y199987D01*
X578935Y199991D01*
D02*
G37*
G36*
X576435Y196553D02*
X575497D01*
X575501Y196542D01*
X575902Y196020D01*
X576424Y195619D01*
X576435Y195615D01*
Y196553D01*
D02*
G37*
G36*
X579873D02*
X578935D01*
Y195615D01*
X578946Y195619D01*
X579468Y196020D01*
X579869Y196542D01*
X579873Y196553D01*
D02*
G37*
G36*
X699467Y186802D02*
X699456Y186798D01*
X698934Y186397D01*
X698533Y185875D01*
X698528Y185864D01*
X699467D01*
Y186802D01*
D02*
G37*
G36*
X701966D02*
Y185864D01*
X702905D01*
X702900Y185875D01*
X702500Y186397D01*
X701977Y186798D01*
X701966Y186802D01*
D02*
G37*
G36*
X667183Y185228D02*
X667172Y185223D01*
X666650Y184822D01*
X666249Y184300D01*
X666245Y184289D01*
X667183D01*
Y185228D01*
D02*
G37*
G36*
X629624Y185917D02*
Y184978D01*
X630562D01*
X630558Y184989D01*
X630157Y185511D01*
X629635Y185912D01*
X629624Y185917D01*
D02*
G37*
G36*
X629683Y192124D02*
X628745D01*
X628749Y192113D01*
X629150Y191591D01*
X629672Y191190D01*
X629683Y191186D01*
Y192124D01*
D02*
G37*
G36*
X541487Y192813D02*
X540549D01*
Y191875D01*
X540560Y191879D01*
X541082Y192280D01*
X541483Y192802D01*
X541487Y192813D01*
D02*
G37*
G36*
X667823Y195316D02*
X667812Y195312D01*
X667290Y194911D01*
X666889Y194389D01*
X666885Y194378D01*
X667823D01*
Y195316D01*
D02*
G37*
G36*
X633121Y192124D02*
X632183D01*
Y191186D01*
X632194Y191190D01*
X632716Y191591D01*
X633117Y192113D01*
X633121Y192124D01*
D02*
G37*
G36*
X538049Y192813D02*
X537111D01*
X537115Y192802D01*
X537516Y192280D01*
X538038Y191879D01*
X538049Y191875D01*
Y192813D01*
D02*
G37*
G36*
X627124Y204919D02*
X626186D01*
X626190Y204908D01*
X626591Y204386D01*
X627113Y203986D01*
X627124Y203981D01*
Y204919D01*
D02*
G37*
G36*
X652813Y231881D02*
X652802Y231877D01*
X652280Y231476D01*
X651879Y230954D01*
X651875Y230943D01*
X652813D01*
Y231881D01*
D02*
G37*
G36*
X629722Y231881D02*
Y230943D01*
X630661D01*
X630656Y230954D01*
X630256Y231476D01*
X629733Y231877D01*
X629722Y231881D01*
D02*
G37*
G36*
X615411Y231881D02*
X615401Y231877D01*
X614878Y231476D01*
X614478Y230954D01*
X614473Y230943D01*
X615411D01*
Y231881D01*
D02*
G37*
G36*
X617911D02*
Y230943D01*
X618850D01*
X618845Y230954D01*
X618444Y231476D01*
X617922Y231877D01*
X617911Y231881D01*
D02*
G37*
G36*
X633128Y231881D02*
X633117Y231877D01*
X632595Y231476D01*
X632194Y230954D01*
X632190Y230943D01*
X633128D01*
Y231881D01*
D02*
G37*
G36*
X641534D02*
Y230943D01*
X642472D01*
X642467Y230954D01*
X642066Y231476D01*
X641544Y231877D01*
X641534Y231881D01*
D02*
G37*
G36*
X659250D02*
Y230943D01*
X660188D01*
X660184Y230954D01*
X659783Y231476D01*
X659261Y231877D01*
X659250Y231881D01*
D02*
G37*
G36*
X635628D02*
Y230943D01*
X636566D01*
X636562Y230954D01*
X636161Y231476D01*
X635639Y231877D01*
X635628Y231881D01*
D02*
G37*
G36*
X639034D02*
X639023Y231877D01*
X638500Y231476D01*
X638100Y230954D01*
X638095Y230943D01*
X639034D01*
Y231881D01*
D02*
G37*
G36*
X542380Y329322D02*
X542369Y329318D01*
X541847Y328917D01*
X541446Y328395D01*
X541442Y328384D01*
X542380D01*
Y329322D01*
D02*
G37*
G36*
X672984Y216041D02*
X672045D01*
Y215103D01*
X672056Y215108D01*
X672578Y215508D01*
X672979Y216031D01*
X672984Y216041D01*
D02*
G37*
G36*
X665109Y209173D02*
X664561Y209101D01*
X664050Y208890D01*
X663611Y208553D01*
X663274Y208114D01*
X663063Y207603D01*
X662991Y207055D01*
X663051Y206595D01*
X662496Y206169D01*
X662070Y206345D01*
X661521Y206417D01*
X660973Y206345D01*
X660462Y206134D01*
X660023Y205797D01*
X659687Y205358D01*
X659475Y204847D01*
X659403Y204299D01*
X659475Y203751D01*
X659687Y203240D01*
X660023Y202801D01*
X660462Y202465D01*
X660973Y202253D01*
X661521Y202181D01*
X662070Y202253D01*
X662580Y202465D01*
X663019Y202801D01*
X663356Y203240D01*
X663567Y203751D01*
X663639Y204299D01*
X663579Y204760D01*
X664134Y205186D01*
X664561Y205009D01*
X665109Y204937D01*
X665657Y205009D01*
X666168Y205221D01*
X666606Y205557D01*
X666943Y205996D01*
X667155Y206507D01*
X667227Y207055D01*
X667155Y207603D01*
X666943Y208114D01*
X666606Y208553D01*
X666168Y208890D01*
X665657Y209101D01*
X665109Y209173D01*
D02*
G37*
G36*
X544880Y329322D02*
Y328384D01*
X545818D01*
X545814Y328395D01*
X545413Y328917D01*
X544891Y329318D01*
X544880Y329322D01*
D02*
G37*
G36*
X692380Y216330D02*
X692369Y216325D01*
X691847Y215925D01*
X691446Y215403D01*
X691442Y215392D01*
X692380D01*
Y216330D01*
D02*
G37*
G36*
X636566Y228443D02*
X632190D01*
X632194Y228432D01*
X632595Y227910D01*
X633117Y227509D01*
X633725Y227257D01*
X634378Y227171D01*
X635031Y227257D01*
X635639Y227509D01*
X636161Y227910D01*
X636562Y228432D01*
X636566Y228443D01*
D02*
G37*
G36*
X642472D02*
X638095D01*
X638100Y228432D01*
X638500Y227910D01*
X639023Y227509D01*
X639631Y227257D01*
X640283Y227171D01*
X640936Y227257D01*
X641544Y227509D01*
X642066Y227910D01*
X642467Y228432D01*
X642472Y228443D01*
D02*
G37*
G36*
X618850Y228443D02*
X614473D01*
X614478Y228432D01*
X614878Y227910D01*
X615401Y227509D01*
X616009Y227257D01*
X616661Y227171D01*
X617314Y227257D01*
X617922Y227509D01*
X618444Y227910D01*
X618845Y228432D01*
X618850Y228443D01*
D02*
G37*
G36*
X612944Y228443D02*
X608568D01*
X608572Y228432D01*
X608973Y227910D01*
X609495Y227509D01*
X610103Y227257D01*
X610756Y227171D01*
X611409Y227257D01*
X612017Y227509D01*
X612539Y227910D01*
X612940Y228432D01*
X612944Y228443D01*
D02*
G37*
G36*
X746711Y145858D02*
X746700Y145853D01*
X746178Y145452D01*
X745777Y144930D01*
X745772Y144919D01*
X746711D01*
Y145858D01*
D02*
G37*
G36*
X749211D02*
Y144919D01*
X750149D01*
X750144Y144930D01*
X749744Y145452D01*
X749221Y145853D01*
X749211Y145858D01*
D02*
G37*
G36*
X757340Y145464D02*
X757330Y145459D01*
X756808Y145059D01*
X756407Y144536D01*
X756402Y144526D01*
X757340D01*
Y145464D01*
D02*
G37*
G36*
X759840D02*
Y144526D01*
X760779D01*
X760774Y144536D01*
X760374Y145059D01*
X759851Y145459D01*
X759840Y145464D01*
D02*
G37*
G36*
X734309Y147734D02*
X733371D01*
X733375Y147723D01*
X733776Y147201D01*
X734298Y146800D01*
X734309Y146796D01*
Y147734D01*
D02*
G37*
G36*
X736809Y151172D02*
Y150234D01*
X737747D01*
X737743Y150245D01*
X737342Y150767D01*
X736820Y151168D01*
X736809Y151172D01*
D02*
G37*
G36*
X717813Y154781D02*
X715302D01*
X715610Y154038D01*
X716244Y153212D01*
X717070Y152579D01*
X717813Y152271D01*
Y154781D01*
D02*
G37*
G36*
X737747Y147734D02*
X736809D01*
Y146796D01*
X736820Y146800D01*
X737342Y147201D01*
X737743Y147723D01*
X737747Y147734D01*
D02*
G37*
G36*
X734309Y151172D02*
X734298Y151168D01*
X733776Y150767D01*
X733375Y150245D01*
X733371Y150234D01*
X734309D01*
Y151172D01*
D02*
G37*
G36*
X769834Y141632D02*
X768896D01*
Y140694D01*
X768906Y140698D01*
X769429Y141099D01*
X769829Y141621D01*
X769834Y141632D01*
D02*
G37*
G36*
X757340Y142026D02*
X756402D01*
X756407Y142015D01*
X756808Y141493D01*
X757330Y141092D01*
X757340Y141087D01*
Y142026D01*
D02*
G37*
G36*
X553148Y329322D02*
Y328384D01*
X554086D01*
X554081Y328395D01*
X553681Y328917D01*
X553158Y329318D01*
X553148Y329322D01*
D02*
G37*
G36*
X766396Y141632D02*
X765457D01*
X765462Y141621D01*
X765863Y141099D01*
X766385Y140698D01*
X766396Y140694D01*
Y141632D01*
D02*
G37*
G36*
X760779Y142026D02*
X759840D01*
Y141087D01*
X759851Y141092D01*
X760374Y141493D01*
X760774Y142015D01*
X760779Y142026D01*
D02*
G37*
G36*
X766396Y145070D02*
X766385Y145066D01*
X765863Y144665D01*
X765462Y144143D01*
X765457Y144132D01*
X766396D01*
Y145070D01*
D02*
G37*
G36*
X768896D02*
Y144132D01*
X769834D01*
X769829Y144143D01*
X769429Y144665D01*
X768906Y145066D01*
X768896Y145070D01*
D02*
G37*
G36*
X746711Y142419D02*
X745772D01*
X745777Y142409D01*
X746178Y141886D01*
X746700Y141486D01*
X746711Y141481D01*
Y142419D01*
D02*
G37*
G36*
X750149D02*
X749211D01*
Y141481D01*
X749221Y141486D01*
X749744Y141886D01*
X750144Y142409D01*
X750149Y142419D01*
D02*
G37*
G36*
X529063Y159615D02*
X528135Y159493D01*
X527271Y159135D01*
X526529Y158565D01*
X525960Y157823D01*
X525602Y156959D01*
X525480Y156032D01*
X525602Y155104D01*
X525960Y154240D01*
X526529Y153498D01*
X527271Y152928D01*
X528135Y152570D01*
X529063Y152448D01*
X529990Y152570D01*
X530855Y152928D01*
X531597Y153498D01*
X532166Y154240D01*
X532524Y155104D01*
X532646Y156032D01*
X532524Y156959D01*
X532166Y157823D01*
X531597Y158565D01*
X530855Y159135D01*
X529990Y159493D01*
X529063Y159615D01*
D02*
G37*
G36*
X572590Y178246D02*
X571652D01*
Y177308D01*
X571662Y177312D01*
X572185Y177713D01*
X572585Y178235D01*
X572590Y178246D01*
D02*
G37*
G36*
X569152Y181684D02*
X569141Y181680D01*
X568619Y181279D01*
X568218Y180757D01*
X568213Y180746D01*
X569152D01*
Y181684D01*
D02*
G37*
G36*
X578148Y177550D02*
Y176612D01*
X579086D01*
X579081Y176623D01*
X578681Y177145D01*
X578158Y177546D01*
X578148Y177550D01*
D02*
G37*
G36*
X569152Y178246D02*
X568213D01*
X568218Y178235D01*
X568619Y177713D01*
X569141Y177312D01*
X569152Y177308D01*
Y178246D01*
D02*
G37*
G36*
X571652Y181684D02*
Y180746D01*
X572590D01*
X572585Y180757D01*
X572185Y181279D01*
X571662Y181680D01*
X571652Y181684D01*
D02*
G37*
G36*
X699467Y183364D02*
X698528D01*
X698533Y183353D01*
X698934Y182831D01*
X699456Y182430D01*
X699467Y182426D01*
Y183364D01*
D02*
G37*
G36*
X702905D02*
X701966D01*
Y182426D01*
X701977Y182430D01*
X702500Y182831D01*
X702900Y183353D01*
X702905Y183364D01*
D02*
G37*
G36*
X667183Y181789D02*
X666245D01*
X666249Y181779D01*
X666650Y181256D01*
X667172Y180856D01*
X667183Y180851D01*
Y181789D01*
D02*
G37*
G36*
X630562Y182478D02*
X629624D01*
Y181540D01*
X629635Y181545D01*
X630157Y181945D01*
X630558Y182468D01*
X630562Y182478D01*
D02*
G37*
G36*
X707813Y159792D02*
X707070Y159484D01*
X706244Y158851D01*
X705610Y158025D01*
X705302Y157281D01*
X707813D01*
Y159792D01*
D02*
G37*
G36*
X710313D02*
Y157281D01*
X712824D01*
X712516Y158025D01*
X711882Y158851D01*
X711056Y159484D01*
X710313Y159792D01*
D02*
G37*
G36*
X567813D02*
X567070Y159484D01*
X566244Y158851D01*
X565610Y158025D01*
X565302Y157281D01*
X567813D01*
Y159792D01*
D02*
G37*
G36*
X570313D02*
Y157281D01*
X572824D01*
X572516Y158025D01*
X571882Y158851D01*
X571056Y159484D01*
X570313Y159792D01*
D02*
G37*
G36*
X717813D02*
X717070Y159484D01*
X716244Y158851D01*
X715610Y158025D01*
X715302Y157281D01*
X717813D01*
Y159792D01*
D02*
G37*
G36*
X579086Y174112D02*
X578148D01*
Y173174D01*
X578158Y173179D01*
X578681Y173579D01*
X579081Y174101D01*
X579086Y174112D01*
D02*
G37*
G36*
X575648Y177550D02*
X575637Y177546D01*
X575115Y177145D01*
X574714Y176623D01*
X574709Y176612D01*
X575648D01*
Y177550D01*
D02*
G37*
G36*
X550648Y329322D02*
X550637Y329318D01*
X550115Y328917D01*
X549714Y328395D01*
X549709Y328384D01*
X550648D01*
Y329322D01*
D02*
G37*
G36*
X575648Y174112D02*
X574709D01*
X574714Y174101D01*
X575115Y173579D01*
X575637Y173179D01*
X575648Y173174D01*
Y174112D01*
D02*
G37*
G36*
X566684Y269585D02*
X565746D01*
Y268646D01*
X565757Y268651D01*
X566279Y269052D01*
X566680Y269574D01*
X566684Y269585D01*
D02*
G37*
G36*
X627488Y274134D02*
X626940Y274062D01*
X626429Y273850D01*
X625990Y273514D01*
X625654Y273075D01*
X625442Y272564D01*
X625370Y272016D01*
X625442Y271467D01*
X625654Y270957D01*
X625990Y270518D01*
X626429Y270181D01*
X626940Y269970D01*
X627488Y269898D01*
X628036Y269970D01*
X628547Y270181D01*
X628986Y270518D01*
X629322Y270957D01*
X629534Y271467D01*
X629606Y272016D01*
X629534Y272564D01*
X629322Y273075D01*
X628986Y273514D01*
X628547Y273850D01*
X628036Y274062D01*
X627488Y274134D01*
D02*
G37*
G36*
X554086Y325884D02*
X553148D01*
Y324946D01*
X553158Y324950D01*
X553681Y325351D01*
X554081Y325873D01*
X554086Y325884D01*
D02*
G37*
G36*
X563246Y269585D02*
X562308D01*
X562312Y269574D01*
X562713Y269052D01*
X563235Y268651D01*
X563246Y268646D01*
Y269585D01*
D02*
G37*
G36*
X641593Y271054D02*
X641582Y271050D01*
X641059Y270649D01*
X640659Y270127D01*
X640654Y270116D01*
X641593D01*
Y271054D01*
D02*
G37*
G36*
X662990Y271448D02*
Y270510D01*
X663928D01*
X663924Y270521D01*
X663523Y271043D01*
X663001Y271444D01*
X662990Y271448D01*
D02*
G37*
G36*
X618827Y275709D02*
X618279Y275637D01*
X617768Y275425D01*
X617329Y275088D01*
X616992Y274650D01*
X616781Y274139D01*
X616709Y273590D01*
X616781Y273042D01*
X616992Y272532D01*
X617329Y272093D01*
X617768Y271756D01*
X618279Y271545D01*
X618827Y271472D01*
X619375Y271545D01*
X619886Y271756D01*
X620325Y272093D01*
X620661Y272532D01*
X620873Y273042D01*
X620945Y273590D01*
X620873Y274139D01*
X620661Y274650D01*
X620325Y275088D01*
X619886Y275425D01*
X619375Y275637D01*
X618827Y275709D01*
D02*
G37*
G36*
X644093Y271054D02*
Y270116D01*
X645031D01*
X645026Y270127D01*
X644626Y270649D01*
X644103Y271050D01*
X644093Y271054D01*
D02*
G37*
G36*
X660490Y271448D02*
X660479Y271444D01*
X659957Y271043D01*
X659556Y270521D01*
X659552Y270510D01*
X660490D01*
Y271448D01*
D02*
G37*
G36*
X543561Y265936D02*
X543550Y265932D01*
X543028Y265531D01*
X542627Y265009D01*
X542623Y264998D01*
X543561D01*
Y265936D01*
D02*
G37*
G36*
X546061D02*
Y264998D01*
X546999D01*
X546995Y265009D01*
X546594Y265531D01*
X546072Y265932D01*
X546061Y265936D01*
D02*
G37*
G36*
X559723Y264775D02*
X559712Y264770D01*
X559189Y264370D01*
X558789Y263847D01*
X558784Y263837D01*
X559723D01*
Y264775D01*
D02*
G37*
G36*
X562222D02*
Y263837D01*
X563161D01*
X563156Y263847D01*
X562755Y264370D01*
X562233Y264770D01*
X562222Y264775D01*
D02*
G37*
G36*
X572301Y267117D02*
X572290Y267113D01*
X571768Y266712D01*
X571367Y266190D01*
X571363Y266179D01*
X572301D01*
Y267117D01*
D02*
G37*
G36*
X645031Y267616D02*
X644093D01*
Y266678D01*
X644103Y266682D01*
X644626Y267083D01*
X645026Y267605D01*
X645031Y267616D01*
D02*
G37*
G36*
X660490Y268010D02*
X659552D01*
X659556Y267999D01*
X659957Y267477D01*
X660479Y267076D01*
X660490Y267072D01*
Y268010D01*
D02*
G37*
G36*
X574801Y267117D02*
Y266179D01*
X575739D01*
X575735Y266190D01*
X575334Y266712D01*
X574812Y267113D01*
X574801Y267117D01*
D02*
G37*
G36*
X641593Y267616D02*
X640654D01*
X640659Y267605D01*
X641059Y267083D01*
X641582Y266682D01*
X641593Y266678D01*
Y267616D01*
D02*
G37*
G36*
X563246Y273023D02*
X563235Y273018D01*
X562713Y272618D01*
X562312Y272095D01*
X562308Y272085D01*
X563246D01*
Y273023D01*
D02*
G37*
G36*
X545530Y310031D02*
X545519Y310026D01*
X544997Y309626D01*
X544596Y309103D01*
X544591Y309092D01*
X545530D01*
Y310031D01*
D02*
G37*
G36*
X548030D02*
Y309092D01*
X548968D01*
X548963Y309103D01*
X548563Y309626D01*
X548040Y310026D01*
X548030Y310031D01*
D02*
G37*
G36*
X665608Y306881D02*
X665597Y306877D01*
X665075Y306476D01*
X664675Y305954D01*
X664670Y305943D01*
X665608D01*
Y306881D01*
D02*
G37*
G36*
X668108D02*
Y305943D01*
X669046D01*
X669042Y305954D01*
X668641Y306476D01*
X668119Y306877D01*
X668108Y306881D01*
D02*
G37*
G36*
X643561Y323522D02*
X642623D01*
X642627Y323511D01*
X643028Y322989D01*
X643550Y322588D01*
X643561Y322583D01*
Y323522D01*
D02*
G37*
G36*
X545818Y325884D02*
X544880D01*
Y324946D01*
X544891Y324950D01*
X545413Y325351D01*
X545814Y325873D01*
X545818Y325884D01*
D02*
G37*
G36*
X550648D02*
X549709D01*
X549714Y325873D01*
X550115Y325351D01*
X550637Y324950D01*
X550648Y324946D01*
Y325884D01*
D02*
G37*
G36*
X646999Y323522D02*
X646061D01*
Y322583D01*
X646072Y322588D01*
X646594Y322989D01*
X646995Y323511D01*
X646999Y323522D01*
D02*
G37*
G36*
X542380Y325884D02*
X541442D01*
X541446Y325873D01*
X541847Y325351D01*
X542369Y324950D01*
X542380Y324946D01*
Y325884D01*
D02*
G37*
G36*
X593062Y287301D02*
X592124D01*
Y286363D01*
X592135Y286367D01*
X592657Y286768D01*
X593058Y287290D01*
X593062Y287301D01*
D02*
G37*
G36*
X589624Y290739D02*
X589613Y290735D01*
X589091Y290334D01*
X588690Y289812D01*
X588686Y289801D01*
X589624D01*
Y290739D01*
D02*
G37*
G36*
X565746Y273023D02*
Y272085D01*
X566684D01*
X566680Y272095D01*
X566279Y272618D01*
X565757Y273018D01*
X565746Y273023D01*
D02*
G37*
G36*
X589624Y287301D02*
X588686D01*
X588690Y287290D01*
X589091Y286768D01*
X589613Y286367D01*
X589624Y286363D01*
Y287301D01*
D02*
G37*
G36*
X592124Y290739D02*
Y289801D01*
X593062D01*
X593058Y289812D01*
X592657Y290334D01*
X592135Y290735D01*
X592124Y290739D01*
D02*
G37*
G36*
X545530Y306592D02*
X544591D01*
X544596Y306582D01*
X544997Y306060D01*
X545519Y305659D01*
X545530Y305654D01*
Y306592D01*
D02*
G37*
G36*
X548968D02*
X548030D01*
Y305654D01*
X548040Y305659D01*
X548563Y306060D01*
X548963Y306582D01*
X548968Y306592D01*
D02*
G37*
G36*
X665608Y303443D02*
X664670D01*
X664675Y303432D01*
X665075Y302910D01*
X665597Y302509D01*
X665608Y302505D01*
Y303443D01*
D02*
G37*
G36*
X669046D02*
X668108D01*
Y302505D01*
X668119Y302509D01*
X668641Y302910D01*
X669042Y303432D01*
X669046Y303443D01*
D02*
G37*
G36*
X622301Y251763D02*
X622290Y251759D01*
X621768Y251358D01*
X621367Y250836D01*
X621363Y250825D01*
X622301D01*
Y251763D01*
D02*
G37*
G36*
X624801D02*
Y250825D01*
X625739D01*
X625735Y250836D01*
X625334Y251358D01*
X624812Y251759D01*
X624801Y251763D01*
D02*
G37*
G36*
X543561Y251081D02*
X542623D01*
X542627Y251070D01*
X543028Y250548D01*
X543550Y250147D01*
X543561Y250143D01*
Y251081D01*
D02*
G37*
G36*
X546999D02*
X546061D01*
Y250143D01*
X546072Y250147D01*
X546594Y250548D01*
X546995Y251070D01*
X546999Y251081D01*
D02*
G37*
G36*
X648423Y251763D02*
Y250825D01*
X649361D01*
X649357Y250836D01*
X648956Y251358D01*
X648434Y251759D01*
X648423Y251763D01*
D02*
G37*
G36*
X608069Y252354D02*
Y251415D01*
X609007D01*
X609003Y251426D01*
X608602Y251948D01*
X608080Y252349D01*
X608069Y252354D01*
D02*
G37*
G36*
X611474D02*
X611464Y252349D01*
X610941Y251948D01*
X610541Y251426D01*
X610536Y251415D01*
X611474D01*
Y252354D01*
D02*
G37*
G36*
X672045Y251763D02*
Y250825D01*
X672984D01*
X672979Y250836D01*
X672578Y251358D01*
X672056Y251759D01*
X672045Y251763D01*
D02*
G37*
G36*
X605569Y252354D02*
X605558Y252349D01*
X605036Y251948D01*
X604635Y251426D01*
X604631Y251415D01*
X605569D01*
Y252354D01*
D02*
G37*
G36*
X646061Y326960D02*
Y326022D01*
X646999D01*
X646995Y326032D01*
X646594Y326555D01*
X646072Y326955D01*
X646061Y326960D01*
D02*
G37*
G36*
X643561D02*
X643550Y326955D01*
X643028Y326555D01*
X642627Y326032D01*
X642623Y326022D01*
X643561D01*
Y326960D01*
D02*
G37*
G36*
X656750Y231881D02*
X656739Y231877D01*
X656217Y231476D01*
D01*
X655846Y231476D01*
X655324Y231877D01*
X655313Y231881D01*
Y229693D01*
X654063D01*
Y228443D01*
X651875D01*
X651879Y228432D01*
X652280Y227910D01*
X652802Y227509D01*
X653410Y227257D01*
X654063Y227171D01*
X654716Y227257D01*
X655324Y227509D01*
X655846Y227910D01*
X655846Y227910D01*
X656217D01*
X656739Y227509D01*
X657347Y227257D01*
X658000Y227171D01*
X658653Y227257D01*
X659261Y227509D01*
X659783Y227910D01*
X660184Y228432D01*
X660188Y228443D01*
X658000D01*
Y229693D01*
X656750D01*
Y231881D01*
D02*
G37*
G36*
X622301Y232865D02*
X622290Y232861D01*
X621768Y232460D01*
X621367Y231938D01*
X621363Y231927D01*
X622301D01*
Y232865D01*
D02*
G37*
G36*
X609007Y248915D02*
X604631D01*
X604635Y248905D01*
X605036Y248382D01*
X605558Y247982D01*
X606166Y247730D01*
X606819Y247644D01*
X607472Y247730D01*
X608080Y247982D01*
X608602Y248382D01*
X609003Y248905D01*
X609007Y248915D01*
D02*
G37*
G36*
X638535D02*
X634158D01*
X634163Y248905D01*
X634563Y248382D01*
X635086Y247982D01*
X635694Y247730D01*
X636346Y247644D01*
X636999Y247730D01*
X637607Y247982D01*
X638130Y248382D01*
X638530Y248905D01*
X638535Y248915D01*
D02*
G37*
G36*
X656251Y248915D02*
X651875D01*
X651879Y248905D01*
X652280Y248382D01*
X652802Y247982D01*
X653410Y247730D01*
X654063Y247644D01*
X654716Y247730D01*
X655324Y247982D01*
X655846Y248382D01*
X656247Y248905D01*
X656251Y248915D01*
D02*
G37*
G36*
X614913Y248915D02*
X610536D01*
X610541Y248905D01*
X610941Y248382D01*
X611464Y247982D01*
X612072Y247730D01*
X612724Y247644D01*
X613377Y247730D01*
X613985Y247982D01*
X614507Y248382D01*
X614908Y248905D01*
X614913Y248915D01*
D02*
G37*
G36*
X632629D02*
X628253D01*
X628257Y248905D01*
X628658Y248382D01*
X629180Y247982D01*
X629788Y247730D01*
X630441Y247644D01*
X631094Y247730D01*
X631702Y247982D01*
X632224Y248382D01*
X632625Y248905D01*
X632629Y248915D01*
D02*
G37*
G36*
X613974Y252354D02*
Y251415D01*
X614913D01*
X614908Y251426D01*
X614507Y251948D01*
X613985Y252349D01*
X613974Y252354D01*
D02*
G37*
G36*
X582039Y260136D02*
X581100D01*
Y259198D01*
X581111Y259202D01*
X581633Y259603D01*
X582034Y260125D01*
X582039Y260136D01*
D02*
G37*
G36*
X559723Y261337D02*
X558784D01*
X558789Y261326D01*
X559189Y260804D01*
X559712Y260403D01*
X559723Y260398D01*
Y261337D01*
D02*
G37*
G36*
X546061Y254519D02*
Y253581D01*
X546999D01*
X546995Y253591D01*
X546594Y254114D01*
X546072Y254514D01*
X546061Y254519D01*
D02*
G37*
G36*
X578600Y260136D02*
X577662D01*
X577667Y260125D01*
X578067Y259603D01*
X578590Y259202D01*
X578600Y259198D01*
Y260136D01*
D02*
G37*
G36*
X563161Y261337D02*
X562222D01*
Y260398D01*
X562233Y260403D01*
X562755Y260804D01*
X563156Y261326D01*
X563161Y261337D01*
D02*
G37*
G36*
X572301Y263679D02*
X571363D01*
X571367Y263668D01*
X571768Y263146D01*
X572290Y262745D01*
X572301Y262741D01*
Y263679D01*
D02*
G37*
G36*
X575739D02*
X574801D01*
Y262741D01*
X574812Y262745D01*
X575334Y263146D01*
X575735Y263668D01*
X575739Y263679D01*
D02*
G37*
G36*
X543561Y262498D02*
X542623D01*
X542627Y262487D01*
X543028Y261965D01*
X543550Y261564D01*
X543561Y261560D01*
Y262498D01*
D02*
G37*
G36*
X546999D02*
X546061D01*
Y261560D01*
X546072Y261564D01*
X546594Y261965D01*
X546995Y262487D01*
X546999Y262498D01*
D02*
G37*
G36*
X635097Y252354D02*
X635086Y252349D01*
X634563Y251948D01*
X634163Y251426D01*
X634158Y251415D01*
X635097D01*
Y252354D01*
D02*
G37*
G36*
X637597D02*
Y251415D01*
X638535D01*
X638530Y251426D01*
X638130Y251948D01*
X637607Y252349D01*
X637597Y252354D01*
D02*
G37*
G36*
X629191D02*
X629180Y252349D01*
X628658Y251948D01*
X628257Y251426D01*
X628253Y251415D01*
X629191D01*
Y252354D01*
D02*
G37*
G36*
X631691D02*
Y251415D01*
X632629D01*
X632625Y251426D01*
X632224Y251948D01*
X631702Y252349D01*
X631691Y252354D01*
D02*
G37*
G36*
X641002D02*
X640991Y252349D01*
X640469Y251948D01*
X640068Y251426D01*
X640064Y251415D01*
X641002D01*
Y252354D01*
D02*
G37*
G36*
X655313Y252354D02*
Y251415D01*
X656251D01*
X656247Y251426D01*
X655846Y251948D01*
X655324Y252349D01*
X655313Y252354D01*
D02*
G37*
G36*
X543561Y254519D02*
X543550Y254514D01*
X543028Y254114D01*
X542627Y253591D01*
X542623Y253581D01*
X543561D01*
Y254519D01*
D02*
G37*
G36*
X664624Y252354D02*
X664613Y252349D01*
X664091Y251948D01*
X663690Y251426D01*
X663686Y251415D01*
X664624D01*
Y252354D01*
D02*
G37*
G36*
X652813Y252354D02*
X652802Y252349D01*
X652280Y251948D01*
X651879Y251426D01*
X651875Y251415D01*
X652813D01*
Y252354D01*
D02*
G37*
%LPD*%
D24*
X608984Y280677D02*
X619220Y290913D01*
X608984Y267685D02*
Y280677D01*
X606228Y281858D02*
X626307Y301937D01*
X606228Y262173D02*
Y281858D01*
Y262173D02*
X611740Y256661D01*
X584181Y260205D02*
Y264142D01*
Y240520D02*
Y260205D01*
X592449D01*
X595205Y262961D01*
Y266898D01*
X592055Y270047D02*
X595205Y266898D01*
X588905Y235795D02*
X594024D01*
X584181Y240520D02*
X588905Y235795D01*
X594024D02*
X596386Y233433D01*
X582213Y266110D02*
X584181Y264142D01*
X596386Y233433D02*
X601504D01*
X602882Y232055D01*
Y223197D02*
Y232055D01*
X589299Y263748D02*
X592055D01*
X584181Y268866D02*
X589299Y263748D01*
X584181Y268866D02*
Y281071D01*
X580638Y284614D02*
X584181Y281071D01*
X573551Y284614D02*
X580638D01*
X626504Y220638D02*
Y223197D01*
X624448Y218582D02*
X626504Y220638D01*
X619655Y219982D02*
X620598Y220924D01*
X630441Y220244D02*
Y223197D01*
X627378Y217181D02*
X630441Y220244D01*
X592154Y204299D02*
Y213453D01*
X632409Y219850D02*
Y223197D01*
X628340Y215781D02*
X632409Y219850D01*
X587035Y204299D02*
Y213846D01*
X589595Y191307D02*
Y214426D01*
X594713Y191307D02*
Y212862D01*
X597272Y204299D02*
Y211330D01*
X631665Y214382D02*
X636346Y219063D01*
Y223197D01*
X599831Y191307D02*
Y210500D01*
X602312Y212982D01*
X602390Y204299D02*
Y209318D01*
X604654Y211581D01*
X604949Y191307D02*
Y207721D01*
X607409Y210181D01*
X644220Y220233D02*
Y223197D01*
X648354Y218472D02*
X650126Y220244D01*
Y223197D01*
X632627Y212982D02*
X638315Y218669D01*
Y223197D01*
X633492Y206268D02*
Y207547D01*
X644417Y218472D01*
X648354D01*
X634146Y210181D02*
X643837Y219872D01*
X643860D01*
X644220Y220233D01*
X633567Y211581D02*
X642252Y220267D01*
Y223197D01*
X651766Y222869D02*
X652095Y223197D01*
X651766Y219905D02*
Y222869D01*
X648934Y217072D02*
X651766Y219905D01*
X644997Y217072D02*
X648934D01*
X636051Y208126D02*
X644997Y217072D01*
X636051Y193276D02*
Y208126D01*
X656032Y219850D02*
Y223197D01*
X651854Y215672D02*
X656032Y219850D01*
X645577Y215672D02*
X651854D01*
X638610Y208706D02*
X645577Y215672D01*
X638610Y206268D02*
Y208706D01*
X641169Y193276D02*
Y209285D01*
X646026Y214142D01*
X654654D01*
X659969Y219457D01*
Y223197D01*
X643728Y206268D02*
Y209864D01*
X646606Y212742D01*
X655616D01*
X661937Y219063D01*
Y223197D01*
X646287Y193276D02*
Y208925D01*
X648704Y211342D01*
X656972D01*
X663905Y218276D01*
Y223197D01*
X648846Y206268D02*
X652521Y209942D01*
X657551D01*
X665874Y218264D01*
Y223197D01*
X651405Y193276D02*
Y206847D01*
X653100Y208542D01*
X658131D01*
X667842Y218253D01*
Y223197D01*
X675716Y206366D02*
Y223197D01*
X678177Y193276D02*
Y217390D01*
X677685Y217882D02*
X678177Y217390D01*
X677685Y217882D02*
Y223197D01*
X680736Y206268D02*
Y217587D01*
X679654Y218669D02*
X680736Y217587D01*
X679654Y218669D02*
Y223197D01*
X683295Y193276D02*
Y218177D01*
X681622Y219850D02*
X683295Y218177D01*
X681622Y219850D02*
Y223197D01*
X549063Y146031D02*
X553066Y142029D01*
X539063Y146031D02*
X543394Y150362D01*
X577488Y162173D02*
Y167685D01*
X529063Y146031D02*
X534794Y151762D01*
X670402Y165717D02*
Y169653D01*
Y165717D02*
X673551Y162567D01*
Y152724D02*
Y162567D01*
Y152724D02*
X675913Y150362D01*
X684732D01*
X689063Y146031D01*
X675618Y176839D02*
Y183728D01*
X673158Y174378D02*
X675618Y176839D01*
X673158Y164941D02*
Y174378D01*
Y164941D02*
X674951Y163147D01*
Y153304D02*
Y163147D01*
Y153304D02*
X676493Y151762D01*
X693332D01*
X699063Y146031D01*
X675913Y169653D02*
X683394Y162173D01*
X689299D01*
X693630Y157843D01*
Y153445D02*
Y157843D01*
Y153445D02*
X696712Y150362D01*
X704732D01*
X709063Y146031D01*
X680736Y169653D02*
X684575D01*
X695030Y159198D01*
Y154080D02*
Y159198D01*
Y154080D02*
X697348Y151762D01*
X705312D01*
X705925Y151150D01*
X713945D01*
X719063Y146031D01*
X650716Y169260D02*
X655835D01*
X663709Y161386D01*
Y153905D02*
Y161386D01*
Y153905D02*
X666465Y151150D01*
X673146D01*
X678264Y146031D01*
X679063D01*
X596976Y243669D02*
Y249378D01*
X598354Y250756D01*
X595008Y243669D02*
Y251740D01*
X593039Y243669D02*
Y252555D01*
X591071Y243669D02*
Y253371D01*
X589102Y243669D02*
Y254186D01*
X591071Y253371D02*
X599929Y262229D01*
X589102Y254186D02*
X597961Y263045D01*
X595008Y251740D02*
X603866Y260598D01*
X593039Y252555D02*
X601898Y261414D01*
Y285795D01*
X599929Y262229D02*
Y286611D01*
X603866Y260598D02*
Y284980D01*
X601898Y285795D02*
X618039Y301937D01*
X599929Y286611D02*
X616071Y302752D01*
X603866Y284980D02*
X620008Y301122D01*
X618039Y301937D02*
Y318866D01*
X616071Y302752D02*
Y319682D01*
X620008Y301122D02*
Y318051D01*
X618039Y318866D02*
X622370Y323197D01*
X616071Y319682D02*
X621555Y325165D01*
X622370Y323197D02*
X626701D01*
X632409Y317488D01*
X621555Y325165D02*
X629063D01*
X631636Y322592D01*
X620008Y318051D02*
X622398Y320441D01*
X625126D01*
X627305Y318262D01*
X628852D01*
X631636Y321045D02*
Y322592D01*
X597961Y263045D02*
Y288945D01*
X603866Y294850D01*
X604063Y295047D01*
X587035Y213846D02*
X593170Y219982D01*
X589595Y214426D02*
X593750Y218582D01*
X594713Y212862D02*
X597632Y215781D01*
X592154Y213453D02*
X595882Y217181D01*
X597272Y211330D02*
X600323Y214382D01*
X593170Y219982D02*
X619655D01*
X593750Y218582D02*
X624448D01*
X595882Y217181D02*
X627378D01*
X597632Y215781D02*
X628340D01*
X600323Y214382D02*
X631665D01*
X602312Y212982D02*
X632627D01*
X604654Y211581D02*
X633567D01*
X607409Y210181D02*
X634146D01*
X609378Y156346D02*
Y207449D01*
X609063Y156032D02*
X609378Y156346D01*
X619063Y156032D02*
Y159181D01*
X613709Y164535D02*
X619063Y159181D01*
X613709Y164535D02*
Y207449D01*
X629063Y156032D02*
Y162173D01*
X621583Y169653D02*
X629063Y162173D01*
X621583Y169653D02*
Y192095D01*
X639063Y156032D02*
Y160835D01*
X624732Y175165D02*
X639063Y160835D01*
X624732Y175165D02*
Y194457D01*
X619220Y199969D02*
X624732Y194457D01*
X619220Y199969D02*
Y205480D01*
X640283Y239929D02*
Y243669D01*
Y239929D02*
X643236Y236976D01*
X676701D01*
X644220Y239142D02*
Y243669D01*
Y239142D02*
X644986Y238376D01*
X677281D01*
X638315Y243669D02*
X638643Y243341D01*
Y239590D02*
Y243341D01*
Y239590D02*
X642656Y235576D01*
X676121D01*
X634378Y239929D02*
Y243669D01*
Y239929D02*
X640131Y234176D01*
X675541D01*
X676701Y236976D02*
X678101Y235576D01*
X677281Y238376D02*
X678681Y236976D01*
X676121Y235576D02*
X688413Y223284D01*
X675541Y234176D02*
X685854Y223863D01*
X678681Y236976D02*
X681032D01*
X678101Y235576D02*
X681611D01*
X681032Y236976D02*
X687331Y243276D01*
X681611Y235576D02*
X687911Y241876D01*
X687331Y243276D02*
X698759D01*
X687911Y241876D02*
X698179D01*
X699535Y240520D01*
X698759Y243276D02*
X700935Y241100D01*
X699535Y214831D02*
Y240520D01*
X700935Y200679D02*
Y241100D01*
X685854Y206268D02*
Y223863D01*
X688413Y193276D02*
Y223284D01*
X690972Y206268D02*
X699535Y214831D01*
X693532Y193276D02*
X700935Y200679D01*
X574732Y159417D02*
X577488Y162173D01*
X574732Y153337D02*
Y159417D01*
X573158Y151762D02*
X574732Y153337D01*
X534794Y151762D02*
X573158D01*
X582606Y159417D02*
Y164535D01*
Y159417D02*
X583394Y158630D01*
Y153512D02*
Y158630D01*
X580244Y150362D02*
X583394Y153512D01*
X543394Y150362D02*
X580244D01*
X587331Y162567D02*
Y167291D01*
X584969Y160205D02*
X587331Y162567D01*
X584969Y143997D02*
Y160205D01*
X583000Y142029D02*
X584969Y143997D01*
X553066Y142029D02*
X583000D01*
X603866Y143276D02*
X606228Y140913D01*
X720795D01*
X589063Y156032D02*
X594024Y151071D01*
Y142882D02*
Y151071D01*
Y142882D02*
X597567Y139339D01*
X721448D01*
X720795Y140913D02*
X723158Y143276D01*
X721448Y139339D02*
X724732Y142623D01*
X723158Y143276D02*
Y182646D01*
X724732Y142623D02*
Y183298D01*
X704654Y201150D02*
X723158Y182646D01*
X706228Y201802D02*
X724732Y183298D01*
X704654Y201150D02*
Y251150D01*
X701110Y254693D02*
X704654Y251150D01*
X673945Y254693D02*
X701110D01*
X706228Y201802D02*
Y269260D01*
X694024Y281465D02*
X706228Y269260D01*
X674339Y281465D02*
X694024D01*
X626307Y301937D02*
X645205D01*
X604850Y239929D02*
Y243669D01*
Y239929D02*
X608197Y236583D01*
X609772D01*
X602882Y237173D02*
Y243669D01*
Y237173D02*
X606622Y233433D01*
X612921D01*
X616465Y236976D01*
X599063Y152016D02*
Y156032D01*
Y152016D02*
X603866Y147213D01*
Y143276D02*
Y147213D01*
X694811Y166504D02*
X704260D01*
X706622Y168866D01*
Y187370D01*
X699063Y156032D02*
X709378Y166347D01*
Y191701D01*
D29*
X697567Y171228D02*
X701898D01*
X663709D02*
X671976Y179496D01*
X661346Y171228D02*
X663709D01*
X658591D02*
X661346D01*
X655441Y174378D02*
X658591Y171228D01*
X646779Y174378D02*
X655441D01*
X644024Y171622D02*
X646779Y174378D01*
X644024Y153512D02*
Y171622D01*
X641268Y150756D02*
X644024Y153512D01*
X625913Y150756D02*
X641268D01*
X623945Y152724D02*
X625913Y150756D01*
X623945Y152724D02*
Y162173D01*
X618433Y167685D02*
X623945Y162173D01*
X622370Y151150D02*
X623945Y152724D01*
X606228Y151150D02*
X622370D01*
X604260Y153118D02*
X606228Y151150D01*
X604260Y153118D02*
Y165717D01*
X588512Y181465D02*
X604260Y165717D01*
X576701Y181465D02*
X588512D01*
X681819Y186976D02*
X697567Y171228D01*
X671976Y179496D02*
Y185402D01*
X673551Y186976D01*
X681819D01*
X697567Y189732D02*
X703472Y195638D01*
X671189Y189732D02*
X697567D01*
X670402Y188945D02*
X671189Y189732D01*
X663315Y188945D02*
X670402D01*
X658984Y193276D02*
X663315Y188945D01*
D30*
X677685Y243669D02*
Y249772D01*
X673748Y223197D02*
Y230283D01*
D31*
X596976Y223197D02*
Y226937D01*
X595992Y227921D02*
X596976Y226937D01*
X589102Y226937D02*
X590087Y227921D01*
X589102Y223197D02*
Y226937D01*
X595008Y223197D02*
Y227724D01*
X594811Y227921D02*
X595008Y227724D01*
X594811Y227921D02*
X595992D01*
X593039Y223197D02*
Y227724D01*
X591071Y223197D02*
Y227724D01*
X592449Y228315D02*
Y231858D01*
Y228315D02*
X592842Y227921D01*
X593039Y227724D01*
X590087Y227921D02*
X592842D01*
X594811D01*
X619220Y290913D02*
X656228D01*
X657803Y292488D01*
X661346D01*
X661740Y262961D02*
X667252Y268472D01*
Y286583D01*
X661346Y292488D02*
X667252Y286583D01*
X583787Y185402D02*
X606228D01*
X547961Y188157D02*
X581032D01*
X583787Y185402D01*
X544417Y184614D02*
X547961Y188157D01*
X544417Y183433D02*
Y184614D01*
D32*
X610756Y223197D02*
Y229693D01*
X616661Y223197D02*
Y229693D01*
X628472Y223197D02*
Y229693D01*
X634378Y223197D02*
Y229693D01*
X640283Y223197D02*
Y229693D01*
X654063Y223197D02*
Y229693D01*
X658000Y223197D02*
Y229693D01*
X665874Y243669D02*
Y250165D01*
X654063Y243669D02*
Y250165D01*
X642252Y243669D02*
Y250165D01*
X636346Y243669D02*
Y250165D01*
X630441Y243669D02*
Y250165D01*
X612724Y243669D02*
Y250165D01*
X606819Y243669D02*
Y250165D01*
D33*
X599929Y236583D02*
Y242882D01*
X623551D02*
Y249575D01*
X647173Y242882D02*
Y249575D01*
X670795Y242882D02*
Y249575D01*
Y217291D02*
Y223984D01*
X647173D02*
Y230677D01*
X623551Y223984D02*
Y230677D01*
X599929Y223984D02*
Y230677D01*
X631032Y332252D02*
X638512Y324772D01*
Y318079D02*
Y324772D01*
Y318079D02*
X661346Y295244D01*
Y292488D02*
Y295244D01*
X612921Y332252D02*
X620402D01*
X631032D01*
D34*
X583394Y233433D02*
D03*
X687331D02*
D03*
D35*
X529063Y146031D02*
D03*
D36*
Y156032D02*
D03*
X539063Y146031D02*
D03*
Y156032D02*
D03*
X549063Y146031D02*
D03*
X549063Y156032D02*
D03*
X559063Y146031D02*
D03*
Y156032D02*
D03*
X569063Y146031D02*
D03*
Y156032D02*
D03*
X579063Y146031D02*
D03*
Y156032D02*
D03*
X589063Y146031D02*
D03*
Y156032D02*
D03*
X599063Y146031D02*
D03*
X599063Y156032D02*
D03*
X609063Y146031D02*
D03*
Y156032D02*
D03*
X619063Y146031D02*
D03*
Y156032D02*
D03*
X629063Y146031D02*
D03*
Y156032D02*
D03*
X639063Y146031D02*
D03*
X639063Y156032D02*
D03*
X649063Y146031D02*
D03*
X649063Y156032D02*
D03*
X659063Y146031D02*
D03*
Y156032D02*
D03*
X669063Y146031D02*
D03*
Y156032D02*
D03*
X679063Y146031D02*
D03*
Y156032D02*
D03*
X689063Y146031D02*
D03*
X689063Y156032D02*
D03*
X699063Y146031D02*
D03*
Y156032D02*
D03*
X709063Y146031D02*
D03*
Y156032D02*
D03*
X719063Y146031D02*
D03*
Y156032D02*
D03*
D37*
X718039Y209811D02*
D03*
X544811D02*
D03*
X718039Y316110D02*
D03*
D38*
X608984Y267685D02*
D03*
X544811Y263748D02*
D03*
Y252331D02*
D03*
X592055Y270047D02*
D03*
X582213Y266110D02*
D03*
X590874Y288551D02*
D03*
X573551Y284614D02*
D03*
X592055Y263748D02*
D03*
X546779Y307842D02*
D03*
X564496Y270835D02*
D03*
X560972Y262587D02*
D03*
X573551Y264929D02*
D03*
X693532Y193276D02*
D03*
X646287D02*
D03*
X688413D02*
D03*
X690972Y206268D02*
D03*
X685854Y206268D02*
D03*
X589595Y191307D02*
D03*
X638610Y206268D02*
D03*
X683295Y193276D02*
D03*
X597272Y204299D02*
D03*
X599831Y191307D02*
D03*
X587035Y204299D02*
D03*
X675618Y206268D02*
D03*
X648846Y206268D02*
D03*
X651405Y193276D02*
D03*
X602390Y204299D02*
D03*
X604949Y191307D02*
D03*
X678177Y193276D02*
D03*
X680736Y206268D02*
D03*
X592154Y204299D02*
D03*
X594713Y191307D02*
D03*
X636051Y193276D02*
D03*
X633492Y206268D02*
D03*
X643728D02*
D03*
X641169Y193276D02*
D03*
X587331Y167291D02*
D03*
X582606Y164535D02*
D03*
X577488Y167685D02*
D03*
X680736Y169653D02*
D03*
X675913D02*
D03*
X675618Y183728D02*
D03*
X670402Y169653D02*
D03*
X650716Y169260D02*
D03*
X598354Y250756D02*
D03*
X599929Y236583D02*
D03*
X623551Y249575D02*
D03*
X647173D02*
D03*
X670795D02*
D03*
Y217291D02*
D03*
X647173Y230677D02*
D03*
X623551D02*
D03*
X599929D02*
D03*
X610756Y229693D02*
D03*
X616661Y229693D02*
D03*
X628472Y229693D02*
D03*
X634378D02*
D03*
X640283D02*
D03*
X654063Y229693D02*
D03*
X658000Y229693D02*
D03*
X665874Y250165D02*
D03*
X654063Y250165D02*
D03*
X642252Y250165D02*
D03*
X636346D02*
D03*
X630441D02*
D03*
X612724D02*
D03*
X606819D02*
D03*
X594811Y227921D02*
D03*
X590087D02*
D03*
X592449Y231858D02*
D03*
X677882Y249969D02*
D03*
X628276Y317685D02*
D03*
X632409Y317488D02*
D03*
X632213Y322016D02*
D03*
X603866Y294850D02*
D03*
X628374Y206169D02*
D03*
X630933Y193374D02*
D03*
X628374Y183728D02*
D03*
X609378Y207449D02*
D03*
X619220Y205480D02*
D03*
X613709Y207449D02*
D03*
X621583Y192095D02*
D03*
X665109Y207055D02*
D03*
X661521Y204299D02*
D03*
X669073Y193128D02*
D03*
X668433Y183039D02*
D03*
X658984Y193276D02*
D03*
X661346Y171228D02*
D03*
X618433Y167685D02*
D03*
X694811Y166504D02*
D03*
X673748Y230283D02*
D03*
X606228Y185402D02*
D03*
X701898Y171228D02*
D03*
X700716Y184614D02*
D03*
X693630Y214142D02*
D03*
X661740Y262961D02*
D03*
Y269260D02*
D03*
X666858Y304693D02*
D03*
X661346Y292488D02*
D03*
X703472Y195638D02*
D03*
X674339Y281465D02*
D03*
X673945Y254693D02*
D03*
X570402Y179496D02*
D03*
X576898Y175362D02*
D03*
X577685Y197803D02*
D03*
X551898Y327134D02*
D03*
X543630D02*
D03*
X579850Y261386D02*
D03*
X618827Y273590D02*
D03*
X609772Y236583D02*
D03*
X611740Y256661D02*
D03*
X645205Y301937D02*
D03*
X619220Y290913D02*
D03*
X644811Y324772D02*
D03*
X638512D02*
D03*
X642842Y268866D02*
D03*
X627488Y272016D02*
D03*
X616465Y236976D02*
D03*
X539299Y194063D02*
D03*
X547961Y188157D02*
D03*
X544417Y183433D02*
D03*
X576701Y181465D02*
D03*
X620402Y332252D02*
D03*
X612921D02*
D03*
X709378Y191701D02*
D03*
X706622Y187370D02*
D03*
X735559Y148984D02*
D03*
X747961Y143669D02*
D03*
X758591Y143276D02*
D03*
X767646Y142882D02*
D03*
D39*
X589102Y243669D02*
D03*
X591071D02*
D03*
X593039D02*
D03*
X595008D02*
D03*
X596976D02*
D03*
X602882D02*
D03*
X604850D02*
D03*
X606819D02*
D03*
X608787D02*
D03*
X610756D02*
D03*
X612724D02*
D03*
X614693Y243669D02*
D03*
X616661D02*
D03*
X618630Y243669D02*
D03*
X620598D02*
D03*
X626504D02*
D03*
X628472D02*
D03*
X630441D02*
D03*
X632409D02*
D03*
X634378D02*
D03*
X636346D02*
D03*
X638315D02*
D03*
X640283D02*
D03*
X642252D02*
D03*
X644220D02*
D03*
X650126D02*
D03*
X652095D02*
D03*
X654063Y243669D02*
D03*
X656032D02*
D03*
X658000Y243669D02*
D03*
X659969D02*
D03*
X661937D02*
D03*
X663905D02*
D03*
X665874D02*
D03*
X667842D02*
D03*
X589102Y223197D02*
D03*
X591071D02*
D03*
X593039D02*
D03*
X595008D02*
D03*
X596976D02*
D03*
X602882D02*
D03*
X604850D02*
D03*
X606819D02*
D03*
X608787D02*
D03*
X610756D02*
D03*
X612724D02*
D03*
X614693Y223197D02*
D03*
X616661D02*
D03*
X618630Y223197D02*
D03*
X620598D02*
D03*
X626504D02*
D03*
X628472D02*
D03*
X630441D02*
D03*
X632409D02*
D03*
X634378D02*
D03*
X636346D02*
D03*
X638315D02*
D03*
X640283D02*
D03*
X642252D02*
D03*
X644220D02*
D03*
X650126D02*
D03*
X652095D02*
D03*
X654063Y223197D02*
D03*
X656032D02*
D03*
X658000Y223197D02*
D03*
X659969D02*
D03*
X661937D02*
D03*
X663905D02*
D03*
X665874D02*
D03*
X667842D02*
D03*
X673748Y243669D02*
D03*
X675716D02*
D03*
X677685D02*
D03*
X679654D02*
D03*
X681622D02*
D03*
X673748Y223197D02*
D03*
X675716D02*
D03*
X677685D02*
D03*
X679654D02*
D03*
X681622D02*
D03*
D40*
X599929Y242882D02*
D03*
X623551D02*
D03*
X647173D02*
D03*
X599929Y223984D02*
D03*
X623551D02*
D03*
X647173D02*
D03*
X670795Y242882D02*
D03*
Y223984D02*
D03*
D41*
X576504Y233433D02*
D03*
X694220D02*
D03*
M02*
