%FSLAX25Y25*%
%MOIN*%
G70*
G01*
G75*
G04 Layer_Physical_Order=1*
G04 Layer_Color=255*
%ADD10R,0.03937X0.03937*%
%ADD11O,0.02362X0.08661*%
%ADD12R,0.02559X0.04331*%
%ADD13R,0.03937X0.03543*%
%ADD14R,0.03543X0.03937*%
%ADD15R,0.05118X0.07087*%
%ADD16R,0.03937X0.04331*%
%ADD17R,0.03937X0.03937*%
%ADD18R,0.04331X0.02559*%
%ADD19O,0.01378X0.06693*%
%ADD20O,0.06693X0.01772*%
%ADD21R,0.09449X0.03937*%
%ADD22R,0.09449X0.12992*%
%ADD23C,0.03000*%
%ADD24C,0.00700*%
%ADD25C,0.01969*%
%ADD26C,0.05000*%
%ADD27C,0.00800*%
%ADD28C,0.04000*%
%ADD29C,0.02000*%
%ADD30C,0.00787*%
%ADD31C,0.01500*%
%ADD32C,0.01000*%
%ADD33C,0.02500*%
%ADD34C,0.01969*%
%ADD35R,0.05906X0.05906*%
%ADD36C,0.05906*%
%ADD37C,0.07874*%
%ADD38C,0.03000*%
G36*
X655313Y247977D02*
X655324Y247982D01*
X655769Y248323D01*
X656200Y248110D01*
X656397Y247960D01*
Y237785D01*
X656470Y237414D01*
X656680Y237100D01*
X659940Y233841D01*
Y232147D01*
X659312Y231837D01*
X659261Y231877D01*
X659250Y231881D01*
Y229693D01*
Y227505D01*
X659261Y227509D01*
X659312Y227549D01*
X659940Y227239D01*
Y225140D01*
X653672Y218873D01*
X645538D01*
X645271Y219519D01*
X652189Y226438D01*
X652399Y226752D01*
X652461Y227065D01*
X652813Y227253D01*
Y229693D01*
Y232143D01*
X652472Y232370D01*
Y247488D01*
X652813Y247716D01*
Y250165D01*
X655313D01*
Y247977D01*
D02*
G37*
G36*
X630997Y284122D02*
X631097Y283619D01*
X631382Y283193D01*
X631808Y282908D01*
X632311Y282808D01*
X632814Y282908D01*
X632876Y282949D01*
X633494Y282620D01*
Y280884D01*
X630432D01*
Y279946D01*
X629269D01*
Y280884D01*
X624526D01*
Y275746D01*
X629269D01*
Y276684D01*
X630432D01*
Y275746D01*
X631369D01*
Y274584D01*
X630432D01*
Y273647D01*
X628812D01*
X628547Y273850D01*
X628036Y274062D01*
X627488Y274134D01*
X626940Y274062D01*
X626429Y273850D01*
X625990Y273514D01*
X625654Y273075D01*
X625442Y272564D01*
X625370Y272016D01*
X625442Y271467D01*
X625654Y270957D01*
X625990Y270518D01*
X626429Y270181D01*
X626940Y269970D01*
X627488Y269898D01*
X628036Y269970D01*
X628547Y270181D01*
X628812Y270384D01*
X630432D01*
Y269447D01*
X631370D01*
X631486Y268866D01*
X631493Y268832D01*
X631847Y268303D01*
X632104Y268046D01*
X631836Y267399D01*
X627479D01*
Y263640D01*
X629817D01*
X632891Y260566D01*
X632700Y260104D01*
D01*
X632623Y259919D01*
X627479D01*
Y256160D01*
X633009D01*
Y259533D01*
X633195Y259610D01*
D01*
X633393Y259691D01*
X633975Y259302D01*
Y256849D01*
X639112D01*
Y261592D01*
X636479D01*
X635176Y262895D01*
X635444Y263542D01*
X639112D01*
Y268285D01*
X636945D01*
X636556Y268867D01*
X636631Y269047D01*
X638049D01*
Y272016D01*
X640549D01*
Y267870D01*
X640659Y267605D01*
X641059Y267083D01*
X641582Y266682D01*
X641593Y266678D01*
Y268866D01*
X644093D01*
Y266678D01*
X644103Y266682D01*
X644716Y265883D01*
Y257351D01*
X644790Y256980D01*
X645000Y256666D01*
X645301Y256364D01*
X645301Y256364D01*
X649058Y252608D01*
X648944Y251917D01*
X648507Y251702D01*
X648434Y251759D01*
X648423Y251763D01*
Y249575D01*
Y247387D01*
X648434Y247391D01*
X648507Y247447D01*
X649135Y247138D01*
Y233114D01*
X648507Y232804D01*
X648434Y232861D01*
X648423Y232865D01*
Y230677D01*
Y228489D01*
X648434Y228493D01*
X648507Y228550D01*
X648688Y228461D01*
X648802Y227770D01*
X643448Y222416D01*
X624940D01*
X624569Y222342D01*
X624255Y222132D01*
X614871Y212748D01*
X611740D01*
X611370Y212674D01*
X611055Y212464D01*
X608693Y210102D01*
X608483Y209788D01*
X608409Y209417D01*
Y209321D01*
X608319Y209283D01*
X607880Y208947D01*
X607544Y208508D01*
X607332Y207997D01*
X607260Y207449D01*
X607332Y206901D01*
X607544Y206390D01*
X607880Y205951D01*
X607917Y205923D01*
X607963Y205224D01*
X606535Y203796D01*
X606236Y203350D01*
X606131Y202823D01*
Y201963D01*
X605514Y201633D01*
X605452Y201675D01*
X604949Y201775D01*
X604446Y201675D01*
X604019Y201390D01*
X604019D01*
X603403Y201802D01*
Y202446D01*
X603449Y202465D01*
X603888Y202801D01*
X604224Y203240D01*
X604436Y203751D01*
X604508Y204299D01*
X604436Y204847D01*
X604224Y205358D01*
X603888Y205797D01*
X603449Y206134D01*
X602938Y206345D01*
X602390Y206417D01*
X601842Y206345D01*
X601331Y206134D01*
X600892Y205797D01*
X600555Y205358D01*
X600344Y204847D01*
X600272Y204299D01*
X600344Y203751D01*
X600555Y203240D01*
X600892Y202801D01*
X601331Y202465D01*
X601377Y202446D01*
Y201802D01*
X600760Y201390D01*
X600760D01*
X600334Y201675D01*
X599831Y201775D01*
X599328Y201675D01*
X598901Y201390D01*
X598901D01*
X598285Y201802D01*
Y202446D01*
X598331Y202465D01*
X598769Y202801D01*
X599106Y203240D01*
X599318Y203751D01*
X599390Y204299D01*
X599318Y204847D01*
X599106Y205358D01*
X598769Y205797D01*
X598331Y206134D01*
X597820Y206345D01*
X597272Y206417D01*
X596723Y206345D01*
X596213Y206134D01*
X595774Y205797D01*
X595437Y205358D01*
X595226Y204847D01*
X595154Y204299D01*
X595226Y203751D01*
X595437Y203240D01*
X595774Y202801D01*
X596213Y202465D01*
X596258Y202446D01*
Y201802D01*
X595642Y201390D01*
X595642D01*
X595216Y201675D01*
X594713Y201775D01*
X594210Y201675D01*
X593783Y201390D01*
X593783D01*
X593167Y201802D01*
Y202446D01*
X593213Y202465D01*
X593651Y202801D01*
X593988Y203240D01*
X594200Y203751D01*
X594272Y204299D01*
X594200Y204847D01*
X593988Y205358D01*
X593651Y205797D01*
X593468Y205938D01*
X593422Y206636D01*
X614394Y227607D01*
X614407Y227627D01*
X615098Y227742D01*
X615401Y227509D01*
X615411Y227505D01*
Y229693D01*
Y231881D01*
X615401Y231877D01*
X615305Y231803D01*
X614677Y232113D01*
Y233819D01*
X615826Y234968D01*
X615916Y234930D01*
X616465Y234858D01*
X617013Y234930D01*
X617524Y235142D01*
X617962Y235479D01*
X618299Y235917D01*
X618510Y236428D01*
X618583Y236976D01*
X618510Y237525D01*
X618299Y238035D01*
X617962Y238474D01*
X617524Y238811D01*
X617013Y239022D01*
X616465Y239094D01*
X615916Y239022D01*
X615406Y238811D01*
X614967Y238474D01*
X614630Y238035D01*
X614419Y237525D01*
X614347Y236976D01*
X614419Y236428D01*
X614456Y236338D01*
X613024Y234905D01*
X612814Y234591D01*
X612740Y234221D01*
Y232113D01*
X612112Y231803D01*
X612017Y231877D01*
X612006Y231881D01*
Y229693D01*
X609506D01*
Y231881D01*
X609495Y231877D01*
X609006Y231501D01*
X608821Y231592D01*
X608378Y231932D01*
Y233819D01*
X609133Y234574D01*
X609223Y234537D01*
X609772Y234465D01*
X610320Y234537D01*
X610831Y234748D01*
X611269Y235085D01*
X611606Y235524D01*
X611818Y236034D01*
X611890Y236583D01*
X611818Y237131D01*
X611606Y237642D01*
X611269Y238080D01*
X610831Y238417D01*
X610320Y238629D01*
X609772Y238701D01*
X609223Y238629D01*
X608713Y238417D01*
X608274Y238080D01*
X607937Y237642D01*
X607726Y237131D01*
X607654Y236583D01*
X607726Y236034D01*
X607763Y235944D01*
X606725Y234905D01*
X606686Y234847D01*
X606016Y235051D01*
Y238551D01*
X605942Y238922D01*
X605732Y239236D01*
X601291Y243677D01*
Y247992D01*
X603561Y250262D01*
X604075Y250195D01*
X604304Y250117D01*
X604383Y249513D01*
X604635Y248905D01*
X605036Y248382D01*
X605558Y247982D01*
X605569Y247977D01*
Y250165D01*
X606819D01*
Y251415D01*
X609007D01*
X609003Y251426D01*
X608608Y251941D01*
X608854Y252596D01*
X608961Y252617D01*
X609275Y252827D01*
X611101Y254653D01*
X611192Y254615D01*
X611740Y254543D01*
X612288Y254615D01*
X612799Y254827D01*
X613238Y255164D01*
X613575Y255602D01*
X613786Y256113D01*
X613858Y256661D01*
X613786Y257210D01*
X613575Y257720D01*
X613238Y258159D01*
X612799Y258496D01*
X612288Y258707D01*
X611740Y258780D01*
X611192Y258707D01*
X610681Y258496D01*
X610242Y258159D01*
X609906Y257720D01*
X609694Y257210D01*
X609622Y256661D01*
X609694Y256113D01*
X609732Y256023D01*
X608189Y254480D01*
X605441D01*
X605070Y254407D01*
X604756Y254197D01*
X601217Y250658D01*
X600656Y250732D01*
X600467Y250796D01*
X600400Y251304D01*
X600189Y251815D01*
X599852Y252254D01*
X599413Y252590D01*
X598903Y252802D01*
X598354Y252874D01*
X597806Y252802D01*
X597716Y252764D01*
X595459Y255021D01*
X595727Y255668D01*
X600135D01*
Y257071D01*
X600904D01*
Y255668D01*
X606041D01*
Y257071D01*
X606819D01*
X607190Y257144D01*
X607504Y257354D01*
X609669Y259520D01*
X609879Y259834D01*
X609953Y260205D01*
Y265813D01*
X610043Y265851D01*
X610482Y266187D01*
X610819Y266626D01*
X611030Y267137D01*
X611102Y267685D01*
X611045Y268122D01*
X611272Y268381D01*
X611928Y268135D01*
Y266691D01*
X616850D01*
X617239Y266109D01*
X617164Y265929D01*
X615746D01*
Y262961D01*
Y259992D01*
X617135D01*
X617135Y259992D01*
Y259992D01*
X617464Y259992D01*
X617630Y259500D01*
X617630D01*
X617959D01*
X618030D01*
Y256160D01*
X623561D01*
Y257298D01*
X623646Y257354D01*
X625417Y259126D01*
X625627Y259440D01*
X625701Y259811D01*
Y264142D01*
X625627Y264512D01*
X625417Y264827D01*
X624039Y266205D01*
X623725Y266415D01*
X623561Y266447D01*
Y267399D01*
X621223D01*
X618209Y270413D01*
X618186Y270643D01*
X619044Y271501D01*
X619375Y271545D01*
X619886Y271756D01*
X620325Y272093D01*
X620661Y272532D01*
X620873Y273042D01*
X620916Y273373D01*
X621358Y273815D01*
X621712Y274344D01*
X621836Y274969D01*
Y275746D01*
X622576D01*
Y280884D01*
X617833D01*
D01*
X617833D01*
X617470Y281246D01*
Y285417D01*
X622557D01*
Y284014D01*
X627695D01*
Y285811D01*
X630997D01*
Y284122D01*
D02*
G37*
G36*
X553027Y198534D02*
X543731Y189238D01*
X543234Y188590D01*
X542954Y187915D01*
X542268Y188052D01*
Y191913D01*
X541592D01*
X541283Y192541D01*
X541483Y192802D01*
X541487Y192813D01*
X537111D01*
X537115Y192802D01*
X537316Y192541D01*
X537006Y191913D01*
X536331D01*
Y190195D01*
X539299D01*
Y187695D01*
X536331D01*
Y185976D01*
X537459D01*
X537524Y185783D01*
X537117Y185214D01*
X536731D01*
Y184391D01*
X536591Y184209D01*
X536279Y183455D01*
X535591Y183546D01*
Y199181D01*
X552760D01*
X553027Y198534D01*
D02*
G37*
G36*
X571717Y283555D02*
X571990Y283200D01*
X571760Y282734D01*
X571704Y282661D01*
X567531D01*
Y280746D01*
X569811D01*
Y278246D01*
X567531D01*
Y276331D01*
X570201D01*
X570430Y275776D01*
X569126Y274472D01*
X568916Y274158D01*
X568842Y273787D01*
Y272813D01*
X567932D01*
Y267282D01*
X571433D01*
Y264929D01*
X571505Y264381D01*
X571717Y263870D01*
X572053Y263431D01*
X575527Y259958D01*
Y210007D01*
X571650Y206130D01*
X571440Y205816D01*
X571366Y205445D01*
Y192657D01*
X567466Y188758D01*
X563896D01*
Y186189D01*
X562347D01*
Y189157D01*
X560825D01*
Y186189D01*
X558325D01*
Y189157D01*
X556803D01*
Y186189D01*
X550310D01*
X550080Y186743D01*
X560802Y197465D01*
X560802Y197465D01*
X561083Y197831D01*
X561298Y198112D01*
X561611Y198866D01*
X561717Y199676D01*
Y218866D01*
X561717Y218866D01*
X561664Y219271D01*
X561611Y219675D01*
X561481Y219988D01*
X561298Y220429D01*
X560952Y220881D01*
X560802Y221077D01*
X560802Y221077D01*
X554109Y227770D01*
X553461Y228267D01*
X553240Y228358D01*
X552707Y228579D01*
X552302Y228632D01*
X551898Y228686D01*
X551897Y228686D01*
X548075D01*
X541639Y235122D01*
Y283896D01*
X571576D01*
X571717Y283555D01*
D02*
G37*
G36*
X572814Y190492D02*
X572840Y190359D01*
X573050Y190045D01*
X582315Y180780D01*
X582629Y180570D01*
X583000Y180496D01*
X603071D01*
X603708Y179859D01*
X603639Y179163D01*
X603319Y178949D01*
X602893Y179234D01*
X602390Y179334D01*
X601887Y179234D01*
X601461Y178949D01*
X600760Y178949D01*
X600334Y179234D01*
X599831Y179334D01*
X599328Y179234D01*
X598901Y178949D01*
X598201D01*
X597775Y179234D01*
X597272Y179334D01*
X596769Y179234D01*
X596342Y178949D01*
X595642D01*
X595216Y179234D01*
X594713Y179334D01*
X594210Y179234D01*
X593783Y178949D01*
X593083D01*
X592657Y179234D01*
X592154Y179334D01*
X591651Y179234D01*
X591224Y178949D01*
X590524D01*
X590097Y179234D01*
X589595Y179334D01*
X589092Y179234D01*
X588665Y178949D01*
X587965D01*
X587538Y179234D01*
X587035Y179334D01*
X586532Y179234D01*
X586106Y178949D01*
X585406D01*
X584979Y179234D01*
X584476Y179334D01*
X583974Y179234D01*
X583547Y178949D01*
X583167Y179215D01*
Y178047D01*
X583162Y178020D01*
Y175362D01*
X580667D01*
Y179189D01*
X580326Y178679D01*
X580195Y178020D01*
Y172705D01*
X580326Y172046D01*
X580700Y171487D01*
X581258Y171114D01*
X581730Y171020D01*
X581933Y170350D01*
X580237Y168654D01*
X579360D01*
X579322Y168744D01*
X578986Y169183D01*
X578547Y169519D01*
X578036Y169731D01*
X577488Y169803D01*
X576940Y169731D01*
X576429Y169519D01*
X575990Y169183D01*
X575654Y168744D01*
X575442Y168233D01*
X575370Y167685D01*
X575442Y167137D01*
X575654Y166626D01*
X575990Y166187D01*
X576429Y165851D01*
X576940Y165639D01*
X577488Y165567D01*
X578036Y165639D01*
X578547Y165851D01*
X578986Y166187D01*
X579322Y166626D01*
X579360Y166716D01*
X580638D01*
X580964Y166781D01*
X581252Y166144D01*
X581109Y166033D01*
X580772Y165594D01*
X580560Y165084D01*
X580488Y164535D01*
X580560Y163987D01*
X580772Y163476D01*
X581109Y163038D01*
X581547Y162701D01*
X582058Y162489D01*
X582606Y162417D01*
X583154Y162489D01*
X583665Y162701D01*
X584104Y163038D01*
X584441Y163476D01*
X584652Y163987D01*
X584724Y164535D01*
X584652Y165084D01*
X584441Y165594D01*
X584104Y166033D01*
X584067Y166595D01*
X584601Y167129D01*
X585264Y166904D01*
X585285Y166743D01*
X585496Y166232D01*
X585833Y165794D01*
X586272Y165457D01*
X586783Y165245D01*
X587331Y165173D01*
X587879Y165245D01*
X588390Y165457D01*
X588828Y165794D01*
X589165Y166232D01*
X589377Y166743D01*
X589449Y167291D01*
X589377Y167840D01*
X589339Y167930D01*
X590279Y168870D01*
X590489Y169184D01*
X591185Y169046D01*
Y167004D01*
X583890Y159708D01*
X583680Y159394D01*
X583606Y159024D01*
Y157155D01*
X582914Y157063D01*
X582516Y158025D01*
X581882Y158851D01*
X581056Y159484D01*
X580313Y159792D01*
Y156032D01*
X579063D01*
Y154781D01*
X575302D01*
X575610Y154038D01*
X576244Y153212D01*
X576435Y153066D01*
X576210Y152403D01*
X575793D01*
X575422Y152329D01*
X575108Y152119D01*
X574320Y151331D01*
X563394D01*
X563023Y151257D01*
X562709Y151047D01*
X560814Y149152D01*
X559990Y149493D01*
X559063Y149615D01*
X558136Y149493D01*
X557271Y149135D01*
X556529Y148565D01*
X555960Y147823D01*
X555602Y146959D01*
X555480Y146031D01*
X555602Y145104D01*
X555960Y144240D01*
X556529Y143498D01*
X557271Y142928D01*
X558136Y142570D01*
X559063Y142448D01*
X559990Y142570D01*
X560855Y142928D01*
X561597Y143498D01*
X562166Y144240D01*
X562524Y145104D01*
X562646Y146031D01*
X562524Y146959D01*
X562183Y147782D01*
X563795Y149394D01*
X566520D01*
X566745Y148731D01*
X566529Y148565D01*
X565960Y147823D01*
X565602Y146959D01*
X565480Y146031D01*
X565602Y145104D01*
X565960Y144240D01*
X566529Y143498D01*
X567271Y142928D01*
X568135Y142570D01*
X569063Y142448D01*
X569990Y142570D01*
X570855Y142928D01*
X571597Y143498D01*
X572166Y144240D01*
X572520Y145093D01*
X572741Y145137D01*
X573055Y145347D01*
X574941Y147233D01*
X575554Y146979D01*
X575601Y146955D01*
X575480Y146031D01*
X575602Y145104D01*
X575960Y144240D01*
X576529Y143498D01*
X577271Y142928D01*
X578135Y142570D01*
X579063Y142448D01*
X579990Y142570D01*
X580855Y142928D01*
X581597Y143498D01*
X582166Y144240D01*
X582524Y145104D01*
X582646Y146031D01*
X582524Y146959D01*
X582302Y147496D01*
X583872Y149066D01*
X586122D01*
X586431Y148438D01*
X585960Y147823D01*
X585602Y146959D01*
X585480Y146031D01*
X585602Y145104D01*
X585960Y144240D01*
X586529Y143498D01*
X587271Y142928D01*
X588135Y142570D01*
X589063Y142448D01*
X589990Y142570D01*
X590855Y142928D01*
X591597Y143498D01*
X592166Y144240D01*
X592524Y145104D01*
X592646Y146031D01*
X592524Y146959D01*
X592183Y147782D01*
X594582Y150181D01*
X598045D01*
X598136Y149493D01*
X597271Y149135D01*
X596529Y148565D01*
X595960Y147823D01*
X595602Y146959D01*
X595480Y146031D01*
X595602Y145104D01*
X595960Y144240D01*
X596529Y143498D01*
X597271Y142928D01*
X598136Y142570D01*
X599063Y142448D01*
X599990Y142570D01*
X600855Y142928D01*
X601597Y143498D01*
X602166Y144240D01*
X602524Y145104D01*
X602646Y146031D01*
X602524Y146959D01*
X602183Y147782D01*
X605732Y151331D01*
X605942Y151645D01*
X606016Y152016D01*
Y153100D01*
X606644Y153410D01*
X607271Y152928D01*
X608136Y152570D01*
X609063Y152448D01*
X609990Y152570D01*
X610855Y152928D01*
X611597Y153498D01*
X611684Y153611D01*
X612346Y153386D01*
Y150685D01*
X610814Y149152D01*
X609990Y149493D01*
X609063Y149615D01*
X608136Y149493D01*
X607271Y149135D01*
X606529Y148565D01*
X605960Y147823D01*
X605602Y146959D01*
X605480Y146031D01*
X605602Y145104D01*
X605960Y144240D01*
X606529Y143498D01*
X607271Y142928D01*
X608136Y142570D01*
X609063Y142448D01*
X609990Y142570D01*
X610855Y142928D01*
X611597Y143498D01*
X612166Y144240D01*
X612524Y145104D01*
X612646Y146031D01*
X612524Y146959D01*
X612183Y147782D01*
X614000Y149599D01*
X614059Y149688D01*
X614756Y149756D01*
X616276Y148236D01*
X615960Y147823D01*
X615602Y146959D01*
X615480Y146031D01*
X615602Y145104D01*
X615960Y144240D01*
X616529Y143498D01*
X617271Y142928D01*
X618135Y142570D01*
X619063Y142448D01*
X619990Y142570D01*
X620855Y142928D01*
X621597Y143498D01*
X622166Y144240D01*
X622524Y145104D01*
X622646Y146031D01*
X622524Y146959D01*
X622166Y147823D01*
X621597Y148565D01*
X620855Y149135D01*
X619990Y149493D01*
X619063Y149615D01*
X618135Y149493D01*
X617869Y149382D01*
X615684Y151568D01*
Y153511D01*
X616346Y153736D01*
X616529Y153498D01*
X617271Y152928D01*
X618135Y152570D01*
X619063Y152448D01*
X619990Y152570D01*
X620855Y152928D01*
X621561Y153470D01*
X621761Y153371D01*
X622189Y153043D01*
Y151937D01*
X622263Y151566D01*
X622473Y151252D01*
X625943Y147782D01*
X625602Y146959D01*
X625480Y146031D01*
X625602Y145104D01*
X625960Y144240D01*
X626529Y143498D01*
X627271Y142928D01*
X628135Y142570D01*
X629063Y142448D01*
X629990Y142570D01*
X630855Y142928D01*
X631597Y143498D01*
X632166Y144240D01*
X632524Y145104D01*
X632646Y146031D01*
X632524Y146959D01*
X632166Y147823D01*
X631597Y148565D01*
X630855Y149135D01*
X629990Y149493D01*
X630081Y150181D01*
X633544D01*
X635943Y147782D01*
X635602Y146959D01*
X635480Y146031D01*
X635602Y145104D01*
X635960Y144240D01*
X636529Y143498D01*
X637271Y142928D01*
X638135Y142570D01*
X639063Y142448D01*
X639990Y142570D01*
X640855Y142928D01*
X641597Y143498D01*
X642166Y144240D01*
X642524Y145104D01*
X642646Y146031D01*
X642608Y146321D01*
X643236Y146630D01*
X644520Y145347D01*
X644834Y145137D01*
X645205Y145063D01*
X645619D01*
X645960Y144240D01*
X646529Y143498D01*
X647271Y142928D01*
X648136Y142570D01*
X649063Y142448D01*
X649990Y142570D01*
X650813Y142911D01*
X654881Y138844D01*
X655153Y138662D01*
X654950Y137992D01*
X522599D01*
Y175724D01*
X533000D01*
X533671Y175813D01*
X534295Y176071D01*
X534832Y176483D01*
X535244Y177020D01*
X535486Y177605D01*
X536172Y177468D01*
Y171736D01*
X531852Y167416D01*
X531355Y166768D01*
X531264Y166547D01*
X531043Y166014D01*
X530990Y165609D01*
X530936Y165205D01*
X530936Y165205D01*
Y159731D01*
X530354Y159342D01*
X529990Y159493D01*
X529063Y159615D01*
X528135Y159493D01*
X527271Y159135D01*
X526529Y158565D01*
X525960Y157823D01*
X525602Y156959D01*
X525480Y156032D01*
X525602Y155104D01*
X525960Y154240D01*
X526529Y153498D01*
X527271Y152928D01*
X528135Y152570D01*
X529063Y152448D01*
X529990Y152570D01*
X530798Y152905D01*
X537328D01*
X538135Y152570D01*
X539063Y152448D01*
X539990Y152570D01*
X540855Y152928D01*
X541597Y153498D01*
X542166Y154240D01*
X542524Y155104D01*
X542646Y156032D01*
X542524Y156959D01*
X542166Y157823D01*
X541597Y158565D01*
X540855Y159135D01*
X539990Y159493D01*
X539063Y159615D01*
X538135Y159493D01*
X537772Y159342D01*
X537190Y159731D01*
Y163910D01*
X541510Y168230D01*
X541510Y168230D01*
X541791Y168596D01*
X542007Y168878D01*
X542319Y169632D01*
X542426Y170441D01*
Y179519D01*
X543630D01*
X543630Y179519D01*
X544439Y179625D01*
X545193Y179938D01*
X545841Y180435D01*
X548153Y182747D01*
X548153Y182747D01*
X548434Y183113D01*
X548650Y183394D01*
X548962Y184148D01*
X549068Y184958D01*
Y185325D01*
X549587Y185795D01*
X549870Y185768D01*
X549877Y185756D01*
X550076Y185624D01*
X550310Y185577D01*
X550310D01*
D01*
X556529D01*
X556555Y185380D01*
X556645Y185162D01*
Y179496D01*
Y170161D01*
X551655Y165172D01*
X551158Y164524D01*
X550846Y163770D01*
X550739Y162961D01*
X550739Y162961D01*
Y159813D01*
X550157Y159424D01*
X549990Y159493D01*
X549063Y159615D01*
X548136Y159493D01*
X547271Y159135D01*
X546529Y158565D01*
X545960Y157823D01*
X545602Y156959D01*
X545480Y156032D01*
X545602Y155104D01*
X545960Y154240D01*
X546529Y153498D01*
X547271Y152928D01*
X548136Y152570D01*
X549063Y152448D01*
X549990Y152570D01*
X550798Y152905D01*
X557328D01*
X558136Y152570D01*
X559063Y152448D01*
X559990Y152570D01*
X560855Y152928D01*
X561597Y153498D01*
X562166Y154240D01*
X562524Y155104D01*
X562646Y156032D01*
X562524Y156959D01*
X562166Y157823D01*
X561597Y158565D01*
X560855Y159135D01*
X559990Y159493D01*
X559063Y159615D01*
X558136Y159493D01*
X557575Y159261D01*
X556993Y159650D01*
Y161665D01*
X561983Y166655D01*
X561983Y166655D01*
X562264Y167022D01*
X562427Y167235D01*
X564297D01*
X564921Y167359D01*
X565451Y167713D01*
X573800Y176061D01*
X574427Y175752D01*
X574376Y175362D01*
X574462Y174710D01*
X574714Y174101D01*
X575115Y173579D01*
X575637Y173179D01*
X575648Y173174D01*
Y175362D01*
X578148D01*
Y173174D01*
X578158Y173179D01*
X578681Y173579D01*
X579081Y174101D01*
X579333Y174710D01*
X579419Y175362D01*
X579333Y176015D01*
X579081Y176623D01*
X578681Y177145D01*
X578158Y177546D01*
X577550Y177798D01*
X576898Y177884D01*
X576508Y177832D01*
X576198Y178460D01*
X577143Y179405D01*
X577249Y179419D01*
X577760Y179630D01*
X578198Y179967D01*
X578535Y180405D01*
X578747Y180916D01*
X578819Y181465D01*
X578747Y182013D01*
X578535Y182524D01*
X578198Y182962D01*
X577760Y183299D01*
X577249Y183510D01*
X576701Y183583D01*
X576153Y183510D01*
X575642Y183299D01*
X575203Y182962D01*
X574866Y182524D01*
X574655Y182013D01*
X574583Y181465D01*
X574583Y181459D01*
X573410Y180286D01*
X572724Y180423D01*
X572585Y180757D01*
X572185Y181279D01*
X571662Y181680D01*
X571652Y181684D01*
Y179496D01*
X569152D01*
Y182193D01*
X569039Y182268D01*
Y182465D01*
X567321D01*
Y179496D01*
X564821D01*
Y182465D01*
X563102D01*
D01*
X563102D01*
X562898Y182668D01*
Y185577D01*
X563896D01*
Y183621D01*
X568639D01*
Y187191D01*
X572144Y190695D01*
X572814Y190492D01*
D02*
G37*
G36*
X647162Y305349D02*
X647665Y305249D01*
X648168Y305349D01*
X648595Y305634D01*
X649256Y305192D01*
Y297705D01*
X649330Y297334D01*
X649540Y297020D01*
X651716Y294843D01*
Y290742D01*
X651645Y290695D01*
X651099Y290403D01*
X650727Y290651D01*
X650224Y290751D01*
X649721Y290651D01*
X649295Y290366D01*
X648595D01*
X648168Y290651D01*
X647665Y290751D01*
X647162Y290651D01*
X646736Y290366D01*
X646036D01*
X645609Y290651D01*
X645106Y290751D01*
X644603Y290651D01*
X644177Y290366D01*
X643476D01*
X643050Y290651D01*
X642547Y290751D01*
X642044Y290651D01*
X641618Y290366D01*
X640917D01*
X640491Y290651D01*
X639988Y290751D01*
X639485Y290651D01*
X639059Y290366D01*
X638679Y290632D01*
Y289464D01*
X638674Y289437D01*
Y286779D01*
X636247D01*
X636185Y287092D01*
Y289437D01*
X636179Y289464D01*
Y290632D01*
X635799Y290366D01*
X635373Y290651D01*
X634870Y290751D01*
X634367Y290651D01*
X633941Y290366D01*
X633240Y290366D01*
X632814Y290651D01*
X632311Y290751D01*
X631808Y290651D01*
X631382Y290366D01*
X631097Y289940D01*
X630997Y289437D01*
Y287748D01*
X627695D01*
Y288757D01*
X622557D01*
Y287354D01*
X617470D01*
Y288818D01*
X618098Y289128D01*
X618161Y289079D01*
X618672Y288867D01*
X619220Y288795D01*
X619769Y288867D01*
X620280Y289079D01*
X620718Y289416D01*
X621055Y289854D01*
X621266Y290365D01*
X621339Y290913D01*
X621319Y291065D01*
X621911Y291657D01*
X622557Y291389D01*
Y290707D01*
X627695D01*
Y291702D01*
X630441D01*
X630968Y291807D01*
X631414Y292105D01*
X640962Y301653D01*
X641260Y302099D01*
X641365Y302626D01*
Y304524D01*
X641906Y304969D01*
X642547Y304841D01*
X643206Y304972D01*
X643520Y305182D01*
X644138Y304852D01*
Y303765D01*
X643707Y303435D01*
X643370Y302996D01*
X643159Y302485D01*
X643087Y301937D01*
X643159Y301389D01*
X643370Y300878D01*
X643707Y300439D01*
X644146Y300103D01*
X644657Y299891D01*
X645205Y299819D01*
X645753Y299891D01*
X646264Y300103D01*
X646702Y300439D01*
X647039Y300878D01*
X647251Y301389D01*
X647323Y301937D01*
X647251Y302485D01*
X647039Y302996D01*
X646702Y303435D01*
X646264Y303771D01*
X646075Y303850D01*
Y305192D01*
X646736Y305634D01*
X647162Y305349D01*
D02*
G37*
G36*
X616858Y322729D02*
Y287354D01*
X612732D01*
X605875Y294212D01*
X605912Y294302D01*
X605984Y294850D01*
X605912Y295399D01*
X605700Y295910D01*
X605364Y296348D01*
X604925Y296685D01*
X604414Y296896D01*
X603866Y296969D01*
X603318Y296896D01*
X602807Y296685D01*
X602368Y296348D01*
X602032Y295910D01*
X601820Y295399D01*
X601748Y294850D01*
X601820Y294302D01*
X602032Y293791D01*
X602368Y293353D01*
X602807Y293016D01*
X603318Y292804D01*
X603866Y292732D01*
X604414Y292804D01*
X604505Y292842D01*
X611646Y285701D01*
X611960Y285491D01*
X612331Y285417D01*
X616858D01*
Y279565D01*
X620205D01*
Y277065D01*
X616858D01*
Y275132D01*
X616643Y274851D01*
X616639Y274840D01*
X618827D01*
Y272340D01*
X616220D01*
X616145Y272228D01*
X615746D01*
Y269260D01*
X613246D01*
Y272228D01*
X611528D01*
Y269260D01*
X610382D01*
X610043Y269519D01*
X609532Y269731D01*
X608984Y269803D01*
X608436Y269731D01*
X607925Y269519D01*
X607587Y269260D01*
X603661D01*
X602189Y270732D01*
X601875Y270942D01*
X601504Y271016D01*
X593927D01*
X593890Y271106D01*
X593553Y271545D01*
X593114Y271882D01*
X592603Y272093D01*
X592055Y272165D01*
X591507Y272093D01*
X590996Y271882D01*
X590557Y271545D01*
X590221Y271106D01*
X590009Y270595D01*
X589937Y270047D01*
X589981Y269711D01*
X589586Y269260D01*
X579171D01*
Y272813D01*
X570780D01*
Y273386D01*
X574236Y276843D01*
X574438Y277144D01*
X575012Y276970D01*
Y276331D01*
X576041D01*
Y279496D01*
Y282661D01*
X575398D01*
X575342Y282734D01*
X575113Y283200D01*
X575386Y283555D01*
X575597Y284066D01*
X575669Y284614D01*
X575597Y285162D01*
X575386Y285673D01*
X575049Y286112D01*
X574610Y286449D01*
X574520Y286486D01*
Y286976D01*
X574446Y287347D01*
X574236Y287661D01*
X564000Y297898D01*
X563686Y298108D01*
X563315Y298181D01*
X557803D01*
X557433Y298108D01*
X557118Y297898D01*
X555288Y296067D01*
X555078Y295753D01*
X555004Y295382D01*
Y294377D01*
X554688Y294166D01*
X554295Y293577D01*
X554156Y292882D01*
Y286583D01*
X554295Y285888D01*
X554688Y285299D01*
X555013Y285082D01*
X554839Y284507D01*
X552927D01*
X552593Y284942D01*
X552542Y285046D01*
X552878Y285483D01*
X553097Y286013D01*
X553172Y286583D01*
Y288482D01*
X550972D01*
Y289732D01*
X549722D01*
Y294672D01*
X549417Y294438D01*
X549067Y293982D01*
X548847Y293451D01*
X548772Y292882D01*
Y286583D01*
X548847Y286013D01*
X549067Y285483D01*
X549403Y285046D01*
X549352Y284942D01*
X549018Y284507D01*
X547927D01*
X547593Y284942D01*
X547542Y285046D01*
X547878Y285483D01*
X548097Y286013D01*
X548172Y286583D01*
Y292882D01*
X548097Y293451D01*
X547878Y293982D01*
X547528Y294438D01*
X547222Y294672D01*
Y289732D01*
X545972D01*
Y288482D01*
X543773D01*
Y286583D01*
X543848Y286013D01*
X544067Y285483D01*
X544403Y285046D01*
X544352Y284942D01*
X544018Y284507D01*
X541639D01*
Y303294D01*
X542242D01*
Y300156D01*
X547379D01*
Y301516D01*
X547545Y302346D01*
X548142Y302288D01*
Y299756D01*
X549860D01*
Y302724D01*
X551110D01*
Y303974D01*
X554079D01*
Y304735D01*
X557197D01*
Y303974D01*
X562921D01*
Y302724D01*
X564171D01*
Y299756D01*
X568646D01*
Y303294D01*
X580031D01*
X580266Y303340D01*
X580464Y303473D01*
X580597Y303671D01*
X580643Y303906D01*
Y304283D01*
X580643Y304283D01*
Y304683D01*
X590869D01*
Y304283D01*
X590869Y304283D01*
Y303906D01*
X590915Y303671D01*
X591048Y303473D01*
X591246Y303340D01*
X591480Y303294D01*
X596386D01*
X596620Y303340D01*
X596818Y303473D01*
X616304Y322958D01*
X616858Y322729D01*
D02*
G37*
G36*
X625882Y183506D02*
X625938Y183076D01*
X626190Y182468D01*
X626591Y181945D01*
X627113Y181545D01*
X627123Y181540D01*
X627156Y181206D01*
X626783Y180647D01*
X626652Y179988D01*
Y178581D01*
X628374D01*
Y177331D01*
X629619D01*
Y174673D01*
X629624Y174646D01*
Y173144D01*
X629802Y173049D01*
X629904Y172357D01*
X623052Y165504D01*
X620328Y165670D01*
X620295Y165713D01*
X620023Y166308D01*
X620267Y166626D01*
X620479Y167137D01*
X620551Y167685D01*
X620479Y168233D01*
X620267Y168744D01*
X619931Y169183D01*
X619492Y169519D01*
X618981Y169731D01*
X618433Y169803D01*
X618433Y169803D01*
X618433Y169803D01*
X618235Y169830D01*
Y171228D01*
Y171809D01*
X619427D01*
Y176946D01*
X614290D01*
Y171809D01*
X614578D01*
X614846Y171163D01*
X613138Y169455D01*
X611443D01*
Y175362D01*
X611381Y175675D01*
Y178020D01*
X611281Y178523D01*
X610996Y178949D01*
X610570Y179234D01*
X610067Y179334D01*
X609564Y179234D01*
X609138Y178949D01*
X608437Y178949D01*
X608011Y179234D01*
X607508Y179334D01*
X607005Y179234D01*
X606579Y178949D01*
X605917Y179391D01*
Y179988D01*
X605844Y180359D01*
X605634Y180673D01*
X605276Y181030D01*
X605544Y181677D01*
X608591D01*
X608961Y181751D01*
X609275Y181961D01*
X610173Y182858D01*
X613890D01*
Y181927D01*
X619827D01*
Y182858D01*
X623945D01*
X624316Y182932D01*
X624630Y183142D01*
X625219Y183731D01*
X625882Y183506D01*
D02*
G37*
G36*
X648004Y181626D02*
X647935Y180930D01*
X647917Y180918D01*
X647217Y180918D01*
X646790Y181202D01*
X646287Y181302D01*
X645785Y181202D01*
X645358Y180918D01*
X644658D01*
X644231Y181202D01*
X643728Y181302D01*
X643225Y181202D01*
X642799Y180918D01*
X642099D01*
X641672Y181202D01*
X641169Y181302D01*
X640666Y181202D01*
X640240Y180918D01*
X639539D01*
X639113Y181202D01*
X638610Y181302D01*
X638107Y181202D01*
X637681Y180918D01*
X636980D01*
X636554Y181202D01*
X636051Y181302D01*
X635548Y181202D01*
X635122Y180918D01*
X634421D01*
X633995Y181202D01*
X633492Y181302D01*
X632989Y181202D01*
X632563Y180918D01*
X631862D01*
X631436Y181202D01*
X630933Y181302D01*
X630430Y181202D01*
X630213Y181057D01*
X629863Y181267D01*
X629853Y181712D01*
X630157Y181945D01*
X630558Y182468D01*
X630562Y182478D01*
X628374D01*
Y184978D01*
X630562D01*
X630558Y184989D01*
X630157Y185511D01*
X629861Y185739D01*
X630086Y186401D01*
X643229D01*
X648004Y181626D01*
D02*
G37*
G36*
X707409Y305480D02*
X725291D01*
Y220441D01*
X707409D01*
Y217214D01*
X706763Y216946D01*
X702976Y220732D01*
X702662Y220942D01*
X702291Y221016D01*
X681032D01*
X680661Y220942D01*
X680347Y220732D01*
X667638Y208024D01*
X666981D01*
X666943Y208114D01*
X666606Y208553D01*
X666168Y208890D01*
X666077Y208927D01*
Y235981D01*
X666004Y236352D01*
X665794Y236666D01*
X662534Y239926D01*
Y252911D01*
X662460Y253281D01*
X662250Y253595D01*
X656100Y259745D01*
X656368Y260392D01*
X659978D01*
Y260875D01*
X660606Y261184D01*
X660681Y261126D01*
X661192Y260915D01*
X661740Y260842D01*
X662288Y260915D01*
X662799Y261126D01*
X662875Y261184D01*
X663502Y260875D01*
Y260392D01*
X668639D01*
Y260392D01*
X669641Y260392D01*
X670085Y260096D01*
X669969Y259516D01*
X670085Y258936D01*
X670413Y258444D01*
X670904Y258116D01*
X671484Y258001D01*
X672976D01*
Y256565D01*
X672886Y256527D01*
X672447Y256191D01*
X672111Y255752D01*
X671899Y255241D01*
X671827Y254693D01*
X671899Y254145D01*
X672111Y253634D01*
X672447Y253195D01*
X672886Y252859D01*
X673397Y252647D01*
X673945Y252575D01*
X674493Y252647D01*
X675004Y252859D01*
X675443Y253195D01*
X675779Y253634D01*
X675991Y254145D01*
X676063Y254693D01*
X675991Y255241D01*
X675779Y255752D01*
X675443Y256191D01*
X675004Y256527D01*
X674914Y256565D01*
Y258001D01*
X676405D01*
X676985Y258116D01*
X677477Y258444D01*
X677805Y258936D01*
X677920Y259516D01*
X677805Y260096D01*
X677477Y260587D01*
X677477D01*
Y261004D01*
X677805Y261495D01*
X677920Y262075D01*
X677805Y262654D01*
X677477Y263146D01*
Y263563D01*
X677477D01*
X677805Y264054D01*
X677920Y264634D01*
X677805Y265214D01*
X677506Y265661D01*
X677765Y265833D01*
X677838Y265943D01*
X677121D01*
X676985Y266034D01*
X676405Y266149D01*
X673945D01*
Y267193D01*
X672695D01*
Y269116D01*
X671484D01*
X670748Y268969D01*
X670125Y268552D01*
X669709Y267931D01*
X669039Y268134D01*
Y272228D01*
X667321D01*
Y269260D01*
X664821D01*
Y272228D01*
X663102D01*
Y272032D01*
X662990Y271957D01*
Y269260D01*
Y266563D01*
X663102Y266488D01*
Y266291D01*
X666589D01*
X666650Y266091D01*
X666233Y265529D01*
X663502D01*
Y265047D01*
X662875Y264737D01*
X662799Y264795D01*
X662288Y265007D01*
X661740Y265079D01*
X661192Y265007D01*
X660681Y264795D01*
X660606Y264737D01*
X659978Y265047D01*
Y265529D01*
X654841D01*
Y261919D01*
X654194Y261652D01*
X653654Y262192D01*
Y295244D01*
X653580Y295615D01*
X653370Y295929D01*
X651193Y298106D01*
Y305693D01*
X651439Y306060D01*
X651539Y306563D01*
Y311878D01*
X651439Y312381D01*
X651154Y312807D01*
X650727Y313092D01*
X650224Y313192D01*
X649721Y313092D01*
X649535Y312968D01*
X649091Y313509D01*
X649937Y314354D01*
X653465D01*
X655653Y312166D01*
Y290323D01*
X655727Y289952D01*
X655937Y289638D01*
X658384Y287191D01*
Y283621D01*
X663128D01*
Y288757D01*
X659557D01*
X657591Y290724D01*
Y312567D01*
X657517Y312938D01*
X657307Y313252D01*
X654551Y316008D01*
X654533Y316020D01*
X654464Y316717D01*
X656801Y319054D01*
X660372D01*
Y324190D01*
X655628D01*
Y320620D01*
X654726Y319717D01*
X654079Y319985D01*
Y324590D01*
X652557D01*
Y321622D01*
X651307D01*
Y320372D01*
X648535D01*
Y318653D01*
X648658D01*
X648836Y318067D01*
X648318Y317597D01*
X647780Y317820D01*
Y321441D01*
X641843D01*
Y317463D01*
X641643Y317402D01*
X641080Y317819D01*
Y321041D01*
X639888D01*
Y323181D01*
X640010Y323274D01*
X640346Y323713D01*
X640558Y324223D01*
X640630Y324772D01*
X640558Y325320D01*
X640464Y325546D01*
X640853Y326128D01*
X642037D01*
X642108Y326022D01*
X647514D01*
X647585Y326128D01*
X707409D01*
Y305480D01*
D02*
G37*
G36*
X579166Y265425D02*
X579480Y265215D01*
X579850Y265142D01*
X580341D01*
X580378Y265051D01*
X580715Y264613D01*
X581076Y264335D01*
X580747Y263765D01*
X580747Y263765D01*
X580726Y263729D01*
X580503Y263822D01*
X579850Y263907D01*
X579198Y263822D01*
X578590Y263570D01*
X578067Y263169D01*
X577667Y262647D01*
X577662Y262636D01*
X582039D01*
X582034Y262647D01*
X581633Y263169D01*
X581189Y263510D01*
X581518Y264080D01*
X581518D01*
X581539Y264116D01*
X581664Y264064D01*
X582213Y263992D01*
X582761Y264064D01*
X583272Y264276D01*
X583687Y264594D01*
X583819Y264529D01*
X584315Y264149D01*
Y253417D01*
X583466Y252568D01*
X582819Y252836D01*
Y253443D01*
X581100D01*
Y251724D01*
X581707D01*
X581760Y251598D01*
X581371Y251016D01*
X579850D01*
X579441Y250962D01*
X577282D01*
Y248803D01*
X577228Y248394D01*
X577282Y247984D01*
Y245825D01*
X578710D01*
X589826Y234709D01*
Y231858D01*
Y231370D01*
X588232Y229776D01*
X587816Y229233D01*
X587554Y228600D01*
X587464Y227921D01*
X587554Y227242D01*
X587816Y226610D01*
X588232Y226067D01*
X588775Y225650D01*
X589408Y225388D01*
X590087Y225299D01*
X590087Y225299D01*
X594811D01*
X594811Y225299D01*
X595490Y225388D01*
X596122Y225650D01*
X596665Y226067D01*
X597082Y226610D01*
X597344Y227242D01*
X597434Y227921D01*
X597344Y228600D01*
X597191Y228971D01*
X597165Y229033D01*
X597184Y229045D01*
Y229044D01*
X597771Y229383D01*
X598146Y228894D01*
X598668Y228493D01*
X598679Y228489D01*
Y229427D01*
X597336D01*
X597057Y229266D01*
X596665Y229776D01*
X596665Y229776D01*
X595071Y231370D01*
Y231858D01*
Y235795D01*
X595071Y235795D01*
X594982Y236474D01*
X594720Y237106D01*
X594303Y237650D01*
X594303Y237650D01*
X585134Y246819D01*
X588791Y250476D01*
X588791Y250476D01*
X589208Y251020D01*
X589470Y251652D01*
X589560Y252331D01*
X589560Y252331D01*
Y262415D01*
X590187Y262675D01*
X590222Y262687D01*
X590557Y262250D01*
X590996Y261914D01*
X591086Y261876D01*
Y257055D01*
X591160Y256684D01*
X591370Y256370D01*
X596346Y251395D01*
X596308Y251304D01*
X596236Y250756D01*
X596308Y250208D01*
X596520Y249697D01*
X596857Y249258D01*
X597295Y248922D01*
X597806Y248710D01*
X598354Y248638D01*
X598828Y248700D01*
X599354Y248239D01*
Y243276D01*
X599428Y242905D01*
X599638Y242591D01*
X604079Y238150D01*
Y223992D01*
X590705Y210618D01*
X576539D01*
X576138Y212632D01*
Y259958D01*
X576092Y260192D01*
X575959Y260391D01*
X574404Y261946D01*
X574540Y262633D01*
X574812Y262745D01*
X575334Y263146D01*
X575735Y263668D01*
X575739Y263679D01*
X573551D01*
Y266179D01*
X575739D01*
X575735Y266190D01*
X575334Y266712D01*
X575831Y266882D01*
Y266882D01*
X575831Y266882D01*
Y266882D01*
D01*
D01*
X575831Y267282D01*
X577309D01*
X579166Y265425D01*
D02*
G37*
G36*
X585069Y205460D02*
X585176Y205299D01*
X584990Y204847D01*
X584917Y204299D01*
X584990Y203751D01*
X585201Y203240D01*
X585538Y202801D01*
X585685Y202688D01*
X585628Y201991D01*
X585405Y201871D01*
X585135Y202052D01*
X584476Y202183D01*
X583817Y202052D01*
X583259Y201678D01*
X583167D01*
Y197803D01*
Y193928D01*
X583226D01*
Y197803D01*
X585721D01*
Y195146D01*
X585726Y195119D01*
Y193951D01*
X586106Y194216D01*
Y194216D01*
X586106D01*
X586532Y193931D01*
X587035Y193831D01*
X587538Y193931D01*
X587965Y194216D01*
X588581Y193804D01*
Y193160D01*
X588535Y193141D01*
X588097Y192805D01*
X587760Y192366D01*
X587548Y191855D01*
X587476Y191307D01*
X587548Y190759D01*
X587760Y190248D01*
X588097Y189809D01*
X588535Y189473D01*
X589046Y189261D01*
X589595Y189189D01*
X590143Y189261D01*
X590654Y189473D01*
X591092Y189809D01*
X591429Y190248D01*
X591640Y190759D01*
X591713Y191307D01*
X591640Y191855D01*
X591429Y192366D01*
X591092Y192805D01*
X590654Y193141D01*
X590608Y193160D01*
Y193804D01*
X591224Y194216D01*
X591651Y193931D01*
X592154Y193831D01*
X592657Y193931D01*
X593083Y194216D01*
X593699Y193804D01*
Y193160D01*
X593653Y193141D01*
X593215Y192805D01*
X592878Y192366D01*
X592667Y191855D01*
X592594Y191307D01*
X592667Y190759D01*
X592878Y190248D01*
X593215Y189809D01*
X593653Y189473D01*
X594164Y189261D01*
X594713Y189189D01*
X595261Y189261D01*
X595772Y189473D01*
X596210Y189809D01*
X596547Y190248D01*
X596759Y190759D01*
X596831Y191307D01*
X596759Y191855D01*
X596547Y192366D01*
X596210Y192805D01*
X595772Y193141D01*
X595726Y193160D01*
Y193804D01*
X596342Y194216D01*
X596769Y193931D01*
X597272Y193831D01*
X597775Y193931D01*
X598201Y194216D01*
X598818Y193804D01*
Y193160D01*
X598772Y193141D01*
X598333Y192805D01*
X597996Y192366D01*
X597785Y191855D01*
X597713Y191307D01*
X597785Y190759D01*
X597996Y190248D01*
X598333Y189809D01*
X598772Y189473D01*
X599283Y189261D01*
X599831Y189189D01*
X600379Y189261D01*
X600890Y189473D01*
X601329Y189809D01*
X601665Y190248D01*
X601877Y190759D01*
X601949Y191307D01*
X601877Y191855D01*
X601665Y192366D01*
X601329Y192805D01*
X600890Y193141D01*
X600844Y193160D01*
Y193804D01*
X601461Y194216D01*
X601887Y193931D01*
X602390Y193831D01*
X602893Y193931D01*
X603319Y194216D01*
X603936Y193804D01*
Y193160D01*
X603890Y193141D01*
X603451Y192805D01*
X603115Y192366D01*
X602903Y191855D01*
X602831Y191307D01*
X602903Y190759D01*
X603115Y190248D01*
X603451Y189809D01*
X603890Y189473D01*
X604401Y189261D01*
X604949Y189189D01*
X605497Y189261D01*
X606008Y189473D01*
X606447Y189809D01*
X606783Y190248D01*
X606995Y190759D01*
X607067Y191307D01*
X606995Y191855D01*
X606783Y192366D01*
X606447Y192805D01*
X606008Y193141D01*
X605962Y193160D01*
Y193804D01*
X606579Y194216D01*
X607005Y193931D01*
X607508Y193831D01*
X608011Y193931D01*
X608073Y193973D01*
X608691Y193643D01*
Y189810D01*
X606380Y187500D01*
X606228Y187520D01*
X605680Y187448D01*
X605169Y187236D01*
X604731Y186899D01*
X604394Y186461D01*
X604182Y185950D01*
X604110Y185402D01*
X603764Y184905D01*
X603449Y185115D01*
X603079Y185189D01*
X583795D01*
X576104Y192880D01*
Y195122D01*
X576435Y195344D01*
Y197803D01*
Y200263D01*
X576104Y200484D01*
Y203108D01*
X578876Y205881D01*
X584520D01*
X585069Y205460D01*
D02*
G37*
G36*
X725291Y326740D02*
X645645D01*
X645630Y326750D01*
X644811Y326913D01*
X643992Y326750D01*
X643977Y326740D01*
X640066D01*
X639762Y326943D01*
Y324772D01*
X637262D01*
Y326943D01*
X636958Y326740D01*
X619220D01*
X596386Y303906D01*
X591480D01*
Y304283D01*
X591480D01*
Y310529D01*
X580031D01*
Y304283D01*
X580031D01*
Y303906D01*
X568599D01*
X568246Y304259D01*
Y305293D01*
X564906D01*
X564496Y305347D01*
X564496Y305347D01*
X551110D01*
X551110Y305347D01*
X550701Y305293D01*
X548542D01*
Y303906D01*
X547733D01*
X547379Y304259D01*
Y305293D01*
X547277D01*
X547228Y305790D01*
X547599Y305864D01*
X548293Y306329D01*
X548758Y307023D01*
X548921Y307842D01*
X548758Y308662D01*
X548293Y309356D01*
X547599Y309821D01*
X546779Y309984D01*
X545960Y309821D01*
X545265Y309356D01*
X544801Y308662D01*
X544674Y308021D01*
X543669Y307016D01*
X543319Y306492D01*
X543196Y305874D01*
Y305293D01*
X542242D01*
Y303906D01*
X535944D01*
X535591Y304259D01*
Y360764D01*
X725291D01*
Y326740D01*
D02*
G37*
G36*
X660553Y220119D02*
Y206171D01*
X660462Y206134D01*
X660023Y205797D01*
X659687Y205358D01*
X659475Y204847D01*
X659403Y204299D01*
X659475Y203751D01*
X659687Y203240D01*
X660023Y202801D01*
X660462Y202465D01*
X660973Y202253D01*
X661521Y202181D01*
X662070Y202253D01*
X662580Y202465D01*
X663019Y202801D01*
X663356Y203240D01*
X663393Y203331D01*
X667646D01*
X668016Y203404D01*
X668331Y203614D01*
X668608Y203892D01*
X669149Y203448D01*
X668909Y203088D01*
X668778Y202429D01*
Y201022D01*
X669250D01*
Y204061D01*
X669037Y204321D01*
X681826Y217110D01*
X692469D01*
X692470Y217110D01*
X694790D01*
X694790Y217110D01*
X701103D01*
X704472Y213740D01*
Y211198D01*
X704466D01*
Y211198D01*
X699329D01*
Y206061D01*
X700011D01*
X700279Y205415D01*
X698597Y203733D01*
X698147Y203643D01*
X697720Y203358D01*
X697340Y203624D01*
Y202456D01*
X697335Y202429D01*
Y202151D01*
X697273Y201839D01*
Y199772D01*
X694846D01*
Y202429D01*
X694840Y202456D01*
Y203624D01*
X694461Y203358D01*
X694034Y203643D01*
X693532Y203743D01*
X693029Y203643D01*
X692602Y203358D01*
X692602D01*
X691986Y203770D01*
Y204414D01*
X692031Y204433D01*
X692470Y204770D01*
X692807Y205209D01*
X692994Y205661D01*
X694348D01*
Y208630D01*
X695598D01*
Y209880D01*
X698567D01*
Y211598D01*
X695511D01*
X695286Y212261D01*
X695413Y212359D01*
X695814Y212881D01*
X695818Y212892D01*
X691442D01*
X691446Y212881D01*
X691847Y212359D01*
X692369Y211958D01*
X692630Y211850D01*
Y211598D01*
D01*
X692630Y210868D01*
X692630Y210868D01*
X692630D01*
Y208882D01*
X692031Y208102D01*
X691521Y208314D01*
X690972Y208386D01*
X690424Y208314D01*
X689913Y208102D01*
X689475Y207766D01*
X689138Y207327D01*
X688927Y206816D01*
X688854Y206268D01*
X688927Y205719D01*
X689138Y205209D01*
X689475Y204770D01*
X689913Y204433D01*
X689959Y204414D01*
Y203770D01*
X689343Y203358D01*
X689343D01*
X688916Y203643D01*
X688413Y203743D01*
X687911Y203643D01*
X687484Y203358D01*
X687484D01*
X686868Y203770D01*
Y204414D01*
X686913Y204433D01*
X687352Y204770D01*
X687689Y205209D01*
X687900Y205719D01*
X687972Y206268D01*
X687900Y206816D01*
X687689Y207327D01*
X687352Y207766D01*
X686913Y208102D01*
X686403Y208314D01*
X685854Y208386D01*
X685306Y208314D01*
X684795Y208102D01*
X684357Y207766D01*
X684020Y207327D01*
X683808Y206816D01*
X683736Y206268D01*
X683808Y205719D01*
X684020Y205209D01*
X684357Y204770D01*
X684795Y204433D01*
X684841Y204414D01*
Y203770D01*
X684225Y203358D01*
X684225D01*
X683798Y203643D01*
X683295Y203743D01*
X682792Y203643D01*
X682366Y203358D01*
X682366D01*
X681749Y203770D01*
Y204414D01*
X681795Y204433D01*
X682234Y204770D01*
X682571Y205209D01*
X682782Y205719D01*
X682854Y206268D01*
X682782Y206816D01*
X682571Y207327D01*
X682234Y207766D01*
X681795Y208102D01*
X681284Y208314D01*
X680736Y208386D01*
X680188Y208314D01*
X679677Y208102D01*
X679239Y207766D01*
X678902Y207327D01*
X678690Y206816D01*
X678618Y206268D01*
X678690Y205719D01*
X678902Y205209D01*
X679239Y204770D01*
X679677Y204433D01*
X679723Y204414D01*
Y203770D01*
X679107Y203358D01*
X679107D01*
X678680Y203643D01*
X678177Y203743D01*
X677674Y203643D01*
X677248Y203358D01*
X677248D01*
X676631Y203770D01*
Y204414D01*
X676677Y204433D01*
X677116Y204770D01*
X677453Y205209D01*
X677664Y205719D01*
X677736Y206268D01*
X677664Y206816D01*
X677453Y207327D01*
X677116Y207766D01*
X676677Y208102D01*
X676166Y208314D01*
X675618Y208386D01*
X675070Y208314D01*
X674559Y208102D01*
X674120Y207766D01*
X673784Y207327D01*
X673572Y206816D01*
X673500Y206268D01*
X673572Y205719D01*
X673784Y205209D01*
X674120Y204770D01*
X674268Y204657D01*
X674211Y203959D01*
X673988Y203840D01*
X673718Y204020D01*
X673059Y204151D01*
X672400Y204020D01*
X671841Y203647D01*
X671750D01*
Y199772D01*
X670500D01*
Y198522D01*
X668778D01*
Y197114D01*
X668909Y196455D01*
X669049Y196246D01*
X668760Y195608D01*
X668420Y195564D01*
X667812Y195312D01*
X667290Y194911D01*
X667104Y194669D01*
X666677Y194669D01*
Y194669D01*
X663239D01*
X663165Y194850D01*
X663553Y195431D01*
X666277D01*
Y200569D01*
X661140D01*
Y197378D01*
X659136Y195374D01*
X658984Y195394D01*
X658436Y195322D01*
X657900Y196616D01*
Y199772D01*
X657838Y200084D01*
Y202429D01*
X657738Y202932D01*
X657453Y203358D01*
X657027Y203643D01*
X656524Y203743D01*
X656021Y203643D01*
X655594Y203358D01*
X654894Y203358D01*
X654467Y203643D01*
X653965Y203743D01*
X653462Y203643D01*
X653035Y203358D01*
X652335Y203358D01*
X651908Y203643D01*
X651405Y203743D01*
X650903Y203643D01*
X650476Y203358D01*
X650476D01*
X649860Y203770D01*
Y204414D01*
X649905Y204433D01*
X650344Y204770D01*
X650681Y205209D01*
X650892Y205719D01*
X650965Y206268D01*
X650892Y206816D01*
X650681Y207327D01*
X650344Y207766D01*
X649905Y208102D01*
X649395Y208314D01*
X648846Y208386D01*
X648298Y208314D01*
X647787Y208102D01*
X647349Y207766D01*
X647012Y207327D01*
X646801Y206816D01*
X646728Y206268D01*
X646801Y205719D01*
X647012Y205209D01*
X647349Y204770D01*
X647787Y204433D01*
X647833Y204414D01*
Y203770D01*
X647217Y203358D01*
X647217D01*
X646790Y203643D01*
X646287Y203743D01*
X645785Y203643D01*
X645358Y203358D01*
X645358D01*
X644741Y203770D01*
Y204414D01*
X644787Y204433D01*
X645226Y204770D01*
X645563Y205209D01*
X645774Y205719D01*
X645847Y206268D01*
X645774Y206816D01*
X645563Y207327D01*
X645226Y207766D01*
X644787Y208102D01*
X644277Y208314D01*
X643728Y208386D01*
X643180Y208314D01*
X642669Y208102D01*
X642231Y207766D01*
X641894Y207327D01*
X641682Y206816D01*
X641610Y206268D01*
X641682Y205719D01*
X641894Y205209D01*
X642231Y204770D01*
X642669Y204433D01*
X642715Y204414D01*
Y203770D01*
X642099Y203358D01*
X642099D01*
X641672Y203643D01*
X641169Y203743D01*
X640666Y203643D01*
X640240Y203358D01*
X640240D01*
X639623Y203770D01*
Y204414D01*
X639669Y204433D01*
X640108Y204770D01*
X640445Y205209D01*
X640656Y205719D01*
X640728Y206268D01*
X640656Y206816D01*
X640445Y207327D01*
X640108Y207766D01*
X639669Y208102D01*
X639158Y208314D01*
X638610Y208386D01*
X638062Y208314D01*
X637551Y208102D01*
X637113Y207766D01*
X636776Y207327D01*
X636564Y206816D01*
X636492Y206268D01*
X636564Y205719D01*
X636776Y205209D01*
X637113Y204770D01*
X637551Y204433D01*
X637597Y204414D01*
Y203770D01*
X636980Y203358D01*
X636980D01*
X636554Y203643D01*
X636051Y203743D01*
X635548Y203643D01*
X635122Y203358D01*
X635122D01*
X634505Y203770D01*
Y204414D01*
X634551Y204433D01*
X634990Y204770D01*
X635326Y205209D01*
X635538Y205719D01*
X635610Y206268D01*
X635538Y206816D01*
X635326Y207327D01*
X634990Y207766D01*
X634551Y208102D01*
X634040Y208314D01*
X633492Y208386D01*
X632944Y208314D01*
X632433Y208102D01*
X631994Y207766D01*
X631658Y207327D01*
X631479Y206896D01*
X630779D01*
X630558Y207430D01*
X630157Y207952D01*
X629635Y208353D01*
X629624Y208358D01*
Y206169D01*
X628374D01*
Y204919D01*
X626186D01*
X626190Y204908D01*
X626591Y204386D01*
X627113Y203986D01*
X627123Y203981D01*
X627156Y203647D01*
X626783Y203088D01*
X626652Y202429D01*
Y201022D01*
X628374D01*
Y198522D01*
X626652D01*
Y197114D01*
X626783Y196455D01*
X627156Y195896D01*
X627715Y195523D01*
X628374Y195392D01*
X628528Y195423D01*
X628898Y194828D01*
X628749Y194635D01*
X628745Y194624D01*
X630933D01*
Y192124D01*
X628745D01*
X628749Y192113D01*
X629038Y191737D01*
X628729Y191109D01*
X627305D01*
X626778Y191004D01*
X626332Y190706D01*
X622798Y187172D01*
X610860D01*
X610592Y187819D01*
X611040Y188267D01*
X611040Y188267D01*
X611339Y188713D01*
X611443Y189240D01*
X611443Y189240D01*
Y197803D01*
Y202522D01*
X612090Y202790D01*
X614411Y200469D01*
X614290Y200175D01*
X614290D01*
X614290Y200175D01*
Y195038D01*
X619427D01*
Y198265D01*
X620074Y198533D01*
X620614Y197993D01*
Y194460D01*
X620020Y194090D01*
X619827Y194185D01*
Y194276D01*
X618108D01*
Y191307D01*
Y188339D01*
X619827D01*
Y190004D01*
X620455Y190313D01*
X620524Y190260D01*
X621034Y190049D01*
X621583Y189976D01*
X622131Y190049D01*
X622642Y190260D01*
X623080Y190597D01*
X623417Y191035D01*
X623629Y191546D01*
X623701Y192095D01*
X623629Y192643D01*
X623417Y193154D01*
X623080Y193592D01*
X622642Y193929D01*
X622551Y193966D01*
Y198394D01*
X622478Y198764D01*
X622268Y199079D01*
X618567Y202780D01*
X618876Y203408D01*
X619220Y203362D01*
X619769Y203434D01*
X620280Y203646D01*
X620718Y203983D01*
X621055Y204421D01*
X621266Y204932D01*
X621339Y205480D01*
X621266Y206029D01*
X621055Y206539D01*
X620718Y206978D01*
X620571Y207091D01*
X620526Y207789D01*
X628272Y215535D01*
X654654D01*
X655024Y215609D01*
X655338Y215819D01*
X659906Y220387D01*
X660553Y220119D01*
D02*
G37*
G36*
X702096Y202424D02*
Y197229D01*
X701975Y197135D01*
X701638Y196697D01*
X701427Y196186D01*
X701354Y195638D01*
X701427Y195090D01*
X701638Y194579D01*
X701975Y194140D01*
X702413Y193803D01*
X702924Y193592D01*
X703472Y193520D01*
X704021Y193592D01*
X704531Y193803D01*
X704810Y194017D01*
X705445Y193722D01*
X705653Y189242D01*
X705563Y189204D01*
X705124Y188868D01*
X704788Y188429D01*
X704576Y187918D01*
X704504Y187370D01*
X704576Y186822D01*
X704788Y186311D01*
X705124Y185872D01*
X705563Y185536D01*
X706074Y185324D01*
X706622Y185252D01*
X707170Y185324D01*
X707681Y185536D01*
X708120Y185872D01*
X708456Y186311D01*
X708668Y186822D01*
X708740Y187370D01*
X708668Y187918D01*
X708456Y188429D01*
X708120Y188868D01*
X707831Y189090D01*
X707892Y189715D01*
X707928Y189800D01*
X708218Y189944D01*
X708319Y189866D01*
X708830Y189655D01*
X709378Y189583D01*
X709926Y189655D01*
X710437Y189866D01*
X710876Y190203D01*
X711212Y190642D01*
X711424Y191153D01*
X711496Y191701D01*
X711424Y192249D01*
X711212Y192760D01*
X710876Y193199D01*
X710437Y193535D01*
X710347Y193573D01*
Y197606D01*
X710273Y197977D01*
X710063Y198291D01*
X709820Y198534D01*
X710088Y199181D01*
X725853D01*
X726050Y198924D01*
X730381Y194593D01*
X730917Y194182D01*
X731542Y193923D01*
X732213Y193834D01*
X773716D01*
Y137992D01*
X760972D01*
X760769Y138662D01*
X761040Y138844D01*
X763606Y141410D01*
X763816Y141724D01*
X763890Y142095D01*
Y165119D01*
X764431Y165659D01*
X765077Y165391D01*
Y161179D01*
X766677D01*
Y158442D01*
X765077D01*
Y152912D01*
X770214D01*
Y158442D01*
X768614D01*
Y161179D01*
X770214D01*
Y165923D01*
X765609D01*
X765341Y166570D01*
X766644Y167872D01*
X770214D01*
Y172616D01*
X765077D01*
Y169045D01*
X762236Y166205D01*
X762026Y165890D01*
X761953Y165520D01*
Y152543D01*
X761559Y152150D01*
X761458Y152150D01*
X761458Y152150D01*
Y152150D01*
X759840D01*
Y148984D01*
X758591D01*
Y147734D01*
X755622D01*
Y145819D01*
X756709D01*
X756934Y145156D01*
X756808Y145059D01*
X756407Y144536D01*
X756402Y144526D01*
X758591D01*
Y142026D01*
X756402D01*
X756407Y142015D01*
X756808Y141493D01*
X757241Y141160D01*
X757016Y140497D01*
X752585D01*
X752317Y141144D01*
X754551Y143378D01*
X754761Y143692D01*
X754835Y144063D01*
Y165119D01*
X755375Y165659D01*
X756022Y165391D01*
Y161179D01*
X757622D01*
Y158442D01*
X756022D01*
Y152912D01*
X761159D01*
Y158442D01*
X759559D01*
Y161179D01*
X761159D01*
Y165923D01*
X756554D01*
X756286Y166570D01*
X757589Y167872D01*
X761159D01*
Y172616D01*
X756022D01*
Y169045D01*
X753181Y166205D01*
X752971Y165890D01*
X752898Y165520D01*
Y152150D01*
X752504D01*
Y152150D01*
X750785D01*
Y148984D01*
X749535D01*
Y147734D01*
X746567D01*
Y146213D01*
X745972Y145843D01*
X745780Y145938D01*
Y165119D01*
X746320Y165659D01*
X746967Y165391D01*
Y161179D01*
X748567D01*
Y158442D01*
X746967D01*
Y152912D01*
X752104D01*
Y158442D01*
X750504D01*
Y161179D01*
X752104D01*
Y165923D01*
X747499D01*
X747231Y166570D01*
X748534Y167872D01*
X752104D01*
Y172616D01*
X746967D01*
Y169045D01*
X744126Y166205D01*
X743916Y165890D01*
X743842Y165520D01*
Y152543D01*
X743449Y152150D01*
X743347Y152150D01*
X743347Y152150D01*
Y152150D01*
X741730D01*
Y148984D01*
Y145819D01*
X743347D01*
X743347Y145819D01*
Y145819D01*
X743449Y145819D01*
X743842Y145425D01*
Y144858D01*
X742082Y143097D01*
X722081D01*
X721771Y143725D01*
X722166Y144240D01*
X722524Y145104D01*
X722646Y146031D01*
X722524Y146959D01*
X722166Y147823D01*
X721597Y148565D01*
X720855Y149135D01*
X719990Y149493D01*
X720081Y150181D01*
X730244D01*
X730615Y150255D01*
X730929Y150465D01*
X735653Y155189D01*
X735863Y155503D01*
X735937Y155874D01*
Y167677D01*
X737265Y169006D01*
X737912Y168738D01*
Y167872D01*
X743049D01*
Y172616D01*
X737912D01*
Y171213D01*
X737134D01*
X736763Y171139D01*
X736449Y170929D01*
X734284Y168764D01*
X734074Y168449D01*
X734000Y168079D01*
Y156275D01*
X729843Y152118D01*
X721545D01*
X721320Y152781D01*
X721882Y153212D01*
X722516Y154038D01*
X722824Y154781D01*
X715302D01*
X715610Y154038D01*
X716244Y153212D01*
X716806Y152781D01*
X716581Y152118D01*
X711545D01*
X711320Y152781D01*
X711882Y153212D01*
X712516Y154038D01*
X712824Y154781D01*
X705302D01*
X705610Y154038D01*
X706244Y153212D01*
X706806Y152781D01*
X706581Y152118D01*
X700693D01*
X700557Y152805D01*
X700855Y152928D01*
X701597Y153498D01*
X702166Y154240D01*
X702524Y155104D01*
X702646Y156032D01*
X702524Y156959D01*
X702166Y157823D01*
X701597Y158565D01*
X700855Y159135D01*
X699990Y159493D01*
X699063Y159615D01*
X698136Y159493D01*
X697271Y159135D01*
X696529Y158565D01*
X695960Y157823D01*
X695602Y156959D01*
X695480Y156032D01*
X695602Y155104D01*
X695960Y154240D01*
X696529Y153498D01*
X697271Y152928D01*
X697569Y152805D01*
X697433Y152118D01*
X690693D01*
X690557Y152805D01*
X690855Y152928D01*
X691597Y153498D01*
X692166Y154240D01*
X692524Y155104D01*
X692646Y156032D01*
X692524Y156959D01*
X692183Y157782D01*
X695496Y161095D01*
X695706Y161409D01*
X695780Y161779D01*
Y164632D01*
X695870Y164670D01*
X696309Y165006D01*
X696645Y165445D01*
X696857Y165956D01*
X696929Y166504D01*
X696857Y167052D01*
X696645Y167563D01*
X696309Y168002D01*
X695870Y168338D01*
X695359Y168550D01*
X694811Y168622D01*
X694263Y168550D01*
X693752Y168338D01*
X693313Y168002D01*
X692977Y167563D01*
X692765Y167052D01*
X692693Y166504D01*
X692765Y165956D01*
X692977Y165445D01*
X693313Y165006D01*
X693752Y164670D01*
X693842Y164632D01*
Y162181D01*
X690813Y159152D01*
X689990Y159493D01*
X689063Y159615D01*
X689046Y159613D01*
X688736Y160240D01*
X691657Y163162D01*
X691867Y163476D01*
X691941Y163847D01*
Y172962D01*
X692281Y173144D01*
Y174646D01*
X692287Y174673D01*
Y177331D01*
Y179988D01*
X692281Y180015D01*
Y181183D01*
X691902Y180918D01*
X691475Y181202D01*
X690972Y181302D01*
X690470Y181202D01*
X690043Y180918D01*
X689343Y180918D01*
X688916Y181202D01*
X688413Y181302D01*
X687911Y181202D01*
X687484Y180918D01*
X686784D01*
X686357Y181202D01*
X685854Y181302D01*
X685351Y181202D01*
X684925Y180918D01*
X684225D01*
X683798Y181202D01*
X683295Y181302D01*
X682792Y181202D01*
X682366Y180918D01*
X681666D01*
X681239Y181202D01*
X680736Y181302D01*
X680233Y181202D01*
X679807Y180918D01*
X679107D01*
X678680Y181202D01*
X678177Y181302D01*
X677674Y181202D01*
X677248Y180918D01*
X677018Y181071D01*
X676746Y181727D01*
X676739Y181942D01*
X677116Y182231D01*
X677453Y182669D01*
X677664Y183180D01*
X677736Y183728D01*
X677664Y184277D01*
X677453Y184787D01*
X677116Y185226D01*
X676677Y185563D01*
X676166Y185774D01*
X675618Y185846D01*
X675070Y185774D01*
X674559Y185563D01*
X674120Y185226D01*
X673784Y184787D01*
X673572Y184277D01*
X673500Y183728D01*
X673572Y183180D01*
X673784Y182669D01*
X674120Y182231D01*
X674497Y181942D01*
X674490Y181727D01*
X674218Y181071D01*
X673988Y180918D01*
X673562Y181202D01*
X673059Y181302D01*
X672556Y181202D01*
X672130Y180918D01*
X671718Y181206D01*
X671718Y181206D01*
Y181206D01*
X671159Y181579D01*
X671123Y181586D01*
X671014Y181789D01*
X668433D01*
Y183039D01*
X667183D01*
Y185310D01*
X666677Y185648D01*
Y186008D01*
X664959D01*
Y183039D01*
Y180071D01*
X666677D01*
Y180431D01*
X667259Y180820D01*
X667780Y180604D01*
X668433Y180518D01*
X668433Y180518D01*
X668778Y179988D01*
Y178581D01*
X670500D01*
Y177331D01*
X671745D01*
Y174673D01*
X671750Y174646D01*
Y173052D01*
X671838Y172460D01*
X671040Y171662D01*
X670950Y171700D01*
X670402Y171772D01*
X669853Y171700D01*
X669343Y171488D01*
X668904Y171151D01*
X668567Y170713D01*
X668356Y170202D01*
X668283Y169653D01*
X668356Y169105D01*
X668567Y168595D01*
X668904Y168156D01*
X669343Y167819D01*
X669472Y167765D01*
X669336Y167079D01*
X659142D01*
X658771Y167005D01*
X658457Y166795D01*
X650813Y159152D01*
X649990Y159493D01*
X649063Y159615D01*
X648136Y159493D01*
X647271Y159135D01*
X646529Y158565D01*
X645960Y157823D01*
X645602Y156959D01*
X645480Y156032D01*
X645602Y155104D01*
X645960Y154240D01*
X646529Y153498D01*
X646665Y153394D01*
X646586Y153160D01*
X645904Y153001D01*
X644034Y154871D01*
Y163570D01*
X646972Y166508D01*
X647182Y166822D01*
X647256Y167193D01*
Y170621D01*
X647952Y170759D01*
X648162Y170445D01*
X648708Y169898D01*
X648671Y169808D01*
X648598Y169260D01*
X648671Y168712D01*
X648882Y168201D01*
X649219Y167762D01*
X649657Y167426D01*
X650168Y167214D01*
X650716Y167142D01*
X651265Y167214D01*
X651776Y167426D01*
X652214Y167762D01*
X652551Y168201D01*
X652763Y168712D01*
X652835Y169260D01*
X652763Y169808D01*
X652551Y170319D01*
X652214Y170758D01*
X651776Y171094D01*
X651265Y171306D01*
X650716Y171378D01*
X650341Y171329D01*
X650055Y171580D01*
X649815Y172159D01*
Y173302D01*
X650476Y173744D01*
X650903Y173459D01*
X651405Y173359D01*
X651908Y173459D01*
X651971Y173501D01*
X652588Y173171D01*
Y172311D01*
X652693Y171784D01*
X652991Y171338D01*
X654074Y170255D01*
X654074Y170255D01*
X654521Y169957D01*
X655047Y169852D01*
X655047Y169852D01*
X659756D01*
X659849Y169731D01*
X660287Y169394D01*
X660798Y169182D01*
X661346Y169110D01*
X661895Y169182D01*
X662405Y169394D01*
X662844Y169731D01*
X663181Y170169D01*
X663392Y170680D01*
X663465Y171228D01*
X663445Y171380D01*
X664091Y172027D01*
X664390Y172473D01*
X664495Y173000D01*
Y174172D01*
X666277D01*
Y179309D01*
X661140D01*
Y178707D01*
X657838D01*
Y179988D01*
X657738Y180491D01*
X657453Y180918D01*
X657027Y181202D01*
X656524Y181302D01*
X656021Y181202D01*
X655594Y180918D01*
X654894Y180918D01*
X654467Y181202D01*
X653965Y181302D01*
X653462Y181202D01*
X653035Y180918D01*
X652335Y180918D01*
X651908Y181202D01*
X651405Y181302D01*
X651369Y181295D01*
X650252Y182412D01*
X649937Y182622D01*
X649701Y182669D01*
X644661Y187709D01*
X644929Y188356D01*
X652685D01*
X653212Y188461D01*
X653658Y188759D01*
X656760Y191860D01*
X657458Y191815D01*
X657486Y191778D01*
X657925Y191441D01*
X658436Y191230D01*
X658984Y191157D01*
X659532Y191230D01*
X660043Y191441D01*
X660112Y191494D01*
X660740Y191185D01*
Y188732D01*
X662459D01*
Y191701D01*
X664959D01*
Y188732D01*
X666677D01*
Y190875D01*
X667220Y191291D01*
X667305Y191333D01*
X667812Y190944D01*
X667823Y190940D01*
Y193128D01*
X669073D01*
Y194378D01*
X671261D01*
X671257Y194389D01*
X670892Y194864D01*
X671138Y195519D01*
X671159Y195523D01*
X671718Y195896D01*
X671809D01*
Y199772D01*
X674304D01*
Y197114D01*
X674309Y197087D01*
Y195919D01*
X674689Y196185D01*
Y196185D01*
X674689D01*
X675115Y195900D01*
X675618Y195800D01*
X676121Y195900D01*
X676547Y196185D01*
X677164Y195773D01*
Y195129D01*
X677118Y195110D01*
X676679Y194773D01*
X676343Y194335D01*
X676131Y193824D01*
X676059Y193276D01*
X676131Y192727D01*
X676343Y192217D01*
X676679Y191778D01*
X677118Y191441D01*
X677629Y191230D01*
X678177Y191157D01*
X678725Y191230D01*
X679236Y191441D01*
X679675Y191778D01*
X680012Y192217D01*
X680223Y192727D01*
X680295Y193276D01*
X680223Y193824D01*
X680012Y194335D01*
X679675Y194773D01*
X679236Y195110D01*
X679190Y195129D01*
Y195773D01*
X679807Y196185D01*
X680233Y195900D01*
X680736Y195800D01*
X681239Y195900D01*
X681666Y196185D01*
X682282Y195773D01*
Y195129D01*
X682236Y195110D01*
X681798Y194773D01*
X681461Y194335D01*
X681249Y193824D01*
X681177Y193276D01*
X681249Y192727D01*
X681461Y192217D01*
X681798Y191778D01*
X682236Y191441D01*
X682747Y191230D01*
X683295Y191157D01*
X683844Y191230D01*
X684354Y191441D01*
X684793Y191778D01*
X685130Y192217D01*
X685341Y192727D01*
X685413Y193276D01*
X685341Y193824D01*
X685130Y194335D01*
X684793Y194773D01*
X684354Y195110D01*
X684308Y195129D01*
Y195773D01*
X684925Y196185D01*
X685351Y195900D01*
X685854Y195800D01*
X686357Y195900D01*
X686784Y196185D01*
X687400Y195773D01*
Y195129D01*
X687354Y195110D01*
X686916Y194773D01*
X686579Y194335D01*
X686367Y193824D01*
X686295Y193276D01*
X686367Y192727D01*
X686579Y192217D01*
X686916Y191778D01*
X687354Y191441D01*
X687865Y191230D01*
X688413Y191157D01*
X688962Y191230D01*
X689472Y191441D01*
X689911Y191778D01*
X690248Y192217D01*
X690459Y192727D01*
X690531Y193276D01*
X690459Y193824D01*
X690248Y194335D01*
X689911Y194773D01*
X689472Y195110D01*
X689427Y195129D01*
Y195773D01*
X690043Y196185D01*
X690470Y195900D01*
X690972Y195800D01*
X691475Y195900D01*
X691902Y196185D01*
X692518Y195773D01*
Y195129D01*
X692472Y195110D01*
X692034Y194773D01*
X691697Y194335D01*
X691486Y193824D01*
X691413Y193276D01*
X691486Y192727D01*
X691697Y192217D01*
X692034Y191778D01*
X692472Y191441D01*
X692983Y191230D01*
X693532Y191157D01*
X694080Y191230D01*
X694591Y191441D01*
X695029Y191778D01*
X695366Y192217D01*
X695577Y192727D01*
X695650Y193276D01*
X695577Y193824D01*
X695366Y194335D01*
X695029Y194773D01*
X694882Y194886D01*
X694939Y195584D01*
X695162Y195703D01*
X695432Y195523D01*
X696091Y195392D01*
X696749Y195523D01*
X697308Y195896D01*
X697308Y195896D01*
Y195896D01*
X697720Y196185D01*
Y196185D01*
X697720D01*
X698147Y195900D01*
X698650Y195800D01*
X699153Y195900D01*
X699579Y196185D01*
X699864Y196611D01*
X699964Y197114D01*
Y199459D01*
X700026Y199772D01*
Y201268D01*
X701449Y202692D01*
X702096Y202424D01*
D02*
G37*
%LPC*%
G36*
X630661Y228443D02*
X629722D01*
Y227505D01*
X629733Y227509D01*
X630256Y227910D01*
X630656Y228432D01*
X630661Y228443D01*
D02*
G37*
G36*
X624801Y232865D02*
Y230677D01*
Y228489D01*
X624812Y228493D01*
X625334Y228894D01*
X625380Y228954D01*
X625509Y228971D01*
X626098Y228893D01*
X626289Y228432D01*
X626689Y227910D01*
X627212Y227509D01*
X627222Y227505D01*
Y229693D01*
Y231881D01*
X627212Y231877D01*
X626689Y231476D01*
X626644Y231416D01*
X626515Y231399D01*
X625926Y231477D01*
X625735Y231938D01*
X625334Y232460D01*
X624812Y232861D01*
X624801Y232865D01*
D02*
G37*
G36*
X636566Y228443D02*
X635628D01*
Y227505D01*
X635639Y227509D01*
X636161Y227910D01*
X636562Y228432D01*
X636566Y228443D01*
D02*
G37*
G36*
X633128D02*
X632190D01*
X632194Y228432D01*
X632595Y227910D01*
X633117Y227509D01*
X633128Y227505D01*
Y228443D01*
D02*
G37*
G36*
X698567Y207380D02*
X696848D01*
Y205661D01*
X698567D01*
Y207380D01*
D02*
G37*
G36*
X672984Y216041D02*
X672045D01*
Y215103D01*
X672056Y215108D01*
X672578Y215508D01*
X672979Y216031D01*
X672984Y216041D01*
D02*
G37*
G36*
X669545Y219480D02*
X669534Y219475D01*
X669012Y219074D01*
X668611Y218552D01*
X668607Y218541D01*
X669545D01*
Y219480D01*
D02*
G37*
G36*
X692380Y216330D02*
X692369Y216325D01*
X691847Y215925D01*
X691446Y215403D01*
X691442Y215392D01*
X692380D01*
Y216330D01*
D02*
G37*
G36*
X694880D02*
Y215392D01*
X695818D01*
X695814Y215403D01*
X695413Y215925D01*
X694891Y216325D01*
X694880Y216330D01*
D02*
G37*
G36*
X627124Y208358D02*
X627113Y208353D01*
X626591Y207952D01*
X626190Y207430D01*
X626186Y207419D01*
X627124D01*
Y208358D01*
D02*
G37*
G36*
X618850Y228443D02*
X617911D01*
Y227505D01*
X617922Y227509D01*
X618444Y227910D01*
X618845Y228432D01*
X618850Y228443D01*
D02*
G37*
G36*
X669545Y216041D02*
X668607D01*
X668611Y216031D01*
X669012Y215508D01*
X669534Y215108D01*
X669545Y215103D01*
Y216041D01*
D02*
G37*
G36*
X672045Y219480D02*
Y218541D01*
X672984D01*
X672979Y218552D01*
X672578Y219074D01*
X672056Y219475D01*
X672045Y219480D01*
D02*
G37*
G36*
X639034Y228443D02*
X638095D01*
X638100Y228432D01*
X638500Y227910D01*
X639023Y227509D01*
X639034Y227505D01*
Y228443D01*
D02*
G37*
G36*
X598679Y235333D02*
X597741D01*
X597745Y235322D01*
X598146Y234800D01*
X598668Y234399D01*
X598679Y234395D01*
Y235333D01*
D02*
G37*
G36*
X602117D02*
X601179D01*
Y234395D01*
X601190Y234399D01*
X601712Y234800D01*
X602113Y235322D01*
X602117Y235333D01*
D02*
G37*
G36*
X548482Y238876D02*
X546173D01*
Y235583D01*
X548482D01*
Y238876D01*
D02*
G37*
G36*
X601179Y232865D02*
Y231927D01*
X602117D01*
X602113Y231938D01*
X601712Y232460D01*
X601190Y232861D01*
X601179Y232865D01*
D02*
G37*
G36*
X622301D02*
X622290Y232861D01*
X621768Y232460D01*
X621367Y231938D01*
X621363Y231927D01*
X622301D01*
Y232865D01*
D02*
G37*
G36*
X645923D02*
X645912Y232861D01*
X645390Y232460D01*
X644989Y231938D01*
X644985Y231927D01*
X645923D01*
Y232865D01*
D02*
G37*
G36*
X548482Y244669D02*
X546173D01*
Y241376D01*
X548482D01*
Y244669D01*
D02*
G37*
G36*
X553291D02*
X550982D01*
Y241376D01*
X553291D01*
Y244669D01*
D02*
G37*
G36*
X667124Y252354D02*
Y250165D01*
Y247977D01*
X667135Y247982D01*
X667657Y248382D01*
X667832Y248611D01*
X668526Y248519D01*
X668611Y248314D01*
X669012Y247792D01*
X669534Y247391D01*
X669545Y247387D01*
Y249575D01*
Y251763D01*
X669534Y251759D01*
X669012Y251358D01*
X668837Y251129D01*
X668143Y251221D01*
X668058Y251426D01*
X667657Y251948D01*
X667135Y252349D01*
X667124Y252354D01*
D02*
G37*
G36*
X553291Y238876D02*
X550982D01*
Y235583D01*
X553291D01*
Y238876D01*
D02*
G37*
G36*
X598679Y238771D02*
X598668Y238766D01*
X598146Y238366D01*
X597745Y237843D01*
X597741Y237833D01*
X598679D01*
Y238771D01*
D02*
G37*
G36*
X601179D02*
Y237833D01*
X602117D01*
X602113Y237843D01*
X601712Y238366D01*
X601190Y238766D01*
X601179Y238771D01*
D02*
G37*
G36*
X598679Y232865D02*
X598668Y232861D01*
X598146Y232460D01*
X597745Y231938D01*
X597741Y231927D01*
X598679D01*
Y232865D01*
D02*
G37*
G36*
X645923Y229427D02*
X644985D01*
X644989Y229416D01*
X645390Y228894D01*
X645912Y228493D01*
X645923Y228489D01*
Y229427D01*
D02*
G37*
G36*
X583394Y238121D02*
X582479Y238031D01*
X581600Y237764D01*
X580789Y237331D01*
X580079Y236748D01*
X579496Y236037D01*
X579063Y235227D01*
X578796Y234348D01*
X578706Y233433D01*
X578796Y232519D01*
X579063Y231639D01*
X579496Y230829D01*
X580079Y230118D01*
X580789Y229535D01*
X581600Y229102D01*
X582479Y228835D01*
X583394Y228745D01*
X584308Y228835D01*
X585188Y229102D01*
X585998Y229535D01*
X586709Y230118D01*
X587292Y230829D01*
X587725Y231639D01*
X587992Y232519D01*
X588082Y233433D01*
X587992Y234348D01*
X587725Y235227D01*
X587292Y236037D01*
X586709Y236748D01*
X585998Y237331D01*
X585188Y237764D01*
X584308Y238031D01*
X583394Y238121D01*
D02*
G37*
G36*
X617911Y231881D02*
Y230943D01*
X618850D01*
X618845Y230954D01*
X618444Y231476D01*
X617922Y231877D01*
X617911Y231881D01*
D02*
G37*
G36*
X642472Y228443D02*
X641534D01*
Y227505D01*
X641544Y227509D01*
X642066Y227910D01*
X642467Y228432D01*
X642472Y228443D01*
D02*
G37*
G36*
X602117Y229427D02*
X601179D01*
Y228489D01*
X601190Y228493D01*
X601712Y228894D01*
X602113Y229416D01*
X602117Y229427D01*
D02*
G37*
G36*
X622301D02*
X621363D01*
X621367Y229416D01*
X621768Y228894D01*
X622290Y228493D01*
X622301Y228489D01*
Y229427D01*
D02*
G37*
G36*
X639034Y231881D02*
X639023Y231877D01*
X638500Y231476D01*
X638100Y230954D01*
X638095Y230943D01*
X639034D01*
Y231881D01*
D02*
G37*
G36*
X641534D02*
Y230943D01*
X642472D01*
X642467Y230954D01*
X642066Y231476D01*
X641544Y231877D01*
X641534Y231881D01*
D02*
G37*
G36*
X656750D02*
X656739Y231877D01*
X656217Y231476D01*
D01*
X655846Y231476D01*
X655324Y231877D01*
X655313Y231881D01*
Y229693D01*
Y227505D01*
X655324Y227509D01*
X655846Y227910D01*
X655846Y227910D01*
X656217D01*
X656739Y227509D01*
X656750Y227505D01*
Y229693D01*
Y231881D01*
D02*
G37*
G36*
X629722D02*
Y230943D01*
X630661D01*
X630656Y230954D01*
X630256Y231476D01*
X629733Y231877D01*
X629722Y231881D01*
D02*
G37*
G36*
X633128D02*
X633117Y231877D01*
X632595Y231476D01*
X632194Y230954D01*
X632190Y230943D01*
X633128D01*
Y231881D01*
D02*
G37*
G36*
X635628D02*
Y230943D01*
X636566D01*
X636562Y230954D01*
X636161Y231476D01*
X635639Y231877D01*
X635628Y231881D01*
D02*
G37*
G36*
X567813Y154781D02*
X565302D01*
X565610Y154038D01*
X566244Y153212D01*
X567070Y152579D01*
X567813Y152271D01*
Y154781D01*
D02*
G37*
G36*
X572824D02*
X570313D01*
Y152271D01*
X571056Y152579D01*
X571882Y153212D01*
X572516Y154038D01*
X572824Y154781D01*
D02*
G37*
G36*
X739230Y152150D02*
X737512D01*
Y151428D01*
X736884Y151119D01*
X736820Y151168D01*
X736809Y151172D01*
Y148984D01*
Y146796D01*
X736820Y146800D01*
X736884Y146850D01*
X737512Y146540D01*
Y145819D01*
X739230D01*
Y148984D01*
Y152150D01*
D02*
G37*
G36*
X766396D02*
X764677D01*
Y150234D01*
X766396D01*
Y152150D01*
D02*
G37*
G36*
X770614D02*
X768896D01*
Y150234D01*
X770614D01*
Y152150D01*
D02*
G37*
G36*
X577813Y159792D02*
X577070Y159484D01*
X576244Y158851D01*
X575610Y158025D01*
X575302Y157281D01*
X577813D01*
Y159792D01*
D02*
G37*
G36*
X707813D02*
X707070Y159484D01*
X706244Y158851D01*
X705610Y158025D01*
X705302Y157281D01*
X707813D01*
Y159792D01*
D02*
G37*
G36*
X570313D02*
Y157281D01*
X572824D01*
X572516Y158025D01*
X571882Y158851D01*
X571056Y159484D01*
X570313Y159792D01*
D02*
G37*
G36*
X743049Y165923D02*
X737912D01*
Y161179D01*
X739512D01*
Y158442D01*
X737912D01*
Y152912D01*
X743049D01*
Y158442D01*
X741449D01*
Y161179D01*
X743049D01*
Y165923D01*
D02*
G37*
G36*
X567813Y159792D02*
X567070Y159484D01*
X566244Y158851D01*
X565610Y158025D01*
X565302Y157281D01*
X567813D01*
Y159792D01*
D02*
G37*
G36*
X549063Y149615D02*
X548136Y149493D01*
X547271Y149135D01*
X546529Y148565D01*
X545960Y147823D01*
X545602Y146959D01*
X545480Y146031D01*
X545602Y145104D01*
X545960Y144240D01*
X546529Y143498D01*
X547271Y142928D01*
X548136Y142570D01*
X549063Y142448D01*
X549990Y142570D01*
X550855Y142928D01*
X551597Y143498D01*
X552166Y144240D01*
X552524Y145104D01*
X552646Y146031D01*
X552524Y146959D01*
X552166Y147823D01*
X551597Y148565D01*
X550855Y149135D01*
X549990Y149493D01*
X549063Y149615D01*
D02*
G37*
G36*
X532616Y149584D02*
X525510D01*
Y142479D01*
X532616D01*
Y149584D01*
D02*
G37*
G36*
X539063Y149615D02*
X538135Y149493D01*
X537271Y149135D01*
X536529Y148565D01*
X535960Y147823D01*
X535602Y146959D01*
X535480Y146031D01*
X535602Y145104D01*
X535960Y144240D01*
X536529Y143498D01*
X537271Y142928D01*
X538135Y142570D01*
X539063Y142448D01*
X539990Y142570D01*
X540855Y142928D01*
X541597Y143498D01*
X542166Y144240D01*
X542524Y145104D01*
X542646Y146031D01*
X542524Y146959D01*
X542166Y147823D01*
X541597Y148565D01*
X540855Y149135D01*
X539990Y149493D01*
X539063Y149615D01*
D02*
G37*
G36*
X766396Y141632D02*
X765457D01*
X765462Y141621D01*
X765863Y141099D01*
X766385Y140698D01*
X766396Y140694D01*
Y141632D01*
D02*
G37*
G36*
X769834D02*
X768896D01*
Y140694D01*
X768906Y140698D01*
X769429Y141099D01*
X769829Y141621D01*
X769834Y141632D01*
D02*
G37*
G36*
X748285Y152150D02*
X746567D01*
Y150234D01*
X748285D01*
Y152150D01*
D02*
G37*
G36*
X757340D02*
X755622D01*
Y150234D01*
X757340D01*
Y152150D01*
D02*
G37*
G36*
X734309Y151172D02*
X734298Y151168D01*
X733776Y150767D01*
X733375Y150245D01*
X733371Y150234D01*
X734309D01*
Y151172D01*
D02*
G37*
G36*
X770614Y147734D02*
X764677D01*
Y145819D01*
X766409D01*
X766546Y145132D01*
X766385Y145066D01*
X765863Y144665D01*
X765462Y144143D01*
X765457Y144132D01*
X769834D01*
X769829Y144143D01*
X769429Y144665D01*
X768906Y145066D01*
X768745Y145132D01*
X768882Y145819D01*
X770614D01*
Y147734D01*
D02*
G37*
G36*
X734309D02*
X733371D01*
X733375Y147723D01*
X733776Y147201D01*
X734298Y146800D01*
X734309Y146796D01*
Y147734D01*
D02*
G37*
G36*
X699467Y186802D02*
X699456Y186798D01*
X698934Y186397D01*
X698533Y185875D01*
X698528Y185864D01*
X699467D01*
Y186802D01*
D02*
G37*
G36*
X615608Y190057D02*
X613890D01*
Y188339D01*
X615608D01*
Y190057D01*
D02*
G37*
G36*
X669683Y185228D02*
Y184289D01*
X670621D01*
X670617Y184300D01*
X670216Y184822D01*
X669694Y185223D01*
X669683Y185228D01*
D02*
G37*
G36*
X708803Y184433D02*
X707085D01*
Y182715D01*
X708803D01*
Y184433D01*
D02*
G37*
G36*
X662459Y186008D02*
X660740D01*
Y184289D01*
X662459D01*
Y186008D01*
D02*
G37*
G36*
X540549Y196251D02*
Y195313D01*
X541487D01*
X541483Y195324D01*
X541082Y195846D01*
X540560Y196247D01*
X540549Y196251D01*
D02*
G37*
G36*
X580667Y201630D02*
X580326Y201120D01*
X580195Y200461D01*
Y199727D01*
X579532Y199502D01*
X579468Y199586D01*
X578946Y199987D01*
X578935Y199991D01*
Y197803D01*
Y195615D01*
X578946Y195619D01*
X579468Y196020D01*
X579532Y196104D01*
X580195Y195879D01*
Y195146D01*
X580326Y194487D01*
X580667Y193976D01*
Y197803D01*
Y201630D01*
D02*
G37*
G36*
X538049Y196251D02*
X538038Y196247D01*
X537516Y195846D01*
X537115Y195324D01*
X537111Y195313D01*
X538049D01*
Y196251D01*
D02*
G37*
G36*
X671261Y191878D02*
X670323D01*
Y190940D01*
X670334Y190944D01*
X670856Y191345D01*
X671257Y191867D01*
X671261Y191878D01*
D02*
G37*
G36*
X615608Y194276D02*
X613890D01*
Y192557D01*
X615608D01*
Y194276D01*
D02*
G37*
G36*
X627124Y176081D02*
X626652D01*
Y174673D01*
X626783Y174014D01*
X627124Y173504D01*
Y176081D01*
D02*
G37*
G36*
X669250D02*
X668778D01*
Y174673D01*
X668909Y174014D01*
X669250Y173504D01*
Y176081D01*
D02*
G37*
G36*
X720313Y159792D02*
Y157281D01*
X722824D01*
X722516Y158025D01*
X721882Y158851D01*
X721056Y159484D01*
X720313Y159792D01*
D02*
G37*
G36*
X710313D02*
Y157281D01*
X712824D01*
X712516Y158025D01*
X711882Y158851D01*
X711056Y159484D01*
X710313Y159792D01*
D02*
G37*
G36*
X717813D02*
X717070Y159484D01*
X716244Y158851D01*
X715610Y158025D01*
X715302Y157281D01*
X717813D01*
Y159792D01*
D02*
G37*
G36*
X662459Y181789D02*
X660740D01*
Y180071D01*
X662459D01*
Y181789D01*
D02*
G37*
G36*
X699467Y183364D02*
X698528D01*
X698533Y183353D01*
X698934Y182831D01*
X699456Y182430D01*
X699467Y182426D01*
Y183364D01*
D02*
G37*
G36*
X701966Y186802D02*
Y184614D01*
Y182426D01*
X701977Y182430D01*
X702238Y182631D01*
X702866Y182321D01*
Y178707D01*
X699964D01*
Y179988D01*
X699864Y180491D01*
X699579Y180918D01*
X699153Y181202D01*
X698650Y181302D01*
X698147Y181202D01*
X697720Y180918D01*
X697020Y180918D01*
X696594Y181202D01*
X696091Y181302D01*
X695588Y181202D01*
X695161Y180918D01*
X694781Y181183D01*
Y180015D01*
X694776Y179988D01*
Y177644D01*
X694714Y177331D01*
Y177331D01*
Y173098D01*
Y173098D01*
X694714D01*
X694714D01*
D01*
X694819Y172572D01*
X695117Y172125D01*
X696987Y170255D01*
X697434Y169957D01*
X697961Y169852D01*
X700307D01*
X700400Y169731D01*
X700839Y169394D01*
X701349Y169182D01*
X701898Y169110D01*
X702446Y169182D01*
X702957Y169394D01*
X703395Y169731D01*
X703732Y170169D01*
X703944Y170680D01*
X704016Y171228D01*
X703996Y171380D01*
X705213Y172597D01*
X708403D01*
Y177734D01*
X705679D01*
X705291Y178316D01*
X705365Y178496D01*
X708803D01*
Y180215D01*
X705835D01*
Y181465D01*
X704585D01*
Y184433D01*
X703397D01*
X703238Y184614D01*
X703152Y185267D01*
X702900Y185875D01*
X702500Y186397D01*
X701977Y186798D01*
X701966Y186802D01*
D02*
G37*
G36*
X615608Y179427D02*
X613890D01*
Y177709D01*
X615608D01*
Y179427D01*
D02*
G37*
G36*
X619827D02*
X618108D01*
Y177709D01*
X619827D01*
Y179427D01*
D02*
G37*
G36*
X672984Y248325D02*
X672045D01*
Y247387D01*
X672056Y247391D01*
X672578Y247792D01*
X672979Y248314D01*
X672984Y248325D01*
D02*
G37*
G36*
X561671Y301474D02*
X557197D01*
Y299756D01*
X561671D01*
Y301474D01*
D02*
G37*
G36*
X554079Y301474D02*
X552360D01*
Y299756D01*
X554079D01*
Y301474D01*
D02*
G37*
G36*
X677193Y297068D02*
X675982D01*
Y296396D01*
X678626D01*
X678552Y296505D01*
X677929Y296922D01*
X677193Y297068D01*
D02*
G37*
G36*
X669827Y297537D02*
X668108D01*
Y295819D01*
X669745D01*
Y295819D01*
X669827D01*
D01*
X669827D01*
D01*
D01*
D01*
X669827Y295819D01*
Y295819D01*
X669972Y295790D01*
X670361Y295208D01*
X670349Y295146D01*
X670476Y294504D01*
X670086Y294028D01*
X669427Y294264D01*
Y295057D01*
X664290D01*
Y293865D01*
X662937D01*
X662844Y293986D01*
X662405Y294323D01*
X661895Y294534D01*
X661346Y294606D01*
X660798Y294534D01*
X660287Y294323D01*
X659849Y293986D01*
X659512Y293547D01*
X659301Y293036D01*
X659228Y292488D01*
X659301Y291940D01*
X659512Y291429D01*
X659849Y290990D01*
X660287Y290654D01*
X660798Y290442D01*
X661346Y290370D01*
X661895Y290442D01*
X662405Y290654D01*
X662844Y290990D01*
X662937Y291112D01*
X664290D01*
Y289920D01*
X667480D01*
X667996Y289404D01*
X667728Y288757D01*
X665077D01*
Y283621D01*
X669820D01*
Y286347D01*
X671276D01*
X671692Y286069D01*
X672272Y285954D01*
X673370D01*
Y283336D01*
X673279Y283299D01*
X672841Y282962D01*
X672504Y282524D01*
X672293Y282013D01*
X672221Y281465D01*
X672293Y280916D01*
X672504Y280405D01*
X672841Y279967D01*
X673279Y279630D01*
X673790Y279419D01*
X674339Y279346D01*
X674887Y279419D01*
X675398Y279630D01*
X675836Y279967D01*
X676173Y280405D01*
X676384Y280916D01*
X676457Y281465D01*
X676384Y282013D01*
X676173Y282524D01*
X675836Y282962D01*
X675398Y283299D01*
X675307Y283336D01*
Y285954D01*
X677193D01*
X677773Y286069D01*
X678264Y286397D01*
X678592Y286889D01*
X678708Y287469D01*
X678592Y288048D01*
X679495Y288651D01*
X680560D01*
X682716Y286495D01*
X683162Y286197D01*
X683689Y286092D01*
X683689Y286092D01*
X688193D01*
X688227Y286069D01*
X688807Y285954D01*
X693728D01*
X694308Y286069D01*
X694800Y286397D01*
X695128Y286889D01*
X695243Y287469D01*
X695128Y288048D01*
X694829Y288495D01*
X695088Y288668D01*
X695505Y289292D01*
X695651Y290028D01*
X695546Y290554D01*
X695953Y290771D01*
X696554Y290411D01*
Y284640D01*
X682284Y270370D01*
X682064Y270041D01*
X681987Y269654D01*
Y266898D01*
X682064Y266510D01*
X682284Y266181D01*
X684547Y263917D01*
X684876Y263698D01*
X685264Y263621D01*
X686042D01*
X686200Y263325D01*
X687304D01*
X687440Y263234D01*
X688020Y263119D01*
X692941D01*
X693521Y263234D01*
X693657Y263325D01*
X694760D01*
X694919Y263621D01*
X696261D01*
X697341Y262541D01*
Y256294D01*
X692029Y250982D01*
X679735D01*
X679716Y251028D01*
X679380Y251466D01*
X678941Y251803D01*
X678430Y252014D01*
X677882Y252087D01*
X677334Y252014D01*
X676823Y251803D01*
X676384Y251466D01*
X676048Y251028D01*
X675836Y250517D01*
X675764Y249969D01*
X675836Y249420D01*
X676048Y248909D01*
X676384Y248471D01*
X676823Y248134D01*
X677334Y247923D01*
X677882Y247850D01*
X678430Y247923D01*
X678941Y248134D01*
X679380Y248471D01*
X679716Y248909D01*
X679735Y248955D01*
X692238D01*
X692506Y248309D01*
X675933Y231736D01*
X675246Y231781D01*
X674807Y232118D01*
X674296Y232329D01*
X673748Y232402D01*
X673200Y232329D01*
X672689Y232118D01*
X672250Y231781D01*
X671914Y231343D01*
X671702Y230832D01*
X671630Y230283D01*
X671702Y229735D01*
X671914Y229224D01*
X672250Y228786D01*
X672689Y228449D01*
X673200Y228238D01*
X673748Y228165D01*
X674296Y228238D01*
X674807Y228449D01*
X675246Y228786D01*
X675582Y229224D01*
X675601Y229270D01*
X675913D01*
X676301Y229347D01*
X676630Y229567D01*
X682290Y235227D01*
X682891Y234868D01*
X682733Y234348D01*
X682643Y233433D01*
X682733Y232519D01*
X683000Y231639D01*
X683433Y230829D01*
X684016Y230118D01*
X684726Y229535D01*
X685537Y229102D01*
X686416Y228835D01*
X687331Y228745D01*
X688245Y228835D01*
X689125Y229102D01*
X689935Y229535D01*
X690646Y230118D01*
X691229Y230829D01*
X691662Y231639D01*
X691928Y232519D01*
X692019Y233433D01*
X691928Y234348D01*
X691662Y235227D01*
X691229Y236037D01*
X690646Y236748D01*
X689935Y237331D01*
X689125Y237764D01*
X688245Y238031D01*
X687331Y238121D01*
X686416Y238031D01*
X685896Y237873D01*
X685536Y238474D01*
X701039Y253976D01*
X701259Y254305D01*
X701336Y254693D01*
Y265323D01*
X701259Y265711D01*
X701039Y266039D01*
X699169Y267909D01*
X698841Y268129D01*
X698453Y268206D01*
X694051D01*
X694012Y268264D01*
X693521Y268593D01*
X692941Y268708D01*
X691494D01*
Y273958D01*
X700252Y282717D01*
X700471Y283045D01*
X700549Y283433D01*
Y293276D01*
X700471Y293663D01*
X700252Y293992D01*
X698382Y295862D01*
X698053Y296082D01*
X697665Y296159D01*
X694838D01*
X694800Y296217D01*
X694308Y296545D01*
X693728Y296661D01*
X688807D01*
X688227Y296545D01*
X687736Y296217D01*
X687407Y295725D01*
X687292Y295146D01*
X687407Y294566D01*
X687736Y294075D01*
Y293658D01*
X687407Y293166D01*
X687292Y292587D01*
X687407Y292007D01*
X687706Y291560D01*
X687448Y291387D01*
X687031Y290763D01*
X686884Y290028D01*
X687012Y289386D01*
X686568Y288845D01*
X684259D01*
X682103Y291001D01*
X681657Y291299D01*
X681130Y291404D01*
X679495D01*
X678592Y292007D01*
X678708Y292587D01*
X678592Y293166D01*
X678294Y293613D01*
X678552Y293786D01*
X678626Y293896D01*
X677909D01*
X677773Y293986D01*
X677193Y294102D01*
X674732D01*
Y295146D01*
X673482D01*
Y297068D01*
X672272D01*
X671536Y296922D01*
X670912Y296505D01*
X670497Y295884D01*
X669901Y296064D01*
D01*
D01*
D01*
X669901Y296064D01*
X669827Y296087D01*
Y297537D01*
D02*
G37*
G36*
X665608D02*
X663890D01*
Y295819D01*
X665608D01*
Y297537D01*
D02*
G37*
G36*
X669046Y303443D02*
X664670D01*
X664675Y303432D01*
X665075Y302910D01*
X665597Y302509D01*
X665759Y302443D01*
X665622Y301756D01*
X663890D01*
Y300037D01*
X669827D01*
Y301756D01*
X668095D01*
X667958Y302443D01*
X668119Y302509D01*
X668641Y302910D01*
X669042Y303432D01*
X669046Y303443D01*
D02*
G37*
G36*
X568646Y310529D02*
X564171D01*
Y308811D01*
X568646D01*
Y310529D01*
D02*
G37*
G36*
X542380Y312695D02*
X540661D01*
Y311173D01*
X542380D01*
Y312695D01*
D02*
G37*
G36*
X561671Y310529D02*
X557197D01*
Y308811D01*
X561671D01*
Y310529D01*
D02*
G37*
G36*
X665608Y306881D02*
X665597Y306877D01*
X665075Y306476D01*
X664675Y305954D01*
X664670Y305943D01*
X665608D01*
Y306881D01*
D02*
G37*
G36*
X668108D02*
Y305943D01*
X669046D01*
X669042Y305954D01*
X668641Y306476D01*
X668119Y306877D01*
X668108Y306881D01*
D02*
G37*
G36*
X583325Y281396D02*
X581606D01*
Y279677D01*
X583325D01*
Y281396D01*
D02*
G37*
G36*
X587543D02*
X585825D01*
Y279677D01*
X587543D01*
Y281396D01*
D02*
G37*
G36*
X579571Y278246D02*
X578541D01*
Y276331D01*
X579571D01*
Y278246D01*
D02*
G37*
G36*
X549722Y275774D02*
X549417Y275540D01*
X549067Y275084D01*
X548847Y274554D01*
X548772Y273984D01*
Y272085D01*
X549722D01*
Y275774D01*
D02*
G37*
G36*
X552222D02*
Y272085D01*
X553172D01*
Y273984D01*
X553097Y274554D01*
X552878Y275084D01*
X552528Y275540D01*
X552222Y275774D01*
D02*
G37*
G36*
X590874Y290669D02*
X590326Y290597D01*
X589815Y290386D01*
X589376Y290049D01*
X589040Y289610D01*
X588828Y289099D01*
X588756Y288551D01*
X588828Y288003D01*
X589040Y287492D01*
X589259Y287207D01*
Y285214D01*
X588306D01*
Y280077D01*
X593442D01*
Y285214D01*
X592489D01*
Y287207D01*
X592708Y287492D01*
X592920Y288003D01*
X592992Y288551D01*
X592920Y289099D01*
X592708Y289610D01*
X592372Y290049D01*
X591933Y290386D01*
X591422Y290597D01*
X590874Y290669D01*
D02*
G37*
G36*
X544722Y294672D02*
X544417Y294438D01*
X544067Y293982D01*
X543848Y293451D01*
X543773Y292882D01*
Y290982D01*
X544722D01*
Y294672D01*
D02*
G37*
G36*
X552222D02*
Y290982D01*
X553172D01*
Y292882D01*
X553097Y293451D01*
X552878Y293982D01*
X552528Y294438D01*
X552222Y294672D01*
D02*
G37*
G36*
X587543Y285614D02*
X585825D01*
Y283896D01*
X587543D01*
Y285614D01*
D02*
G37*
G36*
X579571Y282661D02*
X578541D01*
Y280746D01*
X579571D01*
Y282661D01*
D02*
G37*
G36*
X583325Y285614D02*
X581606D01*
Y283896D01*
X583325D01*
Y285614D01*
D02*
G37*
G36*
X611671Y331002D02*
X610750D01*
X611119Y330450D01*
X611671Y330081D01*
Y331002D01*
D02*
G37*
G36*
X615093D02*
X614171D01*
Y330081D01*
X614724Y330450D01*
X615093Y331002D01*
D02*
G37*
G36*
X650057Y324590D02*
X648535D01*
Y322872D01*
X650057D01*
Y324590D01*
D02*
G37*
G36*
X646999Y323522D02*
X642623D01*
X642627Y323511D01*
X643028Y322989D01*
X643550Y322588D01*
X644158Y322336D01*
X644811Y322250D01*
X645464Y322336D01*
X646072Y322588D01*
X646594Y322989D01*
X646995Y323511D01*
X646999Y323522D01*
D02*
G37*
G36*
X551898Y329275D02*
X551078Y329112D01*
X550384Y328648D01*
X549920Y327953D01*
X549756Y327134D01*
X549920Y326314D01*
X550266Y325796D01*
Y323403D01*
X549329D01*
Y322466D01*
X546198D01*
Y323009D01*
X545261D01*
Y325796D01*
X545608Y326314D01*
X545771Y327134D01*
X545608Y327953D01*
X545144Y328648D01*
X544449Y329112D01*
X543630Y329275D01*
X542810Y329112D01*
X542116Y328648D01*
X541652Y327953D01*
X541489Y327134D01*
X541652Y326314D01*
X541999Y325796D01*
Y323009D01*
X541061D01*
Y318266D01*
X546198D01*
Y319203D01*
X549329D01*
Y318266D01*
X554466D01*
Y319203D01*
X557597D01*
Y318266D01*
X568246D01*
Y323403D01*
X557597D01*
Y322466D01*
X554466D01*
Y323403D01*
X553529D01*
Y325796D01*
X553876Y326314D01*
X554039Y327134D01*
X553876Y327953D01*
X553412Y328648D01*
X552717Y329112D01*
X551898Y329275D01*
D02*
G37*
G36*
X619152Y331002D02*
X618230D01*
X618599Y330450D01*
X619152Y330081D01*
Y331002D01*
D02*
G37*
G36*
Y334423D02*
X618599Y334054D01*
X618230Y333502D01*
X619152D01*
Y334423D01*
D02*
G37*
G36*
X621652D02*
Y333502D01*
X622573D01*
X622204Y334054D01*
X621652Y334423D01*
D02*
G37*
G36*
X614171D02*
Y333502D01*
X615093D01*
X614724Y334054D01*
X614171Y334423D01*
D02*
G37*
G36*
X622573Y331002D02*
X621652D01*
Y330081D01*
X622204Y330450D01*
X622573Y331002D01*
D02*
G37*
G36*
X611671Y334423D02*
X611119Y334054D01*
X610750Y333502D01*
X611671D01*
Y334423D01*
D02*
G37*
G36*
X561671Y314748D02*
X557197D01*
Y313030D01*
X561671D01*
Y314748D01*
D02*
G37*
G36*
X568646D02*
X564171D01*
Y313030D01*
X568646D01*
Y314748D01*
D02*
G37*
G36*
X554866Y313285D02*
X553148D01*
Y311567D01*
X554866D01*
Y313285D01*
D02*
G37*
G36*
X546598Y312695D02*
X544880D01*
Y311173D01*
X546598D01*
Y312695D01*
D02*
G37*
G36*
X550648Y313285D02*
X548929D01*
Y311567D01*
X550648D01*
Y313285D01*
D02*
G37*
G36*
X584506Y319276D02*
X580031D01*
Y313030D01*
X584506D01*
Y319276D01*
D02*
G37*
G36*
X550648Y317504D02*
X548929D01*
Y315785D01*
X550648D01*
Y317504D01*
D02*
G37*
G36*
X554866D02*
X553148D01*
Y315785D01*
X554866D01*
Y317504D01*
D02*
G37*
G36*
X546598Y316717D02*
X544880D01*
Y315195D01*
X546598D01*
Y316717D01*
D02*
G37*
G36*
X591480Y319276D02*
X587006D01*
Y313030D01*
X591480D01*
Y319276D01*
D02*
G37*
G36*
X542380Y316717D02*
X540661D01*
Y315195D01*
X542380D01*
Y316717D01*
D02*
G37*
G36*
X624801Y251763D02*
Y250825D01*
X625739D01*
X625735Y250836D01*
X625334Y251358D01*
X624812Y251759D01*
X624801Y251763D01*
D02*
G37*
G36*
X672045D02*
Y250825D01*
X672984D01*
X672979Y250836D01*
X672578Y251358D01*
X672056Y251759D01*
X672045Y251763D01*
D02*
G37*
G36*
X622301D02*
X622290Y251759D01*
X621768Y251358D01*
X621367Y250836D01*
X621363Y250825D01*
X622301D01*
Y251763D01*
D02*
G37*
G36*
X614913Y248915D02*
X613974D01*
Y247977D01*
X613985Y247982D01*
X614507Y248382D01*
X614908Y248905D01*
X614913Y248915D01*
D02*
G37*
G36*
X545972Y275800D02*
X545278Y275662D01*
X544688Y275268D01*
X544295Y274679D01*
X544156Y273984D01*
Y267685D01*
X544295Y266990D01*
X544688Y266401D01*
X544285Y265797D01*
X544263Y265794D01*
X543752Y265582D01*
X543313Y265246D01*
X542977Y264807D01*
X542765Y264296D01*
X542693Y263748D01*
X542765Y263200D01*
X542977Y262689D01*
X543196Y262403D01*
Y260411D01*
X542242D01*
Y255274D01*
X543196D01*
Y253675D01*
X542977Y253390D01*
X542765Y252879D01*
X542693Y252331D01*
X542765Y251782D01*
X542977Y251272D01*
X543313Y250833D01*
X543752Y250496D01*
X544263Y250285D01*
X544811Y250213D01*
X545359Y250285D01*
X545870Y250496D01*
X546309Y250833D01*
X546645Y251272D01*
X546857Y251782D01*
X546929Y252331D01*
X546857Y252879D01*
X546645Y253390D01*
X546426Y253675D01*
Y255274D01*
X547379D01*
Y260411D01*
X546426D01*
Y262403D01*
X546645Y262689D01*
X546857Y263200D01*
X546929Y263748D01*
X546857Y264296D01*
X546645Y264807D01*
X546309Y265246D01*
X546171Y265351D01*
X546307Y265936D01*
X546667Y266007D01*
X547257Y266401D01*
X547650Y266990D01*
X547788Y267685D01*
Y273984D01*
X547650Y274679D01*
X547257Y275268D01*
X546667Y275662D01*
X545972Y275800D01*
D02*
G37*
G36*
X611474Y252354D02*
X611464Y252349D01*
X610941Y251948D01*
X610541Y251426D01*
X610536Y251415D01*
X611474D01*
Y252354D01*
D02*
G37*
G36*
X635097D02*
X635086Y252349D01*
X634563Y251948D01*
X634163Y251426D01*
X634158Y251415D01*
X635097D01*
Y252354D01*
D02*
G37*
G36*
X637597D02*
Y251415D01*
X638535D01*
X638530Y251426D01*
X638130Y251948D01*
X637607Y252349D01*
X637597Y252354D01*
D02*
G37*
G36*
X631691D02*
Y251415D01*
X632629D01*
X632625Y251426D01*
X632224Y251948D01*
X631702Y252349D01*
X631691Y252354D01*
D02*
G37*
G36*
X613974D02*
Y251415D01*
X614913D01*
X614908Y251426D01*
X614507Y251948D01*
X613985Y252349D01*
X613974Y252354D01*
D02*
G37*
G36*
X629191D02*
X629180Y252349D01*
X628658Y251948D01*
X628257Y251426D01*
X628253Y251415D01*
X629191D01*
Y252354D01*
D02*
G37*
G36*
X609007Y248915D02*
X608069D01*
Y247977D01*
X608080Y247982D01*
X608602Y248382D01*
X609003Y248905D01*
X609007Y248915D01*
D02*
G37*
G36*
X629191D02*
X628253D01*
X628257Y248905D01*
X628658Y248382D01*
X629180Y247982D01*
X629191Y247977D01*
Y248915D01*
D02*
G37*
G36*
X643502Y252354D02*
Y250165D01*
Y247977D01*
X643513Y247982D01*
X644035Y248382D01*
X644210Y248611D01*
X644904Y248519D01*
X644989Y248314D01*
X645390Y247792D01*
X645912Y247391D01*
X645923Y247387D01*
Y249575D01*
Y251763D01*
X645912Y251759D01*
X645390Y251358D01*
X645215Y251129D01*
X644521Y251221D01*
X644436Y251426D01*
X644035Y251948D01*
X643513Y252349D01*
X643502Y252354D01*
D02*
G37*
G36*
X622301Y248325D02*
X621363D01*
X621367Y248314D01*
X621768Y247792D01*
X622290Y247391D01*
X622301Y247387D01*
Y248325D01*
D02*
G37*
G36*
X625739D02*
X624801D01*
Y247387D01*
X624812Y247391D01*
X625334Y247792D01*
X625735Y248314D01*
X625739Y248325D01*
D02*
G37*
G36*
X632629Y248915D02*
X631691D01*
Y247977D01*
X631702Y247982D01*
X632224Y248382D01*
X632625Y248905D01*
X632629Y248915D01*
D02*
G37*
G36*
X664624D02*
X663686D01*
X663690Y248905D01*
X664091Y248382D01*
X664613Y247982D01*
X664624Y247977D01*
Y248915D01*
D02*
G37*
G36*
X611474D02*
X610536D01*
X610541Y248905D01*
X610941Y248382D01*
X611464Y247982D01*
X611474Y247977D01*
Y248915D01*
D02*
G37*
G36*
X641002D02*
X640064D01*
X640068Y248905D01*
X640469Y248382D01*
X640991Y247982D01*
X641002Y247977D01*
Y248915D01*
D02*
G37*
G36*
X635097D02*
X634158D01*
X634163Y248905D01*
X634563Y248382D01*
X635086Y247982D01*
X635097Y247977D01*
Y248915D01*
D02*
G37*
G36*
X638535D02*
X637597D01*
Y247977D01*
X637607Y247982D01*
X638130Y248382D01*
X638530Y248905D01*
X638535Y248915D01*
D02*
G37*
G36*
X613246Y265929D02*
X611528D01*
Y264211D01*
X613246D01*
Y265929D01*
D02*
G37*
G36*
X549722Y269585D02*
X548772D01*
Y267685D01*
X548847Y267116D01*
X549067Y266585D01*
X549417Y266129D01*
X549722Y265895D01*
Y269585D01*
D02*
G37*
G36*
X694374Y260825D02*
X686587D01*
X686607Y260795D01*
X686587Y260766D01*
X694374D01*
X694354Y260795D01*
X694374Y260825D01*
D02*
G37*
G36*
X582039Y260136D02*
X581100D01*
Y259198D01*
X581111Y259202D01*
X581633Y259603D01*
X582034Y260125D01*
X582039Y260136D01*
D02*
G37*
G36*
X613246Y261711D02*
X611528D01*
Y259992D01*
X613246D01*
Y261711D01*
D02*
G37*
G36*
X553172Y269585D02*
X552222D01*
Y265895D01*
X552528Y266129D01*
X552878Y266585D01*
X553097Y267116D01*
X553172Y267685D01*
Y269585D01*
D02*
G37*
G36*
X560972Y275800D02*
X560278Y275662D01*
X559688Y275268D01*
X559295Y274679D01*
X559157Y273984D01*
Y267685D01*
X559295Y266990D01*
X559357Y266897D01*
Y263931D01*
X559138Y263646D01*
X558926Y263135D01*
X558854Y262587D01*
X558926Y262038D01*
X559138Y261528D01*
X559338Y261268D01*
Y257449D01*
X559460Y256831D01*
X559811Y256307D01*
X561163Y254954D01*
X561140Y254899D01*
X561140D01*
X561140Y254899D01*
Y249762D01*
X565883D01*
Y254899D01*
X565125D01*
X565004Y255508D01*
X564654Y256032D01*
X562568Y258118D01*
Y261216D01*
X562807Y261528D01*
X563018Y262038D01*
X563091Y262587D01*
X563018Y263135D01*
X562807Y263646D01*
X562588Y263931D01*
Y266897D01*
X562650Y266990D01*
X562788Y267685D01*
Y268820D01*
X563327Y269085D01*
X563437Y269000D01*
X563948Y268789D01*
X564496Y268717D01*
X565044Y268789D01*
X565555Y269000D01*
X565994Y269337D01*
X566330Y269776D01*
X566542Y270286D01*
X566614Y270835D01*
X566542Y271383D01*
X566330Y271894D01*
X565994Y272332D01*
X565555Y272669D01*
X565044Y272881D01*
X564496Y272953D01*
X563948Y272881D01*
X563437Y272669D01*
X563327Y272584D01*
X562788Y272850D01*
Y273984D01*
X562650Y274679D01*
X562256Y275268D01*
X561667Y275662D01*
X560972Y275800D01*
D02*
G37*
G36*
X656159Y272228D02*
X654441D01*
Y270510D01*
X656159D01*
Y272228D01*
D02*
G37*
G36*
X676405Y269116D02*
X675195D01*
Y268443D01*
X677838D01*
X677765Y268552D01*
X677141Y268969D01*
X676405Y269116D01*
D02*
G37*
G36*
X656159Y268010D02*
X654441D01*
Y266291D01*
X656159D01*
Y268010D01*
D02*
G37*
G36*
X660378Y272228D02*
X658660D01*
Y269260D01*
Y266291D01*
X660378D01*
Y266488D01*
X660490Y266563D01*
Y269260D01*
Y271957D01*
X660378Y272032D01*
Y272228D01*
D02*
G37*
G36*
X549860Y256592D02*
X548142D01*
Y254874D01*
X549860D01*
Y256592D01*
D02*
G37*
G36*
X555972Y275800D02*
X555277Y275662D01*
X554688Y275268D01*
X554295Y274679D01*
X554156Y273984D01*
Y267685D01*
X554295Y266990D01*
X554688Y266401D01*
X554953Y266224D01*
Y254899D01*
X554447D01*
D01*
X554447D01*
X554447Y254899D01*
D01*
D01*
X554079Y255268D01*
Y256592D01*
X552360D01*
Y254874D01*
X554079D01*
X554079Y254874D01*
D01*
D01*
X554079Y254874D01*
D01*
X554447Y254505D01*
Y249762D01*
X555799D01*
Y245441D01*
X555877Y245051D01*
X556098Y244720D01*
X557991Y242827D01*
Y235983D01*
X564309D01*
Y244269D01*
X559433D01*
X557838Y245863D01*
Y249762D01*
X559191D01*
Y254899D01*
X556992D01*
Y266224D01*
X557257Y266401D01*
X557650Y266990D01*
X557788Y267685D01*
Y273984D01*
X557650Y274679D01*
X557257Y275268D01*
X556667Y275662D01*
X555972Y275800D01*
D02*
G37*
G36*
X578600Y257661D02*
X576882D01*
Y251724D01*
X578600D01*
Y254693D01*
Y257661D01*
D02*
G37*
G36*
X641002Y252354D02*
X640991Y252349D01*
X640469Y251948D01*
X640068Y251426D01*
X640064Y251415D01*
X641002D01*
Y252354D01*
D02*
G37*
G36*
X664624D02*
X664613Y252349D01*
X664091Y251948D01*
X663690Y251426D01*
X663686Y251415D01*
X664624D01*
Y252354D01*
D02*
G37*
G36*
X582819Y257661D02*
X581100D01*
Y255943D01*
X582819D01*
Y257661D01*
D02*
G37*
G36*
X554079Y260811D02*
X552360D01*
Y259092D01*
X554079D01*
Y260811D01*
D02*
G37*
G36*
X578600Y260136D02*
X577662D01*
X577667Y260125D01*
X578067Y259603D01*
X578590Y259202D01*
X578600Y259198D01*
Y260136D01*
D02*
G37*
G36*
X549860Y260811D02*
X548142D01*
Y259092D01*
X549860D01*
Y260811D01*
D02*
G37*
G36*
X689230Y258266D02*
X686587D01*
X686660Y258156D01*
X687284Y257739D01*
X688020Y257593D01*
X689230D01*
Y258266D01*
D02*
G37*
G36*
X694374D02*
X691730D01*
Y257593D01*
X692941D01*
X693677Y257739D01*
X694301Y258156D01*
X694374Y258266D01*
D02*
G37*
%LPD*%
D10*
X551110Y302724D02*
D03*
X544811D02*
D03*
X584575Y282646D02*
D03*
X590874D02*
D03*
X638512Y318472D02*
D03*
X644811D02*
D03*
X559772Y179496D02*
D03*
X566071D02*
D03*
X701898Y208630D02*
D03*
X695598D02*
D03*
X633000Y278315D02*
D03*
X639299D02*
D03*
X633000Y272016D02*
D03*
X639299D02*
D03*
X544811Y257842D02*
D03*
X551110D02*
D03*
D11*
X545972Y270835D02*
D03*
X550972D02*
D03*
X555972D02*
D03*
X560972D02*
D03*
X545972Y289732D02*
D03*
X550972D02*
D03*
X555972D02*
D03*
X560972D02*
D03*
D12*
X569811Y279496D02*
D03*
X577291D02*
D03*
Y270047D02*
D03*
X573551D02*
D03*
X569811D02*
D03*
D13*
X740480Y163551D02*
D03*
Y170244D02*
D03*
X749535Y163551D02*
D03*
Y170244D02*
D03*
X758591Y163551D02*
D03*
Y170244D02*
D03*
X603472Y258039D02*
D03*
Y264732D02*
D03*
X767646Y163551D02*
D03*
Y170244D02*
D03*
X625126Y286386D02*
D03*
Y293079D02*
D03*
X636543Y259221D02*
D03*
Y265913D02*
D03*
X597567Y258039D02*
D03*
X597567Y264732D02*
D03*
X543630Y320638D02*
D03*
Y313945D02*
D03*
D14*
X556819Y252331D02*
D03*
X563512D02*
D03*
X667449Y286189D02*
D03*
X660756D02*
D03*
X559575Y186189D02*
D03*
X566268D02*
D03*
X620205Y278315D02*
D03*
X626898D02*
D03*
X658000Y321622D02*
D03*
X651307D02*
D03*
D15*
X561150Y240126D02*
D03*
X549732D02*
D03*
D16*
X740480Y148984D02*
D03*
Y155677D02*
D03*
X749535Y148984D02*
D03*
Y155677D02*
D03*
X758591Y148984D02*
D03*
Y155677D02*
D03*
X767646Y148984D02*
D03*
Y155677D02*
D03*
D17*
X657409Y262961D02*
D03*
Y269260D02*
D03*
X614496Y269260D02*
D03*
Y262961D02*
D03*
X616858Y197606D02*
D03*
Y191307D02*
D03*
Y174378D02*
D03*
Y180677D02*
D03*
X663709Y198000D02*
D03*
Y191701D02*
D03*
Y176740D02*
D03*
Y183039D02*
D03*
X705835Y175165D02*
D03*
Y181465D02*
D03*
X579850Y248394D02*
D03*
Y254693D02*
D03*
X551898Y314535D02*
D03*
Y320835D02*
D03*
X539299Y182646D02*
D03*
Y188945D02*
D03*
X666071Y262961D02*
D03*
Y269260D02*
D03*
X666858Y292488D02*
D03*
Y298787D02*
D03*
D18*
X630244Y265520D02*
D03*
Y258039D02*
D03*
X620795D02*
D03*
Y261779D02*
D03*
Y265520D02*
D03*
D19*
X581917Y175362D02*
D03*
X584476D02*
D03*
X587035D02*
D03*
X589595D02*
D03*
X592154D02*
D03*
X594713D02*
D03*
X597272D02*
D03*
X599831D02*
D03*
X602390Y175362D02*
D03*
X604949Y175362D02*
D03*
X607508Y175362D02*
D03*
X610067Y175362D02*
D03*
X581917Y197803D02*
D03*
X584476D02*
D03*
X587035D02*
D03*
X589595D02*
D03*
X592154D02*
D03*
X594713D02*
D03*
X597272D02*
D03*
X599831D02*
D03*
X602390Y197803D02*
D03*
X604949Y197803D02*
D03*
X607508Y197803D02*
D03*
X610067Y197803D02*
D03*
X628374Y177331D02*
D03*
X630933D02*
D03*
X633492D02*
D03*
X636051D02*
D03*
X638610D02*
D03*
X641169D02*
D03*
X643728D02*
D03*
X646287D02*
D03*
X648846Y177331D02*
D03*
X651405Y177331D02*
D03*
X653965Y177331D02*
D03*
X656524Y177331D02*
D03*
X628374Y199772D02*
D03*
X630933D02*
D03*
X633492D02*
D03*
X636051D02*
D03*
X638610D02*
D03*
X641169D02*
D03*
X643728D02*
D03*
X646287D02*
D03*
X648846Y199772D02*
D03*
X651405Y199772D02*
D03*
X653965Y199772D02*
D03*
X656524Y199772D02*
D03*
X670500Y177331D02*
D03*
X673059D02*
D03*
X675618D02*
D03*
X678177D02*
D03*
X680736D02*
D03*
X683295D02*
D03*
X685854D02*
D03*
X688413D02*
D03*
X690972Y177331D02*
D03*
X693532Y177331D02*
D03*
X696091Y177331D02*
D03*
X698650Y177331D02*
D03*
X670500Y199772D02*
D03*
X673059D02*
D03*
X675618D02*
D03*
X678177D02*
D03*
X680736D02*
D03*
X683295D02*
D03*
X685854D02*
D03*
X688413D02*
D03*
X690972Y199772D02*
D03*
X693532Y199772D02*
D03*
X696091Y199772D02*
D03*
X698650Y199772D02*
D03*
X632311Y286779D02*
D03*
X634870Y286779D02*
D03*
X637429Y286779D02*
D03*
X639988D02*
D03*
X642547D02*
D03*
X645106D02*
D03*
X647665D02*
D03*
X650224D02*
D03*
X632311Y309221D02*
D03*
X634870Y309221D02*
D03*
X637429Y309221D02*
D03*
X639988D02*
D03*
X642547D02*
D03*
X645106D02*
D03*
X647665D02*
D03*
X650224D02*
D03*
D20*
X673945Y267193D02*
D03*
Y264634D02*
D03*
X673945Y262075D02*
D03*
X673945Y259516D02*
D03*
X690480Y267193D02*
D03*
Y264634D02*
D03*
Y262075D02*
D03*
Y259516D02*
D03*
X674732Y295146D02*
D03*
Y292587D02*
D03*
X674732Y290028D02*
D03*
X674732Y287469D02*
D03*
X691268Y295146D02*
D03*
Y292587D02*
D03*
Y290028D02*
D03*
Y287469D02*
D03*
D21*
X562921Y320835D02*
D03*
X562921Y311779D02*
D03*
X562921Y302724D02*
D03*
D22*
X585756Y311779D02*
D03*
D23*
X577095Y261386D02*
X579850D01*
X573551Y264929D02*
X577095Y261386D01*
X573551Y264929D02*
Y270047D01*
D24*
X608984Y260205D02*
Y267685D01*
X606819Y258039D02*
X608984Y260205D01*
X603472Y258039D02*
X606819D01*
X597567D02*
X603472D01*
X592055Y270047D02*
X601504D01*
X603472Y268079D01*
Y264732D02*
Y268079D01*
X577291Y268669D02*
Y270047D01*
Y268669D02*
X579850Y266110D01*
X582213D01*
X573551Y277528D02*
Y284614D01*
X596583Y263748D02*
X597567Y264732D01*
X592055Y263748D02*
X596583D01*
X592055Y257055D02*
Y263748D01*
Y257055D02*
X598354Y250756D01*
X569811Y270047D02*
Y273787D01*
X573551Y277528D01*
X555972Y295382D02*
X557803Y297213D01*
X555972Y289732D02*
Y295382D01*
X575135Y192479D02*
Y203509D01*
Y192479D02*
X583394Y184221D01*
X573735Y190729D02*
X583000Y181465D01*
X566268Y186189D02*
X572335Y192256D01*
X602390Y166405D02*
Y175362D01*
Y166405D02*
X605047Y163748D01*
Y152016D02*
Y163748D01*
X599063Y146031D02*
X605047Y152016D01*
X599831Y166209D02*
Y175362D01*
Y166209D02*
X603647Y162392D01*
Y153687D02*
Y162392D01*
X601110Y151150D02*
X603647Y153687D01*
X594181Y151150D02*
X601110D01*
X589063Y146031D02*
X594181Y151150D01*
X597272Y164634D02*
Y175362D01*
X594713Y164831D02*
Y175362D01*
X590940Y150034D02*
X594811Y153905D01*
Y162173D01*
X597272Y164634D01*
X593411Y163529D02*
X594713Y164831D01*
X593411Y154485D02*
Y163529D01*
X590360Y151434D02*
X593411Y154485D01*
X569063Y146031D02*
X572370D01*
X592154Y166602D02*
Y175362D01*
X584575Y159024D02*
X592154Y166602D01*
X584575Y155196D02*
Y159024D01*
X580813Y151434D02*
X584575Y155196D01*
X572370Y146031D02*
X576373Y150034D01*
X581491D01*
X582891Y151434D01*
X590360D01*
X583471Y150034D02*
X590940D01*
X579063Y146031D02*
X579468D01*
X583471Y150034D01*
X575793Y151434D02*
X580813D01*
X574721Y150362D02*
X575793Y151434D01*
X563394Y150362D02*
X574721D01*
X559063Y146031D02*
X563394Y150362D01*
X589595Y169555D02*
Y175362D01*
X587331Y167291D02*
X589595Y169555D01*
X587035Y170933D02*
Y175362D01*
X582606Y166504D02*
X587035Y170933D01*
X582606Y164535D02*
Y166504D01*
X584476Y171524D02*
Y175362D01*
X580638Y167685D02*
X584476Y171524D01*
X577488Y167685D02*
X580638D01*
X633492Y170528D02*
Y177331D01*
X623453Y164535D02*
X630933Y172016D01*
X617252Y164535D02*
X623453D01*
X613315Y160598D02*
X617252Y164535D01*
X613315Y150284D02*
Y160598D01*
X609063Y146031D02*
X613315Y150284D01*
X630933Y172016D02*
Y177331D01*
X617651Y162955D02*
X625919D01*
X614715Y160019D02*
X617651Y162955D01*
X614715Y151167D02*
Y160019D01*
X625919Y162955D02*
X633492Y170528D01*
X614715Y151167D02*
X619457Y146425D01*
X619063Y146031D02*
X619457Y146425D01*
X623158Y151937D02*
Y159024D01*
Y151937D02*
X629063Y146031D01*
X636051Y170047D02*
Y177331D01*
X627438Y161434D02*
X636051Y170047D01*
X625568Y161434D02*
X627438D01*
X626148Y160034D02*
X628018D01*
X623158Y159024D02*
X625568Y161434D01*
X624557Y158444D02*
X626148Y160034D01*
X624557Y153293D02*
Y158444D01*
Y153293D02*
X626701Y151150D01*
X633945D01*
X639063Y146031D01*
X628018Y160034D02*
X638610Y170626D01*
Y177331D01*
X633394Y162173D02*
X641169Y169949D01*
X633394Y153681D02*
Y162173D01*
Y153681D02*
X636712Y150362D01*
X641169Y169949D02*
Y177331D01*
X643728Y169358D02*
Y177331D01*
X634794Y160424D02*
X643728Y169358D01*
X634794Y154261D02*
Y160424D01*
Y154261D02*
X637292Y151762D01*
X646287Y167193D02*
Y177331D01*
X643066Y163971D02*
X646287Y167193D01*
X636712Y150362D02*
X640874D01*
X645205Y146031D01*
X649063D01*
X642842Y151762D02*
X644242Y150362D01*
X637292Y151762D02*
X642842D01*
X653254D02*
X654982Y150034D01*
X665060D01*
X669063Y146031D01*
X644242Y150362D02*
X650716D01*
X655047Y146031D01*
X659063D01*
X643066Y154470D02*
Y163971D01*
Y154470D02*
X645773Y151762D01*
X653254D01*
X649063Y156032D02*
X659142Y166110D01*
X685854Y165657D02*
Y177331D01*
X684339Y164142D02*
X685854Y165657D01*
X667173Y164142D02*
X684339D01*
X659063Y156032D02*
X667173Y164142D01*
X688413Y165854D02*
Y177331D01*
X684339Y161779D02*
X688413Y165854D01*
X674811Y161779D02*
X684339D01*
X669063Y156032D02*
X674811Y161779D01*
X690972Y163847D02*
Y177331D01*
X683157Y156032D02*
X690972Y163847D01*
X680736Y169653D02*
Y177331D01*
X679063Y156032D02*
X683157D01*
X659142Y166110D02*
X681425D01*
X683295Y167980D01*
Y177331D01*
X678177Y171917D02*
Y177331D01*
X675913Y169653D02*
X678177Y171917D01*
X675618Y177331D02*
Y183728D01*
X673059Y172311D02*
Y177331D01*
X670402Y169653D02*
X673059Y172311D01*
X648846Y171130D02*
Y177331D01*
Y171130D02*
X650716Y169260D01*
X620795Y258039D02*
X622961D01*
X624732Y259811D01*
Y264142D01*
X623354Y265520D02*
X624732Y264142D01*
X620795Y265520D02*
X623354D01*
X625520Y286779D02*
X632311D01*
X625126Y286386D02*
X625520Y286779D01*
X647665Y313453D02*
X649535Y315323D01*
X647665Y309221D02*
Y313453D01*
X632409Y314732D02*
Y317488D01*
Y314732D02*
X634870Y312272D01*
Y309221D02*
Y312272D01*
X632213Y322016D02*
X634969Y319260D01*
Y315717D02*
Y319260D01*
Y315717D02*
X637429Y313256D01*
Y309221D02*
Y313256D01*
X628276Y310992D02*
Y317685D01*
Y310992D02*
X630047Y309221D01*
X632311D01*
X612331Y286386D02*
X625126D01*
X603866Y294850D02*
X612331Y286386D01*
X639988Y283138D02*
Y286779D01*
Y283138D02*
X643236Y279890D01*
X642547Y282559D02*
Y286779D01*
Y282559D02*
X644636Y280470D01*
X645106Y282350D02*
Y286779D01*
Y282350D02*
X646386Y281071D01*
X647665Y286779D02*
X647786Y286659D01*
X650224Y297705D02*
Y309221D01*
Y297705D02*
X652685Y295244D01*
X660165Y238945D02*
Y252331D01*
X657365Y237785D02*
Y251171D01*
X661565Y239525D02*
Y252911D01*
X658765Y238365D02*
Y251751D01*
X651504Y227122D02*
Y253512D01*
X650104Y227702D02*
Y252932D01*
X660165Y238945D02*
X663709Y235402D01*
X657365Y237785D02*
X660909Y234242D01*
X661565Y239525D02*
X665109Y235981D01*
X658765Y238365D02*
X662309Y234822D01*
X663709Y223579D02*
Y235402D01*
X660909Y224739D02*
Y234242D01*
X662309Y224159D02*
Y234822D01*
X643849Y221447D02*
X650104Y227702D01*
X644429Y220047D02*
X651504Y227122D01*
X625520Y220047D02*
X644429D01*
X624940Y221447D02*
X643849D01*
X615709Y210236D02*
X625520Y220047D01*
X615272Y211779D02*
X624940Y221447D01*
X654654Y216504D02*
X662309Y224159D01*
X654074Y217904D02*
X660909Y224739D01*
X661521Y221392D02*
X663709Y223579D01*
X627871Y216504D02*
X654654D01*
X627291Y217904D02*
X654074D01*
X619220Y207854D02*
X627871Y216504D01*
X616465Y207078D02*
X627291Y217904D01*
X611740Y211779D02*
X615272D01*
X609378Y209417D02*
X611740Y211779D01*
X609378Y207449D02*
Y209417D01*
X619220Y205480D02*
Y207854D01*
X613709Y207449D02*
X614496D01*
X614528Y210236D02*
X615709D01*
X613709Y209417D02*
X614528Y210236D01*
X613709Y207449D02*
Y209417D01*
X616465Y203512D02*
Y207078D01*
Y203512D02*
X621583Y198394D01*
Y192095D02*
Y198394D01*
X661521Y204299D02*
Y221392D01*
X689063Y156032D02*
X694811Y161779D01*
Y166504D01*
X653866Y315323D02*
X656622Y312567D01*
Y290323D02*
Y312567D01*
Y290323D02*
X660756Y286189D01*
X649535Y315323D02*
X653866D01*
X674339Y281465D02*
Y287075D01*
X673945Y254693D02*
Y259516D01*
X604949Y175362D02*
Y179988D01*
X603472Y181465D02*
X604949Y179988D01*
X583000Y181465D02*
X603472D01*
X605047Y223590D02*
Y238551D01*
X600323Y243276D02*
X605047Y238551D01*
X600323Y243276D02*
Y248394D01*
X605441Y253512D01*
X608591D01*
X611740Y256661D01*
X645106Y302035D02*
Y309221D01*
Y302035D02*
X645205Y301937D01*
X650224Y282744D02*
Y286779D01*
Y282744D02*
X651285Y281683D01*
X647786Y281639D02*
Y286659D01*
X652286Y258230D02*
X658765Y251751D01*
X646386Y280283D02*
X648485Y278184D01*
Y260051D02*
Y278184D01*
X646386Y280283D02*
Y281071D01*
X644636Y279102D02*
X647085Y276654D01*
X648485Y260051D02*
X657365Y251171D01*
X652685Y261791D02*
Y295244D01*
Y261791D02*
X661565Y252911D01*
X651285Y261211D02*
X660165Y252331D01*
X651285Y261211D02*
Y281683D01*
X647786Y281639D02*
X649885Y279540D01*
Y260631D02*
Y279540D01*
Y260631D02*
X652286Y258230D01*
X647085Y257931D02*
Y276654D01*
Y257931D02*
X651504Y253512D01*
X644636Y279102D02*
Y280470D01*
X643236Y277134D02*
Y279890D01*
Y277134D02*
X645685Y274685D01*
Y257351D02*
Y274685D01*
Y257351D02*
X645986Y257049D01*
Y257049D02*
Y257049D01*
Y257049D02*
X650104Y252932D01*
X649273Y181727D02*
X649567D01*
X651405Y177331D02*
Y179888D01*
X649567Y181727D02*
X651405Y179888D01*
X643630Y187370D02*
X649273Y181727D01*
X627488Y187370D02*
X643630D01*
X604654Y182646D02*
X608591D01*
X603079Y184221D02*
X604654Y182646D01*
X583394Y184221D02*
X603079D01*
X572335Y192256D02*
Y205445D01*
X573735Y190729D02*
Y204089D01*
X591106Y209649D02*
X605047Y223590D01*
X591686Y208249D02*
X607409Y223973D01*
X576539Y209649D02*
X591106D01*
X577895Y208249D02*
X591686D01*
X575135Y203509D02*
X578475Y206849D01*
X592266D01*
X573735Y204089D02*
X577895Y208249D01*
X572335Y205445D02*
X576539Y209649D01*
X607409Y234221D02*
X609772Y236583D01*
X607409Y223973D02*
Y234221D01*
X592266Y206849D02*
X613709Y228292D01*
Y234221D01*
X616465Y236976D01*
X623945Y183827D02*
X627488Y187370D01*
X609772Y183827D02*
X623945D01*
X608591Y182646D02*
X609772Y183827D01*
X709378Y191701D02*
Y197606D01*
X707016Y199969D02*
X709378Y197606D01*
X707016Y199969D02*
Y215323D01*
X702291Y220047D02*
X707016Y215323D01*
X706622Y187370D02*
Y197213D01*
X705441Y198394D02*
X706622Y197213D01*
X705441Y198394D02*
Y214142D01*
X701504Y218079D02*
X705441Y214142D01*
X681425Y218079D02*
X701504D01*
X667646Y204299D02*
X681425Y218079D01*
X661521Y204299D02*
X667646D01*
X681032Y220047D02*
X702291D01*
X668039Y207055D02*
X681032Y220047D01*
X665502Y207055D02*
X668039D01*
X665109D02*
Y235981D01*
X734969Y155874D02*
Y168079D01*
X737134Y170244D01*
X740480D01*
X672966Y142129D02*
X742483D01*
X744811Y144457D01*
Y165520D01*
X749535Y170244D01*
X749535Y170244D01*
X664266Y140829D02*
X750632D01*
X753866Y144063D01*
Y165520D01*
X758591Y170244D01*
X655566Y139529D02*
X760356D01*
X762921Y142095D01*
Y165520D01*
X767646Y170244D01*
Y155677D02*
Y163551D01*
X758591Y155677D02*
Y163551D01*
X749535Y155677D02*
Y163551D01*
X740480Y155677D02*
Y163551D01*
X573551Y284614D02*
Y286976D01*
X557803Y297213D02*
X563315D01*
X573551Y286976D01*
X649063Y146031D02*
X655566Y139529D01*
X659063Y146031D02*
X664266Y140829D01*
X669063Y146031D02*
X672966Y142129D01*
X679063Y146031D02*
X684181Y151150D01*
X730244D01*
X734969Y155874D01*
X645106Y309221D02*
Y312862D01*
X649535Y317291D01*
X653669D01*
X658000Y321622D01*
D25*
X544811Y252331D02*
Y263748D01*
X590874Y282646D02*
Y288551D01*
X544811Y305874D02*
X546779Y307842D01*
X544811Y302724D02*
Y305874D01*
X560953Y262567D02*
X560972Y262587D01*
X560953Y257449D02*
Y262567D01*
Y257449D02*
X563512Y254890D01*
Y252331D02*
Y254890D01*
X560972Y270835D02*
X564496D01*
X560972Y262587D02*
Y270835D01*
D26*
X549732Y240126D02*
X550972Y241366D01*
X552685Y279496D02*
X569811D01*
X550972Y277783D02*
X552685Y279496D01*
X550972Y270835D02*
Y277783D01*
Y241366D02*
Y270835D01*
X549732Y236779D02*
Y240126D01*
Y236779D02*
X553866Y232646D01*
X554654D01*
X564890Y222410D01*
Y195244D02*
Y222410D01*
X559575Y189929D02*
X564890Y195244D01*
X559575Y186189D02*
Y189929D01*
X562921Y311779D02*
X585756D01*
X554654D02*
X562921D01*
X551898Y314535D02*
X554654Y311779D01*
X551307Y313945D02*
X551898Y314535D01*
X543630Y313945D02*
X551307D01*
X538512Y308827D02*
X543630Y313945D01*
X538512Y233827D02*
Y308827D01*
Y233827D02*
X546779Y225559D01*
X551898D01*
X558591Y218866D01*
Y199676D02*
Y218866D01*
X545942Y187027D02*
X558591Y199676D01*
X553866Y162961D02*
X559772Y168866D01*
X559575Y186189D02*
X559772Y185992D01*
Y168866D02*
Y179496D01*
Y185992D01*
X549063Y156032D02*
X553866D01*
X559063D01*
X553866D02*
Y162961D01*
X534063Y165205D02*
X539299Y170441D01*
Y182646D01*
X543630D01*
X545942Y184958D02*
Y187027D01*
X529063Y156032D02*
X534063D01*
X539063D01*
X534063D02*
Y165205D01*
X543630Y182646D02*
X545942Y184958D01*
D27*
X561150Y240126D02*
Y241110D01*
X556819Y245441D02*
X561150Y241110D01*
X556819Y245441D02*
Y252331D01*
X555972Y253177D02*
X556819Y252331D01*
X555972Y253177D02*
Y270835D01*
D28*
X551110Y296425D02*
Y302724D01*
Y289870D02*
Y296425D01*
X547567D02*
X551110D01*
X545972Y294831D02*
X547567Y296425D01*
X545972Y289732D02*
Y294831D01*
X550972Y289732D02*
X551110Y289870D01*
Y302724D02*
X551110Y302724D01*
X562921D01*
X581425Y279496D02*
X584575Y282646D01*
X580638Y279496D02*
X581425D01*
X577291D02*
X580638D01*
X586937Y273197D01*
Y252331D02*
Y273197D01*
X583000Y248394D02*
X586937Y252331D01*
X579850Y248394D02*
X583000D01*
X592449Y231858D02*
Y235795D01*
Y230283D02*
Y231858D01*
Y230283D02*
Y230283D01*
X590087Y227921D02*
X594811D01*
X590087D02*
X592449Y230283D01*
Y230283D02*
X594811Y227921D01*
X580441Y247803D02*
X592449Y235795D01*
X562921Y302724D02*
X564496D01*
X584575Y282646D01*
D29*
X586937Y273197D02*
X588118Y274378D01*
X639299Y272016D02*
Y278315D01*
X633000Y272016D02*
Y278315D01*
X626898D02*
X633000D01*
Y269457D02*
Y272016D01*
Y269457D02*
X636543Y265913D01*
X630244Y265520D02*
X636543Y259221D01*
X617055Y269260D02*
X620795Y265520D01*
X614496Y269260D02*
X617055D01*
X543630Y320638D02*
X543827Y320835D01*
X642547Y309221D02*
Y316602D01*
X644417Y318472D01*
X543630Y320638D02*
Y327134D01*
X551898Y320835D02*
Y327134D01*
X543827Y320835D02*
X562921D01*
X579850Y254693D02*
Y261386D01*
X620205Y274969D02*
Y278315D01*
X644811Y318472D02*
Y324772D01*
X639299Y272016D02*
X642449Y268866D01*
X642842D01*
X627488Y272016D02*
X633000D01*
X539299Y188945D02*
Y194063D01*
X576701Y181270D02*
Y181465D01*
X564297Y168866D02*
X576701Y181270D01*
X559772Y168866D02*
X564297D01*
X616858Y180677D02*
X625323D01*
X628374Y183728D01*
X616858Y191307D02*
X619614Y188551D01*
X622659D01*
X627482Y193374D01*
X630933D01*
X614496Y273590D02*
X618827D01*
X613709Y274378D02*
X614496Y273590D01*
X614496Y269260D02*
X618827Y273590D01*
X620205Y274969D01*
X588118Y274378D02*
X613709D01*
D30*
X693532Y193276D02*
Y199772D01*
X646287Y193276D02*
Y199772D01*
X688413Y193276D02*
Y199772D01*
X690972Y199772D02*
Y206268D01*
X685854Y199772D02*
Y206268D01*
X589595Y191307D02*
Y197803D01*
X638610Y199772D02*
Y206268D01*
X683295Y193276D02*
Y199772D01*
X597272Y197803D02*
Y204299D01*
X599831Y191307D02*
Y197803D01*
X587035D02*
Y204299D01*
X675618Y199772D02*
Y206268D01*
X648846Y199772D02*
Y206268D01*
X651405Y193276D02*
Y199772D01*
X602390Y197803D02*
Y204299D01*
X604949Y191307D02*
Y197803D01*
X678177Y193276D02*
Y199772D01*
X680736D02*
Y206268D01*
X592154Y197803D02*
Y204299D01*
X594713Y191307D02*
Y197803D01*
X636051Y193276D02*
Y199772D01*
X633492D02*
Y206268D01*
X643728Y199772D02*
Y206268D01*
X641169Y193276D02*
Y199772D01*
X691268Y292587D02*
X695894D01*
X697567Y290913D01*
Y284221D02*
Y290913D01*
X683000Y269654D02*
X697567Y284221D01*
X683000Y266898D02*
Y269654D01*
Y266898D02*
X685264Y264634D01*
X690480D01*
X691268Y295146D02*
X697665D01*
X699535Y293276D01*
Y283433D02*
Y293276D01*
X690480Y274378D02*
X699535Y283433D01*
X690480Y267193D02*
Y274378D01*
Y264634D02*
X696681D01*
X698354Y262961D01*
Y255874D02*
Y262961D01*
X692449Y249969D02*
X698354Y255874D01*
X677882Y249969D02*
X692449D01*
X690480Y267193D02*
X698453D01*
X700323Y265323D01*
Y254693D02*
Y265323D01*
X675913Y230283D02*
X700323Y254693D01*
X673748Y230283D02*
X675913D01*
X647961Y321622D02*
X651307D01*
X644811Y318472D02*
X647961Y321622D01*
D31*
X634870Y280185D02*
Y286779D01*
X633000Y278315D02*
X634870Y280185D01*
X637429Y280185D02*
Y286779D01*
Y280185D02*
X639299Y278315D01*
X615677Y261779D02*
X620795D01*
X639988Y309221D02*
Y316602D01*
X669319Y290028D02*
X674732D01*
X666858Y292488D02*
X669319Y290028D01*
X666957Y292587D02*
X674732D01*
X666858Y292488D02*
X666957Y292587D01*
X683689Y287469D02*
X691268D01*
X681130Y290028D02*
X683689Y287469D01*
X674732Y290028D02*
X681130D01*
X667744Y264634D02*
X673945D01*
X666071Y262961D02*
X667744Y264634D01*
X666957Y262075D02*
X673945D01*
X666071Y262961D02*
X666957Y262075D01*
X625126Y293079D02*
X630441D01*
X639988Y302626D01*
Y309221D01*
X607508Y197803D02*
Y202823D01*
X608984Y204299D01*
X612528D02*
X616858Y199969D01*
Y197606D02*
Y199969D01*
X610067Y197803D02*
Y204201D01*
X610165Y204299D01*
X608984D02*
X610165D01*
X612528D01*
X607508Y169949D02*
Y175362D01*
Y169949D02*
X609378Y168079D01*
X613709D02*
X616858Y171228D01*
Y174378D01*
X610067Y168571D02*
Y175362D01*
Y168571D02*
X610559Y168079D01*
X609378D02*
X610559D01*
X613709D01*
X653965Y195539D02*
Y199772D01*
Y195539D02*
X656228Y193276D01*
X658984D01*
X663709Y198000D01*
X656524Y193571D02*
Y199772D01*
X656228Y193276D02*
X656524Y193571D01*
Y177331D02*
X663118D01*
X653965Y172311D02*
Y177331D01*
Y172311D02*
X655047Y171228D01*
X661346D01*
X663118Y173000D01*
X610067Y189240D02*
Y197803D01*
X616858Y169260D02*
Y171228D01*
Y169260D02*
X618433Y167685D01*
X698650Y177331D02*
X703669D01*
X705835Y175165D01*
X696091Y173098D02*
Y177331D01*
Y173098D02*
X697961Y171228D01*
X701898D01*
X705835Y175165D01*
X698650Y199772D02*
Y201839D01*
X702685Y205874D01*
Y208630D01*
X661346Y292488D02*
X666858D01*
X621386Y293079D02*
X625126D01*
X619220Y290913D02*
X621386Y293079D01*
X638512Y318472D02*
Y324772D01*
X638512Y324772D02*
X638512Y324772D01*
X663118Y173000D02*
Y177331D01*
X658591Y262961D02*
X666071D01*
X638118Y318472D02*
X639988Y316602D01*
X652685Y189732D02*
X656228Y193276D01*
X606228Y185402D02*
X606622Y185795D01*
X610067Y189240D01*
X606622Y185795D02*
X623368D01*
X627305Y189732D01*
X652685D01*
X703472Y195638D02*
Y205087D01*
X702685Y205874D02*
X703472Y205087D01*
D32*
X670500Y295146D02*
X674732D01*
X666858Y298787D02*
X670500Y295146D01*
X685854Y290028D02*
X691268D01*
X680736Y295146D02*
X685854Y290028D01*
X674732Y295146D02*
X680736D01*
X667449Y286189D02*
X668728Y287469D01*
X668138Y267193D02*
X673945D01*
X666071Y269260D02*
X668138Y267193D01*
X673945D02*
X679161D01*
X684279Y262075D01*
X690480D01*
X684870Y259516D02*
X690480D01*
X684279Y260106D02*
X684870Y259516D01*
X684279Y260106D02*
Y262075D01*
X658591Y269260D02*
X666071D01*
X628374Y199772D02*
Y206169D01*
X630933Y193374D02*
Y199772D01*
X628374Y177331D02*
Y183728D01*
X670500Y194555D02*
Y199772D01*
X667646Y191701D02*
X670500Y194555D01*
X663709Y191701D02*
X667646D01*
X670500Y194555D02*
X671681D01*
X673059Y195933D01*
Y199772D01*
X663709Y183039D02*
Y191701D01*
Y183039D02*
X668433D01*
X670500Y180972D01*
Y177331D02*
Y180972D01*
X702685Y184614D02*
X705835Y181465D01*
X693630Y214142D02*
X696091Y211681D01*
X666858Y298787D02*
Y304693D01*
X668728Y287469D02*
X674732D01*
X577685Y197803D02*
X581917D01*
X576898Y175362D02*
X581917D01*
X566071Y179496D02*
X570402D01*
X584476Y192783D02*
Y197803D01*
X583787Y192095D02*
X584476Y192783D01*
X580638Y192095D02*
X583787D01*
X577685Y195047D02*
X580638Y192095D01*
X577685Y195047D02*
Y197803D01*
X696091Y199772D02*
X696232Y199631D01*
Y187609D02*
Y199631D01*
X694024Y185402D02*
X696232Y187609D01*
X696091Y199772D02*
Y211681D01*
X693532Y182941D02*
X694024Y183433D01*
X695205Y184614D01*
X694024Y181150D02*
Y183433D01*
Y185402D01*
X695205Y184614D02*
X700716D01*
X702685D01*
X693532Y177331D02*
Y180658D01*
Y182941D01*
X692861Y179988D02*
X693532Y180658D01*
X694024Y181150D01*
X735559Y148984D02*
X740480D01*
X749535Y145244D02*
Y148984D01*
X747961Y143669D02*
X749535Y145244D01*
X758591Y144063D02*
Y148984D01*
X767646Y142882D02*
Y148984D01*
D33*
X599215Y229963D02*
X599929Y230677D01*
X598355Y229963D02*
X599215D01*
X599929Y229794D02*
Y230677D01*
X598761Y228626D02*
X599929Y229794D01*
D34*
X583394Y233433D02*
D03*
X687331D02*
D03*
D35*
X529063Y146031D02*
D03*
D36*
Y156032D02*
D03*
X539063Y146031D02*
D03*
Y156032D02*
D03*
X549063Y146031D02*
D03*
X549063Y156032D02*
D03*
X559063Y146031D02*
D03*
Y156032D02*
D03*
X569063Y146031D02*
D03*
Y156032D02*
D03*
X579063Y146031D02*
D03*
Y156032D02*
D03*
X589063Y146031D02*
D03*
Y156032D02*
D03*
X599063Y146031D02*
D03*
X599063Y156032D02*
D03*
X609063Y146031D02*
D03*
Y156032D02*
D03*
X619063Y146031D02*
D03*
Y156032D02*
D03*
X629063Y146031D02*
D03*
Y156032D02*
D03*
X639063Y146031D02*
D03*
X639063Y156032D02*
D03*
X649063Y146031D02*
D03*
X649063Y156032D02*
D03*
X659063Y146031D02*
D03*
Y156032D02*
D03*
X669063Y146031D02*
D03*
Y156032D02*
D03*
X679063Y146031D02*
D03*
Y156032D02*
D03*
X689063Y146031D02*
D03*
X689063Y156032D02*
D03*
X699063Y146031D02*
D03*
Y156032D02*
D03*
X709063Y146031D02*
D03*
Y156032D02*
D03*
X719063Y146031D02*
D03*
Y156032D02*
D03*
D37*
X718039Y209811D02*
D03*
X544811D02*
D03*
X718039Y316110D02*
D03*
D38*
X608984Y267685D02*
D03*
X544811Y263748D02*
D03*
Y252331D02*
D03*
X592055Y270047D02*
D03*
X582213Y266110D02*
D03*
X590874Y288551D02*
D03*
X573551Y284614D02*
D03*
X592055Y263748D02*
D03*
X546779Y307842D02*
D03*
X564496Y270835D02*
D03*
X560972Y262587D02*
D03*
X573551Y264929D02*
D03*
X693532Y193276D02*
D03*
X646287D02*
D03*
X688413D02*
D03*
X690972Y206268D02*
D03*
X685854Y206268D02*
D03*
X589595Y191307D02*
D03*
X638610Y206268D02*
D03*
X683295Y193276D02*
D03*
X597272Y204299D02*
D03*
X599831Y191307D02*
D03*
X587035Y204299D02*
D03*
X675618Y206268D02*
D03*
X648846Y206268D02*
D03*
X651405Y193276D02*
D03*
X602390Y204299D02*
D03*
X604949Y191307D02*
D03*
X678177Y193276D02*
D03*
X680736Y206268D02*
D03*
X592154Y204299D02*
D03*
X594713Y191307D02*
D03*
X636051Y193276D02*
D03*
X633492Y206268D02*
D03*
X643728D02*
D03*
X641169Y193276D02*
D03*
X587331Y167291D02*
D03*
X582606Y164535D02*
D03*
X577488Y167685D02*
D03*
X680736Y169653D02*
D03*
X675913D02*
D03*
X675618Y183728D02*
D03*
X670402Y169653D02*
D03*
X650716Y169260D02*
D03*
X598354Y250756D02*
D03*
X599929Y236583D02*
D03*
X623551Y249575D02*
D03*
X647173D02*
D03*
X670795D02*
D03*
Y217291D02*
D03*
X647173Y230677D02*
D03*
X623551D02*
D03*
X599929D02*
D03*
X610756Y229693D02*
D03*
X616661Y229693D02*
D03*
X628472Y229693D02*
D03*
X634378D02*
D03*
X640283D02*
D03*
X654063Y229693D02*
D03*
X658000Y229693D02*
D03*
X665874Y250165D02*
D03*
X654063Y250165D02*
D03*
X642252Y250165D02*
D03*
X636346D02*
D03*
X630441D02*
D03*
X612724D02*
D03*
X606819D02*
D03*
X594811Y227921D02*
D03*
X590087D02*
D03*
X592449Y231858D02*
D03*
X677882Y249969D02*
D03*
X628276Y317685D02*
D03*
X632409Y317488D02*
D03*
X632213Y322016D02*
D03*
X603866Y294850D02*
D03*
X628374Y206169D02*
D03*
X630933Y193374D02*
D03*
X628374Y183728D02*
D03*
X609378Y207449D02*
D03*
X619220Y205480D02*
D03*
X613709Y207449D02*
D03*
X621583Y192095D02*
D03*
X665109Y207055D02*
D03*
X661521Y204299D02*
D03*
X669073Y193128D02*
D03*
X668433Y183039D02*
D03*
X658984Y193276D02*
D03*
X661346Y171228D02*
D03*
X618433Y167685D02*
D03*
X694811Y166504D02*
D03*
X673748Y230283D02*
D03*
X606228Y185402D02*
D03*
X701898Y171228D02*
D03*
X700716Y184614D02*
D03*
X693630Y214142D02*
D03*
X661740Y262961D02*
D03*
Y269260D02*
D03*
X666858Y304693D02*
D03*
X661346Y292488D02*
D03*
X703472Y195638D02*
D03*
X674339Y281465D02*
D03*
X673945Y254693D02*
D03*
X570402Y179496D02*
D03*
X576898Y175362D02*
D03*
X577685Y197803D02*
D03*
X551898Y327134D02*
D03*
X543630D02*
D03*
X579850Y261386D02*
D03*
X618827Y273590D02*
D03*
X609772Y236583D02*
D03*
X611740Y256661D02*
D03*
X645205Y301937D02*
D03*
X619220Y290913D02*
D03*
X644811Y324772D02*
D03*
X638512D02*
D03*
X642842Y268866D02*
D03*
X627488Y272016D02*
D03*
X616465Y236976D02*
D03*
X539299Y194063D02*
D03*
X547961Y188157D02*
D03*
X544417Y183433D02*
D03*
X576701Y181465D02*
D03*
X620402Y332252D02*
D03*
X612921D02*
D03*
X709378Y191701D02*
D03*
X706622Y187370D02*
D03*
X735559Y148984D02*
D03*
X747961Y143669D02*
D03*
X758591Y143276D02*
D03*
X767646Y142882D02*
D03*
M02*
