%FSLAX25Y25*%
%MOIN*%
G70*
G01*
G75*
G04 Layer_Color=128*
%ADD10R,0.03937X0.03937*%
%ADD11O,0.02362X0.08661*%
%ADD12R,0.02559X0.04331*%
%ADD13R,0.03937X0.03543*%
%ADD14R,0.03543X0.03937*%
%ADD15R,0.05118X0.07087*%
%ADD16R,0.03937X0.04331*%
%ADD17R,0.03937X0.03937*%
%ADD18R,0.04331X0.02559*%
%ADD19O,0.01378X0.06693*%
%ADD20O,0.06693X0.01772*%
%ADD21R,0.09449X0.03937*%
%ADD22R,0.09449X0.12992*%
%ADD23C,0.03000*%
%ADD24C,0.00700*%
%ADD25C,0.01969*%
%ADD26C,0.05000*%
%ADD27C,0.00800*%
%ADD28C,0.04000*%
%ADD29C,0.02000*%
%ADD30C,0.00787*%
%ADD31C,0.01500*%
%ADD32C,0.01000*%
%ADD33C,0.02500*%
%ADD34C,0.01969*%
%ADD35R,0.05906X0.05906*%
%ADD36C,0.05906*%
%ADD37C,0.07874*%
%ADD38C,0.03000*%
%ADD39R,0.01181X0.04331*%
%ADD40R,0.02756X0.05906*%
%ADD41R,0.06299X0.12205*%
%ADD42C,0.00984*%
%ADD43C,0.02362*%
%ADD44C,0.00500*%
%ADD45R,0.00600X0.00200*%
%ADD46R,0.01000X0.00200*%
%ADD47R,0.01600X0.00200*%
%ADD48R,0.01400X0.00200*%
%ADD49R,0.02000X0.00200*%
%ADD50R,0.02600X0.00200*%
%ADD51R,0.02400X0.00200*%
%ADD52R,0.03000X0.00200*%
%ADD53R,0.03400X0.00200*%
%ADD54R,0.00400X0.00200*%
%ADD55R,0.04000X0.00200*%
%ADD56R,0.04400X0.00200*%
%ADD57R,0.06800X0.00200*%
%ADD58R,0.06600X0.00200*%
%ADD59R,0.07000X0.00200*%
%ADD60R,0.07200X0.00200*%
%ADD61R,0.07600X0.00200*%
%ADD62R,0.07400X0.00200*%
%ADD63R,0.08000X0.00200*%
%ADD64R,0.07800X0.00200*%
%ADD65R,0.08400X0.00200*%
%ADD66R,0.09200X0.00200*%
%ADD67R,0.10200X0.00200*%
%ADD68R,0.10000X0.00200*%
%ADD69R,0.09800X0.00200*%
%ADD70R,0.10400X0.00200*%
%ADD71R,0.09000X0.00200*%
%ADD72R,0.19000X0.00200*%
%ADD73R,0.18600X0.00200*%
%ADD74R,0.18200X0.00200*%
%ADD75R,0.18400X0.00200*%
%ADD76R,0.19200X0.00200*%
%ADD77R,0.19400X0.00200*%
%ADD78R,0.19800X0.00200*%
%ADD79R,0.20000X0.00200*%
%ADD80R,0.20200X0.00200*%
%ADD81R,0.20600X0.00200*%
%ADD82R,0.21000X0.00200*%
%ADD83R,0.21400X0.00200*%
%ADD84R,0.21800X0.00200*%
%ADD85R,0.22200X0.00200*%
%ADD86R,0.04800X0.00200*%
%ADD87R,0.08600X0.00200*%
%ADD88R,0.03800X0.00200*%
%ADD89R,0.05800X0.00200*%
%ADD90R,0.02800X0.00200*%
%ADD91R,0.05000X0.00200*%
%ADD92R,0.01800X0.00200*%
%ADD93R,0.04600X0.00200*%
%ADD94R,0.04200X0.00200*%
%ADD95R,0.00800X0.00200*%
%ADD96R,0.05400X0.00200*%
%ADD97R,0.02200X0.00200*%
%ADD98R,0.06400X0.00200*%
%ADD99R,0.03600X0.00200*%
%ADD100R,0.01200X0.00200*%
%ADD101R,0.11800X0.00200*%
%ADD102R,0.11600X0.00200*%
%ADD103R,0.00200X0.00200*%
%ADD104C,0.00492*%
%ADD105C,0.00600*%
G04:AMPARAMS|DCode=106|XSize=78.74mil|YSize=78.74mil|CornerRadius=19.69mil|HoleSize=0mil|Usage=FLASHONLY|Rotation=0.000|XOffset=0mil|YOffset=0mil|HoleType=Round|Shape=RoundedRectangle|*
%AMROUNDEDRECTD106*
21,1,0.07874,0.03937,0,0,0.0*
21,1,0.03937,0.07874,0,0,0.0*
1,1,0.03937,0.01969,-0.01969*
1,1,0.03937,-0.01969,-0.01969*
1,1,0.03937,-0.01969,0.01969*
1,1,0.03937,0.01969,0.01969*
%
%ADD106ROUNDEDRECTD106*%
%ADD107R,0.04488X0.04488*%
%ADD108O,0.02913X0.09213*%
%ADD109R,0.03150X0.04921*%
%ADD110R,0.04488X0.04095*%
%ADD111R,0.04095X0.04488*%
%ADD112R,0.05669X0.07638*%
%ADD113R,0.04488X0.04882*%
%ADD114R,0.04488X0.04488*%
%ADD115R,0.04921X0.03150*%
%ADD116O,0.01929X0.07244*%
%ADD117O,0.07244X0.02323*%
%ADD118R,0.10000X0.04488*%
%ADD119R,0.10000X0.13543*%
%ADD120C,0.02520*%
%ADD121R,0.06457X0.06457*%
%ADD122C,0.06457*%
%ADD123C,0.19685*%
%ADD124C,0.03551*%
%ADD125R,0.00984X0.04134*%
%ADD126R,0.02559X0.05709*%
%ADD127R,0.06850X0.12756*%
D39*
X589102Y243669D02*
D03*
X591071D02*
D03*
X593039D02*
D03*
X595008D02*
D03*
X596976D02*
D03*
X602882D02*
D03*
X604850D02*
D03*
X606819D02*
D03*
X608787D02*
D03*
X610756D02*
D03*
X612724D02*
D03*
X614693Y243669D02*
D03*
X616661D02*
D03*
X618630Y243669D02*
D03*
X620598D02*
D03*
X626504D02*
D03*
X628472D02*
D03*
X630441D02*
D03*
X632409D02*
D03*
X634378D02*
D03*
X636346D02*
D03*
X638315D02*
D03*
X640283D02*
D03*
X642252D02*
D03*
X644220D02*
D03*
X650126D02*
D03*
X652095D02*
D03*
X654063Y243669D02*
D03*
X656032D02*
D03*
X658000Y243669D02*
D03*
X659969D02*
D03*
X661937D02*
D03*
X663905D02*
D03*
X665874D02*
D03*
X667842D02*
D03*
X589102Y223197D02*
D03*
X591071D02*
D03*
X593039D02*
D03*
X595008D02*
D03*
X596976D02*
D03*
X602882D02*
D03*
X604850D02*
D03*
X606819D02*
D03*
X608787D02*
D03*
X610756D02*
D03*
X612724D02*
D03*
X614693Y223197D02*
D03*
X616661D02*
D03*
X618630Y223197D02*
D03*
X620598D02*
D03*
X626504D02*
D03*
X628472D02*
D03*
X630441D02*
D03*
X632409D02*
D03*
X634378D02*
D03*
X636346D02*
D03*
X638315D02*
D03*
X640283D02*
D03*
X642252D02*
D03*
X644220D02*
D03*
X650126D02*
D03*
X652095D02*
D03*
X654063Y223197D02*
D03*
X656032D02*
D03*
X658000Y223197D02*
D03*
X659969D02*
D03*
X661937D02*
D03*
X663905D02*
D03*
X665874D02*
D03*
X667842D02*
D03*
X673748Y243669D02*
D03*
X675716D02*
D03*
X677685D02*
D03*
X679654D02*
D03*
X681622D02*
D03*
X673748Y223197D02*
D03*
X675716D02*
D03*
X677685D02*
D03*
X679654D02*
D03*
X681622D02*
D03*
D40*
X599929Y242882D02*
D03*
X623551D02*
D03*
X647173D02*
D03*
X599929Y223984D02*
D03*
X623551D02*
D03*
X647173D02*
D03*
X670795Y242882D02*
D03*
Y223984D02*
D03*
D41*
X576504Y233433D02*
D03*
X694220D02*
D03*
M02*
