%FSLAX25Y25*%
%MOIN*%
G70*
G01*
G75*
G04 Layer_Color=65535*
%ADD10R,0.03937X0.03937*%
%ADD11O,0.02362X0.08661*%
%ADD12R,0.02559X0.04331*%
%ADD13R,0.03937X0.03543*%
%ADD14R,0.03543X0.03937*%
%ADD15R,0.05118X0.07087*%
%ADD16R,0.03937X0.04331*%
%ADD17R,0.03937X0.03937*%
%ADD18R,0.04331X0.02559*%
%ADD19O,0.01378X0.06693*%
%ADD20O,0.06693X0.01772*%
%ADD21R,0.09449X0.03937*%
%ADD22R,0.09449X0.12992*%
%ADD23C,0.03000*%
%ADD24C,0.00700*%
%ADD25C,0.01969*%
%ADD26C,0.05000*%
%ADD27C,0.00800*%
%ADD28C,0.04000*%
%ADD29C,0.02000*%
%ADD30C,0.00787*%
%ADD31C,0.01500*%
%ADD32C,0.01000*%
%ADD33C,0.02500*%
%ADD34C,0.01969*%
%ADD35R,0.05906X0.05906*%
%ADD36C,0.05906*%
%ADD37C,0.07874*%
%ADD38C,0.03000*%
%ADD39R,0.01181X0.04331*%
%ADD40R,0.02756X0.05906*%
%ADD41R,0.06299X0.12205*%
%ADD42C,0.00984*%
%ADD43C,0.02362*%
%ADD44C,0.00500*%
%ADD45R,0.00600X0.00200*%
%ADD46R,0.01000X0.00200*%
%ADD47R,0.01600X0.00200*%
%ADD48R,0.01400X0.00200*%
%ADD49R,0.02000X0.00200*%
%ADD50R,0.02600X0.00200*%
%ADD51R,0.02400X0.00200*%
%ADD52R,0.03000X0.00200*%
%ADD53R,0.03400X0.00200*%
%ADD54R,0.00400X0.00200*%
%ADD55R,0.04000X0.00200*%
%ADD56R,0.04400X0.00200*%
%ADD57R,0.06800X0.00200*%
%ADD58R,0.06600X0.00200*%
%ADD59R,0.07000X0.00200*%
%ADD60R,0.07200X0.00200*%
%ADD61R,0.07600X0.00200*%
%ADD62R,0.07400X0.00200*%
%ADD63R,0.08000X0.00200*%
%ADD64R,0.07800X0.00200*%
%ADD65R,0.08400X0.00200*%
%ADD66R,0.09200X0.00200*%
%ADD67R,0.10200X0.00200*%
%ADD68R,0.10000X0.00200*%
%ADD69R,0.09800X0.00200*%
%ADD70R,0.10400X0.00200*%
%ADD71R,0.09000X0.00200*%
%ADD72R,0.19000X0.00200*%
%ADD73R,0.18600X0.00200*%
%ADD74R,0.18200X0.00200*%
%ADD75R,0.18400X0.00200*%
%ADD76R,0.19200X0.00200*%
%ADD77R,0.19400X0.00200*%
%ADD78R,0.19800X0.00200*%
%ADD79R,0.20000X0.00200*%
%ADD80R,0.20200X0.00200*%
%ADD81R,0.20600X0.00200*%
%ADD82R,0.21000X0.00200*%
%ADD83R,0.21400X0.00200*%
%ADD84R,0.21800X0.00200*%
%ADD85R,0.22200X0.00200*%
%ADD86R,0.04800X0.00200*%
%ADD87R,0.08600X0.00200*%
%ADD88R,0.03800X0.00200*%
%ADD89R,0.05800X0.00200*%
%ADD90R,0.02800X0.00200*%
%ADD91R,0.05000X0.00200*%
%ADD92R,0.01800X0.00200*%
%ADD93R,0.04600X0.00200*%
%ADD94R,0.04200X0.00200*%
%ADD95R,0.00800X0.00200*%
%ADD96R,0.05400X0.00200*%
%ADD97R,0.02200X0.00200*%
%ADD98R,0.06400X0.00200*%
%ADD99R,0.03600X0.00200*%
%ADD100R,0.01200X0.00200*%
%ADD101R,0.11800X0.00200*%
%ADD102R,0.11600X0.00200*%
%ADD103R,0.00200X0.00200*%
%ADD104C,0.00492*%
%ADD105C,0.00600*%
D27*
X534181Y141032D02*
Y151150D01*
X727063Y148197D02*
X727896Y149030D01*
X729562D01*
X730395Y148197D01*
Y147364D01*
X729562Y146531D01*
X728729D01*
X729562D01*
X730395Y145698D01*
Y144865D01*
X729562Y144032D01*
X727896D01*
X727063Y144865D01*
X732061D02*
X732894Y144032D01*
X734561D01*
X735394Y144865D01*
Y148197D01*
X734561Y149030D01*
X732894D01*
X732061Y148197D01*
Y147364D01*
X732894Y146531D01*
X735394D01*
X729562Y154032D02*
Y159030D01*
X727063Y156531D01*
X730395D01*
X732061Y158197D02*
X732894Y159030D01*
X734561D01*
X735394Y158197D01*
Y154865D01*
X734561Y154032D01*
X732894D01*
X732061Y154865D01*
Y158197D01*
X522395Y154032D02*
X519063D01*
X522395Y157364D01*
Y158197D01*
X521562Y159030D01*
X519896D01*
X519063Y158197D01*
Y144032D02*
X520729D01*
X519896D01*
Y149030D01*
X519063Y148197D01*
D30*
X571592Y334986D02*
G03*
X575006Y331572I3414J0D01*
G01*
X575592Y357572D02*
G03*
X571592Y353572I0J-4000D01*
G01*
X607592D02*
G03*
X603592Y357572I-4000J0D01*
G01*
Y331572D02*
G03*
X607592Y335572I0J4000D01*
G01*
X543630Y276740D02*
Y283827D01*
X563315Y276740D02*
Y283827D01*
X543630Y276740D02*
X563315D01*
X543630Y283827D02*
X563315D01*
X567449Y275756D02*
X579654D01*
X567449Y273787D02*
X579654D01*
Y275756D01*
X567449Y273787D02*
Y275756D01*
X738905Y166110D02*
Y167685D01*
X742055Y166110D02*
Y167685D01*
X559378Y253906D02*
X560953D01*
X559378Y250756D02*
X560953D01*
X747961Y166110D02*
Y167685D01*
X751110Y166110D02*
Y167685D01*
X553866Y236976D02*
X557016D01*
X553866Y243276D02*
X557016D01*
X757016Y166110D02*
Y167685D01*
X760165Y166110D02*
Y167685D01*
X601898Y260598D02*
Y262173D01*
X605047Y260598D02*
Y262173D01*
X766071Y166110D02*
Y167685D01*
X769220Y166110D02*
X769220Y167685D01*
X738905Y145638D02*
X742055Y145638D01*
X747961Y145638D02*
X751110Y145638D01*
X757016Y145638D02*
X760165Y145638D01*
X766071Y145638D02*
X769220D01*
X724063Y141032D02*
Y161031D01*
X524063Y141032D02*
Y161031D01*
X724063D01*
X524063Y141032D02*
X724063D01*
X623551Y288945D02*
Y290520D01*
X626701Y288945D02*
Y290520D01*
X663315Y284614D02*
X664890D01*
X663315Y287764D02*
X664890D01*
X634969Y261779D02*
Y263354D01*
X638118Y261779D02*
Y263354D01*
X562134Y187764D02*
X563709D01*
X562134Y184614D02*
X563709Y184614D01*
X595992Y260598D02*
Y262173D01*
X599142Y260598D02*
Y262173D01*
X626504Y255677D02*
Y267882D01*
X624535Y255677D02*
Y267882D01*
Y255677D02*
X626504D01*
X624535Y267882D02*
X626504D01*
X580441Y180283D02*
Y192882D01*
X611543Y180283D02*
Y192882D01*
X580441Y180283D02*
X611543D01*
X580441Y192882D02*
X611543D01*
X626898Y182252D02*
Y194850D01*
X658000Y182252D02*
Y194850D01*
X626898Y182252D02*
X658000D01*
X626898Y194850D02*
X658000D01*
X669024Y182252D02*
Y194850D01*
X700126Y182252D02*
Y194850D01*
X669024Y182252D02*
X700126D01*
X669024Y194850D02*
X700126D01*
X631228Y291701D02*
X651307Y291701D01*
X631228Y304299D02*
X651307D01*
X631228Y291701D02*
X631228Y304299D01*
X651307Y291701D02*
Y304299D01*
X678866Y269457D02*
X685559D01*
X678866Y257252D02*
X685559D01*
X678866D02*
Y269457D01*
X685559Y257252D02*
Y269457D01*
X545205Y316504D02*
Y318079D01*
X542055Y316504D02*
Y318079D01*
X622764Y279890D02*
X624339D01*
X622764Y276740D02*
X624339D01*
X679654Y297409D02*
X686346D01*
X679654Y285205D02*
X686346D01*
X679654D02*
Y297409D01*
X686346Y285205D02*
Y297409D01*
X568827Y298590D02*
Y324969D01*
X579850Y298590D02*
Y324969D01*
X568827D02*
X579850D01*
X568827Y298590D02*
X579850D01*
X571592Y334986D02*
Y353572D01*
X575592Y357572D02*
X603592D01*
X607592Y335572D02*
Y353572D01*
X575006Y331572D02*
X603592D01*
X523945Y151150D02*
X534181D01*
X653866Y320047D02*
X655441D01*
X653866Y323197D02*
X655441D01*
X547567Y163354D02*
Y167290D01*
X549535D01*
X550191Y166634D01*
Y165322D01*
X549535Y164666D01*
X547567D01*
X551503Y167290D02*
Y163354D01*
X553471D01*
X554127Y164010D01*
Y166634D01*
X553471Y167290D01*
X551503D01*
X555438D02*
Y164010D01*
X556094Y163354D01*
X557406D01*
X558062Y164010D01*
Y167290D01*
X559374D02*
X561998D01*
X560686D01*
Y163354D01*
X526307Y166634D02*
X526963Y167290D01*
X528275D01*
X528931Y166634D01*
Y165978D01*
X528275Y165322D01*
X527619D01*
X528275D01*
X528931Y164666D01*
Y164010D01*
X528275Y163354D01*
X526963D01*
X526307Y164010D01*
X530243Y163354D02*
Y164010D01*
X530899D01*
Y163354D01*
X530243D01*
X533523Y166634D02*
X534179Y167290D01*
X535491D01*
X536146Y166634D01*
Y165978D01*
X535491Y165322D01*
X534834D01*
X535491D01*
X536146Y164666D01*
Y164010D01*
X535491Y163354D01*
X534179D01*
X533523Y164010D01*
X537458Y167290D02*
Y164666D01*
X538770Y163354D01*
X540082Y164666D01*
Y167290D01*
X580506Y166634D02*
X579850Y167290D01*
X578538D01*
X577882Y166634D01*
Y164010D01*
X578538Y163354D01*
X579850D01*
X580506Y164010D01*
Y165322D01*
X579194D01*
X570663Y166634D02*
X570007Y167290D01*
X568695D01*
X568039Y166634D01*
Y164010D01*
X568695Y163354D01*
X570007D01*
X570663Y164010D01*
Y165322D01*
X569351D01*
X710427Y166634D02*
X709771Y167290D01*
X708459D01*
X707803Y166634D01*
Y164010D01*
X708459Y163354D01*
X709771D01*
X710427Y164010D01*
Y165322D01*
X709115D01*
X720663Y166634D02*
X720007Y167290D01*
X718695D01*
X718039Y166634D01*
Y164010D01*
X718695Y163354D01*
X720007D01*
X720663Y164010D01*
Y165322D01*
X719351D01*
D42*
X564811Y289732D02*
G03*
X564811Y289732I-492J0D01*
G01*
X566858Y270047D02*
G03*
X566858Y270047I-492J0D01*
G01*
X621287Y268965D02*
G03*
X621287Y268965I-492J0D01*
G01*
X613413Y197803D02*
G03*
X613413Y197803I-492J0D01*
G01*
X659870Y199772D02*
G03*
X659870Y199772I-492J0D01*
G01*
X701996D02*
G03*
X701996Y199772I-492J0D01*
G01*
X629949Y286779D02*
G03*
X629949Y286779I-492J0D01*
G01*
X690972Y256465D02*
G03*
X690972Y256465I-492J0D01*
G01*
X691760Y284417D02*
G03*
X691760Y284417I-492J0D01*
G01*
X563413Y324969D02*
G03*
X563413Y324969I-492J0D01*
G01*
D43*
X608787Y188945D02*
G03*
X608787Y188945I-1181J0D01*
G01*
X655244Y190913D02*
G03*
X655244Y190913I-1181J0D01*
G01*
X697370D02*
G03*
X697370Y190913I-1181J0D01*
G01*
X636346Y295638D02*
G03*
X636346Y295638I-1181J0D01*
G01*
D44*
X717678Y234878D02*
G03*
X717678Y234878I-2296J0D01*
G01*
X722272Y232646D02*
X720272D01*
X719273Y233645D01*
X720272Y234645D01*
X722272D01*
X720772D01*
Y232646D01*
X723271Y235645D02*
X720272D01*
Y237144D01*
X720772Y237644D01*
X721772D01*
X722272Y237144D01*
Y235645D01*
X720272Y239144D02*
Y240143D01*
X720772Y240643D01*
X722272D01*
Y239144D01*
X721772Y238644D01*
X721272Y239144D01*
Y240643D01*
X720272Y243642D02*
Y242143D01*
X720772Y241643D01*
X721772D01*
X722272Y242143D01*
Y243642D01*
X719273Y244642D02*
X722272D01*
X720772D01*
X720272Y245142D01*
Y246141D01*
X720772Y246641D01*
X722272D01*
Y249140D02*
Y248141D01*
X721772Y247641D01*
X720772D01*
X720272Y248141D01*
Y249140D01*
X720772Y249640D01*
X721272D01*
Y247641D01*
X722272Y255638D02*
Y253639D01*
X720272Y255638D01*
X719772D01*
X719273Y255138D01*
Y254139D01*
X719772Y253639D01*
X722272Y256638D02*
X721772D01*
Y257138D01*
X722272D01*
Y256638D01*
X719772Y259137D02*
X719273Y259637D01*
Y260637D01*
X719772Y261137D01*
X721772D01*
X722272Y260637D01*
Y259637D01*
X721772Y259137D01*
X719772D01*
X719273Y265135D02*
X722272D01*
Y267134D01*
Y268134D02*
Y269134D01*
Y268634D01*
X720272D01*
Y268134D01*
Y272633D02*
Y271133D01*
X720772Y270633D01*
X721772D01*
X722272Y271133D01*
Y272633D01*
Y275132D02*
Y274132D01*
X721772Y273632D01*
X720772D01*
X720272Y274132D01*
Y275132D01*
X720772Y275632D01*
X721272D01*
Y273632D01*
X722272Y276631D02*
X720272D01*
Y278131D01*
X720772Y278631D01*
X722272D01*
Y279630D02*
Y281130D01*
X721772Y281630D01*
X721272Y281130D01*
Y280130D01*
X720772Y279630D01*
X720272Y280130D01*
Y281630D01*
X722272Y284129D02*
Y283129D01*
X721772Y282629D01*
X720772D01*
X720272Y283129D01*
Y284129D01*
X720772Y284629D01*
X721272D01*
Y282629D01*
X714367Y235826D02*
Y234327D01*
X714867Y233827D01*
X715866D01*
X716366Y234327D01*
Y235826D01*
X713367Y239825D02*
X716366D01*
Y241324D01*
X715866Y241824D01*
X715367D01*
X714867D01*
X714367Y241324D01*
Y239825D01*
Y242824D02*
X715866D01*
X716366Y243324D01*
Y244823D01*
X714367D01*
X716366Y245823D02*
X714367D01*
Y247322D01*
X714867Y247822D01*
X716366D01*
Y248822D02*
X714367D01*
Y250322D01*
X714867Y250821D01*
X716366D01*
Y251821D02*
Y252821D01*
Y252321D01*
X714367D01*
Y251821D01*
X716366Y255820D02*
Y254820D01*
X715866Y254320D01*
X714867D01*
X714367Y254820D01*
Y255820D01*
X714867Y256319D01*
X715367D01*
Y254320D01*
Y258819D02*
X714867D01*
Y258319D01*
X715367D01*
Y258819D01*
X714867Y259318D01*
X713867D01*
X713367Y258819D01*
Y257819D01*
X713867Y257319D01*
X715866D01*
X716366Y257819D01*
Y259318D01*
Y260318D02*
X713367D01*
X715367D02*
X714367Y261818D01*
X715367Y260318D02*
X716366Y261818D01*
Y263817D02*
Y264817D01*
X715866Y265317D01*
X714867D01*
X714367Y264817D01*
Y263817D01*
X714867Y263317D01*
X715866D01*
X716366Y263817D01*
Y266316D02*
Y267816D01*
X715866Y268316D01*
X715367Y267816D01*
Y266816D01*
X714867Y266316D01*
X714367Y266816D01*
Y268316D01*
Y269815D02*
Y270815D01*
X714867Y271315D01*
X716366D01*
Y269815D01*
X715866Y269315D01*
X715367Y269815D01*
Y271315D01*
X717366Y273314D02*
Y273814D01*
X716866Y274314D01*
X714367D01*
Y272814D01*
X714867Y272314D01*
X715866D01*
X716366Y272814D01*
Y274314D01*
Y275313D02*
Y276313D01*
Y275813D01*
X714367D01*
Y275313D01*
X716366Y277813D02*
X715866D01*
Y278312D01*
X716366D01*
Y277813D01*
X714367Y282311D02*
Y280812D01*
X714867Y280312D01*
X715866D01*
X716366Y280812D01*
Y282311D01*
Y283811D02*
Y284810D01*
X715866Y285310D01*
X714867D01*
X714367Y284810D01*
Y283811D01*
X714867Y283311D01*
X715866D01*
X716366Y283811D01*
Y286310D02*
X714367D01*
Y286810D01*
X714867Y287310D01*
X716366D01*
X714867D01*
X714367Y287809D01*
X714867Y288309D01*
X716366D01*
X708060Y229133D02*
X707560Y228633D01*
Y227634D01*
X708060Y227134D01*
X708560D01*
X709059Y227634D01*
Y228633D01*
X709559Y229133D01*
X710059D01*
X710559Y228633D01*
Y227634D01*
X710059Y227134D01*
X708560Y230133D02*
X710059D01*
X710559Y230633D01*
Y232132D01*
X708560D01*
X708060Y233632D02*
X708560D01*
Y233132D01*
Y234132D01*
Y233632D01*
X710059D01*
X710559Y234132D01*
X708560Y236131D02*
Y237131D01*
X709059Y237631D01*
X710559D01*
Y236131D01*
X710059Y235631D01*
X709559Y236131D01*
Y237631D01*
X711559Y238630D02*
Y239130D01*
X711059Y239630D01*
X708560D01*
X710559Y241629D02*
Y242629D01*
Y242129D01*
X708560D01*
Y241629D01*
X710559Y244628D02*
Y245628D01*
X710059Y246128D01*
X709059D01*
X708560Y245628D01*
Y244628D01*
X709059Y244128D01*
X710059D01*
X710559Y244628D01*
X707560Y250126D02*
X710559D01*
X709559D01*
X707560Y252126D01*
X709059Y250626D01*
X710559Y252126D01*
Y253625D02*
Y254625D01*
X710059Y255125D01*
X709059D01*
X708560Y254625D01*
Y253625D01*
X709059Y253126D01*
X710059D01*
X710559Y253625D01*
X709059Y256124D02*
Y258124D01*
X707560Y259123D02*
X710059D01*
X710559Y259623D01*
Y260623D01*
X710059Y261123D01*
X707560D01*
X710559Y262123D02*
Y263622D01*
X710059Y264122D01*
X709559Y263622D01*
Y262622D01*
X709059Y262123D01*
X708560Y262622D01*
Y264122D01*
Y265621D02*
Y266621D01*
X709059Y267121D01*
X710559D01*
Y265621D01*
X710059Y265122D01*
X709559Y265621D01*
Y267121D01*
X711559Y269120D02*
Y269620D01*
X711059Y270120D01*
X708560D01*
Y268620D01*
X709059Y268121D01*
X710059D01*
X710559Y268620D01*
Y270120D01*
Y271120D02*
Y272119D01*
Y271620D01*
X708560D01*
Y271120D01*
X710559Y276618D02*
X707560D01*
Y278117D01*
X708060Y278617D01*
X709059D01*
X709559Y278117D01*
Y276618D01*
X708060Y280117D02*
X708560D01*
Y279617D01*
Y280617D01*
Y280117D01*
X710059D01*
X710559Y280617D01*
Y283616D02*
Y282616D01*
X710059Y282116D01*
X709059D01*
X708560Y282616D01*
Y283616D01*
X709059Y284115D01*
X709559D01*
Y282116D01*
X707560Y288114D02*
X710559D01*
Y290113D01*
X708060Y291613D02*
X708560D01*
Y291113D01*
Y292113D01*
Y291613D01*
X710059D01*
X710559Y292113D01*
X707560Y295612D02*
X710559D01*
Y294112D01*
X710059Y293612D01*
X709059D01*
X708560Y294112D01*
Y295612D01*
X612134Y334614D02*
X613133D01*
X612634D01*
Y337613D01*
X612134Y337113D01*
X614633D02*
X615133Y337613D01*
X616133D01*
X616632Y337113D01*
Y335114D01*
X616133Y334614D01*
X615133D01*
X614633Y335114D01*
Y337113D01*
X617632Y334614D02*
X619631Y336613D01*
X620631Y334614D02*
X621631D01*
X621131D01*
Y337613D01*
X620631Y337113D01*
X624630Y334614D02*
Y337613D01*
X623130Y336114D01*
X625130D01*
X614133Y353649D02*
X613633Y354149D01*
X612634D01*
X612134Y353649D01*
Y351649D01*
X612634Y351150D01*
X613633D01*
X614133Y351649D01*
Y352649D01*
X613133D01*
X615133Y351150D02*
Y354149D01*
X616632D01*
X617132Y353649D01*
Y352649D01*
X616632Y352149D01*
X615133D01*
X618132Y354149D02*
Y351150D01*
X619631D01*
X620131Y351649D01*
Y352149D01*
X619631Y352649D01*
X618132D01*
X619631D01*
X620131Y353149D01*
Y353649D01*
X619631Y354149D01*
X618132D01*
X621131D02*
Y351150D01*
X622631D01*
X623130Y351649D01*
Y352149D01*
X622631Y352649D01*
X621131D01*
X622631D01*
X623130Y353149D01*
Y353649D01*
X622631Y354149D01*
X621131D01*
X627129Y351150D02*
Y354149D01*
X628628D01*
X629128Y353649D01*
Y352649D01*
X628628Y352149D01*
X627129D01*
X630128Y354149D02*
Y352149D01*
X631128Y351150D01*
X632127Y352149D01*
Y354149D01*
X633127D02*
X635126D01*
X634127D01*
Y351150D01*
X636126D02*
X637126D01*
X636626D01*
Y354149D01*
X636126Y353649D01*
X612035Y348735D02*
Y345736D01*
X613535D01*
X614035Y346236D01*
Y348235D01*
X613535Y348735D01*
X612035D01*
X616534Y345736D02*
X615534D01*
X615034Y346236D01*
Y347236D01*
X615534Y347736D01*
X616534D01*
X617034Y347236D01*
Y346736D01*
X615034D01*
X618034Y345736D02*
X619533D01*
X620033Y346236D01*
X619533Y346736D01*
X618533D01*
X618034Y347236D01*
X618533Y347736D01*
X620033D01*
X621032Y345736D02*
X622032D01*
X621532D01*
Y347736D01*
X621032D01*
X624531Y344737D02*
X625031D01*
X625531Y345236D01*
Y347736D01*
X624032D01*
X623532Y347236D01*
Y346236D01*
X624032Y345736D01*
X625531D01*
X626531D02*
Y347736D01*
X628030D01*
X628530Y347236D01*
Y345736D01*
X631029D02*
X630030D01*
X629530Y346236D01*
Y347236D01*
X630030Y347736D01*
X631029D01*
X631529Y347236D01*
Y346736D01*
X629530D01*
X634528Y348735D02*
Y345736D01*
X633029D01*
X632529Y346236D01*
Y347236D01*
X633029Y347736D01*
X634528D01*
X638527Y345736D02*
X639527D01*
X639027D01*
Y347736D01*
X638527D01*
X641026Y345736D02*
Y347736D01*
X642526D01*
X643025Y347236D01*
Y345736D01*
X614035Y342724D02*
X613535Y343223D01*
X612535D01*
X612035Y342724D01*
Y342224D01*
X612535Y341724D01*
X613535D01*
X614035Y341224D01*
Y340724D01*
X613535Y340224D01*
X612535D01*
X612035Y340724D01*
X615034Y340224D02*
X616034D01*
X615534D01*
Y342224D01*
X615034D01*
X617534Y340224D02*
Y342224D01*
X619033D01*
X619533Y341724D01*
Y340224D01*
X621532Y339225D02*
X622032D01*
X622532Y339724D01*
Y342224D01*
X621032D01*
X620533Y341724D01*
Y340724D01*
X621032Y340224D01*
X622532D01*
X624032Y342224D02*
X625031D01*
X625531Y341724D01*
Y340224D01*
X624032D01*
X623532Y340724D01*
X624032Y341224D01*
X625531D01*
X626531Y339225D02*
Y342224D01*
X628030D01*
X628530Y341724D01*
Y340724D01*
X628030Y340224D01*
X626531D01*
X630030D02*
X631029D01*
X631529Y340724D01*
Y341724D01*
X631029Y342224D01*
X630030D01*
X629530Y341724D01*
Y340724D01*
X630030Y340224D01*
X632529Y342224D02*
Y340224D01*
Y341224D01*
X633029Y341724D01*
X633529Y342224D01*
X634028D01*
X637027Y340224D02*
X636028D01*
X635528Y340724D01*
Y341724D01*
X636028Y342224D01*
X637027D01*
X637527Y341724D01*
Y341224D01*
X635528D01*
D45*
X544826Y331931D02*
D03*
X561626D02*
D03*
X604092Y336272D02*
D03*
Y336472D02*
D03*
Y336672D02*
D03*
Y336872D02*
D03*
Y337072D02*
D03*
Y337272D02*
D03*
Y337472D02*
D03*
X587292Y337672D02*
D03*
X604092D02*
D03*
Y337872D02*
D03*
X600492Y338672D02*
D03*
X602092Y339072D02*
D03*
X583492Y343872D02*
D03*
X602292Y344072D02*
D03*
X580892Y348272D02*
D03*
X595292Y348472D02*
D03*
X591892Y349672D02*
D03*
X579892Y350472D02*
D03*
X602092D02*
D03*
Y350672D02*
D03*
Y350872D02*
D03*
Y351072D02*
D03*
Y351272D02*
D03*
Y351472D02*
D03*
Y351672D02*
D03*
X582692Y351872D02*
D03*
X602092D02*
D03*
X582892Y352072D02*
D03*
X602092D02*
D03*
X583092Y352272D02*
D03*
X602092D02*
D03*
X583292Y352472D02*
D03*
X602092D02*
D03*
Y352672D02*
D03*
X583692Y352872D02*
D03*
X596292Y353472D02*
D03*
X584292Y353672D02*
D03*
X596492D02*
D03*
X575892Y353872D02*
D03*
X596692D02*
D03*
X592692Y354072D02*
D03*
X602092D02*
D03*
Y354272D02*
D03*
Y354472D02*
D03*
X595492Y354672D02*
D03*
X602092D02*
D03*
X587292Y354872D02*
D03*
X602092D02*
D03*
Y355072D02*
D03*
X596492Y355272D02*
D03*
X584692Y355672D02*
D03*
D46*
X544826Y332131D02*
D03*
X561626D02*
D03*
X548826Y333331D02*
D03*
X557626D02*
D03*
X544826Y353531D02*
D03*
X561626D02*
D03*
X590692Y333472D02*
D03*
X580492Y333672D02*
D03*
X604092Y335472D02*
D03*
Y335672D02*
D03*
Y335872D02*
D03*
X602292Y336272D02*
D03*
X574292Y337672D02*
D03*
X574492Y337872D02*
D03*
X574692Y338072D02*
D03*
X587292D02*
D03*
X574892Y338272D02*
D03*
X575092Y338472D02*
D03*
X600692D02*
D03*
X575292Y338672D02*
D03*
X575492Y338872D02*
D03*
X593292D02*
D03*
X575892Y339472D02*
D03*
X576092Y339672D02*
D03*
X597292D02*
D03*
X597492Y340672D02*
D03*
Y340872D02*
D03*
Y341072D02*
D03*
Y341272D02*
D03*
Y341472D02*
D03*
X590292Y341672D02*
D03*
X597492D02*
D03*
X590492Y341872D02*
D03*
X597492D02*
D03*
X584292Y343072D02*
D03*
X584092Y343272D02*
D03*
X583892Y343472D02*
D03*
X578092Y343672D02*
D03*
X598292Y344072D02*
D03*
X598492Y344472D02*
D03*
X598692Y344672D02*
D03*
X581092Y348072D02*
D03*
X583292Y349672D02*
D03*
X583692Y349872D02*
D03*
X591892D02*
D03*
X583892Y350072D02*
D03*
X574692Y350272D02*
D03*
X584292D02*
D03*
X598492D02*
D03*
X574892Y350472D02*
D03*
X584492D02*
D03*
X600892D02*
D03*
X575292Y350672D02*
D03*
X584692D02*
D03*
X599092D02*
D03*
X575692Y350872D02*
D03*
X579692D02*
D03*
X599292D02*
D03*
X575892Y351072D02*
D03*
X579692D02*
D03*
X576292Y351272D02*
D03*
X579492D02*
D03*
X576492Y351472D02*
D03*
X579292D02*
D03*
X594092D02*
D03*
X576692Y351672D02*
D03*
X579092D02*
D03*
X594292D02*
D03*
X576892Y351872D02*
D03*
X594692D02*
D03*
X577092Y352072D02*
D03*
X578492D02*
D03*
X594892D02*
D03*
X595092Y352272D02*
D03*
X595292Y352472D02*
D03*
X577692Y352672D02*
D03*
X591692D02*
D03*
X577892Y352872D02*
D03*
X591492D02*
D03*
X578092Y353072D02*
D03*
X578292Y353472D02*
D03*
X586892D02*
D03*
X590692D02*
D03*
X578492Y353672D02*
D03*
X578692Y354072D02*
D03*
X587292Y354272D02*
D03*
X592492Y354472D02*
D03*
X592292Y354672D02*
D03*
X585092Y355072D02*
D03*
X591692D02*
D03*
X595292D02*
D03*
X585092Y355272D02*
D03*
X595092D02*
D03*
X602092D02*
D03*
X584892Y355472D02*
D03*
X601692Y355672D02*
D03*
D47*
X544926Y332331D02*
D03*
X580592Y334072D02*
D03*
X599192Y334872D02*
D03*
X594392Y335072D02*
D03*
X598992D02*
D03*
X604192D02*
D03*
X578792Y335272D02*
D03*
X594792D02*
D03*
X594992Y335472D02*
D03*
X595192Y335672D02*
D03*
X601992Y337072D02*
D03*
Y337272D02*
D03*
X601792Y337472D02*
D03*
X601592Y337672D02*
D03*
X601392Y337872D02*
D03*
X587192Y338672D02*
D03*
Y338872D02*
D03*
Y339072D02*
D03*
X586192Y340872D02*
D03*
X585992Y341272D02*
D03*
X585792Y341472D02*
D03*
X585592Y341672D02*
D03*
X585392Y341872D02*
D03*
X577592Y342072D02*
D03*
X577792Y342472D02*
D03*
X577992Y342672D02*
D03*
X599592Y346472D02*
D03*
X594792Y346672D02*
D03*
X594992Y346872D02*
D03*
X595192Y347072D02*
D03*
X581392Y347472D02*
D03*
X595592Y347872D02*
D03*
X591992Y350072D02*
D03*
X601592Y350272D02*
D03*
X585992Y351672D02*
D03*
X586192Y351872D02*
D03*
X585992Y352472D02*
D03*
X601592Y352872D02*
D03*
X575992Y354072D02*
D03*
X584992Y354272D02*
D03*
X578592Y354672D02*
D03*
D48*
X561626Y332331D02*
D03*
X548626Y333531D02*
D03*
X557826D02*
D03*
X544826Y353331D02*
D03*
X561626D02*
D03*
X580492Y333872D02*
D03*
X581092Y335272D02*
D03*
X598892D02*
D03*
X604092D02*
D03*
X595492Y335872D02*
D03*
X595692Y336072D02*
D03*
X595892Y336272D02*
D03*
Y336472D02*
D03*
X596092Y336672D02*
D03*
X596292Y336872D02*
D03*
X602092D02*
D03*
X596492Y337272D02*
D03*
X596692Y337672D02*
D03*
X601092Y338072D02*
D03*
X600892Y338272D02*
D03*
X587292Y338472D02*
D03*
X576892Y340872D02*
D03*
X577292Y341472D02*
D03*
X577492Y341872D02*
D03*
X585292Y342072D02*
D03*
X577692Y342272D02*
D03*
X585092D02*
D03*
X591292Y342472D02*
D03*
X591492Y342672D02*
D03*
X578092Y343472D02*
D03*
X592892Y343872D02*
D03*
X593092Y344272D02*
D03*
X593292Y344472D02*
D03*
X593492Y344672D02*
D03*
X593692Y344872D02*
D03*
Y345072D02*
D03*
X593892Y345272D02*
D03*
X599092D02*
D03*
X594092Y345472D02*
D03*
X599292D02*
D03*
X594092Y345672D02*
D03*
X594292Y345872D02*
D03*
X594692Y346472D02*
D03*
X581292Y347272D02*
D03*
Y347872D02*
D03*
X595492Y348072D02*
D03*
X601692Y350072D02*
D03*
X577692Y352472D02*
D03*
X585092Y352872D02*
D03*
X601692Y353072D02*
D03*
X590892Y353272D02*
D03*
X591892Y354872D02*
D03*
X601892Y355472D02*
D03*
D49*
X544926Y332531D02*
D03*
X561526D02*
D03*
X544926Y353131D02*
D03*
X591592Y333872D02*
D03*
X592192Y334072D02*
D03*
X592792Y334272D02*
D03*
X604192Y334872D02*
D03*
X578192Y342872D02*
D03*
Y343072D02*
D03*
X599792Y345872D02*
D03*
X595592Y347672D02*
D03*
X591992Y350272D02*
D03*
X577792Y352272D02*
D03*
X585792Y352672D02*
D03*
X584392Y353072D02*
D03*
D50*
X545026Y332731D02*
D03*
D51*
X561526D02*
D03*
X544926Y352931D02*
D03*
X561526D02*
D03*
X580392Y334472D02*
D03*
X592192Y350472D02*
D03*
X599592Y353472D02*
D03*
X586792Y354672D02*
D03*
D52*
X545026Y332931D02*
D03*
X561426D02*
D03*
X545026Y352731D02*
D03*
X580292Y334672D02*
D03*
X576692Y354272D02*
D03*
D53*
X545026Y333131D02*
D03*
X561426D02*
D03*
X545026Y352531D02*
D03*
X561426D02*
D03*
X553226Y356731D02*
D03*
D54*
X548926Y333131D02*
D03*
X557526D02*
D03*
X544726Y353731D02*
D03*
X561726D02*
D03*
X602192Y335872D02*
D03*
X592992Y338672D02*
D03*
X590192Y341472D02*
D03*
X577792Y344072D02*
D03*
X601792Y349472D02*
D03*
X574392Y350072D02*
D03*
X591192Y350672D02*
D03*
Y350872D02*
D03*
X582592Y351672D02*
D03*
X596792Y354072D02*
D03*
X598392D02*
D03*
X595592Y354472D02*
D03*
X575192Y354672D02*
D03*
X578792Y354872D02*
D03*
X594592Y355672D02*
D03*
D55*
X545126Y333331D02*
D03*
X561326D02*
D03*
X553326Y355931D02*
D03*
D56*
X545126Y333531D02*
D03*
X561326D02*
D03*
X545126Y352131D02*
D03*
X561326D02*
D03*
X553326Y354731D02*
D03*
X577192Y354472D02*
D03*
D57*
X546126Y333731D02*
D03*
X547126Y336531D02*
D03*
X559326D02*
D03*
X547326Y336931D02*
D03*
X559126D02*
D03*
X547526Y337131D02*
D03*
Y337331D02*
D03*
X558926D02*
D03*
X547526Y337531D02*
D03*
X558926D02*
D03*
X553326Y352531D02*
D03*
X601792Y334672D02*
D03*
X597192Y346272D02*
D03*
D58*
X560426Y333731D02*
D03*
X559026Y337131D02*
D03*
X601692Y334472D02*
D03*
D59*
X546026Y333931D02*
D03*
X560426D02*
D03*
X559826Y335731D02*
D03*
X546826Y335931D02*
D03*
X559626D02*
D03*
X546826Y336131D02*
D03*
X559626D02*
D03*
X547026Y336331D02*
D03*
X559426D02*
D03*
X547226Y336731D02*
D03*
X559226D02*
D03*
X597292Y346072D02*
D03*
X601692Y353672D02*
D03*
D60*
X545926Y334131D02*
D03*
X560526D02*
D03*
X546326Y335131D02*
D03*
X560126D02*
D03*
X546526Y335331D02*
D03*
Y335531D02*
D03*
X559926D02*
D03*
X546726Y335731D02*
D03*
X547526Y337731D02*
D03*
X558926D02*
D03*
X547526Y337931D02*
D03*
X558926D02*
D03*
X546726Y339931D02*
D03*
X559726D02*
D03*
X546726Y340131D02*
D03*
X559926D02*
D03*
X546526Y345331D02*
D03*
X559926D02*
D03*
X546726Y345531D02*
D03*
X559726D02*
D03*
X546926Y345731D02*
D03*
D61*
X545926Y334331D02*
D03*
X560526D02*
D03*
X547526Y338331D02*
D03*
X558926D02*
D03*
X547526Y338531D02*
D03*
X558926D02*
D03*
X547126Y339531D02*
D03*
X559326D02*
D03*
X546926Y339731D02*
D03*
X547126Y346131D02*
D03*
X559326D02*
D03*
D62*
X546026Y334531D02*
D03*
X560426D02*
D03*
X546226Y334731D02*
D03*
X560426D02*
D03*
X546226Y334931D02*
D03*
X560226D02*
D03*
X560026Y335331D02*
D03*
X547626Y338131D02*
D03*
X559026D02*
D03*
X559626Y339731D02*
D03*
X546426Y340331D02*
D03*
X560026D02*
D03*
X559626Y345731D02*
D03*
X547026Y345931D02*
D03*
X559426D02*
D03*
D63*
X547526Y338731D02*
D03*
X558926D02*
D03*
X547526Y338931D02*
D03*
X558926D02*
D03*
X547526Y339131D02*
D03*
X559126D02*
D03*
X545926Y345131D02*
D03*
X560526D02*
D03*
D64*
X547226Y339331D02*
D03*
X559226D02*
D03*
X547426Y346331D02*
D03*
X559026D02*
D03*
X553226Y352331D02*
D03*
D65*
X545726Y340531D02*
D03*
X560726D02*
D03*
X547726Y346531D02*
D03*
X558726D02*
D03*
D66*
X545126Y340731D02*
D03*
X561326D02*
D03*
X558326Y346731D02*
D03*
D67*
X544626Y340931D02*
D03*
X561826D02*
D03*
X544426Y341131D02*
D03*
X562026D02*
D03*
X544426Y341331D02*
D03*
X562026D02*
D03*
X544426Y341531D02*
D03*
Y344131D02*
D03*
X562026D02*
D03*
X544426Y344331D02*
D03*
X562026D02*
D03*
Y344531D02*
D03*
X597892Y339872D02*
D03*
Y340072D02*
D03*
D68*
X562126Y341531D02*
D03*
X544326Y341731D02*
D03*
X562126D02*
D03*
X544326Y341931D02*
D03*
X562126D02*
D03*
X544326Y342131D02*
D03*
X562126D02*
D03*
X544326Y342331D02*
D03*
X562126D02*
D03*
X544326Y342531D02*
D03*
Y342731D02*
D03*
Y342931D02*
D03*
Y343131D02*
D03*
X562126D02*
D03*
X544326Y343331D02*
D03*
X562126D02*
D03*
X544326Y343531D02*
D03*
X562126D02*
D03*
X544326Y343731D02*
D03*
X562126D02*
D03*
X544326Y343931D02*
D03*
X562126D02*
D03*
X544726Y344731D02*
D03*
X561726D02*
D03*
D69*
X562226Y342531D02*
D03*
Y342731D02*
D03*
Y342931D02*
D03*
X553226Y351931D02*
D03*
D70*
X544526Y344531D02*
D03*
D71*
X545426Y344931D02*
D03*
X561226D02*
D03*
X548226Y346731D02*
D03*
D72*
X553226Y346931D02*
D03*
Y347131D02*
D03*
Y348931D02*
D03*
D73*
Y347331D02*
D03*
Y347531D02*
D03*
Y348731D02*
D03*
D74*
Y347731D02*
D03*
Y347931D02*
D03*
Y348131D02*
D03*
Y348331D02*
D03*
D75*
X553326Y348531D02*
D03*
D76*
Y349131D02*
D03*
D77*
X553226Y349331D02*
D03*
D78*
Y349531D02*
D03*
D79*
X553326Y349731D02*
D03*
D80*
X553226Y349931D02*
D03*
D81*
Y350131D02*
D03*
D82*
Y350331D02*
D03*
Y350531D02*
D03*
D83*
Y350731D02*
D03*
Y351731D02*
D03*
D84*
Y350931D02*
D03*
Y351131D02*
D03*
Y351531D02*
D03*
D85*
Y351331D02*
D03*
D86*
X545126Y351931D02*
D03*
X561326D02*
D03*
X553326Y353731D02*
D03*
D87*
X553226Y352131D02*
D03*
D88*
X545026Y352331D02*
D03*
X561426D02*
D03*
X553226Y356131D02*
D03*
Y356331D02*
D03*
Y356531D02*
D03*
X579892Y335072D02*
D03*
D89*
X553226Y352731D02*
D03*
X601692Y334072D02*
D03*
D90*
X561526Y352731D02*
D03*
D91*
X553226Y352931D02*
D03*
Y353131D02*
D03*
Y353331D02*
D03*
Y353531D02*
D03*
X602492Y353872D02*
D03*
D92*
X561626Y353131D02*
D03*
X591092Y333672D02*
D03*
X593292Y334472D02*
D03*
X593692Y334672D02*
D03*
X594092Y334872D02*
D03*
X587092Y339272D02*
D03*
Y339472D02*
D03*
X586892Y339672D02*
D03*
Y339872D02*
D03*
X586692Y340072D02*
D03*
Y340272D02*
D03*
X586492Y340472D02*
D03*
X586292Y340672D02*
D03*
X586092Y341072D02*
D03*
X578292Y343272D02*
D03*
X592892Y343672D02*
D03*
X599492Y345672D02*
D03*
X595292Y347272D02*
D03*
X595492Y347472D02*
D03*
X581492Y347672D02*
D03*
D93*
X553226Y353931D02*
D03*
Y354131D02*
D03*
Y354331D02*
D03*
Y354531D02*
D03*
D94*
Y354931D02*
D03*
Y355131D02*
D03*
Y355331D02*
D03*
Y355531D02*
D03*
Y355731D02*
D03*
D95*
X580392Y333472D02*
D03*
X602192Y336072D02*
D03*
X603992D02*
D03*
X574192Y337472D02*
D03*
X587192Y337872D02*
D03*
X583592Y343672D02*
D03*
X597992D02*
D03*
X577992Y343872D02*
D03*
X598192D02*
D03*
X602392D02*
D03*
X598392Y344272D02*
D03*
X599592Y346872D02*
D03*
X595392Y348272D02*
D03*
X582992Y349472D02*
D03*
X601792Y349672D02*
D03*
X598192Y350072D02*
D03*
X598792Y350472D02*
D03*
X579792Y350672D02*
D03*
X600592D02*
D03*
X584992Y350872D02*
D03*
X585192Y351072D02*
D03*
X599592D02*
D03*
X585392Y351272D02*
D03*
X599792D02*
D03*
X585592Y351472D02*
D03*
X599992D02*
D03*
X600192Y351672D02*
D03*
X600392Y351872D02*
D03*
X600592Y352072D02*
D03*
X600792Y352272D02*
D03*
X591792Y352472D02*
D03*
X600992D02*
D03*
X583592Y352672D02*
D03*
X595592D02*
D03*
X601192D02*
D03*
X586592Y352872D02*
D03*
X595792D02*
D03*
X586592Y353072D02*
D03*
X595992D02*
D03*
X578192Y353272D02*
D03*
X583992D02*
D03*
X586792D02*
D03*
X596192D02*
D03*
X598992D02*
D03*
X584192Y353472D02*
D03*
X586992Y353672D02*
D03*
X578592Y353872D02*
D03*
X584392D02*
D03*
X587192D02*
D03*
X598592D02*
D03*
X584592Y354072D02*
D03*
X587192D02*
D03*
X592592Y354272D02*
D03*
X584792Y354672D02*
D03*
X584992Y354872D02*
D03*
X595392D02*
D03*
X594792Y355472D02*
D03*
X596392D02*
D03*
X596192Y355672D02*
D03*
X595792Y356072D02*
D03*
D96*
X601692Y333872D02*
D03*
D97*
X580492Y334272D02*
D03*
D98*
X601792D02*
D03*
D99*
X579992Y334872D02*
D03*
X586192Y354472D02*
D03*
D100*
X581192Y335472D02*
D03*
X598792D02*
D03*
X581192Y335672D02*
D03*
X598792D02*
D03*
X581192Y335872D02*
D03*
X598792D02*
D03*
X581192Y336072D02*
D03*
X598792D02*
D03*
X581192Y336272D02*
D03*
X598792D02*
D03*
X581192Y336472D02*
D03*
X598792D02*
D03*
X602192D02*
D03*
X581192Y336672D02*
D03*
X598792D02*
D03*
X602192D02*
D03*
X581192Y336872D02*
D03*
X598792D02*
D03*
X581192Y337072D02*
D03*
X596392D02*
D03*
X598792D02*
D03*
X581192Y337272D02*
D03*
X598792D02*
D03*
X581192Y337472D02*
D03*
X596592D02*
D03*
X598792D02*
D03*
X581192Y337672D02*
D03*
X598792D02*
D03*
X581192Y337872D02*
D03*
X596792D02*
D03*
X598792D02*
D03*
X581192Y338072D02*
D03*
X596792D02*
D03*
X598792D02*
D03*
X581192Y338272D02*
D03*
X587192D02*
D03*
X596992D02*
D03*
X598792D02*
D03*
X581192Y338472D02*
D03*
X596992D02*
D03*
X598792D02*
D03*
X581192Y338672D02*
D03*
X596992D02*
D03*
X598792D02*
D03*
X581192Y338872D02*
D03*
X597192D02*
D03*
X598792D02*
D03*
X575592Y339072D02*
D03*
X581192D02*
D03*
X593392D02*
D03*
X597192D02*
D03*
X598792D02*
D03*
X575792Y339272D02*
D03*
X581192D02*
D03*
X593392D02*
D03*
X597192D02*
D03*
X598792D02*
D03*
X602392D02*
D03*
X581192Y339472D02*
D03*
X593392D02*
D03*
X597192D02*
D03*
X598792D02*
D03*
X602392D02*
D03*
X581192Y339672D02*
D03*
X593392D02*
D03*
X598792D02*
D03*
X602392D02*
D03*
X576192Y339872D02*
D03*
X581192D02*
D03*
X576392Y340072D02*
D03*
X581192D02*
D03*
X576592Y340272D02*
D03*
X581192D02*
D03*
X593392D02*
D03*
X597392D02*
D03*
X602392D02*
D03*
X576592Y340472D02*
D03*
X581192D02*
D03*
X593392D02*
D03*
X597392D02*
D03*
X602392D02*
D03*
X576792Y340672D02*
D03*
X581192D02*
D03*
X593392D02*
D03*
X602392D02*
D03*
X581192Y340872D02*
D03*
X593392D02*
D03*
X602392D02*
D03*
X576992Y341072D02*
D03*
X581192D02*
D03*
X593392D02*
D03*
X602392D02*
D03*
X577192Y341272D02*
D03*
X581192D02*
D03*
X593392D02*
D03*
X602392D02*
D03*
X581192Y341472D02*
D03*
X593392D02*
D03*
X602392D02*
D03*
X577392Y341672D02*
D03*
X581192D02*
D03*
X593392D02*
D03*
X602392D02*
D03*
X581192Y341872D02*
D03*
X593392D02*
D03*
X602392D02*
D03*
X581192Y342072D02*
D03*
X590792D02*
D03*
X593392D02*
D03*
X597592D02*
D03*
X602392D02*
D03*
X581192Y342272D02*
D03*
X590992D02*
D03*
X593392D02*
D03*
X597592D02*
D03*
X602392D02*
D03*
X581192Y342472D02*
D03*
X584792D02*
D03*
X593392D02*
D03*
X597592D02*
D03*
X602392D02*
D03*
X581192Y342672D02*
D03*
X584592D02*
D03*
X593392D02*
D03*
X597592D02*
D03*
X602392D02*
D03*
X581192Y342872D02*
D03*
X584392D02*
D03*
X591792D02*
D03*
X593392D02*
D03*
X597592D02*
D03*
X602392D02*
D03*
X581192Y343072D02*
D03*
Y343272D02*
D03*
Y343472D02*
D03*
Y343672D02*
D03*
X602392D02*
D03*
X581192Y343872D02*
D03*
Y344072D02*
D03*
X592992D02*
D03*
X581192Y344272D02*
D03*
Y344472D02*
D03*
Y344672D02*
D03*
Y344872D02*
D03*
X598792D02*
D03*
X581192Y345072D02*
D03*
X598992D02*
D03*
X581192Y345272D02*
D03*
Y345472D02*
D03*
Y345672D02*
D03*
Y345872D02*
D03*
Y346072D02*
D03*
Y346272D02*
D03*
Y346472D02*
D03*
Y346672D02*
D03*
X599592D02*
D03*
X581192Y346872D02*
D03*
Y347072D02*
D03*
X601792Y349872D02*
D03*
X592992Y350672D02*
D03*
X593192Y350872D02*
D03*
X593592Y351072D02*
D03*
X593792Y351272D02*
D03*
X578792Y351872D02*
D03*
X586192Y352072D02*
D03*
Y352272D02*
D03*
X591392Y353072D02*
D03*
X601792Y353272D02*
D03*
Y353472D02*
D03*
X604192Y354072D02*
D03*
X578992Y354272D02*
D03*
X595992Y355872D02*
D03*
D101*
X597292Y343072D02*
D03*
X597492Y343272D02*
D03*
D102*
X597592Y343472D02*
D03*
D103*
X583492Y344072D02*
D03*
X599492Y347072D02*
D03*
X582892Y349272D02*
D03*
X598092Y349872D02*
D03*
X600492Y350872D02*
D03*
X596492Y355072D02*
D03*
D104*
X538906Y278315D02*
X540546D01*
X540874Y278643D01*
Y279299D01*
X540546Y279627D01*
X538906D01*
X540874Y280283D02*
Y280939D01*
Y280611D01*
X538906D01*
X539234Y280283D01*
Y281923D02*
X538906Y282251D01*
Y282907D01*
X539234Y283235D01*
X540546D01*
X540874Y282907D01*
Y282251D01*
X540546Y281923D01*
X539234D01*
X583787Y276346D02*
X582147D01*
X581819Y276019D01*
Y275362D01*
X582147Y275034D01*
X583787D01*
X582147Y274379D02*
X581819Y274051D01*
Y273395D01*
X582147Y273067D01*
X583459D01*
X583787Y273395D01*
Y274051D01*
X583459Y274379D01*
X583131D01*
X582803Y274051D01*
Y273067D01*
X546123Y307514D02*
X545795Y307842D01*
X545139D01*
X544811Y307514D01*
Y306202D01*
X545139Y305874D01*
X545795D01*
X546123Y306202D01*
X548091Y305874D02*
X546779D01*
X548091Y307186D01*
Y307514D01*
X547763Y307842D01*
X547107D01*
X546779Y307514D01*
X548747D02*
X549075Y307842D01*
X549731D01*
X550059Y307514D01*
Y306202D01*
X549731Y305874D01*
X549075D01*
X548747Y306202D01*
Y307514D01*
X585887Y287435D02*
X585559Y287763D01*
X584903D01*
X584575Y287435D01*
Y286123D01*
X584903Y285795D01*
X585559D01*
X585887Y286123D01*
X586543Y285795D02*
X587199D01*
X586871D01*
Y287763D01*
X586543Y287435D01*
X588182Y286123D02*
X588511Y285795D01*
X589166D01*
X589495Y286123D01*
Y287435D01*
X589166Y287763D01*
X588511D01*
X588182Y287435D01*
Y287107D01*
X588511Y286779D01*
X589495D01*
X585362Y323984D02*
X583722D01*
X583394Y323656D01*
Y323000D01*
X583722Y322672D01*
X585362D01*
Y320705D02*
X585034Y321360D01*
X584378Y322016D01*
X583722D01*
X583394Y321688D01*
Y321033D01*
X583722Y320705D01*
X584050D01*
X584378Y321033D01*
Y322016D01*
X681032Y300755D02*
Y299115D01*
X681359Y298787D01*
X682015D01*
X682343Y299115D01*
Y300755D01*
X682999Y298787D02*
X683655D01*
X683327D01*
Y300755D01*
X682999Y300427D01*
X617733Y280983D02*
Y282951D01*
X618717D01*
X619045Y282623D01*
Y281967D01*
X618717Y281639D01*
X617733D01*
X618389D02*
X619045Y280983D01*
X621013D02*
X619701D01*
X621013Y282295D01*
Y282623D01*
X620685Y282951D01*
X620029D01*
X619701Y282623D01*
X662250Y297131D02*
X661922Y296803D01*
Y296147D01*
X662250Y295819D01*
X663562D01*
X663890Y296147D01*
Y296803D01*
X663562Y297131D01*
X661922Y299099D02*
Y297787D01*
X662906D01*
X662578Y298443D01*
Y298771D01*
X662906Y299099D01*
X663562D01*
X663890Y298771D01*
Y298115D01*
X663562Y297787D01*
X666133Y273868D02*
X665805Y274196D01*
X665149D01*
X664821Y273868D01*
Y272556D01*
X665149Y272228D01*
X665805D01*
X666133Y272556D01*
X667773Y272228D02*
Y274196D01*
X666789Y273212D01*
X668101D01*
X643580Y273028D02*
X643252Y273356D01*
X642596D01*
X642268Y273028D01*
Y271716D01*
X642596Y271388D01*
X643252D01*
X643580Y271716D01*
X644236Y273028D02*
X644564Y273356D01*
X645220D01*
X645547Y273028D01*
Y272700D01*
X645220Y272372D01*
X644892D01*
X645220D01*
X645547Y272044D01*
Y271716D01*
X645220Y271388D01*
X644564D01*
X644236Y271716D01*
X643761Y279561D02*
X643433Y279889D01*
X642777D01*
X642449Y279561D01*
Y278249D01*
X642777Y277921D01*
X643433D01*
X643761Y278249D01*
X645729Y277921D02*
X644417D01*
X645729Y279233D01*
Y279561D01*
X645401Y279889D01*
X644745D01*
X644417Y279561D01*
X541847Y323410D02*
Y325377D01*
X542831D01*
X543159Y325049D01*
Y324393D01*
X542831Y324065D01*
X541847D01*
X542503D02*
X543159Y323410D01*
X545127Y325377D02*
X543815D01*
Y324393D01*
X544471Y324721D01*
X544799D01*
X545127Y324393D01*
Y323737D01*
X544799Y323410D01*
X544143D01*
X543815Y323737D01*
X537643Y193553D02*
X537315Y193881D01*
X536659D01*
X536331Y193553D01*
Y192241D01*
X536659Y191913D01*
X537315D01*
X537643Y192241D01*
X538299Y191913D02*
X538954D01*
X538627D01*
Y193881D01*
X538299Y193553D01*
X540922Y191913D02*
Y193881D01*
X539938Y192897D01*
X541250D01*
X551427Y325443D02*
X551098Y325771D01*
X550443D01*
X550115Y325443D01*
Y324131D01*
X550443Y323803D01*
X551098D01*
X551427Y324131D01*
X552082Y323803D02*
X552738D01*
X552411D01*
Y325771D01*
X552082Y325443D01*
X553722Y323803D02*
X554378D01*
X554050D01*
Y325771D01*
X553722Y325443D01*
X578194Y259301D02*
X577866Y259629D01*
X577210D01*
X576882Y259301D01*
Y257989D01*
X577210Y257661D01*
X577866D01*
X578194Y257989D01*
X578850Y257661D02*
X579506D01*
X579178D01*
Y259629D01*
X578850Y259301D01*
X580490D02*
X580818Y259629D01*
X581474D01*
X581802Y259301D01*
Y257989D01*
X581474Y257661D01*
X580818D01*
X580490Y257989D01*
Y259301D01*
X679063Y272802D02*
Y271163D01*
X679391Y270835D01*
X680047D01*
X680375Y271163D01*
Y272802D01*
X681031Y272475D02*
X681359Y272802D01*
X682015D01*
X682343Y272475D01*
Y272147D01*
X682015Y271819D01*
X681687D01*
X682015D01*
X682343Y271491D01*
Y271163D01*
X682015Y270835D01*
X681359D01*
X681031Y271163D01*
X627882Y306661D02*
X629522D01*
X629850Y306989D01*
Y307645D01*
X629522Y307973D01*
X627882D01*
X629850Y309941D02*
Y308629D01*
X628539Y309941D01*
X628210D01*
X627882Y309613D01*
Y308957D01*
X628210Y308629D01*
X669559Y206666D02*
Y205027D01*
X669887Y204699D01*
X670543D01*
X670871Y205027D01*
Y206666D01*
X671527Y206339D02*
X671855Y206666D01*
X672511D01*
X672839Y206339D01*
Y206011D01*
X672511Y205683D01*
X672839Y205355D01*
Y205027D01*
X672511Y204699D01*
X671855D01*
X671527Y205027D01*
Y205355D01*
X671855Y205683D01*
X671527Y206011D01*
Y206339D01*
X671855Y205683D02*
X672511D01*
X623552Y188945D02*
X625192D01*
X625520Y189273D01*
Y189929D01*
X625192Y190257D01*
X623552D01*
Y190913D02*
Y192225D01*
X623880D01*
X625192Y190913D01*
X625520D01*
X577095Y186976D02*
X578735D01*
X579063Y187304D01*
Y187960D01*
X578735Y188288D01*
X577095D01*
Y190256D02*
Y188944D01*
X578079D01*
X577751Y189600D01*
Y189928D01*
X578079Y190256D01*
X578735D01*
X579063Y189928D01*
Y189272D01*
X578735Y188944D01*
X623945Y254299D02*
Y252659D01*
X624273Y252331D01*
X624929D01*
X625257Y252659D01*
Y254299D01*
X626897Y252331D02*
Y254299D01*
X625913Y253315D01*
X627225D01*
X595598Y267291D02*
Y269259D01*
X596582D01*
X596910Y268931D01*
Y268275D01*
X596582Y267947D01*
X595598D01*
X596254D02*
X596910Y267291D01*
X597566Y268931D02*
X597894Y269259D01*
X598550D01*
X598878Y268931D01*
Y268603D01*
X598550Y268275D01*
X598878Y267947D01*
Y267619D01*
X598550Y267291D01*
X597894D01*
X597566Y267619D01*
Y267947D01*
X597894Y268275D01*
X597566Y268603D01*
Y268931D01*
X597894Y268275D02*
X598550D01*
X569220Y188157D02*
X571188D01*
Y187174D01*
X570860Y186846D01*
X570204D01*
X569876Y187174D01*
Y188157D01*
Y187502D02*
X569220Y186846D01*
X571188Y184878D02*
X570860Y185534D01*
X570204Y186190D01*
X569548D01*
X569220Y185862D01*
Y185206D01*
X569548Y184878D01*
X569876D01*
X570204Y185206D01*
Y186190D01*
X639693Y264142D02*
X641661D01*
Y263158D01*
X641333Y262830D01*
X640677D01*
X640349Y263158D01*
Y264142D01*
Y263486D02*
X639693Y262830D01*
Y261190D02*
X641661D01*
X640677Y262174D01*
Y260862D01*
X658639Y289820D02*
Y291788D01*
X659623D01*
X659951Y291460D01*
Y290804D01*
X659623Y290476D01*
X658639D01*
X659295D02*
X659951Y289820D01*
X660607Y291460D02*
X660935Y291788D01*
X661591D01*
X661919Y291460D01*
Y291132D01*
X661591Y290804D01*
X661263D01*
X661591D01*
X661919Y290476D01*
Y290148D01*
X661591Y289820D01*
X660935D01*
X660607Y290148D01*
X621364Y290339D02*
X619396D01*
Y291323D01*
X619724Y291651D01*
X620380D01*
X620708Y291323D01*
Y290339D01*
Y290995D02*
X621364Y291651D01*
Y292307D02*
Y292963D01*
Y292635D01*
X619396D01*
X619724Y292307D01*
X704526Y186073D02*
X704198Y186401D01*
X703542D01*
X703214Y186073D01*
Y184761D01*
X703542Y184433D01*
X704198D01*
X704526Y184761D01*
X705182Y184433D02*
X705838D01*
X705510D01*
Y186401D01*
X705182Y186073D01*
X706822D02*
X707150Y186401D01*
X707806D01*
X708134Y186073D01*
Y185745D01*
X707806Y185417D01*
X708134Y185089D01*
Y184761D01*
X707806Y184433D01*
X707150D01*
X706822Y184761D01*
Y185089D01*
X707150Y185417D01*
X706822Y185745D01*
Y186073D01*
X707150Y185417D02*
X707806D01*
X693681Y213598D02*
X693353Y213926D01*
X692697D01*
X692369Y213598D01*
Y212286D01*
X692697Y211958D01*
X693353D01*
X693681Y212286D01*
X694337Y211958D02*
X694993D01*
X694665D01*
Y213926D01*
X694337Y213598D01*
X695977Y213926D02*
X697289D01*
Y213598D01*
X695977Y212286D01*
Y211958D01*
X561477Y176018D02*
X561149Y176346D01*
X560493D01*
X560165Y176018D01*
Y174706D01*
X560493Y174378D01*
X561149D01*
X561477Y174706D01*
X562133Y174378D02*
X562789D01*
X562461D01*
Y176346D01*
X562133Y176018D01*
X565085Y176346D02*
X564429Y176018D01*
X563773Y175362D01*
Y174706D01*
X564101Y174378D01*
X564757D01*
X565085Y174706D01*
Y175034D01*
X564757Y175362D01*
X563773D01*
X662658Y187829D02*
X662330Y188157D01*
X661674D01*
X661346Y187829D01*
Y186517D01*
X661674Y186189D01*
X662330D01*
X662658Y186517D01*
X663314Y186189D02*
X663970D01*
X663642D01*
Y188157D01*
X663314Y187829D01*
X664954D02*
X665282Y188157D01*
X665938D01*
X666266Y187829D01*
Y187501D01*
X665938Y187173D01*
X665610D01*
X665938D01*
X666266Y186845D01*
Y186517D01*
X665938Y186189D01*
X665282D01*
X664954Y186517D01*
X661871Y203183D02*
X661543Y203511D01*
X660887D01*
X660559Y203183D01*
Y201871D01*
X660887Y201543D01*
X661543D01*
X661871Y201871D01*
X662527Y201543D02*
X663183D01*
X662855D01*
Y203511D01*
X662527Y203183D01*
X665479Y201543D02*
X664167D01*
X665479Y202855D01*
Y203183D01*
X665151Y203511D01*
X664495D01*
X664167Y203183D01*
X615808Y185467D02*
X615480Y185795D01*
X614824D01*
X614496Y185467D01*
Y184155D01*
X614824Y183827D01*
X615480D01*
X615808Y184155D01*
X616464D02*
X616792Y183827D01*
X617448D01*
X617776Y184155D01*
Y185467D01*
X617448Y185795D01*
X616792D01*
X616464Y185467D01*
Y185139D01*
X616792Y184811D01*
X617776D01*
X615502Y201915D02*
X615174Y202243D01*
X614518D01*
X614190Y201915D01*
Y200603D01*
X614518Y200275D01*
X615174D01*
X615502Y200603D01*
X616158Y201915D02*
X616486Y202243D01*
X617142D01*
X617470Y201915D01*
Y201587D01*
X617142Y201259D01*
X617470Y200931D01*
Y200603D01*
X617142Y200275D01*
X616486D01*
X616158Y200603D01*
Y200931D01*
X616486Y201259D01*
X616158Y201587D01*
Y201915D01*
X616486Y201259D02*
X617142D01*
X614303Y274285D02*
X613975Y274612D01*
X613319D01*
X612991Y274285D01*
Y272973D01*
X613319Y272645D01*
X613975D01*
X614303Y272973D01*
X614959Y274612D02*
X616270D01*
Y274285D01*
X614959Y272973D01*
Y272645D01*
X657471Y273868D02*
X657143Y274196D01*
X656487D01*
X656159Y273868D01*
Y272556D01*
X656487Y272228D01*
X657143D01*
X657471Y272556D01*
X659439Y274196D02*
X658783Y273868D01*
X658127Y273212D01*
Y272556D01*
X658455Y272228D01*
X659111D01*
X659439Y272556D01*
Y272884D01*
X659111Y273212D01*
X658127D01*
X641302Y323890D02*
X640974Y324218D01*
X640318D01*
X639990Y323890D01*
Y322578D01*
X640318Y322250D01*
X640974D01*
X641302Y322578D01*
X641958Y322250D02*
X642614D01*
X642286D01*
Y324218D01*
X641958Y323890D01*
X725913Y139732D02*
Y141700D01*
X726897D01*
X727225Y141372D01*
Y140716D01*
X726897Y140388D01*
X725913D01*
X727881Y139732D02*
X728537D01*
X728209D01*
Y141700D01*
X727881Y141372D01*
X765677Y160598D02*
Y158630D01*
X766661D01*
X766989Y158958D01*
Y160270D01*
X766661Y160598D01*
X765677D01*
X768957Y158630D02*
X767645D01*
X768957Y159942D01*
Y160270D01*
X768629Y160598D01*
X767973D01*
X767645Y160270D01*
X756622Y160598D02*
Y158630D01*
X757606D01*
X757934Y158958D01*
Y160270D01*
X757606Y160598D01*
X756622D01*
X758590Y160270D02*
X758918Y160598D01*
X759574D01*
X759902Y160270D01*
Y159942D01*
X759574Y159614D01*
X759246D01*
X759574D01*
X759902Y159286D01*
Y158958D01*
X759574Y158630D01*
X758918D01*
X758590Y158958D01*
X747961Y160598D02*
Y158630D01*
X748945D01*
X749272Y158958D01*
Y160270D01*
X748945Y160598D01*
X747961D01*
X750912Y158630D02*
Y160598D01*
X749929Y159614D01*
X751240D01*
X738512Y160598D02*
Y158630D01*
X739496D01*
X739824Y158958D01*
Y160270D01*
X739496Y160598D01*
X738512D01*
X741792D02*
X740480D01*
Y159614D01*
X741136Y159942D01*
X741464D01*
X741792Y159614D01*
Y158958D01*
X741464Y158630D01*
X740808D01*
X740480Y158958D01*
X771189Y169260D02*
X773157D01*
Y168276D01*
X772829Y167948D01*
X772173D01*
X771845Y168276D01*
Y169260D01*
Y168604D02*
X771189Y167948D01*
X771517Y167292D02*
X771189Y166964D01*
Y166308D01*
X771517Y165980D01*
X772829D01*
X773157Y166308D01*
Y166964D01*
X772829Y167292D01*
X772501D01*
X772173Y166964D01*
Y165980D01*
X601110Y267291D02*
Y269259D01*
X602094D01*
X602422Y268931D01*
Y268275D01*
X602094Y267947D01*
X601110D01*
X601766D02*
X602422Y267291D01*
X603078D02*
X603734D01*
X603406D01*
Y269259D01*
X603078Y268931D01*
X604718D02*
X605046Y269259D01*
X605702D01*
X606030Y268931D01*
Y267619D01*
X605702Y267291D01*
X605046D01*
X604718Y267619D01*
Y268931D01*
X762134Y169260D02*
X764102D01*
Y168276D01*
X763774Y167948D01*
X763118D01*
X762790Y168276D01*
Y169260D01*
Y168604D02*
X762134Y167948D01*
Y167292D02*
Y166636D01*
Y166964D01*
X764102D01*
X763774Y167292D01*
X762134Y165652D02*
Y164996D01*
Y165324D01*
X764102D01*
X763774Y165652D01*
X753079Y169260D02*
X755047D01*
Y168276D01*
X754719Y167948D01*
X754063D01*
X753735Y168276D01*
Y169260D01*
Y168604D02*
X753079Y167948D01*
Y167292D02*
Y166636D01*
Y166964D01*
X755047D01*
X754719Y167292D01*
Y165652D02*
X755047Y165324D01*
Y164668D01*
X754719Y164340D01*
X754391D01*
X754063Y164668D01*
Y164996D01*
Y164668D01*
X753735Y164340D01*
X753407D01*
X753079Y164668D01*
Y165324D01*
X753407Y165652D01*
X557803Y255480D02*
Y257448D01*
X558787D01*
X559115Y257120D01*
Y256464D01*
X558787Y256136D01*
X557803D01*
X558459D02*
X559115Y255480D01*
X559771D02*
X560427D01*
X560099D01*
Y257448D01*
X559771Y257120D01*
X562395Y255480D02*
Y257448D01*
X561411Y256464D01*
X562723D01*
X744024Y169260D02*
X745992D01*
Y168276D01*
X745663Y167948D01*
X745008D01*
X744680Y168276D01*
Y169260D01*
Y168604D02*
X744024Y167948D01*
Y167292D02*
Y166636D01*
Y166964D01*
X745992D01*
X745663Y167292D01*
X745992Y164340D02*
Y165652D01*
X745008D01*
X745335Y164996D01*
Y164668D01*
X745008Y164340D01*
X744352D01*
X744024Y164668D01*
Y165324D01*
X744352Y165652D01*
X548879Y263419D02*
X548551Y263747D01*
X547895D01*
X547567Y263419D01*
Y262107D01*
X547895Y261779D01*
X548551D01*
X548879Y262107D01*
X550847Y261779D02*
X549535D01*
X550847Y263091D01*
Y263419D01*
X550519Y263747D01*
X549863D01*
X549535Y263419D01*
X551503Y261779D02*
X552159D01*
X551831D01*
Y263747D01*
X551503Y263419D01*
X653079Y325559D02*
Y327527D01*
X654063D01*
X654391Y327199D01*
Y326543D01*
X654063Y326215D01*
X653079D01*
X653735D02*
X654391Y325559D01*
X655047Y327527D02*
X656358D01*
Y327199D01*
X655047Y325887D01*
Y325559D01*
D105*
X551504Y231858D02*
Y234857D01*
X553004D01*
X553503Y234358D01*
Y233358D01*
X553004Y232858D01*
X551504D01*
X552504D02*
X553503Y231858D01*
X554503D02*
X555503D01*
X555003D01*
Y234857D01*
X554503Y234358D01*
X559001Y231858D02*
X557002D01*
X559001Y233858D01*
Y234358D01*
X558502Y234857D01*
X557502D01*
X557002Y234358D01*
X553503Y224909D02*
X553004Y225409D01*
X552004D01*
X551504Y224909D01*
Y224409D01*
X552004Y223909D01*
X553004D01*
X553503Y223409D01*
Y222909D01*
X553004Y222410D01*
X552004D01*
X551504Y222909D01*
X556502Y225409D02*
X554503D01*
Y222410D01*
X556502D01*
X554503Y223909D02*
X555503D01*
X557502Y225409D02*
X559501D01*
X558502D01*
Y222410D01*
X540087Y230133D02*
X541086D01*
X540586D01*
Y227134D01*
X540087D01*
X541086D01*
X542586D02*
X544585Y229133D01*
X547084Y230133D02*
X546085D01*
X545585Y229633D01*
Y227634D01*
X546085Y227134D01*
X547084D01*
X547584Y227634D01*
Y229633D01*
X547084Y230133D01*
X551583D02*
Y228134D01*
X552583Y227134D01*
X553582Y228134D01*
Y230133D01*
X556081D02*
X555082D01*
X554582Y229633D01*
Y227634D01*
X555082Y227134D01*
X556081D01*
X556581Y227634D01*
Y229633D01*
X556081Y230133D01*
X557581D02*
Y227134D01*
X559580D01*
X560580Y230133D02*
X562579D01*
X561580D01*
Y227134D01*
X563579D02*
Y229133D01*
X564579Y230133D01*
X565578Y229133D01*
Y227134D01*
Y228633D01*
X563579D01*
X568577Y229633D02*
X568078Y230133D01*
X567078D01*
X566578Y229633D01*
Y227634D01*
X567078Y227134D01*
X568078D01*
X568577Y227634D01*
Y228633D01*
X567578D01*
X571576Y230133D02*
X569577D01*
Y227134D01*
X571576D01*
X569577Y228633D02*
X570577D01*
X766465Y176740D02*
Y178740D01*
X767464Y179739D01*
X768464Y178740D01*
Y176740D01*
Y178240D01*
X766465D01*
X758197Y179739D02*
Y176740D01*
X759696D01*
X760196Y177240D01*
Y177740D01*
X759696Y178240D01*
X758197D01*
X759696D01*
X760196Y178740D01*
Y179239D01*
X759696Y179739D01*
X758197D01*
X750354Y179239D02*
X749854Y179739D01*
X748854D01*
X748354Y179239D01*
Y177240D01*
X748854Y176740D01*
X749854D01*
X750354Y177240D01*
X739299Y179739D02*
Y176740D01*
X740799D01*
X741299Y177240D01*
Y179239D01*
X740799Y179739D01*
X739299D01*
M02*
